#define iconify_width 10
#define iconify_height 10
static unsigned char iconify_bits[] = {
   0xfe, 0x01, 0xff, 0x03, 0xff, 0x03, 0xff, 0x03, 0xff, 0x03, 0xff, 0x03,
   0xff, 0x03, 0xff, 0x03, 0xff, 0x03, 0xfe, 0x01 };
