#define max_toggled_width 10
#define max_toggled_height 10
static unsigned char max_toggled_bits[] = {
   0xfe, 0x01, 0xff, 0x03, 0xff, 0x03, 0xff, 0x03, 0xff, 0x03, 0xff, 0x03,
   0xff, 0x03, 0xff, 0x03, 0xff, 0x03, 0xfe, 0x01 };
