#define shade_toggled_width 10
#define shade_toggled_height 10
static unsigned char shade_toggled_bits[] = {
   0xfe, 0x01, 0xff, 0x03, 0x87, 0x03, 0x03, 0x03, 0x03, 0x03, 0x03, 0x03,
   0x03, 0x03, 0x87, 0x03, 0xff, 0x03, 0xfe, 0x01 };
