/* XPM */
static char * menu_checkbox_mixed_xpm[] = {
"8 8 25 1",
" 	c None",
".	c #BEBEBE",
"+	c #9D9D9D",
"@	c #C5C5C5",
"#	c #C3C3C3",
"$	c #D1D1D1",
"%	c #C7C7C7",
"&	c #747474",
"*	c #8D8D8D",
"=	c #C4C4C4",
"-	c #CDCDCD",
";	c #767676",
">	c #626262",
",	c #9A9A9A",
"'	c #1D1D1D",
")	c #818181",
"!	c #292929",
"~	c #C8C8C8",
"{	c #CBCBCB",
"]	c #636363",
"^	c #040404",
"/	c #3A3A3A",
"(	c #C6C6C6",
"_	c #7E7E7E",
":	c #AEAEAE",
".++++++.",
"+@@@@#$+",
"+@%%@&*+",
"+=-@;>@+",
"+,')!~%+",
"+{]^/%%+",
"+((_:%~+",
".++++++."};
