/* XPM */
static char * menu_radio_on_xpm[] = {
"8 8 9 1",
" 	c None",
"+	c #CDCDCD",
"@	c #4F4F4F",
"#	c #0A0A0A",
"$	c #D3D3D3",
"%	c #FEFEFE",
"&	c #9F9F9F",
"*	c #151515",
"=	c #000000",
" +@##@+ ",
"+#$%%$#+",
"@$&**&$@",
"#%*==*%#",
"#%*==*%#",
"@$&**&$@",
"+#$%%$#+",
" +@##@+ "};
