/* XPM */
static char * menu_radio_mixed_xpm[] = {
"8 8 10 1",
" 	c None",
".	c #FDFDFD",
"+	c #CDCDCD",
"@	c #4F4F4F",
"#	c #0A0A0A",
"$	c #A1A1A1",
"%	c #F9F9F9",
"&	c #9A9A9A",
"*	c #C4C4C4",
"=	c #969696",
" +@##@+ ",
"+#$%&*#+",
"@$.=.=*@",
"#%=.=.&#",
"#&.=.=%#",
"@*=.=.$@",
"+#*&%$#+",
" +@##@+ "};
