/* XPM */
static char * radio_on_xpm[] = {
"13 13 45 1",
" 	c None",
".	c #FDFDFD",
"+	c #E1E1E1",
"@	c #BCBCBC",
"#	c #A5A5A5",
"$	c #9D9D9D",
"%	c #C3C3C3",
"&	c #AAAAAA",
"*	c #C2C2C2",
"=	c #D5D5D5",
"-	c #D6D6D6",
";	c #ADADAD",
">	c #B4B4B4",
",	c #DEDEDE",
"'	c #EAEAEA",
")	c #F7F7F7",
"!	c #FCFCFC",
"~	c #FBFBFB",
"{	c #FEFEFE",
"]	c #FFFFFF",
"^	c #BEBEBE",
"/	c #A8A8A8",
"(	c #E2E2E2",
"_	c #E6E6E6",
":	c #ABABAB",
"<	c #575757",
"[	c #363636",
"}	c #AEAEAE",
"|	c #C4C4C4",
"1	c #E4E4E4",
"2	c #454545",
"3	c #787878",
"4	c #8D8D8D",
"5	c #3B3B3B",
"6	c #D8D8D8",
"7	c #F3F3F3",
"8	c #565656",
"9	c #7F7F7F",
"0	c #4C4C4C",
"a	c #0F0F0F",
"b	c #F5F5F5",
"c	c #2B2B2B",
"d	c #020202",
"e	c #0C0C0C",
"f	c #2C2C2C",
"   +@#$#@+   ",
"  %&*=++-;%  ",
" %>,')!~{]^% ",
"+/(_:<[<}]];+",
"@|1/23435}]6@",
"#678390[a<]b#",
"$1)[40[cd[]]$",
"#_.<3[cea<]b#",
"@6]}5adaf}]6@",
"+;]]}<[<}]];+",
" %^]]]]]]]^% ",
"  %;6b]b6;%  ",
"   +@#$#@+   "};
