/* XPM */
static char * table_checkbox_off_xpm[] = {
"11 11 8 1",
" 	c None",
".	c #FDFDFD",
"+	c #BEBEBE",
"@	c #9D9D9D",
"#	c #E0E0E0",
"$	c #DADADA",
"%	c #F4F4F4",
"&	c #FFFFFF",
"+@@@@@@@@@+",
"@########$@",
"@#%%%%%%%&@",
"@#%%%%%%%&@",
"@#%%%%%%%&@",
"@#%%%%%%%&@",
"@#%%%%%%%&@",
"@#%%%%%%%&@",
"@#%%%%%%%&@",
"@$&&&&&&&&@",
"+@@@@@@@@@+"};
