/* XPM */
static char * table_checkbox_on_xpm[] = {
"11 11 31 1",
" 	c None",
".	c #BEBEBE",
"+	c #9D9D9D",
"@	c #E0E0E0",
"#	c #DADADA",
"$	c #F4F4F4",
"%	c #E7E7E7",
"&	c #BBBBBB",
"*	c #FFFFFF",
"=	c #E2E2E2",
"-	c #6E6E6E",
";	c #000000",
">	c #EBEBEB",
",	c #4E4E4E",
"'	c #D0D0D0",
")	c #CBCBCB",
"!	c #575757",
"~	c #C9C9C9",
"{	c #A4A4A4",
"]	c #ABABAB",
"^	c #F2F2F2",
"/	c #696969",
"(	c #0D0D0D",
"_	c #2F2F2F",
":	c #E5E5E5",
"<	c #E4E4E4",
"[	c #6C6C6C",
"}	c #828282",
"|	c #F3F3F3",
"1	c #EAEAEA",
"2	c #D7D7D7",
".+++++++++.",
"+@@@@@@@@#+",
"+@$$$$$%&*+",
"+@$$$$=-;*+",
"+@$$$>,;'*+",
"+@)!~{;]^*+",
"+@/;(;_:$*+",
"+@<[;;}$$*+",
"+@|1}(2$$*+",
"+#********+",
".+++++++++."};
