#define bullet_width 10
#define bullet_height 10
static unsigned char bullet_bits[] = {
   0x00, 0x00, 0x18, 0x00, 0x70, 0x00, 0xe0, 0x00, 0xc0, 0x01, 0xc0, 0x01,
   0xe0, 0x00, 0x70, 0x00, 0x18, 0x00, 0x00, 0x00 };
