#define close_width 10
#define close_height 10
static unsigned char close_bits[] = {
   0xfe, 0x01, 0xff, 0x03, 0xff, 0x03, 0xff, 0x03, 0xff, 0x03, 0xff, 0x03,
   0xff, 0x03, 0xff, 0x03, 0xff, 0x03, 0xfe, 0x01 };
