#define close_hover_width 10
#define close_hover_height 10
static unsigned char close_hover_bits[] = {
   0xfe, 0x01, 0xff, 0x03, 0x33, 0x03, 0x03, 0x03, 0x87, 0x03, 0x87, 0x03,
   0x03, 0x03, 0x33, 0x03, 0xff, 0x03, 0xfe, 0x01 };
