#define max_toggled_hover_width 10
#define max_toggled_hover_height 10
static unsigned char max_toggled_hover_bits[] = {
   0xfe, 0x01, 0xff, 0x03, 0xcf, 0x03, 0xcf, 0x03, 0x03, 0x03, 0x03, 0x03,
   0xcf, 0x03, 0xcf, 0x03, 0xff, 0x03, 0xfe, 0x01 };
