/* XPM */
static char * checkbox_mixed_xpm[] = {
"13 13 25 1",
" 	c None",
".	c #BEBEBE",
"+	c #9D9D9D",
"@	c #C7C7C7",
"#	c #C4C4C4",
"$	c #CECECE",
"%	c #C5C5C5",
"&	c #D3D3D3",
"*	c #818181",
"=	c #424242",
"-	c #737373",
";	c #C1C1C1",
">	c #000000",
",	c #B2B2B2",
"'	c #6C6C6C",
")	c #909090",
"!	c #C8C8C8",
"~	c #7D7D7D",
"{	c #A4A4A4",
"]	c #1E1E1E",
"^	c #676767",
"/	c #121212",
"(	c #444444",
"_	c #C6C6C6",
":	c #8A8A8A",
".+++++++++++.",
"+@@@@@@@@@@#+",
"+@$$$$$$$$%&+",
"+@$$$$$$$*=&+",
"+@$$$$$$-=;&+",
"+@$$$$$->,$&+",
"+@$')$!>-$$&+",
"+@~>>{=].$$&+",
"+@$^/>>($$$&+",
"+@$_{/>:$$$&+",
"+@$$$)=#$$$&+",
"+#&&&&&&&&&&+",
".+++++++++++."};
