/* XPM */
static char * menu_radio_off_xpm[] = {
"8 8 7 1",
" 	c None",
".	c #FDFDFD",
"+	c #CDCDCD",
"@	c #4F4F4F",
"#	c #0A0A0A",
"$	c #D3D3D3",
"%	c #FEFEFE",
" +@##@+ ",
"+#$%%$#+",
"@$....$@",
"#%....%#",
"#%....%#",
"@$....$@",
"+#$%%$#+",
" +@##@+ "};
