/* XPM */
static char * menu_checkbox_on_xpm[] = {
"8 8 34 1",
" 	c None",
".	c #B3B3B3",
"+	c #B7B7B7",
"@	c #B6B6B6",
"#	c #ECECEC",
"$	c #EFEFEF",
"%	c #E7E7E7",
"&	c #D1D1D1",
"*	c #BFBFBF",
"=	c #F4F4F4",
"-	c #EDEDED",
";	c #747474",
">	c #8D8D8D",
",	c #C3C3C3",
"'	c #E8E8E8",
")	c #CDCDCD",
"!	c #EEEEEE",
"~	c #767676",
"{	c #626262",
"]	c #9A9A9A",
"^	c #1D1D1D",
"/	c #818181",
"(	c #292929",
"_	c #C8C8C8",
":	c #F7F7F7",
"<	c #E0E0E0",
"[	c #636363",
"}	c #040404",
"|	c #3A3A3A",
"1	c #F0F0F0",
"2	c #7E7E7E",
"3	c #AEAEAE",
"4	c #F8F8F8",
"5	c #B8B8B8",
".+++++@.",
"+#$$$%&*",
"+$==-;>,",
"+')!~{#,",
"+]^/(_:,",
"+<[}|=:,",
"@1123:4,",
".*,,,,,5"};
