/* XPM */
static char * radio_mixed_xpm[] = {
"13 13 32 1",
" 	c None",
".	c #FDFDFD",
"+	c #E1E1E1",
"@	c #BCBCBC",
"#	c #A5A5A5",
"$	c #9D9D9D",
"%	c #C3C3C3",
"&	c #AAAAAA",
"*	c #C2C2C2",
"=	c #D5D5D5",
"-	c #D6D6D6",
";	c #ADADAD",
">	c #B4B4B4",
",	c #DEDEDE",
"'	c #EAEAEA",
")	c #F7F7F7",
"!	c #FCFCFC",
"~	c #FBFBFB",
"{	c #FEFEFE",
"]	c #FFFFFF",
"^	c #BEBEBE",
"/	c #A8A8A8",
"(	c #E2E2E2",
"_	c #E5E5E5",
":	c #F6F6F6",
"<	c #BDBDBD",
"[	c #C4C4C4",
"}	c #E4E4E4",
"|	c #D8D8D8",
"1	c #F3F3F3",
"2	c #F5F5F5",
"3	c #E6E6E6",
"   +@#$#@+   ",
"  %&*=++-;%  ",
" %>,')!~{]^% ",
"+/(]_:<:_]];+",
"@[}_]<]<]_]|@",
"#|1:<]<]<:]2#",
"$})<]<]<]<]]$",
"#3.:<]<]<:]2#",
"@|]_]<]<]_]|@",
"+;]]_:<:_]];+",
" %^]]]]]]]^% ",
"  %;|2]2|;%  ",
"   +@#$#@+   "};
