/* XPM */
static char * table_checkbox_mixed_xpm[] = {
"11 11 25 1",
" 	c None",
".	c #BEBEBE",
"+	c #9D9D9D",
"@	c #C6C6C6",
"#	c #C4C4C4",
"$	c #CDCDCD",
"%	c #C9C9C9",
"&	c #BBBBBB",
"*	c #D1D1D1",
"=	c #C7C7C7",
"-	c #6E6E6E",
";	c #000000",
">	c #CACACA",
",	c #4E4E4E",
"'	c #CCCCCC",
")	c #CBCBCB",
"!	c #575757",
"~	c #A4A4A4",
"{	c #ABABAB",
"]	c #696969",
"^	c #0D0D0D",
"/	c #2F2F2F",
"(	c #C8C8C8",
"_	c #6C6C6C",
":	c #828282",
".+++++++++.",
"+@@@@@@@@#+",
"+@$$$$$%&*+",
"+@$$$$=-;*+",
"+@$$$>,;'*+",
"+@)!%~;{$*+",
"+@];^;/($*+",
"+@(_;;:$$*+",
"+@$>:^=$$*+",
"+#********+",
".+++++++++."};
