/* XPM */
static char * close_inactive_xpm[] = {
"42 23 92 2",
"  	g None",
". 	g #979797",
"+ 	g #F6F6F6",
"@ 	g #E5E5E5",
"# 	g #E6E6E6",
"$ 	g #E7E7E7",
"% 	g #E8E8E8",
"& 	g #EDEDED",
"* 	g #F4F4F4",
"= 	g #E0E0E0",
"- 	g #E1E1E1",
"; 	g #E2E2E2",
"> 	g #E3E3E3",
", 	g #E4E4E4",
"' 	g #E9E9E9",
") 	g #F2F2F2",
"! 	g #DBDBDB",
"~ 	g #DCDCDC",
"{ 	g #DDDDDD",
"] 	g #DEDEDE",
"^ 	g #DFDFDF",
"/ 	g #CDCDCD",
"( 	g #C1C1C1",
"_ 	g #F0F0F0",
": 	g #D6D6D6",
"< 	g #D7D7D7",
"[ 	g #D8D8D8",
"} 	g #D9D9D9",
"| 	g #DADADA",
"1 	g #BEBEBE",
"2 	g #FFFFFF",
"3 	g #CACACA",
"4 	g #EFEFEF",
"5 	g #D2D2D2",
"6 	g #D3D3D3",
"7 	g #D4D4D4",
"8 	g #D5D5D5",
"9 	g #C7C7C7",
"0 	g #BCBCBC",
"a 	g #FEFEFE",
"b 	g #EEEEEE",
"c 	g #CFCFCF",
"d 	g #D0D0D0",
"e 	g #D1D1D1",
"f 	g #C6C6C6",
"g 	g #BBBBBB",
"h 	g #FCFCFC",
"i 	g #A6A6A6",
"j 	g #A8A8A8",
"k 	g #A9A9A9",
"l 	g #AAAAAA",
"m 	g #ABABAB",
"n 	g #ACACAC",
"o 	g #ADADAD",
"p 	g #AEAEAE",
"q 	g #AFAFAF",
"r 	g #B0B0B0",
"s 	g #B1B1B1",
"t 	g #A2A2A2",
"u 	g #A7A7A7",
"v 	g #989898",
"w 	g #A1A1A1",
"x 	g #C2C2C2",
"y 	g #999999",
"z 	g #B2B2B2",
"A 	g #A3A3A3",
"B 	g #C3C3C3",
"C 	g #9B9B9B",
"D 	g #B3B3B3",
"E 	g #B4B4B4",
"F 	g #B5B5B5",
"G 	g #A5A5A5",
"H 	g #C5C5C5",
"I 	g #9C9C9C",
"J 	g #B6B6B6",
"K 	g #B7B7B7",
"L 	g #B8B8B8",
"M 	g #EBEBEB",
"N 	g #C8C8C8",
"O 	g #9D9D9D",
"P 	g #9E9E9E",
"Q 	g #B9B9B9",
"R 	g #BABABA",
"S 	g #BDBDBD",
"T 	g #9F9F9F",
"U 	g #C0C0C0",
"V 	g #C4C4C4",
"W 	g #A0A0A0",
"X 	g #CECECE",
"Y 	g #A4A4A4",
"Z 	g #949494",
"` 	g #F7F7F7",
"                                                                                    ",
". + @ @ @ # # # # $ $ $ % % % % % % % % % % % % % % % % % $ $ $ $ # # # @ @ @ @ & . ",
". * = = - - - - ; ; ; > > > > , , , , , , , , , , , , > > > > ; ; - - - - - = = ' . ",
". ) ! ! ! ~ ~ { { { { ] ] ^ ^ / ( ( ( / ^ / ( ( ( / ^ ^ ] ] ] { { { ~ ~ ! ! ! ! @ . ",
". _ : : < < < [ [ [ } | | | ! 1 2 2 2 1 3 1 2 2 2 1 ! | | | } } [ [ [ < < < : : ; . ",
". 4 5 5 5 6 6 7 7 8 8 : : : < 9 0 a a a 0 a a a 0 9 < < : : 8 8 8 7 7 6 6 5 5 5 ^ . ",
". b c c d e e 5 5 6 6 7 7 7 8 8 f g h h h h h g f 8 8 7 7 7 7 6 6 5 5 e e d d c ] . ",
". = i i j k k l m n o p q r r s s j t * * * t j s s r r q p p o n m l k j j u i ( . ",
"v = i u j k l l m n o p q q r r s u w * * * w u s r r r q q p o n m l l k j u u x v ",
"y - u u k l m n n o p q r s z z k A _ _ _ _ _ A k z z s r q q p o n n l l k j u B y ",
"C ; j k l m n p p r r z D E F m G & & & G & & & G n F E D z s r q p o n m l k k H C ",
"I > m m o p q r z D E F J K L u M M M u q u M M M u L K K J F D z s r q p o n m N O ",
"P @ o p r s z E F J L Q R g 0 z l l l z S z l l l z S g g Q L K J E D z s r q D f A ",
"T # r r D E J K Q g S 1 U x B V H H H H H H H H H H B B ( U 1 0 R Q K F E z K 9 Q L ",
"W b X c 5 6 8 < } ! { ^ - ; , @ # # # # # # # # # @ , > - = ] ~ | [ : 7 6 5 3 R Y b ",
"Z A A A i u j l n o q s D E F J K K K K K K K K K J F E D s r q o m k j u G l R ` 2 ",
"2 2 2 2 2 2 2 2 2 2 2 2 2 2 2 2 2 2 2 2 2 2 2 2 2 2 2 2 2 2 2 2 2 2 2 2 2 2 2 2 2   ",
"                                                                                    ",
"                                                                                    ",
"                                                                                    ",
"                                                                                    ",
"                                                                                    ",
"                                                                                    "};
