/* XPM */
static char * close_pressed_xpm[] = {
"42 23 423 2",
"  	c None",
". 	c #1D0501",
"+ 	c #E9E6E5",
"@ 	c #C1B6B4",
"# 	c #C2B6B4",
"$ 	c #C3B7B4",
"% 	c #C4B7B4",
"& 	c #C5B7B4",
"* 	c #C6B7B4",
"= 	c #C7B7B4",
"- 	c #C7B8B4",
"; 	c #D4CCCB",
"> 	c #1F0602",
", 	c #E5E1E0",
"' 	c #B6A8A6",
") 	c #B8A9A6",
"! 	c #B9A9A6",
"~ 	c #BAA9A6",
"{ 	c #BBA9A6",
"] 	c #BCA9A6",
"^ 	c #BDA9A6",
"/ 	c #BEA9A6",
"( 	c #BEAAA6",
"_ 	c #B9A9A7",
": 	c #CEC3C2",
"< 	c #210602",
"[ 	c #230602",
"} 	c #E1DCDB",
"| 	c #AA9A97",
"1 	c #AC9A97",
"2 	c #AD9B97",
"3 	c #AF9B97",
"4 	c #B09B97",
"5 	c #B29B97",
"6 	c #B49B97",
"7 	c #B59B97",
"8 	c #B69C97",
"9 	c #B79C97",
"0 	c #96807B",
"a 	c #7F6C68",
"b 	c #B89C97",
"c 	c #B39B97",
"d 	c #B29B98",
"e 	c #B19B98",
"f 	c #B09B98",
"g 	c #C7B9B7",
"h 	c #250602",
"i 	c #270702",
"j 	c #DDD7D6",
"k 	c #9F8C89",
"l 	c #A38D89",
"m 	c #A58D89",
"n 	c #A78E8A",
"o 	c #A98E89",
"p 	c #AB8E89",
"q 	c #AD8E89",
"r 	c #AE8E89",
"s 	c #B18E89",
"t 	c #B18F89",
"u 	c #B18F88",
"v 	c #B38F88",
"w 	c #7C635E",
"x 	c #FFFFFF",
"y 	c #93766F",
"z 	c #B28F88",
"A 	c #B08E89",
"B 	c #AD8E8A",
"C 	c #AC8E8A",
"D 	c #AB8E8A",
"E 	c #AA8E8A",
"F 	c #C4B0AD",
"G 	c #2B0802",
"H 	c #2C0802",
"I 	c #DAD3D2",
"J 	c #97817D",
"K 	c #9C817D",
"L 	c #A0827D",
"M 	c #A3837D",
"N 	c #A5847D",
"O 	c #A9847D",
"P 	c #AB847D",
"Q 	c #AC847D",
"R 	c #AF847D",
"S 	c #B0847D",
"T 	c #B2847D",
"U 	c #B2857D",
"V 	c #B3857D",
"W 	c #936D66",
"X 	c #7C5C56",
"Y 	c #FDFDFD",
"Z 	c #B1847D",
"` 	c #AE847D",
" .	c #AA847D",
"..	c #A8847D",
"+.	c #A7847D",
"@.	c #C1A9A4",
"#.	c #310802",
"$.	c #300802",
"%.	c #D9D1CF",
"&.	c #937A76",
"*.	c #9A7C76",
"=.	c #9F7C76",
"-.	c #A37D76",
";.	c #A77E76",
">.	c #AB7F76",
",.	c #AE7F76",
"'.	c #B17F76",
").	c #B38076",
"!.	c #B68176",
"~.	c #B78176",
"{.	c #B88176",
"].	c #BA8176",
"^.	c #986960",
"/.	c #805951",
"(.	c #FAFAFA",
"_.	c #B98176",
":.	c #B58176",
"<.	c #B28076",
"[.	c #B07F77",
"}.	c #AE7F77",
"|.	c #AC7F77",
"1.	c #AB7F77",
"2.	c #AA7E78",
"3.	c #C3A5A1",
"4.	c #390A03",
"5.	c #360903",
"6.	c #B8A9A7",
"7.	c #3A0A03",
"8.	c #4A0D03",
"9.	c #540F03",
"0.	c #5E1104",
"a.	c #671203",
"b.	c #701304",
"c.	c #771403",
"d.	c #7D1503",
"e.	c #821603",
"f.	c #861703",
"g.	c #891702",
"h.	c #8B1802",
"i.	c #8D1802",
"j.	c #8E1801",
"k.	c #8F1801",
"l.	c #751401",
"m.	c #631101",
"n.	c #E9E9E9",
"o.	c #871702",
"p.	c #851703",
"q.	c #7F1603",
"r.	c #7B1504",
"s.	c #771504",
"t.	c #751405",
"u.	c #731405",
"v.	c #711405",
"w.	c #6F1305",
"x.	c #9A5A50",
"y.	c #420B03",
"z.	c #3E0A03",
"A.	c #BAA9A7",
"B.	c #3C0C03",
"C.	c #4E0F03",
"D.	c #591104",
"E.	c #641404",
"F.	c #6F1504",
"G.	c #791604",
"H.	c #811704",
"I.	c #881903",
"J.	c #8F1A03",
"K.	c #931A03",
"L.	c #961B02",
"M.	c #981B02",
"N.	c #9A1C02",
"O.	c #9C1C02",
"P.	c #9D1C02",
"Q.	c #801701",
"R.	c #6C1301",
"S.	c #9B1C02",
"T.	c #991C02",
"U.	c #941B02",
"V.	c #911A03",
"W.	c #8C1903",
"X.	c #891904",
"Y.	c #861905",
"Z.	c #821905",
"`.	c #801805",
" +	c #7E1705",
".+	c #7B1605",
"++	c #7A1606",
"@+	c #A45D51",
"#+	c #4A0E04",
"$+	c #450C03",
"%+	c #BBABA7",
"&+	c #3D0E04",
"*+	c #511305",
"=+	c #5E1605",
"-+	c #6A1805",
";+	c #751B06",
">+	c #7F1D05",
",+	c #891F05",
"'+	c #902105",
")+	c #972204",
"!+	c #9B2304",
"~+	c #9E2304",
"{+	c #A12403",
"]+	c #A32503",
"^+	c #A52603",
"/+	c #881F02",
"(+	c #731A02",
"_+	c #E2E2E2",
":+	c #A62603",
"<+	c #A42503",
"[+	c #A22403",
"}+	c #9F2403",
"|+	c #9D2304",
"1+	c #972304",
"2+	c #952205",
"3+	c #912105",
"4+	c #8F2106",
"5+	c #8C1F07",
"6+	c #891F07",
"7+	c #851E07",
"8+	c #831E07",
"9+	c #821E08",
"0+	c #AD6152",
"a+	c #511204",
"b+	c #4B0E04",
"c+	c #3E1206",
"d+	c #531707",
"e+	c #601B07",
"f+	c #6D1E08",
"g+	c #792308",
"h+	c #842508",
"i+	c #8D2807",
"j+	c #962B07",
"k+	c #9C2C06",
"l+	c #9F2E07",
"m+	c #A33007",
"n+	c #A53206",
"o+	c #A73206",
"p+	c #8A2A05",
"q+	c #752304",
"r+	c #DCDCDC",
"s+	c #8B2A05",
"t+	c #A83206",
"u+	c #A63206",
"v+	c #A43106",
"w+	c #A22F07",
"x+	c #9C2D07",
"y+	c #992B07",
"z+	c #972B07",
"A+	c #932908",
"B+	c #8F2809",
"C+	c #8E2709",
"D+	c #8A2609",
"E+	c #892409",
"F+	c #87240A",
"G+	c #B56752",
"H+	c #581604",
"I+	c #501104",
"J+	c #BCADA7",
"K+	c #3D1709",
"L+	c #531E09",
"M+	c #62230A",
"N+	c #6E280B",
"O+	c #7B2C0B",
"P+	c #86300B",
"Q+	c #8F350B",
"R+	c #97390A",
"S+	c #9D3A0A",
"T+	c #A23D0A",
"U+	c #A53E09",
"V+	c #A74109",
"W+	c #A94209",
"X+	c #762E06",
"Y+	c #D7D7D7",
"Z+	c #772E06",
"`+	c #8D3707",
" @	c #AA4208",
".@	c #A84209",
"+@	c #A53F09",
"@@	c #A33E0A",
"#@	c #9D3A0B",
"$@	c #9C390B",
"%@	c #98370C",
"&@	c #96350C",
"*@	c #93340C",
"=@	c #91330C",
"-@	c #8D310C",
";@	c #8B2F0C",
">@	c #8B2F0D",
",@	c #BA6E53",
"'@	c #5F1D05",
")@	c #561404",
"!@	c #BCAEA7",
"~@	c #3D1D0D",
"{@	c #53260E",
"]@	c #622C0E",
"^@	c #6F310F",
"/@	c #7B360F",
"(@	c #863D10",
"_@	c #8F410F",
":@	c #98460F",
"<@	c #9E4910",
"[@	c #A24D10",
"}@	c #A64E10",
"|@	c #A75110",
"1@	c #A9520F",
"2@	c #8C450C",
"3@	c #763A0A",
"4@	c #AB540F",
"5@	c #AA530F",
"6@	c #A85110",
"7@	c #A65010",
"8@	c #A44D10",
"9@	c #A24C10",
"0@	c #9D4810",
"a@	c #994310",
"b@	c #974311",
"c@	c #943F11",
"d@	c #923F12",
"e@	c #8F3D12",
"f@	c #8E3B12",
"g@	c #974219",
"h@	c #B86E4B",
"i@	c #6C2B0C",
"j@	c #5B1904",
"k@	c #BDAFA8",
"l@	c #3C2110",
"m@	c #532C12",
"n@	c #623312",
"o@	c #6F3A13",
"p@	c #7B4214",
"q@	c #864813",
"r@	c #8F5014",
"s@	c #975514",
"t@	c #9E5C14",
"u@	c #A26014",
"v@	c #A56414",
"w@	c #A76814",
"x@	c #A86A13",
"y@	c #A96D13",
"z@	c #AB6D13",
"A@	c #AA6D13",
"B@	c #A96B13",
"C@	c #A76913",
"D@	c #A56514",
"E@	c #A46214",
"F@	c #A15F14",
"G@	c #9F5B15",
"H@	c #9C5815",
"I@	c #9A5415",
"J@	c #975016",
"K@	c #944D16",
"L@	c #934A16",
"M@	c #8F4616",
"N@	c #9F4D1B",
"O@	c #BE6E41",
"P@	c #9C552E",
"Q@	c #916043",
"R@	c #632207",
"S@	c #D1C8C2",
"T@	c #826351",
"U@	c #966F53",
"V@	c #A37553",
"W@	c #AF7D53",
"X@	c #BA8554",
"Y@	c #C38C55",
"Z@	c #CB9455",
"`@	c #D29B55",
" #	c #D9A255",
".#	c #DCA855",
"+#	c #DEAC55",
"@#	c #E0AF55",
"##	c #E2B355",
"$#	c #E2B655",
"%#	c #E4B755",
"&#	c #E3B655",
"*#	c #E2B455",
"=#	c #E0B255",
"-#	c #DEAD55",
";#	c #DDAA55",
">#	c #DBA555",
",#	c #D9A155",
"'#	c #D79C55",
")#	c #D59855",
"!#	c #D29355",
"~#	c #D08F55",
"{#	c #CF8D55",
"]#	c #CC8956",
"^#	c #BE7B4C",
"/#	c #9D592D",
"(#	c #6B310A",
"_#	c #DEDEDE",
":#	c #291203",
"<#	c #2E1404",
"[#	c #401D05",
"}#	c #4B2406",
"|#	c #552B06",
"1#	c #5E3106",
"2#	c #663707",
"3#	c #6E3F07",
"4#	c #744507",
"5#	c #7A4A07",
"6#	c #7C4F07",
"7#	c #7E5307",
"8#	c #805507",
"9#	c #815907",
"0#	c #825C07",
"a#	c #835C07",
"b#	c #825907",
"c#	c #805707",
"d#	c #7E5407",
"e#	c #7E5107",
"f#	c #7B4D07",
"g#	c #7A4907",
"h#	c #784507",
"i#	c #764108",
"j#	c #743D08",
"k#	c #723908",
"l#	c #713708",
"m#	c #6E3408",
"n#	c #7B3A0C",
"o#	c #9B633B",
"p#	c #EFEFEF",
"                                                                                    ",
". + @ # # $ $ % % & & & * * = - - - - - - - - - - - = * * & & & & & % % $ $ $ # ; . ",
"> , ' ' ) ) ! ~ { ] ^ ^ / ( ( ( ( ( ( ( ( ( ( ( ( ( ( ( / / ^ ] ] { { ~ ~ ~ ! _ : < ",
"[ } | 1 2 3 4 5 5 6 7 8 8 8 9 0 a a a 0 b 0 a a a 0 b 8 8 8 8 7 6 c c 5 d e e f g h ",
"i j k l m n o p q r s t u v v w x x x w y w x x x w v v z u t A r r B C C D E E F G ",
"H I J K L M N O P Q R S T U V W X Y Y Y X Y Y Y X W V V T Z R R ` Q Q  .O O ..+.@.#.",
"$.%.&.*.=.-.;.>.,.'.).!.!.~.{.].^./.(.(.(.(.(./.^.]._.~.~.!.:.).<.'.[.}.|.|.1.2.3.4.",
"5.6.7.8.9.0.a.b.c.d.e.f.g.h.i.j.k.l.m.n.n.n.m.l.k.k.i.h.g.o.p.e.q.d.r.s.t.u.v.w.x.y.",
"z.A.B.C.D.E.F.G.H.I.J.K.L.M.N.O.P.Q.R.n.n.n.R.Q.P.O.S.T.L.U.V.J.W.X.Y.Z.`. +.+++@+#+",
"$+%+&+*+=+-+;+>+,+'+)+!+~+{+]+^+/+(+_+_+_+_+_+(+/+:+<+[+}+|+!+1+2+3+4+5+6+7+8+9+0+a+",
"b+%+c+d+e+f+g+h+i+j+k+l+m+n+o+p+q+r+r+r+q+r+r+r+q+s+t+u+v+w+l+x+y+z+A+B+C+D+E+F+G+H+",
"I+J+K+L+M+N+O+P+Q+R+S+T+U+V+W+X+Y+Y+Y+Z+`+Z+Y+Y+Y+Z+ @.@+@@@T+#@$@%@&@*@=@-@;@>@,@'@",
")@!@~@{@]@^@/@(@_@:@<@[@}@|@1@2@3@3@3@2@4@2@3@3@3@2@5@6@7@8@9@<@0@a@b@c@d@e@f@g@h@i@",
"j@k@l@m@n@o@p@q@r@s@t@u@v@w@x@y@z@z@z@z@z@z@z@z@z@A@B@C@D@E@F@G@H@I@J@K@L@M@N@O@P@Q@",
"R@S@T@U@V@W@X@Y@Z@`@ #.#+#@###$#%#%#%#%#%#%#%#%#%#&#*#=#-#;#>#,#'#)#!#~#{#]#^#/#(#_#",
"H :#<#[#}#|#1#2#3#4#5#6#7#8#9#0#a#a#a#a#a#a#a#a#a#0#b#c#d#e#f#g#h#i#j#k#l#m#n#o#p#x ",
"x x x x x x x x x x x x x x x x x x x x x x x x x x x x x x x x x x x x x x x x x   ",
"                                                                                    ",
"                                                                                    ",
"                                                                                    ",
"                                                                                    ",
"                                                                                    ",
"                                                                                    "};
