/* XPM */
static char * close_active_xpm[] = {
"42 23 457 2",
"  	c None",
". 	c #6A1A07",
"+ 	c #F9E8E6",
"@ 	c #EDBEB7",
"# 	c #EEBEB7",
"$ 	c #F0BEB6",
"% 	c #F2BEB6",
"& 	c #F3BEB6",
"* 	c #F4BFB6",
"= 	c #F5BFB6",
"- 	c #F7BFB6",
"; 	c #F9BFB6",
"> 	c #FAC0B6",
", 	c #FCC0B5",
"' 	c #FDC0B5",
") 	c #FEC0B4",
"! 	c #FFC0B4",
"~ 	c #FEC0B5",
"{ 	c #FBC0B5",
"] 	c #F8BFB6",
"^ 	c #F1BEB6",
"/ 	c #EFBEB6",
"( 	c #F2D2CD",
"_ 	c #761406",
": 	c #F8E4E1",
"< 	c #EAB1A9",
"[ 	c #EBB1A9",
"} 	c #EDB2A8",
"| 	c #EFB2A8",
"1 	c #F0B2A8",
"2 	c #F2B2A8",
"3 	c #F4B2A8",
"4 	c #F6B3A7",
"5 	c #F8B3A7",
"6 	c #F9B4A7",
"7 	c #FBB4A7",
"8 	c #FCB4A7",
"9 	c #FDB4A7",
"0 	c #FEB4A6",
"a 	c #FFB4A6",
"b 	c #FEB4A7",
"c 	c #FAB4A7",
"d 	c #F8B4A7",
"e 	c #F5B3A7",
"f 	c #F3B2A8",
"g 	c #ECB1A8",
"h 	c #F0C9C3",
"i 	c #F7DFDC",
"j 	c #E7A49A",
"k 	c #EAA49A",
"l 	c #ECA59A",
"m 	c #EEA599",
"n 	c #F0A699",
"o 	c #F2A698",
"p 	c #F4A698",
"q 	c #F6A698",
"r 	c #F8A798",
"s 	c #FAA798",
"t 	c #FCA798",
"u 	c #FDA798",
"v 	c #D0887B",
"w 	c #B07368",
"x 	c #D1887B",
"y 	c #FFA797",
"z 	c #F9A798",
"A 	c #F7A798",
"B 	c #F5A698",
"C 	c #F3A698",
"D 	c #EFA699",
"E 	c #EBA49A",
"F 	c #E9A49A",
"G 	c #EEBFB8",
"H 	c #F5DBD7",
"I 	c #E3978C",
"J 	c #E4978C",
"K 	c #E7998C",
"L 	c #EA998C",
"M 	c #EB998B",
"N 	c #ED998B",
"O 	c #F0998B",
"P 	c #F3998A",
"Q 	c #F59A8A",
"R 	c #F79B8A",
"S 	c #FA9B8A",
"T 	c #FB9B8A",
"U 	c #FD9B8A",
"V 	c #AF6B5F",
"W 	c #FFFFFF",
"X 	c #B06B5F",
"Y 	c #D17F70",
"Z 	c #FE9B8A",
"` 	c #FC9B8A",
" .	c #F89B8A",
"..	c #F69B8A",
"+.	c #F39A8A",
"@.	c #F2998A",
"#.	c #E9998C",
"$.	c #E5988C",
"%.	c #EBB6AF",
"&.	c #F5D7D3",
"*.	c #E18D81",
"=.	c #E48E81",
"-.	c #E88F81",
";.	c #E98F80",
">.	c #EC8F80",
",.	c #EF8F7F",
"'.	c #F18F7E",
").	c #F4907E",
"!.	c #F6907E",
"~.	c #F9907D",
"{.	c #FA917D",
"].	c #FD917D",
"^.	c #CF7866",
"/.	c #B06556",
"(.	c #FDFDFD",
"_.	c #D07866",
":.	c #FB917D",
"<.	c #FA907D",
"[.	c #F7907D",
"}.	c #F5907E",
"|.	c #F3907E",
"1.	c #EE8F7F",
"2.	c #EB8F80",
"3.	c #E78E81",
"4.	c #E38D81",
"5.	c #EAAFA7",
"6.	c #F4D5D1",
"7.	c #DF877A",
"8.	c #E0877A",
"9.	c #E3887A",
"0.	c #E6897A",
"a.	c #E8897A",
"b.	c #EB8A7A",
"c.	c #ED8A79",
"d.	c #F08A78",
"e.	c #F38B78",
"f.	c #F68B78",
"g.	c #F88B77",
"h.	c #FB8B76",
"i.	c #FC8B76",
"j.	c #FD8C76",
"k.	c #D17360",
"l.	c #B06151",
"m.	c #FAFAFA",
"n.	c #FE8C76",
"o.	c #FD8B76",
"p.	c #F98B77",
"q.	c #F78B77",
"r.	c #F58B78",
"s.	c #F28B78",
"t.	c #E6887A",
"u.	c #E2887A",
"v.	c #E1877A",
"w.	c #E9ABA2",
"x.	c #EAB2A9",
"y.	c #BF2009",
"z.	c #C12009",
"A.	c #C82208",
"B.	c #CD2308",
"C.	c #D12307",
"D.	c #D62407",
"E.	c #DB2406",
"F.	c #E02505",
"G.	c #E52605",
"H.	c #E92705",
"I.	c #EE2704",
"J.	c #F22803",
"K.	c #F52803",
"L.	c #F82902",
"M.	c #FA2902",
"N.	c #CD2101",
"O.	c #AD1C01",
"P.	c #E9E9E9",
"Q.	c #F92902",
"R.	c #F62803",
"S.	c #F32803",
"T.	c #EF2704",
"U.	c #EC2704",
"V.	c #E72705",
"W.	c #E22605",
"X.	c #DF2505",
"Y.	c #DA2406",
"Z.	c #D52407",
"`.	c #D02307",
" +	c #CC2208",
".+	c #C72208",
"++	c #C42108",
"@+	c #D56453",
"#+	c #6A1C07",
"$+	c #EAB3A9",
"%+	c #BC2309",
"&+	c #BD2409",
"*+	c #C42508",
"=+	c #C82608",
"-+	c #CC2707",
";+	c #D12707",
">+	c #D52706",
",+	c #DA2805",
"'+	c #E02905",
")+	c #E42905",
"!+	c #E92A04",
"~+	c #EC2A03",
"{+	c #EF2B03",
"]+	c #F22B02",
"^+	c #F42B02",
"/+	c #C72301",
"(+	c #A81E01",
"_+	c #F32B02",
":+	c #F02B03",
"<+	c #ED2B03",
"[+	c #E72A04",
"}+	c #E22905",
"|+	c #DD2905",
"1+	c #D92805",
"2+	c #D42706",
"3+	c #D02707",
"4+	c #CB2707",
"5+	c #C72608",
"6+	c #C32508",
"7+	c #C02408",
"8+	c #D66653",
"9+	c #771606",
"0+	c #6B1F07",
"a+	c #EBB5A9",
"b+	c #B6280A",
"c+	c #B8290A",
"d+	c #BF2B09",
"e+	c #C32C09",
"f+	c #C72D09",
"g+	c #CB2E08",
"h+	c #CF2E07",
"i+	c #D42F07",
"j+	c #D93006",
"k+	c #DC3106",
"l+	c #E13206",
"m+	c #E53305",
"n+	c #E73405",
"o+	c #EA3504",
"p+	c #C12C03",
"q+	c #A32503",
"r+	c #E2E2E2",
"s+	c #EB3504",
"t+	c #E83404",
"u+	c #E63305",
"v+	c #E23305",
"w+	c #DF3106",
"x+	c #DB3006",
"y+	c #D72F06",
"z+	c #D32F07",
"A+	c #CE2E07",
"B+	c #CA2E08",
"C+	c #C62C09",
"D+	c #C22C09",
"E+	c #BE2B09",
"F+	c #BB2A09",
"G+	c #D76A53",
"H+	c #781A06",
"I+	c #6D2407",
"J+	c #ECB7A9",
"K+	c #B22E0B",
"L+	c #B42F0B",
"M+	c #B9320B",
"N+	c #BD330B",
"O+	c #C0350B",
"P+	c #C5370A",
"Q+	c #C83809",
"R+	c #CD3A09",
"S+	c #D13B08",
"T+	c #D53D08",
"U+	c #D83F08",
"V+	c #DC4107",
"W+	c #DF4207",
"X+	c #B83705",
"Y+	c #9D2F04",
"Z+	c #DCDCDC",
"`+	c #B93805",
" @	c #E04206",
".@	c #DD4107",
"+@	c #D94007",
"@@	c #D83E08",
"#@	c #D33C08",
"$@	c #D03B08",
"%@	c #CC3909",
"&@	c #C4360A",
"*@	c #C0340B",
"=@	c #B8320B",
"-@	c #B6300B",
";@	c #D96F53",
">@	c #791E06",
",@	c #702807",
"'@	c #EDBBA9",
")@	c #AD390E",
"!@	c #AF3A0E",
"~@	c #B43D0D",
"{@	c #B73F0D",
"]@	c #BB410D",
"^@	c #BE430D",
"/@	c #C2460D",
"(@	c #C6490C",
"_@	c #CA4A0B",
":@	c #CC4C0B",
"<@	c #D14E0A",
"[@	c #D3500A",
"}@	c #D6520A",
"|@	c #953A06",
"1@	c #D7D7D7",
"2@	c #963A06",
"3@	c #B24507",
"4@	c #D75309",
"5@	c #D4510A",
"6@	c #D24F0A",
"7@	c #CF4E0B",
"8@	c #CC4B0B",
"9@	c #C7490C",
"0@	c #C5470C",
"a@	c #C1440D",
"b@	c #BD420D",
"c@	c #BA400D",
"d@	c #B73E0D",
"e@	c #B33D0D",
"f@	c #B03B0D",
"g@	c #D97754",
"h@	c #7C2506",
"i@	c #712D07",
"j@	c #EDC0AB",
"k@	c #A84314",
"l@	c #AA4514",
"m@	c #AF4813",
"n@	c #B24B13",
"o@	c #B54D13",
"p@	c #B95113",
"q@	c #BC5312",
"r@	c #BF5612",
"s@	c #C35911",
"t@	c #C65B11",
"u@	c #C95E11",
"v@	c #CC6011",
"w@	c #CE6310",
"x@	c #AB520D",
"y@	c #90450B",
"z@	c #D16410",
"A@	c #CF6410",
"B@	c #CC6111",
"C@	c #CA5F11",
"D@	c #C75D11",
"E@	c #C45B11",
"F@	c #C15811",
"G@	c #BE5612",
"H@	c #BB5112",
"I@	c #B85013",
"J@	c #B44D13",
"K@	c #B14A13",
"L@	c #AE4813",
"M@	c #AC4713",
"N@	c #B64E1A",
"O@	c #D2774D",
"P@	c #84330E",
"Q@	c #733107",
"R@	c #EEC3AC",
"S@	c #A54C18",
"T@	c #A74D18",
"U@	c #AB5317",
"V@	c #AF5717",
"W@	c #B15B17",
"X@	c #B45F16",
"Y@	c #B76416",
"Z@	c #BB6816",
"`@	c #BE6D16",
" #	c #C07016",
".#	c #C37516",
"+#	c #C77A16",
"@#	c #C87C15",
"##	c #CA8015",
"$#	c #CB8115",
"%#	c #CB8015",
"&#	c #C97D15",
"*#	c #C77B15",
"=#	c #C47716",
"-#	c #C37316",
";#	c #BF6F16",
">#	c #BC6A16",
",#	c #BA6616",
"'#	c #B76216",
")#	c #B35E17",
"!#	c #B05A17",
"~#	c #AE5617",
"{#	c #AB5217",
"]#	c #BA591D",
"^#	c #D77843",
"/#	c #B45F2F",
"(#	c #9B6547",
"_#	c #743406",
":#	c #F3D6C4",
"<#	c #DE8A57",
"[#	c #DF8D57",
"}#	c #E39457",
"|#	c #E69857",
"1#	c #E89D57",
"2#	c #EAA157",
"3#	c #EDA757",
"4#	c #F0AC56",
"5#	c #F3B256",
"6#	c #F5B856",
"7#	c #F8BD56",
"8#	c #FAC156",
"9#	c #FCC556",
"0#	c #FDC956",
"a#	c #FECA56",
"b#	c #FEC956",
"c#	c #FCC656",
"d#	c #FAC356",
"e#	c #F8BE56",
"f#	c #F7BA56",
"g#	c #F4B456",
"h#	c #F2B056",
"i#	c #F0AA56",
"j#	c #EDA557",
"k#	c #EA9F57",
"l#	c #E79B57",
"m#	c #E59857",
"n#	c #E29457",
"o#	c #D3854E",
"p#	c #B2632E",
"q#	c #7F390C",
"r#	c #DEDEDE",
"s#	c #482004",
"t#	c #7E3609",
"u#	c #803809",
"v#	c #823E09",
"w#	c #854108",
"x#	c #874508",
"y#	c #894908",
"z#	c #8B4F08",
"A#	c #8D5308",
"B#	c #905808",
"C#	c #925D08",
"D#	c #956108",
"E#	c #966408",
"F#	c #986808",
"G#	c #996B08",
"H#	c #9A6C08",
"I#	c #996C08",
"J#	c #986908",
"K#	c #966608",
"L#	c #956208",
"M#	c #935E08",
"N#	c #915A08",
"O#	c #8F5608",
"P#	c #8D5108",
"Q#	c #8B4D08",
"R#	c #884708",
"S#	c #864408",
"T#	c #844108",
"U#	c #823D09",
"V#	c #8F440E",
"W#	c #A5683E",
"X#	c #EFEFEF",
"                                                                                    ",
". + @ # $ % & * = - ; > , ' ' ) ! ! ! ! ! ! ! ! ! ! ~ ' , { > ] - = * % ^ $ / # ( _ ",
". : < [ } | 1 2 3 4 5 6 7 8 9 0 a a a a a a a a a a b 9 7 c d 4 e f 2 1 | } g [ h _ ",
". i j j k l m n o p q r s t u v w w w x y x w w w v u t s z A B C o D m E k F j G _ ",
". H I J K L M N O P Q R S T U V W W W X Y X W W W V Z ` S  ...+.@.O N M #.K $.J %._ ",
". &.*.*.=.-.;.>.,.'.).!.~.{.].^./.(.(.(./.(.(.(./._.].:.<.[.}.|.'.1.2.;.3.=.4.*.5._ ",
". 6.7.8.9.0.a.b.c.d.e.f.g.h.i.j.k.l.m.m.m.m.m.l.k.n.o.h.p.q.r.s.d.c.b.a.t.u.v.8.w._ ",
". x.y.z.A.B.C.D.E.F.G.H.I.J.K.L.M.N.O.P.P.P.O.N.M.Q.R.S.T.U.V.W.X.Y.Z.`. +.+++z.@+_ ",
"#+$+%+&+*+=+-+;+>+,+'+)+!+~+{+]+^+/+(+P.P.P.(+/+^+_+:+<+!+[+}+|+1+2+3+4+5+6+7+&+8+9+",
"0+a+b+c+d+e+f+g+h+i+j+k+l+m+n+o+p+q+r+r+r+r+r+q+p+s+t+u+v+w+x+y+z+A+B+C+D+E+F+c+G+H+",
"I+J+K+L+M+N+O+P+Q+R+S+T+U+V+W+X+Y+Z+Z+Z+Y+Z+Z+Z+Y+`+ @.@+@@@#@$@%@Q+&@*@N+=@-@L+;@>@",
",@'@)@!@~@{@]@^@/@(@_@:@<@[@}@|@1@1@1@2@3@2@1@1@1@2@4@5@6@7@8@9@0@a@b@c@d@e@f@!@g@h@",
"i@j@k@l@m@n@o@p@q@r@s@t@u@v@w@x@y@y@y@x@z@x@y@y@y@x@A@B@C@D@E@F@G@H@I@J@K@L@M@N@O@P@",
"Q@R@S@T@U@V@W@X@Y@Z@`@ #.#+#@###$#$#$#$#$#$#$#$#$#%#&#*#=#-#;#>#,#'#)#!#~#{#]#^#/#(#",
"_#:#<#[#}#|#1#2#3#4#5#6#7#8#9#0#a#a#a#a#a#a#a#a#a#b#c#d#e#f#g#h#i#j#k#l#m#n#o#p#q#r#",
"s#t#t#u#v#w#x#y#z#A#B#C#D#E#F#G#H#H#H#H#H#H#H#H#H#I#J#K#L#M#N#O#P#Q#R#S#T#U#V#W#X#W ",
"W W W W W W W W W W W W W W W W W W W W W W W W W W W W W W W W W W W W W W W W W   ",
"                                                                                    ",
"                                                                                    ",
"                                                                                    ",
"                                                                                    ",
"                                                                                    ",
"                                                                                    "};
