/* XPM */
static char * hide_active_xpm[] = {
"27 23 246 2",
"  	c None",
". 	c #005B98",
"+ 	c #EAF6FF",
"@ 	c #B4E0FD",
"# 	c #B5E0FD",
"$ 	c #B6E1FE",
"% 	c #B7E1FE",
"& 	c #B8E2FE",
"* 	c #B8E3FE",
"= 	c #B9E3FE",
"- 	c #B9E4FE",
"; 	c #B9E4FF",
"> 	c #B7E2FE",
", 	c #B6E2FE",
"' 	c #B5E1FE",
") 	c #A5E0FD",
"! 	c #E6F5FF",
"~ 	c #A6DAFD",
"{ 	c #A7DAFD",
"] 	c #A8DBFE",
"^ 	c #A9DCFE",
"/ 	c #AADDFE",
"( 	c #ABDEFE",
"_ 	c #ACDEFE",
": 	c #ACDFFF",
"< 	c #A8DCFE",
"[ 	c #A7DBFE",
"} 	c #9CDDFD",
"| 	c #E2F3FF",
"1 	c #97D4FD",
"2 	c #98D4FD",
"3 	c #98D5FD",
"4 	c #9AD6FD",
"5 	c #9BD7FE",
"6 	c #9CD8FE",
"7 	c #9DD8FE",
"8 	c #9DD9FE",
"9 	c #9ED9FE",
"0 	c #9AD7FE",
"a 	c #95DAFD",
"b 	c #DEF1FF",
"c 	c #88CEFD",
"d 	c #8ACFFD",
"e 	c #8BCFFE",
"f 	c #8CD1FE",
"g 	c #8DD1FE",
"h 	c #8ED2FE",
"i 	c #90D3FE",
"j 	c #90D4FE",
"k 	c #8FD3FE",
"l 	c #8BD0FE",
"m 	c #8ACFFE",
"n 	c #8ED7FD",
"o 	c #DBF0FF",
"p 	c #7DC9FD",
"q 	c #7FCBFD",
"r 	c #81CBFD",
"s 	c #81CCFD",
"t 	c #83CEFD",
"u 	c #84CFFD",
"v 	c #85CFFD",
"w 	c #85CFFE",
"x 	c #7DCAFD",
"y 	c #89D6FD",
"z 	c #D9EFFE",
"A 	c #76C7FC",
"B 	c #79C7FD",
"C 	c #7AC9FD",
"D 	c #7BCBFD",
"E 	c #7CCBFD",
"F 	c #7ECCFD",
"G 	c #7FCDFD",
"H 	c #7FCDFE",
"I 	c #7DCCFD",
"J 	c #7ACAFD",
"K 	c #79C8FD",
"L 	c #77C7FD",
"M 	c #86D4FD",
"N 	c #0193F5",
"O 	c #0394F5",
"P 	c #0696F6",
"Q 	c #0998F6",
"R 	c #0B9AF7",
"S 	c #0D9CF7",
"T 	c #109DF8",
"U 	c #119FF8",
"V 	c #129FF8",
"W 	c #12A0F9",
"X 	c #109EF8",
"Y 	c #0F9DF8",
"Z 	c #0A9AF7",
"` 	c #0899F7",
" .	c #0697F6",
"..	c #0495F6",
"+.	c #5BC1FA",
"@.	c #0190F0",
"#.	c #0391F0",
"$.	c #0693F1",
"%.	c #0995F1",
"&.	c #0B99F2",
"*.	c #0B9DF2",
"=.	c #0B85C7",
"-.	c #0975A8",
";.	c #0979A8",
">.	c #087BA8",
",.	c #087CA8",
"'.	c #087DA8",
").	c #087AA8",
"!.	c #0878A8",
"~.	c #0875A8",
"{.	c #0984C6",
"].	c #099BF2",
"^.	c #0898F2",
"/.	c #0694F1",
"(.	c #0492F1",
"_.	c #5BC0F8",
":.	c #018CE9",
"<.	c #038DE9",
"[.	c #068FEA",
"}.	c #0893EA",
"|.	c #099BEB",
"1.	c #0AA3EC",
"2.	c #0876A4",
"3.	c #FFFFFF",
"4.	c #0676A3",
"5.	c #07A2EC",
"6.	c #069BEB",
"7.	c #0692EA",
"8.	c #048EEA",
"9.	c #5BBFF5",
"0.	c #0188E2",
"a.	c #0389E2",
"b.	c #058DE3",
"c.	c #0794E3",
"d.	c #089DE4",
"e.	c #09A5E5",
"f.	c #06779F",
"g.	c #DCDCDC",
"h.	c #05779E",
"i.	c #06A4E5",
"j.	c #069CE4",
"k.	c #0593E3",
"l.	c #048CE3",
"m.	c #5BBDF3",
"n.	c #005E9D",
"o.	c #B8E1FC",
"p.	c #0185DC",
"q.	c #0385DC",
"r.	c #058BDC",
"s.	c #0793DC",
"t.	c #079DDE",
"u.	c #08A7DE",
"v.	c #06799A",
"w.	c #D7D7D7",
"x.	c #047999",
"y.	c #06A6DE",
"z.	c #059DDE",
"A.	c #0492DC",
"B.	c #048BDC",
"C.	c #5ABBF0",
"D.	c #0666A6",
"E.	c #ABD9F8",
"F.	c #088AE1",
"G.	c #0383D7",
"H.	c #058BD7",
"I.	c #0694D8",
"J.	c #079ED9",
"K.	c #07A9D9",
"L.	c #0691B2",
"M.	c #038096",
"N.	c #038596",
"O.	c #028797",
"P.	c #028997",
"Q.	c #028A97",
"R.	c #0491B2",
"S.	c #05A7D9",
"T.	c #059DD9",
"U.	c #0493D8",
"V.	c #038AD7",
"W.	c #5ABAEE",
"X.	c #2682C0",
"Y.	c #67B0E1",
"Z.	c #89CDFB",
"`.	c #0C8EE1",
" +	c #048BD4",
".+	c #0694D5",
"++	c #069FD6",
"@+	c #06A9D6",
"#+	c #06B2D6",
"$+	c #04BBD6",
"%+	c #03C0D7",
"&+	c #03C7D7",
"*+	c #02CCD7",
"=+	c #01CCD7",
"-+	c #04BAD6",
";+	c #05B2D6",
">+	c #04A8D6",
",+	c #049ED6",
"'+	c #0494D5",
")+	c #038AD4",
"!+	c #0383D3",
"~+	c #5AB8EC",
"{+	c #DEDEDE",
"]+	c #035D99",
"^+	c #62ABDC",
"/+	c #46ACED",
"(+	c #50C0FC",
"_+	c #52C9FD",
":+	c #52D2FE",
"<+	c #52DBFE",
"[+	c #51E4FE",
"}+	c #50EBFE",
"|+	c #50F0FF",
"1+	c #4EF7FF",
"2+	c #4EFAFF",
"3+	c #4EFBFF",
"4+	c #4FF0FF",
"5+	c #50EAFE",
"6+	c #50E3FE",
"7+	c #50DBFE",
"8+	c #50D2FE",
"9+	c #50C8FD",
"0+	c #50BFFC",
"a+	c #4FB8FC",
"b+	c #55BFFC",
"c+	c #EFEFEF",
"d+	c #1F85C7",
"e+	c #056BAB",
"f+	c #036498",
"g+	c #046C99",
"h+	c #047499",
"i+	c #047C99",
"j+	c #04849A",
"k+	c #038A9A",
"l+	c #028E9B",
"m+	c #00959B",
"n+	c #00979B",
"o+	c #00999B",
"p+	c #02899A",
"q+	c #03839A",
"r+	c #037C99",
"s+	c #037499",
"t+	c #036B99",
"u+	c #026498",
"v+	c #025D98",
"w+	c #1F7FB7",
"                                                      ",
". + @ # # $ % & * = - - ; ; ; ; - = * * > , $ ' # # ) ",
". ! ~ { { ] ^ ^ / ( ( _ : : : : ( ( ( / ^ < < [ { { } ",
". | 1 2 2 3 4 5 6 7 8 9 9 9 9 9 8 7 6 6 5 0 3 2 2 2 a ",
". b c d d e f g h i i i j j j j i i k h g f l m d d n ",
". o p p p q r s t u u v w w w w u u u t s r q x p p y ",
". z A A A B C D E F G G H H H H G F I E D J K L A A M ",
". & N O O P Q R S T U V W W W W U X Y S Z `  ...O O +.",
". & @.#.#.$.%.&.*.=.-.;.>.,.'.,.).!.~.{.].^./.(.#.#._.",
". & :.<.<.[.}.|.1.2.3.3.3.3.3.3.3.3.3.4.5.6.7.8.<.<.9.",
". & 0.a.a.b.c.d.e.f.g.g.g.g.g.g.g.g.g.h.i.j.k.l.a.a.m.",
"n.o.p.q.q.r.s.t.u.v.w.w.w.w.w.w.w.w.w.x.y.z.A.B.q.q.C.",
"D.E.F.G.G.H.I.J.K.L.M.N.O.P.Q.P.O.N.M.R.S.T.U.V.G.G.W.",
"X.Y.Z.`.`. +.+++@+#+$+%+&+*+=+*+&+%+-+;+>+,+'+)+!+!+~+",
"{+]+^+/+/+(+_+:+<+[+}+|+1+2+3+2+1+4+5+6+7+8+9+0+a+a+b+",
"3.c+d+e+e+f+g+h+i+j+k+l+m+n+o+n+m+l+p+q+r+s+t+u+v+v+w+",
"  3.3.3.3.3.3.3.3.3.3.3.3.3.3.3.3.3.3.3.3.3.3.3.3.3.3.",
"                                                      ",
"                                                      ",
"                                                      ",
"                                                      ",
"                                                      ",
"                                                      "};
