/* XPM */
static char * hide_pressed_xpm[] = {
"27 23 325 2",
"  	c None",
". 	c #010F1E",
"+ 	c #EAECEE",
"@ 	c #B4BCC3",
"# 	c #B6BDC3",
"$ 	c #B7BEC4",
"% 	c #B8BEC4",
"& 	c #B9C0C5",
"* 	c #BBC1C5",
"= 	c #BCC2C5",
"- 	c #BDC2C5",
"; 	c #BDC3C5",
"> 	c #BEC3C6",
", 	c #BDC3C6",
"' 	c #BDC2C6",
") 	c #B8BFC5",
"! 	c #B8BEC5",
"~ 	c #B6BEC5",
"{ 	c #B5BDC5",
"] 	c #A5D1E5",
"^ 	c #E6E8EB",
"/ 	c #A6AEB7",
"( 	c #A8B0B8",
"_ 	c #A9B1B9",
": 	c #ABB3BA",
"< 	c #ACB5BB",
"[ 	c #AEB6BC",
"} 	c #B0B7BC",
"| 	c #B1B8BD",
"1 	c #B2B9BE",
"2 	c #B2BABE",
"3 	c #B1B9BE",
"4 	c #B1B8BE",
"5 	c #B0B8BD",
"6 	c #AEB6BD",
"7 	c #ACB6BD",
"8 	c #ABB5BC",
"9 	c #AAB4BC",
"0 	c #A8B2BC",
"a 	c #A7B1BB",
"b 	c #9CCDE2",
"c 	c #01101F",
"d 	c #E2E5E7",
"e 	c #97A2AD",
"f 	c #98A3AE",
"g 	c #9BA5AF",
"h 	c #9DA7B0",
"i 	c #9FAAB2",
"j 	c #A2ACB3",
"k 	c #A4AEB4",
"l 	c #A6AFB5",
"m 	c #A7B0B6",
"n 	c #A7B1B6",
"o 	c #A7B2B6",
"p 	c #A6B1B6",
"q 	c #A6AFB6",
"r 	c #A4AFB6",
"s 	c #A2ADB6",
"t 	c #A0ACB5",
"u 	c #9EABB5",
"v 	c #9CA9B4",
"w 	c #9AA7B4",
"x 	c #98A6B3",
"y 	c #95C8E0",
"z 	c #DEE1E5",
"A 	c #8996A2",
"B 	c #8B98A4",
"C 	c #8E9AA6",
"D 	c #909DA9",
"E 	c #93A1AB",
"F 	c #97A4AD",
"G 	c #99A6AE",
"H 	c #9CA9B1",
"I 	c #9DAAB1",
"J 	c #9EABB2",
"K 	c #9DABB2",
"L 	c #9DAAB2",
"M 	c #9BA9B1",
"N 	c #99A8B1",
"O 	c #97A6B1",
"P 	c #95A4B1",
"Q 	c #93A2B0",
"R 	c #90A0AF",
"S 	c #8D9EAE",
"T 	c #8B9DAE",
"U 	c #8EC4DF",
"V 	c #011020",
"W 	c #DBDFE3",
"X 	c #7D8C9A",
"Y 	c #808F9D",
"Z 	c #8392A0",
"` 	c #8796A4",
" .	c #8A9AA7",
"..	c #8F9EAA",
"+.	c #93A2AD",
"@.	c #95A5AF",
"#.	c #97A7B0",
"$.	c #98A9B2",
"%.	c #97A9B2",
"&.	c #96A8B2",
"*.	c #95A6B1",
"=.	c #93A5B0",
"-.	c #90A3AF",
";.	c #8CA0AF",
">.	c #899DAF",
",.	c #869AAE",
"'.	c #8399AD",
").	c #8196AC",
"!.	c #89C2DF",
"~.	c #011021",
"{.	c #D9DDE1",
"].	c #768797",
"^.	c #7A8B9B",
"/.	c #7D8F9F",
"(.	c #8195A5",
"_.	c #879AA9",
":.	c #8B9FAC",
"<.	c #91A3B0",
"[.	c #95A7B3",
"}.	c #96AAB5",
"|.	c #98ACB6",
"1.	c #98ACB7",
"2.	c #97ACB7",
"3.	c #96ABB7",
"4.	c #95A9B6",
"5.	c #91A7B6",
"6.	c #8EA5B5",
"7.	c #8AA2B4",
"8.	c #859FB3",
"9.	c #819CB2",
"0.	c #7D98B2",
"a.	c #7A96B1",
"b.	c #87C2E1",
"c.	c #011222",
"d.	c #B8C1C9",
"e.	c #022142",
"f.	c #08294A",
"g.	c #103354",
"h.	c #193E5F",
"i.	c #234A69",
"j.	c #2E5673",
"k.	c #395F7B",
"l.	c #406982",
"m.	c #466F86",
"n.	c #497388",
"o.	c #497389",
"p.	c #487389",
"q.	c #467389",
"r.	c #447089",
"s.	c #406D88",
"t.	c #3B6987",
"u.	c #336385",
"v.	c #295C83",
"w.	c #215682",
"x.	c #194F81",
"y.	c #114A7F",
"z.	c #0A447D",
"A.	c #5CA3CD",
"B.	c #011223",
"C.	c #032343",
"D.	c #082B4D",
"E.	c #103659",
"F.	c #1B4265",
"G.	c #255475",
"H.	c #2F6784",
"I.	c #2D6076",
"J.	c #285C6C",
"K.	c #286675",
"L.	c #276B79",
"M.	c #276E7B",
"N.	c #266E7B",
"O.	c #266D7B",
"P.	c #266A79",
"Q.	c #256676",
"R.	c #255F71",
"S.	c #296580",
"T.	c #2B6E98",
"U.	c #236292",
"V.	c #1B578D",
"W.	c #12518B",
"X.	c #0B4A89",
"Y.	c #5DA6D2",
"Z.	c #B8C1CA",
"`.	c #032445",
" +	c #082D4F",
".+	c #11385C",
"++	c #1B4B70",
"@+	c #246283",
"#+	c #2B7A96",
"$+	c #206273",
"%+	c #FFFFFF",
"&+	c #1E657A",
"*+	c #2883A9",
"=+	c #2272A1",
"-+	c #1C6199",
";+	c #135694",
">+	c #0B4F92",
",+	c #5CA6D4",
"'+	c #011224",
")+	c #B8C1CB",
"!+	c #032547",
"~+	c #082E53",
"{+	c #113C61",
"]+	c #1A5478",
"^+	c #216E8D",
"/+	c #2786A1",
"(+	c #1E6A7A",
"_+	c #DCDCDC",
":+	c #1B6C80",
"<+	c #258EB3",
"[+	c #217DAA",
"}+	c #1B6CA2",
"|+	c #145C9B",
"1+	c #0C5398",
"2+	c #5CA7D6",
"3+	c #011326",
"4+	c #B9C1CA",
"5+	c #032748",
"6+	c #093054",
"7+	c #104467",
"8+	c #195C7F",
"9+	c #207795",
"0+	c #248FA8",
"a+	c #1A717F",
"b+	c #D7D7D7",
"c+	c #177385",
"d+	c #2197B8",
"e+	c #1E85B1",
"f+	c #1A73A8",
"g+	c #1362A1",
"h+	c #0C569C",
"i+	c #071F34",
"j+	c #ACB6C0",
"k+	c #0A2E50",
"l+	c #083256",
"m+	c #0F496C",
"n+	c #176485",
"o+	c #1D7E9A",
"p+	c #1F96AD",
"q+	c #198999",
"r+	c #147E88",
"s+	c #11858D",
"t+	c #0E888F",
"u+	c #0C8A91",
"v+	c #0A8B91",
"w+	c #0D8790",
"x+	c #10848D",
"y+	c #137E8B",
"z+	c #188CA0",
"A+	c #1E9CBC",
"B+	c #1C8BB5",
"C+	c #197AAD",
"D+	c #1268A4",
"E+	c #0C589F",
"F+	c #5CA6D6",
"G+	c #27526F",
"H+	c #687989",
"I+	c #899BAE",
"J+	c #123E63",
"K+	c #0F4E70",
"L+	c #176889",
"M+	c #1B839E",
"N+	c #1D99B0",
"O+	c #1CACBE",
"P+	c #18B8C6",
"Q+	c #14C0CC",
"R+	c #0DC8D1",
"S+	c #08CCD3",
"T+	c #07CDD4",
"U+	c #0CC8D2",
"V+	c #13C0CE",
"W+	c #17B9CA",
"X+	c #1AAEC5",
"Y+	c #1BA0BE",
"Z+	c #1B8FB7",
"`+	c #177DAF",
" @	c #126CA8",
".@	c #0C5CA2",
"+@	c #5CA5D6",
"@@	c #DEDEDE",
"#@	c #041B31",
"$@	c #637789",
"%@	c #4A6C87",
"&@	c #5A8CA7",
"*@	c #60A4BD",
"=@	c #64BBD0",
"-@	c #65CFE0",
";@	c #63DEEB",
">@	c #60E9F2",
",@	c #5BF0F7",
"'@	c #54F7FC",
")@	c #50FAFE",
"!@	c #4FFCFE",
"~@	c #5AF0F8",
"{@	c #5EEAF5",
"]@	c #62E1F0",
"^@	c #63D4EB",
"/@	c #63C6E5",
"(@	c #61B6DE",
"_@	c #5CA6D8",
":@	c #5798D2",
"<@	c #58A5DE",
"[@	c #EFEFEF",
"}@	c #215072",
"|@	c #0A2E4A",
"1@	c #0A374F",
"2@	c #104C62",
"3@	c #146072",
"4@	c #157280",
"5@	c #137F8A",
"6@	c #108890",
"7@	c #0B8F95",
"8@	c #069598",
"9@	c #02989A",
"0@	c #00999B",
"a@	c #059598",
"b@	c #0A8F95",
"c@	c #0E8992",
"d@	c #12818E",
"e@	c #14768A",
"f@	c #146A84",
"g@	c #115C7F",
"h@	c #0E4E78",
"i@	c #084174",
"j@	c #22689C",
"                                                      ",
". + @ # # $ % & * = - ; > > > , , ' = * & ) ! ~ { { ] ",
". ^ / ( ( _ : < [ } | 1 2 2 2 2 3 4 5 6 7 8 9 0 a a b ",
"c d e f f g h i j k l m n o o n p q r s t u v w x x y ",
"c z A B B C D E F G H I J J J K L M N O P Q R S T T U ",
"V W X Y Y Z `  ...+.@.#.$.$.%.%.&.*.=.-.;.>.,.'.).).!.",
"~.{.].^.^./.(._.:.<.[.}.|.1.2.2.3.4.5.6.7.8.9.0.a.a.b.",
"c.d.e.f.f.g.h.i.j.k.l.m.n.o.p.q.r.s.t.u.v.w.x.y.z.z.A.",
"B.d.C.D.D.E.F.G.H.I.J.K.L.M.N.O.P.Q.R.S.T.U.V.W.X.X.Y.",
"B.Z.`. + +.+++@+#+$+%+%+%+%+%+%+%+%+%+&+*+=+-+;+>+>+,+",
"'+)+!+~+~+{+]+^+/+(+_+_+_+_+_+_+_+_+_+:+<+[+}+|+1+1+2+",
"3+4+5+6+6+7+8+9+0+a+b+b+b+b+b+b+b+b+b+c+d+e+f+g+h+h+2+",
"i+j+k+l+l+m+n+o+p+q+r+s+t+u+v+u+w+x+y+z+A+B+C+D+E+E+F+",
"G+H+I+J+J+K+L+M+N+O+P+Q+R+S+T+S+U+V+W+X+Y+Z+`+ @.@.@+@",
"@@#@$@%@%@&@*@=@-@;@>@,@'@)@!@)@'@~@{@]@^@/@(@_@:@:@<@",
"%+[@}@|@|@1@2@3@4@5@6@7@8@9@0@9@a@b@c@d@e@f@g@h@i@i@j@",
"  %+%+%+%+%+%+%+%+%+%+%+%+%+%+%+%+%+%+%+%+%+%+%+%+%+%+",
"                                                      ",
"                                                      ",
"                                                      ",
"                                                      ",
"                                                      ",
"                                                      "};
