/* XPM */
static char * hide_inactive_xpm[] = {
"27 23 75 1",
" 	g None",
".	g #A2A2A2",
"+	g #F9F9F9",
"@	g #EAEAEA",
"#	g #EBEBEB",
"$	g #ECECEC",
"%	g #E8E8E8",
"&	g #F8F8F8",
"*	g #E6E6E6",
"=	g #E7E7E7",
"-	g #E9E9E9",
";	g #F7F7F7",
">	g #E2E2E2",
",	g #E3E3E3",
"'	g #E4E4E4",
")	g #E5E5E5",
"!	g #F6F6F6",
"~	g #DEDEDE",
"{	g #DFDFDF",
"]	g #E0E0E0",
"^	g #E1E1E1",
"/	g #F5F5F5",
"(	g #DBDBDB",
"_	g #DCDCDC",
":	g #DDDDDD",
"<	g #F4F4F4",
"[	g #DADADA",
"}	g #B8B8B8",
"|	g #B9B9B9",
"1	g #BABABA",
"2	g #BBBBBB",
"3	g #BCBCBC",
"4	g #BDBDBD",
"5	g #BEBEBE",
"6	g #BFBFBF",
"7	g #D4D4D4",
"8	g #B7B7B7",
"9	g #B3B3B3",
"0	g #ACACAC",
"a	g #AEAEAE",
"b	g #AFAFAF",
"c	g #ADADAD",
"d	g #B2B2B2",
"e	g #D3D3D3",
"f	g #B6B6B6",
"g	g #FFFFFF",
"h	g #B4B4B4",
"i	g #B5B5B5",
"j	g #EDEDED",
"k	g #D2D2D2",
"l	g #A4A4A4",
"m	g #D1D1D1",
"n	g #A7A7A7",
"o	g #B0B0B0",
"p	g #B1B1B1",
"q	g #CFCFCF",
"r	g #C0C0C0",
"s	g #C3C3C3",
"t	g #C4C4C4",
"u	g #C6C6C6",
"v	g #C8C8C8",
"w	g #C7C7C7",
"x	g #C2C2C2",
"y	g #D0D0D0",
"z	g #EEEEEE",
"A	g #CCCCCC",
"B	g #CACACA",
"C	g #D5D5D5",
"D	g #D7D7D7",
"E	g #A9A9A9",
"F	g #A6A6A6",
"G	g #A8A8A8",
"H	g #AAAAAA",
"I	g #A5A5A5",
"J	g #A3A3A3",
"                           ",
".+@@@###$$$$$$$$$$$$####@@%",
".&*=====%%%-----%%%%======*",
".;>,,,,''')))))))''''',,,,'",
".!~{{{]]]^^^^^^^^^^]]]{{{{>",
"./(((__:~~~~~~~~~~~~:___((^",
".<[[[[((__:::::::___(([[[[]",
".#}||123455566665544321|||7",
".#8}}|12490aaabaac0d32|}}}e",
".#fff8|250ggggggggg042}8ffe",
".#hiif}250jjjjjjjjj042}fiik",
"l#999i}250#########0428i99m",
"n=fddi}25iaboopoobah418hddm",
"fq~88i}25rstuvwvutxr418hddy",
"zlABBkCD[:{]>,,,>]~_[D7mqqk",
"g;fEEFGHcbpdhhihhdobcHGIJJ9",
" gggggggggggggggggggggggggg",
"                           ",
"                           ",
"                           ",
"                           ",
"                           ",
"                           "};
