/* XPM */
static char * maximize_inactive_xpm[] = {
"26 23 72 1",
" 	g None",
".	g #B3B3B3",
"+	g #F6F6F6",
"@	g #E6E6E6",
"#	g #E7E7E7",
"$	g #E8E8E8",
"%	g #E9E9E9",
"&	g #F2F2F2",
"*	g #B5B5B5",
"=	g #B6B6B6",
"-	g #F5F5F5",
";	g #E2E2E2",
">	g #E3E3E3",
",	g #E4E4E4",
"'	g #D2D2D2",
")	g #C5C5C5",
"!	g #F0F0F0",
"~	g #B7B7B7",
"{	g #F4F4F4",
"]	g #DEDEDE",
"^	g #DFDFDF",
"/	g #E0E0E0",
"(	g #C3C3C3",
"_	g #FDFDFD",
":	g #C2C2C2",
"<	g #EDEDED",
"[	g #B8B8B8",
"}	g #DBDBDB",
"|	g #DCDCDC",
"1	g #DDDDDD",
"2	g #C1C1C1",
"3	g #C0C0C0",
"4	g #ECECEC",
"5	g #DADADA",
"6	g #BFBFBF",
"7	g #EBEBEB",
"8	g #B9B9B9",
"9	g #BABABA",
"0	g #BBBBBB",
"a	g #BCBCBC",
"b	g #BDBDBD",
"c	g #AAAAAA",
"d	g #ABABAB",
"e	g #A9A9A9",
"f	g #D9D9D9",
"g	g #AEAEAE",
"h	g #C4C4C4",
"i	g #ACACAC",
"j	g #E5E5E5",
"k	g #BEBEBE",
"l	g #AFAFAF",
"m	g #C6C6C6",
"n	g #ADADAD",
"o	g #D7D7D7",
"p	g #B4B4B4",
"q	g #B0B0B0",
"r	g #B1B1B1",
"s	g #D6D6D6",
"t	g #B2B2B2",
"u	g #D5D5D5",
"v	g #C8C8C8",
"w	g #C7C7C7",
"x	g #CECECE",
"y	g #CFCFCF",
"z	g #D4D4D4",
"A	g #D1D1D1",
"B	g #A2A2A2",
"C	g #A3A3A3",
"D	g #A6A6A6",
"E	g #A8A8A8",
"F	g #A5A5A5",
"G	g #FFFFFF",
"                          ",
".+@####$$$%%%%%$$$$######&",
"*+@####$$$%%%%%$$$$######&",
"=-;>>>,,'))))))))))',>>>>!",
"~{]^^///(__________:/^^^^<",
"[&}}||1]2__________3|||}}4",
"[&555}}|3__________6}55557",
"[@[890abc{ddddddcc{e09888f",
"8@~[890bd{g(hhh(:i{e08[[[f",
"[j==~80ki!l)mmm)hn!c0[~==o",
"~jp*=[0ki<lqqrqqlg<c0[=**o",
"=,..*[0ki7777777777c0~*..s",
"*,tt*[0k*glqqrqqlgit9~pttu",
".,rt*[0k3(hmvwvmh:3b9~pttu",
"d#xy'uo51^/;>>>;/]|5ozAyyx",
"lBBCDEcnlrtpp*pptqlncEFCCB",
"GGGGGGGGGGGGGGGGGGGGGGGGGG",
"                          ",
"                          ",
"                          ",
"                          ",
"                          ",
"                          "};
