/* XPM */
static char * maximize_active_xpm[] = {
"26 23 241 2",
"  	c None",
". 	c #387796",
"+ 	c #E0F2FF",
"@ 	c #A6DAFD",
"# 	c #A7DAFD",
"$ 	c #A8DBFE",
"% 	c #A9DCFE",
"& 	c #AADDFE",
"* 	c #ABDEFE",
"= 	c #ACDEFE",
"- 	c #ACDFFF",
"; 	c #A8DCFE",
"> 	c #A7DBFE",
", 	c #CFEBFF",
"' 	c #3A7B9A",
") 	c #3C7D9D",
"! 	c #DBF0FF",
"~ 	c #97D4FD",
"{ 	c #98D4FD",
"] 	c #98D5FD",
"^ 	c #9AD6FD",
"/ 	c #9BD7FE",
"( 	c #9CD8FE",
"_ 	c #80B1D0",
": 	c #6C96AF",
"< 	c #6D96AF",
"[ 	c #6C95AF",
"} 	c #7FB0D0",
"| 	c #9AD7FE",
"1 	c #C7E8FF",
"2 	c #3D80A0",
"3 	c #D6EEFF",
"4 	c #88CEFD",
"5 	c #8ACFFD",
"6 	c #8BCFFE",
"7 	c #8CD1FE",
"8 	c #8DD1FE",
"9 	c #8ED2FE",
"0 	c #6392AF",
"a 	c #FCFCFC",
"b 	c #6190AF",
"c 	c #8BD0FE",
"d 	c #8ACFFE",
"e 	c #BFE5FF",
"f 	c #3E81A2",
"g 	c #D2ECFF",
"h 	c #7DC9FD",
"i 	c #7FCBFD",
"j 	c #81CBFD",
"k 	c #81CCFD",
"l 	c #83CEFD",
"m 	c #5B8FAF",
"n 	c #598DAF",
"o 	c #7DCAFD",
"p 	c #B9E2FF",
"q 	c #CFECFE",
"r 	c #76C7FC",
"s 	c #79C7FD",
"t 	c #7AC9FD",
"u 	c #7BCBFD",
"v 	c #7CCBFD",
"w 	c #578DAF",
"x 	c #558CAF",
"y 	c #7ACAFD",
"z 	c #79C8FD",
"A 	c #77C7FD",
"B 	c #B5E1FE",
"C 	c #A7DAFC",
"D 	c #0193F5",
"E 	c #0394F5",
"F 	c #0696F6",
"G 	c #0998F6",
"H 	c #0B9AF7",
"I 	c #0D9CF7",
"J 	c #0B6CAB",
"K 	c #E9E9E9",
"L 	c #0C6EAB",
"M 	c #0C6EAC",
"N 	c #0B6DAB",
"O 	c #0A6CAB",
"P 	c #076AAA",
"Q 	c #0899F7",
"R 	c #0697F6",
"S 	c #0495F6",
"T 	c #77C6FA",
"U 	c #3F84A4",
"V 	c #A7D9FA",
"W 	c #0190F0",
"X 	c #0391F0",
"Y 	c #0693F1",
"Z 	c #0995F1",
"` 	c #0B99F2",
" .	c #0B9DF2",
"..	c #0970A8",
"+.	c #0979A8",
"@.	c #0CB2F4",
"#.	c #0CB4F4",
"$.	c #0BB5F4",
"%.	c #0BB1F4",
"&.	c #0BAEF4",
"*.	c #0875A8",
"=.	c #066BA7",
"-.	c #0898F2",
";.	c #0694F1",
">.	c #0492F1",
",.	c #77C4F8",
"'.	c #A7D7F8",
").	c #018CE9",
"!.	c #038DE9",
"~.	c #068FEA",
"{.	c #0893EA",
"].	c #099BEB",
"^.	c #0AA3EC",
"/.	c #0876A4",
"(.	c #E2E2E2",
"_.	c #077FA4",
":.	c #09BDED",
"<.	c #08C0ED",
"[.	c #08C1ED",
"}.	c #08BCED",
"|.	c #08B8ED",
"1.	c #067BA4",
"2.	c #0570A3",
"3.	c #069BEB",
"4.	c #0692EA",
"5.	c #048EEA",
"6.	c #77C1F4",
"7.	c #A7D6F5",
"8.	c #0188E2",
"9.	c #0389E2",
"0.	c #058DE3",
"a.	c #0794E3",
"b.	c #089DE4",
"c.	c #09A5E5",
"d.	c #06779F",
"e.	c #DCDCDC",
"f.	c #06829F",
"g.	c #05859F",
"h.	c #04879F",
"i.	c #04889F",
"j.	c #04859F",
"k.	c #05829F",
"l.	c #057D9F",
"m.	c #04719E",
"n.	c #069CE4",
"o.	c #0593E3",
"p.	c #048CE3",
"q.	c #77BFF0",
"r.	c #A7D5F3",
"s.	c #0185DC",
"t.	c #0385DC",
"u.	c #058BDC",
"v.	c #0793DC",
"w.	c #079DDE",
"x.	c #08A7DE",
"y.	c #06799A",
"z.	c #D7D7D7",
"A.	c #047399",
"B.	c #059DDE",
"C.	c #0492DC",
"D.	c #048BDC",
"E.	c #77BEED",
"F.	c #A7D4F1",
"G.	c #0182D7",
"H.	c #0383D7",
"I.	c #058BD7",
"J.	c #0694D8",
"K.	c #079ED9",
"L.	c #07A9D9",
"M.	c #0691B2",
"N.	c #038096",
"O.	c #038596",
"P.	c #028797",
"Q.	c #028997",
"R.	c #028A97",
"S.	c #037A96",
"T.	c #0488B2",
"U.	c #059DD9",
"V.	c #0493D8",
"W.	c #038AD7",
"X.	c #77BCE9",
"Y.	c #A7D3F0",
"Z.	c #0180D3",
"`.	c #0383D3",
" +	c #048BD4",
".+	c #0694D5",
"++	c #069FD6",
"@+	c #06A9D6",
"#+	c #06B2D6",
"$+	c #04BBD6",
"%+	c #03C0D7",
"&+	c #03C7D7",
"*+	c #02CCD7",
"=+	c #01CCD7",
"-+	c #04BAD6",
";+	c #05B2D6",
">+	c #04A8D6",
",+	c #049ED6",
"'+	c #0494D5",
")+	c #038AD4",
"!+	c #77BAE7",
"~+	c #276685",
"{+	c #4EB6FC",
"]+	c #4FB8FC",
"^+	c #50C0FC",
"/+	c #52C9FD",
"(+	c #52D2FE",
"_+	c #52DBFE",
":+	c #51E4FE",
"<+	c #50EBFE",
"[+	c #50F0FF",
"}+	c #4EF7FF",
"|+	c #4EFAFF",
"1+	c #4EFBFF",
"2+	c #4FF0FF",
"3+	c #50EAFE",
"4+	c #50E3FE",
"5+	c #50DBFE",
"6+	c #50D2FE",
"7+	c #50C8FD",
"8+	c #50BFFC",
"9+	c #346E8B",
"0+	c #005B98",
"a+	c #025D98",
"b+	c #036498",
"c+	c #046C99",
"d+	c #047499",
"e+	c #047C99",
"f+	c #04849A",
"g+	c #038A9A",
"h+	c #028E9B",
"i+	c #00959B",
"j+	c #00979B",
"k+	c #00999B",
"l+	c #02899A",
"m+	c #03839A",
"n+	c #037C99",
"o+	c #037499",
"p+	c #036B99",
"q+	c #026498",
"r+	c #FFFFFF",
"                                                    ",
". + @ # $ % % & * * = - - - - * * * & % ; ; > # # , ",
"' + @ # $ % % & * * = - - - - * * * & % ; ; > # # , ",
") ! ~ { ] ^ / ( _ : < < < < < : [ [ [ } | ] { { { 1 ",
"2 3 4 5 6 7 8 9 0 a a a a a a a a a a b 7 c d 5 5 e ",
"f g h h i j k l m a a a a a a a a a a n j i o h h p ",
"f q r r s t u v w a a a a a a a a a a x y z A r r B ",
"f C D E F G H I J K L M M M M L N O K P Q R S E E T ",
"U V W X Y Z `  ...K +.@.#.$.#.%.&.*.K =.-.;.>.X X ,.",
"f '.).!.~.{.].^./.(._.:.<.[.<.}.|.1.(.2.3.4.5.!.!.6.",
"2 7.8.9.0.a.b.c.d.e.f.g.h.i.h.j.k.l.e.m.n.o.p.9.9.q.",
") r.s.t.u.v.w.x.y.z.z.z.z.z.z.z.z.z.z.A.B.C.D.t.t.E.",
"' F.G.H.I.J.K.L.M.N.O.P.Q.R.Q.P.O.N.S.T.U.V.W.H.H.X.",
". Y.Z.`. +.+++@+#+$+%+&+*+=+*+&+%+-+;+>+,+'+)+`.`.!+",
"~+> {+]+^+/+(+_+:+<+[+}+|+1+|+}+2+3+4+5+6+7+8+]+]+{+",
"9+0+0+a+b+c+d+e+f+g+h+i+j+k+j+i+h+l+m+n+o+p+q+a+a+0+",
"r+r+r+r+r+r+r+r+r+r+r+r+r+r+r+r+r+r+r+r+r+r+r+r+r+r+",
"                                                    ",
"                                                    ",
"                                                    ",
"                                                    ",
"                                                    ",
"                                                    "};
