/* XPM */
static char * maximize_pressed_xpm[] = {
"26 23 290 2",
"  	c None",
". 	c #3C7088",
"+ 	c #E0E3E6",
"@ 	c #A6AEB7",
"# 	c #A8B0B8",
"$ 	c #A9B1B9",
"% 	c #ABB3BA",
"& 	c #ACB5BB",
"* 	c #AEB6BC",
"= 	c #B0B7BC",
"- 	c #B1B8BD",
"; 	c #B2B9BE",
"> 	c #B2BABE",
", 	c #B1B9BE",
"' 	c #B1B8BE",
") 	c #B0B8BD",
"! 	c #AEB6BD",
"~ 	c #ACB6BD",
"{ 	c #ABB5BC",
"] 	c #AAB4BC",
"^ 	c #A8B2BC",
"/ 	c #A7B1BB",
"( 	c #CFD6DB",
"_ 	c #3D748D",
": 	c #3F7791",
"< 	c #DBDEE2",
"[ 	c #97A2AD",
"} 	c #98A3AE",
"| 	c #9BA5AF",
"1 	c #9DA7B0",
"2 	c #9FAAB2",
"3 	c #A2ACB3",
"4 	c #868E93",
"5 	c #73797D",
"6 	c #73797E",
"7 	c #737A7E",
"8 	c #737B7E",
"9 	c #71797E",
"0 	c #70777E",
"a 	c #838D94",
"b 	c #9EABB5",
"c 	c #9CA9B4",
"d 	c #9AA7B4",
"e 	c #98A6B3",
"f 	c #C8CFD7",
"g 	c #407A94",
"h 	c #D6DADE",
"i 	c #8996A2",
"j 	c #8B98A4",
"k 	c #8E9AA6",
"l 	c #909DA9",
"m 	c #93A1AB",
"n 	c #97A4AD",
"o 	c #6A7378",
"p 	c #FCFCFC",
"q 	c #67717A",
"r 	c #93A2B0",
"s 	c #90A0AF",
"t 	c #8D9EAE",
"u 	c #8B9DAE",
"v 	c #C0C9D3",
"w 	c #417C96",
"x 	c #D2D7DC",
"y 	c #7D8C9A",
"z 	c #808F9D",
"A 	c #8392A0",
"B 	c #8796A4",
"C 	c #8A9AA7",
"D 	c #8F9EAA",
"E 	c #657077",
"F 	c #616E79",
"G 	c #899DAF",
"H 	c #869AAE",
"I 	c #8399AD",
"J 	c #8196AC",
"K 	c #B9C6D2",
"L 	c #CFD5DA",
"M 	c #768797",
"N 	c #7A8B9B",
"O 	c #7D8F9F",
"P 	c #8195A5",
"Q 	c #879AA9",
"R 	c #8B9FAC",
"S 	c #647179",
"T 	c #5F707C",
"U 	c #859FB3",
"V 	c #819CB2",
"W 	c #7D98B2",
"X 	c #7A96B1",
"Y 	c #B6C6D5",
"Z 	c #022142",
"` 	c #08294A",
" .	c #103354",
"..	c #193E5F",
"+.	c #234A69",
"@.	c #2E5673",
"#.	c #274255",
"$.	c #E9E9E9",
"%.	c #304D5C",
"&.	c #324F5E",
"*.	c #324F5F",
"=.	c #304F5F",
"-.	c #2F4D5F",
";.	c #2C4B5E",
">.	c #29485D",
",.	c #1C3F5A",
"'.	c #215682",
").	c #194F81",
"!.	c #114A7F",
"~.	c #0A447D",
"{.	c #7898B8",
"].	c #427F99",
"^.	c #A7B1BC",
"/.	c #032343",
"(.	c #082B4D",
"_.	c #103659",
":.	c #1B4265",
"<.	c #255475",
"[.	c #2F6784",
"}.	c #265163",
"|.	c #286675",
"1.	c #399BAF",
"2.	c #389FB2",
"3.	c #379FB2",
"4.	c #379EB2",
"5.	c #3799B0",
"6.	c #3694AB",
"7.	c #255F71",
"8.	c #1E4C69",
"9.	c #236292",
"0.	c #1B578D",
"a.	c #12518B",
"b.	c #0B4A89",
"c.	c #789BBF",
"d.	c #A7B2BC",
"e.	c #032445",
"f.	c #082D4F",
"g.	c #11385C",
"h.	c #1B4B70",
"i.	c #246283",
"j.	c #2B7A96",
"k.	c #206273",
"l.	c #E2E2E2",
"m.	c #207682",
"n.	c #2DB3C3",
"o.	c #2BB7C6",
"p.	c #2AB8C7",
"q.	c #2AB7C6",
"r.	c #2BB1C4",
"s.	c #2BABBF",
"t.	c #1F6E80",
"u.	c #1C5A75",
"v.	c #2272A1",
"w.	c #1C6199",
"x.	c #135694",
"y.	c #0B4F92",
"z.	c #799DC3",
"A.	c #407B94",
"B.	c #032547",
"C.	c #082E53",
"D.	c #113C61",
"E.	c #1A5478",
"F.	c #216E8D",
"G.	c #2786A1",
"H.	c #1E6A7A",
"I.	c #DCDCDC",
"J.	c #1B7D88",
"K.	c #1A828C",
"L.	c #17858D",
"M.	c #16858E",
"N.	c #16858D",
"O.	c #17828D",
"P.	c #1A7D89",
"Q.	c #1B7786",
"R.	c #1A627C",
"S.	c #217DAA",
"T.	c #1B6CA2",
"U.	c #145C9B",
"V.	c #0C5398",
"W.	c #78A0C6",
"X.	c #A7B2BD",
"Y.	c #032748",
"Z.	c #093054",
"`.	c #104467",
" +	c #195C7F",
".+	c #207795",
"++	c #248FA8",
"@+	c #1A717F",
"#+	c #D7D7D7",
"$+	c #17687F",
"%+	c #1E85B1",
"&+	c #1A73A8",
"*+	c #1362A1",
"=+	c #0C569C",
"-+	c #78A1C8",
";+	c #3D748E",
">+	c #03284A",
",+	c #083256",
"'+	c #0F496C",
")+	c #176485",
"!+	c #1D7E9A",
"~+	c #1F96AD",
"{+	c #198999",
"]+	c #147E88",
"^+	c #11858D",
"/+	c #0E888F",
"(+	c #0C8A91",
"_+	c #0A8B91",
":+	c #0D8790",
"<+	c #10848D",
"[+	c #137E8B",
"}+	c #147687",
"|+	c #19809A",
"1+	c #1C8BB5",
"2+	c #197AAD",
"3+	c #1268A4",
"4+	c #0C589F",
"5+	c #79A2C9",
"6+	c #3C7189",
"7+	c #A7B3BE",
"8+	c #03294C",
"9+	c #08365A",
"0+	c #0F4E70",
"a+	c #176889",
"b+	c #1B839E",
"c+	c #1D99B0",
"d+	c #1CACBE",
"e+	c #18B8C6",
"f+	c #14C0CC",
"g+	c #0DC8D1",
"h+	c #08CCD3",
"i+	c #07CDD4",
"j+	c #0CC8D2",
"k+	c #13C0CE",
"l+	c #17B9CA",
"m+	c #1AAEC5",
"n+	c #1BA0BE",
"o+	c #1B8FB7",
"p+	c #177DAF",
"q+	c #126CA8",
"r+	c #0C5CA2",
"s+	c #79A3CA",
"t+	c #2A607A",
"u+	c #A7B3BF",
"v+	c #4F6A86",
"w+	c #547693",
"x+	c #5A8CA8",
"y+	c #60A4BD",
"z+	c #64BBD0",
"A+	c #65CFE0",
"B+	c #63DEEB",
"C+	c #60E9F2",
"D+	c #5BF0F7",
"E+	c #54F7FC",
"F+	c #50FAFE",
"G+	c #4FFCFE",
"H+	c #5AF0F8",
"I+	c #5EEAF5",
"J+	c #62E1F0",
"K+	c #63D4EB",
"L+	c #63C6E5",
"M+	c #61B6DE",
"N+	c #5CA6D8",
"O+	c #5798D2",
"P+	c #528FCE",
"Q+	c #37657B",
"R+	c #02162B",
"S+	c #021931",
"T+	c #06243D",
"U+	c #0A374F",
"V+	c #104C62",
"W+	c #146072",
"X+	c #157280",
"Y+	c #137F8A",
"Z+	c #108890",
"`+	c #0B8F95",
" @	c #069598",
".@	c #02989A",
"+@	c #00999B",
"@@	c #059598",
"#@	c #0A8F95",
"$@	c #0E8992",
"%@	c #12818E",
"&@	c #14768A",
"*@	c #146A84",
"=@	c #115C7F",
"-@	c #0E4E78",
";@	c #084174",
">@	c #043970",
",@	c #FFFFFF",
"                                                    ",
". + @ # $ % & * = - ; > > > > , ' ) ! ~ { ] ^ / / ( ",
"_ + @ # $ % & * = - ; > > > > , ' ) ! ~ { ] ^ / / ( ",
": < [ } | 1 2 3 4 5 6 7 8 8 7 7 6 9 0 a b c d e e f ",
"g h i j k l m n o p p p p p p p p p p q r s t u u v ",
"w x y z A B C D E p p p p p p p p p p F G H I J J K ",
"w L M N O P Q R S p p p p p p p p p p T U V W X X Y ",
"w / Z `  ...+.@.#.$.%.&.*.*.=.-.;.>.$.,.'.).!.~.~.{.",
"].^./.(._.:.<.[.}.$.|.1.2.3.4.5.6.7.$.8.9.0.a.b.b.c.",
"w d.e.f.g.h.i.j.k.l.m.n.o.p.q.r.s.t.l.u.v.w.x.y.y.z.",
"A.d.B.C.D.E.F.G.H.I.J.K.L.M.N.O.P.Q.I.R.S.T.U.V.V.W.",
": X.Y.Z.`. +.+++@+#+#+#+#+#+#+#+#+#+#+$+%+&+*+=+=+-+",
";+X.>+,+'+)+!+~+{+]+^+/+(+_+(+:+<+[+}+|+1+2+3+4+4+5+",
"6+7+8+9+0+a+b+c+d+e+f+g+h+i+h+j+k+l+m+n+o+p+q+r+r+s+",
"t+u+v+w+x+y+z+A+B+C+D+E+F+G+F+E+H+I+J+K+L+M+N+O+O+P+",
"Q+R+S+T+U+V+W+X+Y+Z+`+ @.@+@.@@@#@$@%@&@*@=@-@;@;@>@",
",@,@,@,@,@,@,@,@,@,@,@,@,@,@,@,@,@,@,@,@,@,@,@,@,@,@",
"                                                    ",
"                                                    ",
"                                                    ",
"                                                    ",
"                                                    ",
"                                                    "};
