/* XPM */
static char * top_right_inactive_xpm[] = {
"10 23 10 1",
" 	c None",
".	c #D5D5D5",
"+	c #FBFBFB",
"@	c #E8E8E8",
"#	c #F9F9F9",
"$	c #E7E7E7",
"%	c #F6F6F6",
"&	c #F4F4F4",
"*	c #F2F2F2",
"=	c #F1F1F1",
"........  ",
"+++++++@. ",
"########$.",
"%%%%%%%%%.",
"&&&&&&&&&.",
"*********.",
"=========.",
"@@@@@@@@@.",
"@@@@@@@@@.",
"@@@@@@@@@.",
"@@@@@@@@@.",
"@@@@@@@@@.",
"@@@@@@@@@.",
"$$$$$$$$$.",
"$$$$$$$$$.",
"$$$$$$$$$.",
"$$$$$$$$$.",
"$$$$$$$$$.",
"$$$$$$$$$.",
"$$$$$$$$$.",
"$$$$$$$$$.",
"$$$$$$$$$.",
"......$$$."};
