/* XPM */
static char * bc_xpm[] = {
"64 64 14 1",
" 	c None",
".	c #BFBFBF",
"+	c #BFC3BF",
"@	c #C3C3C3",
"#	c #C7C7C7",
"$	c #BBBBBB",
"%	c #BBBBBF",
"&	c #BFBFBB",
"*	c #BFC3C3",
"=	c #BBBFBF",
"-	c #B8B8B8",
";	c #B8B8BB",
">	c #BBBFBB",
",	c #CBCBCB",
"............+.@@@.@@@@##@@#@@##@@@@@@@@@@@@###@@@.+@+...........",
"$......@@@@@@@@@@.............@.........@@@@#@@#####@@#@.....$$$",
"###@#####@##@@@@@@@@@.@@..........@@@#@@@.@......%$&......@.@@@@",
"@@@@@..$..........@@@@#@@@@@@@@##@@@@@.@@@@@@@@@@@##############",
"+.@@@@@@@.@@@#@@@.@@.@@@@@@@.....$......&$$&....$..$...$......@.",
"....@@@@.@@@@@*@@@@@@@@+......@....$$=....+...@@@@@@@@@@@@@.....",
"@@@@@......$$..&.......@@@@@.@@@@@@@##@@@@@@@@@...@@@@@@@.@@@###",
"#@##@@@@@#@@@###########@@####@@@@@@@@@@#@@@@@@@@#@@@@#@@######@",
"......@@@@@@@@@................@@.....&.$$$$..................$.",
".@@@@@@@@@@@@@@@@.......$$$$$-$-;$>.....@####@@@@@@+@@@@@@@@@.@.",
"...@@@@...............@@###,#,,,,#####@@@@@@@...............&..$",
"@#@@@@....@@.@.....+@.*@...&.....$$$..........+..............@@@",
"..>.$......................*..........@@@@@######@@@@@@@@@...@..",
"....@.*@@@@@@@@@###@#@@@@...$$$$$.......@@.@....@@@@@@@@@@@@@@@.",
"#####@#@@@@@@@@@@@....@@@@@@@@@@@@@.@@@@@@.........$.....@@@@#@#",
"......@@@..@....@@.@@@@@@@@@@#@.@.@@........@@@@@@@@@@@.@..@@...",
"@@@@##@@@.@@..+.@..@@@@@@@@##@@###@@###@###@###@###@..........*.",
"$$$$$$........+@....@@@@@@@@@@@@##@##@###@@@@@@@.@@@@@@@@@...$$$",
"@@@@@####@@@@@@@#@@@@@@.@@@@...$=.....$$.$.................@@@##",
"+@@.....$$...>......@@@###########################@@@@@@@@@@@@@@",
"@@@@@@@.@@@*@@@@@@@@@......$$$$$$$.$.$.............+@@@@@@@@@###",
"@@@@................@@@@###########@@@..@@@@@@@@@@@@###@####@@@@",
"$..+@@@@@@@@@@@@@@@@@#@@@@@@@@@@@@@.@@@@@@##@@@@..........%...$%",
".....@@@@@.@@@@@@@@@@@.......$$.$$...$..&.$.&...................",
"@@@@#@@@@@@@@@@...@.+@@..@.@.@@###@@@@#@@################@@@@@#@",
"@####@@@@@@@@@@....$..............@@@....................@@@@@@@",
"@@@@@@@@@@@@@@@.....+.@@@..@@@@@@@@@@###@#####@@@@@...........@@",
"@@@@@.@.+.@....@@####@###@@#####@@#@#@@@##@@.......@@@@.@@@@@@@@",
"@@@.@@@@+@@@@@@@@@@@.@@@@@@@#########@@@@....@@....@############",
".....@@..@..........$$...@@.....&....&..$....@@@@.@*..$&$$.$$$..",
"@@......@@@@..@@@##@###@@@.@#@#@@@@####@###@@@@@@@@..@@@@.@@@+..",
"....@................@.@@@@@@.@.@@............@.@@..+@.@++@@....",
"@@@@@@@@@@@###@@@..@..........................@@@.@@@@##@@#@@##@",
"........@@@@#@@#####@@#@.....%$$$...+..@@@@@@@@@@.............@.",
"..@@@#@@@.@......$$.......@.@@@@###@#####@##@@@@@@@@@.@@...*....",
"#@@@@@.@@@@@@@@@@@##############@@@@@..$..........@@@@#@@@@@@@@#",
".$.&.....$>.....>..$...$......@...@@@@@@@.@@@#@@@.@@.@@@@@@@....",
"...$$.....+...@@@@@@@@@@@@@*.+......@@@@.@@@@@.@@@@@@@@.......@.",
"@@@@##@@@@@@@@@...@@@@@@@.@@@###@@@@@......$=..&.......@@@@@.@@@",
"@@@@@@@@#@@@@@@@@#@@@@#@@######@#@##@@@@@#@@@###########@@####@@",
"@.......$$$$..................$.......@@@@@@@@@................@",
"-$$.....@####@@@@@@.@@@@@@@@@.@..@@@@@@@@@@@@@@@@....&..$$$$$-$-",
",#####@@@@@@@..................$...@@@@+..............@@###,#,,,",
".$$$..........@..............@@@@#@@@@....@@.@.+*...@..@.....>&.",
".*....@@@@@######@@@@@@@@@...@......$..&........................",
"$.......@@.@....@@@@@@@@@@@@@@@.....@..@@@@@@@@@###@#@@@@...$$$$",
"@@@.@@@@@@.........$.....@@@@#@######@#@@@@@@@@@@@....@@@@@@@@@@",
"@.@@..+..*..@@@@@@@@@@@.@..@@.........@@@..@....@@+@@@@@@@@@@#@.",
"##@@###@###@###@###@............@@@@##@@@.@@....@..@@@@@@@@##@@#",
"##@##@###@@@@@@@.@@@@@@@@@..&$$$$$$$$$.........@....@@@@@@@@@@@@",
"......$$.$.................@@@##@@@@@####@@@@@@@#@@@@@@.@@@@...$",
"##################@@@@+@@@@@@@@@.@@.....$$..........@@@#########",
"$$.$.$..............@@@@@@@@@###@@@@@@@.@@@@@@@@@@@@@......$$$$$",
"###@@@..@@@@@@@@@@@@###@####@@@@@@@@................@@@@########",
"@@@.@@@@@@##@@@@..........%>=.$$$..@@@@@@@@@@@@@@@@@@#@@@@@@@@@@",
"$$..&$....$.&........................@@@@@.@@@@@@@@@@@.......$$.",
"##@@@@#@@################@@@@@#@@@@@#@@@@@@@@@@...@..@@..@.@.@@#",
"..@@@....................@@@@@@@@####@@@@@@@@@@....$............",
"@@@@@###@#####@@@@@...........@@@@@@@@@@@@@@@@@.....@.@@@..@@@@@",
"@@#@#@@@##@@.......@@@@.@@@@@@@@@@@@@.@.*.@....@@####@###@@#####",
"#####@@@@....@@....@############@@@*@@@@@@@@@@@@@@@@.@@@@@@@####",
"........$....@@@@.@@..$$$$.$$$.......@@..@..........$$...@@.....",
"@@@####@###@@@@@@@@..@@@@.@@@@..@@......@@@@..@@@##@###@@@.@#@#@",
"@@............@.@@...@.@.+@@........@................@.@@@@@@.@."};
