/* XPM */
static char * bookmark_xpm[] = {
"16 16 101 2",
"  	c None",
". 	c #22345B",
"+ 	c #273C68",
"@ 	c #263C68",
"# 	c #253A64",
"$ 	c #233760",
"% 	c #000000",
"& 	c #F1EDED",
"* 	c #FAF4F2",
"= 	c #E1DFE6",
"- 	c #B5C2D9",
"; 	c #D9D3DD",
"> 	c #89A9CA",
", 	c #22355D",
"' 	c #243962",
") 	c #83ADD7",
"! 	c #8BB6DB",
"~ 	c #BBD1E4",
"{ 	c #8FA8CE",
"] 	c #3E76BA",
"^ 	c #325DA1",
"/ 	c #304975",
"( 	c #1F3054",
"_ 	c #273D6A",
": 	c #8EBAD8",
"< 	c #AC7A09",
"[ 	c #E8F0F5",
"} 	c #D0DFEC",
"| 	c #86ABD2",
"1 	c #8CADD1",
"2 	c #96B2D2",
"3 	c #5378A5",
"4 	c #1D2D4E",
"5 	c #D2BBA5",
"6 	c #DDE8F0",
"7 	c #B9D2E4",
"8 	c #587CB0",
"9 	c #436BA6",
"0 	c #4A6F9E",
"a 	c #324E82",
"b 	c #15213A",
"c 	c #7CA1CA",
"d 	c #658AB7",
"e 	c #33508D",
"f 	c #2F4A80",
"g 	c #46638E",
"h 	c #1E2F52",
"i 	c #3A527F",
"j 	c #3F5B90",
"k 	c #263A68",
"l 	c #1F2F58",
"m 	c #203155",
"n 	c #8E6407",
"o 	c #344D80",
"p 	c #3A507B",
"q 	c #384B72",
"r 	c #1D294E",
"s 	c #253963",
"t 	c #BBCFE1",
"u 	c #5D82AF",
"v 	c #556F97",
"w 	c #40557E",
"x 	c #1F2D54",
"y 	c #D4DFE9",
"z 	c #7193BA",
"A 	c #5173A0",
"B 	c #5E759E",
"C 	c #5E7CA3",
"D 	c #273D69",
"E 	c #243861",
"F 	c #374D79",
"G 	c #89AEC3",
"H 	c #ABB9CF",
"I 	c #93A5C3",
"J 	c #6D86AD",
"K 	c #3E5C8D",
"L 	c #314B7C",
"M 	c #283E6B",
"N 	c #3D527C",
"O 	c #899BBC",
"P 	c #7184AD",
"Q 	c #657AA6",
"R 	c #6075A2",
"S 	c #58729F",
"T 	c #395B89",
"U 	c #253A63",
"V 	c #22365D",
"W 	c #394C75",
"X 	c #536C87",
"Y 	c #6E85AB",
"Z 	c #5E76A3",
"` 	c #546C9C",
" .	c #536D9C",
"..	c #486892",
"+.	c #1A2A4A",
"@.	c #1D2E50",
"#.	c #324670",
"$.	c #314671",
"%.	c #324772",
"&.	c #304570",
"*.	c #324771",
"                                ",
"          . + + + @ #           ",
"      $ % & * = - ; > , '       ",
"    +   % % ) ! ~ { ] ^ / (     ",
"    _ : % < % [ } | 1 2 3 4     ",
"% % % % % 5 < % 6 7 8 9 0 a b   ",
"% 5 5 5 5 5 5 < % c d e f g h   ",
"% 5 5 5 5 5 5 5 < % i j k l m   ",
"% 5 < 5 < 5 < 5 n % o p q r s   ",
"% < 5 < 5 < 5 n % t u v w x #   ",
"% % % % % 5 n % y z A B C D E   ",
"    F G % n % H I J K L M #     ",
"    N   % % O P Q R S T U V     ",
"      W % X Y Z `  ...+.@.      ",
"          #.$.%.$.&.*.          ",
"                                "};
