#define max_toggled_width 7
#define max_toggled_height 7
static unsigned char max_toggled_bits[] = {
   0x07, 0x07, 0x00, 0x0e, 0x6e, 0x6e, 0x60 };
