<?xml version="1.0" encoding="UTF-8" standalone="no"?>
<!DOCTYPE svg PUBLIC "-//W3C//DTD SVG 20010904//EN"
"http://www.w3.org/TR/2001/REC-SVG-20010904/DTD/svg10.dtd">
<!-- Created with Inkscape (http://www.inkscape.org/) -->
<svg
   id="svg921"
   sodipodi:version="0.32"
   inkscape:version="0.38.1"
   width="48.000000pt"
   height="48.000000pt"
   sodipodi:docbase="/usr/share/icons/Suede/scalable/stock"
   sodipodi:docname="stock_people.svg"
   xmlns="http://www.w3.org/2000/svg"
   xmlns:cc="http://web.resource.org/cc/"
   xmlns:inkscape="http://www.inkscape.org/namespaces/inkscape"
   xmlns:sodipodi="http://sodipodi.sourceforge.net/DTD/sodipodi-0.dtd"
   xmlns:rdf="http://www.w3.org/1999/02/22-rdf-syntax-ns#"
   xmlns:dc="http://purl.org/dc/elements/1.1/"
   xmlns:xlink="http://www.w3.org/1999/xlink">
  <defs
     id="defs923">
    <radialGradient
       inkscape:collect="always"
       xlink:href="#linearGradient7230"
       id="radialGradient7229"
       cx="0.10828026"
       cy="0.036144577"
       r="0.59473723"
       fx="0.10828026"
       fy="0.036144577" />
    <linearGradient
       id="linearGradient7230">
      <stop
         style="stop-color:#fafafa;stop-opacity:1.0000000;"
         offset="0.0000000"
         id="stop7231" />
      <stop
         style="stop-color:#faefc8;stop-opacity:1.0000000;"
         offset="1.0000000"
         id="stop7232" />
    </linearGradient>
    <linearGradient
       id="linearGradient912">
      <stop
         style="stop-color:#85a7ca;stop-opacity:1.0000000;"
         offset="0.0000000"
         id="stop914" />
      <stop
         style="stop-color:#586f87;stop-opacity:1.0000000;"
         offset="1.0000000"
         id="stop916" />
    </linearGradient>
    <linearGradient
       xlink:href="#linearGradient912"
       id="linearGradient687"
       y2="1.9680506"
       x2="1.6790782"
       y1="0.19545758"
       x1="0.22845474" />
    <linearGradient
       id="linearGradient617">
      <stop
         style="stop-color:#ffffff;stop-opacity:1.0000000;"
         offset="0.0000000"
         id="stop618" />
      <stop
         style="stop-color:#2f8c2f;stop-opacity:1.0000000;"
         offset="1.0000000"
         id="stop619" />
    </linearGradient>
    <linearGradient
       xlink:href="#linearGradient617"
       id="linearGradient612"
       x1="0.46913579"
       y1="0.75781250"
       x2="0.47530866"
       y2="0.015625000" />
    <linearGradient
       id="linearGradient891">
      <stop
         style="stop-color:#ffd04f;stop-opacity:1.0000000;"
         offset="0.0000000"
         id="stop893" />
      <stop
         style="stop-color:#d57f20;stop-opacity:1.0000000;"
         offset="1.0000000"
         id="stop895" />
    </linearGradient>
    <radialGradient
       xlink:href="#linearGradient912"
       id="radialGradient610"
       cx="0.11698113"
       cy="0.10240964"
       r="0.75023246"
       fx="0.11698113"
       fy="0.10240964" />
    <linearGradient
       id="linearGradient960">
      <stop
         style="stop-color:#93c3d8;stop-opacity:1.0000000;"
         offset="0.0000000"
         id="stop962" />
      <stop
         style="stop-color:#002f5b;stop-opacity:1.0000000;"
         offset="1.0000000"
         id="stop964" />
    </linearGradient>
    <linearGradient
       xlink:href="#linearGradient960"
       id="linearGradient626"
       x1="0.56538463"
       y1="0.22656250"
       x2="0.35769230"
       y2="0.85937500" />
    <defs
       id="defs3" />
    <sodipodi:namedview
       id="namedview941"
       pagecolor="#ffffff"
       bordercolor="#666666"
       borderopacity="1.0"
       inkscape:pageopacity="0.0"
       inkscape:pageshadow="2"
       inkscape:zoom="14.321029"
       inkscape:cx="273.35699"
       inkscape:cy="474.49476"
       inkscape:window-width="1139"
       inkscape:window-height="749"
       inkscape:window-x="0"
       inkscape:window-y="29" />
    <metadata
       id="metadata4">
      <rdf:RDF
         id="RDF5">
        <cc:Work
           rdf:about=""
           id="Work6">
          <dc:format
             id="format7">image/svg+xml</dc:format>
          <dc:type
             id="type9"
             rdf:resource="http://purl.org/dc/dcmitype/StillImage" />
        </cc:Work>
      </rdf:RDF>
    </metadata>
    <radialGradient
       inkscape:collect="always"
       xlink:href="#linearGradient891"
       id="radialGradient11703"
       cx="0.0079484181"
       cy="0.035650626"
       r="0.67887592"
       fx="0.0079484181"
       fy="0.035650626" />
    <radialGradient
       inkscape:collect="always"
       xlink:href="#linearGradient891"
       id="radialGradient11704"
       cx="0.051686343"
       cy="0.047711644"
       r="1.0436366"
       fx="0.051686343"
       fy="0.047711644" />
    <radialGradient
       inkscape:collect="always"
       xlink:href="#linearGradient7230"
       id="radialGradient11706" />
    <radialGradient
       inkscape:collect="always"
       xlink:href="#linearGradient617"
       id="radialGradient11707"
       cx="0.042402826"
       cy="0.048192769"
       r="0.72042829"
       fx="0.042402826"
       fy="0.048192769" />
  </defs>
  <sodipodi:namedview
     id="base"
     pagecolor="#ffffff"
     bordercolor="#666666"
     borderopacity="1.0"
     inkscape:pageopacity="0.0"
     inkscape:pageshadow="2"
     inkscape:zoom="4.5156250"
     inkscape:cx="64.000000"
     inkscape:cy="-6.8650519"
     inkscape:window-width="1142"
     inkscape:window-height="749"
     inkscape:window-x="0"
     inkscape:window-y="29" />
  <metadata
     id="metadata35">
    <rdf:RDF
       id="RDF36">
      <cc:Work
         rdf:about=""
         id="Work37">
        <dc:format
           id="format38">image/svg+xml</dc:format>
        <dc:type
           id="type40"
           rdf:resource="http://purl.org/dc/dcmitype/StillImage" />
      </cc:Work>
    </rdf:RDF>
  </metadata>
  <g
     id="g957"
     transform="matrix(0.913038,0.000000,0.000000,0.913038,-0.748607,1.304679)">
    <path
       style="fill:#8f8f8f;fill-opacity:0.57971013;fill-rule:evenodd;stroke:none;stroke-width:1.4506847pt;stroke-linecap:round;stroke-linejoin:round;stroke-opacity:1.0000000;"
       d="M 27.798235,59.567463 C 46.606686,58.619704 48.666474,55.830216 48.666487,55.830229 C 50.025971,55.377068 50.300478,45.914265 47.216202,42.917829 C 40.133280,34.551183 28.815641,35.388038 28.167770,35.310786 C 27.519859,35.233549 9.3940288,37.764749 5.2566555,45.451652 C 3.0787149,49.807573 4.7126927,55.603649 4.7126927,55.603649 C 4.7126794,55.603636 14.004525,59.567463 27.798235,59.567463 z "
       id="path910" />
    <path
       style="fill:#8f8f8f;fill-opacity:0.57971013;fill-rule:evenodd;stroke:none;stroke-width:1.4506847pt;stroke-linecap:round;stroke-linejoin:round;stroke-opacity:1.0000000;"
       d="M 42.521378,49.013769 C 61.329830,48.066010 63.389618,45.276522 63.389631,45.276535 C 64.749115,44.823374 65.023622,35.360571 61.939346,32.364135 C 54.856424,23.997489 43.538784,24.834344 42.890913,24.757092 C 42.243002,24.679855 24.117173,27.211055 19.979799,34.897958 C 17.801859,39.253879 19.435837,45.049955 19.435837,45.049955 C 19.435823,45.049942 28.727668,49.013769 42.521378,49.013769 z "
       id="path7238" />
    <path
       style="fill:url(#radialGradient11707);fill-opacity:1.0000000;fill-rule:evenodd;stroke:#000000;stroke-width:1.5750000;stroke-linecap:round;stroke-linejoin:round;stroke-miterlimit:4.0000000;stroke-opacity:1.0000000;"
       d="M 42.517854,46.244996 C 57.176238,46.205579 62.799653,43.121037 62.799665,43.121049 C 62.799665,43.121049 63.491854,37.568165 61.420094,33.424633 C 57.484453,26.112532 43.485652,23.244524 42.869371,23.171039 C 42.253051,23.097568 28.028471,26.151949 24.092830,33.464050 C 22.021082,37.607582 22.713258,43.121049 22.713258,43.121049 C 22.713246,43.121037 29.396705,46.244996 42.517854,46.244996 z "
       id="path4090" />
    <path
       sodipodi:type="arc"
       style="fill:url(#radialGradient11704);fill-opacity:1.0000000;fill-rule:evenodd;stroke:#000000;stroke-width:1.0000000pt;stroke-linecap:butt;stroke-linejoin:miter;stroke-opacity:1.0000000;"
       id="path4092"
       sodipodi:cx="319.70236"
       sodipodi:cy="448.71805"
       sodipodi:rx="8.4229412"
       sodipodi:ry="10.787276"
       d="M 328.12530 448.71805 A 8.4229412 10.787276 0 1 0 311.27942,448.71805 A 8.4229412 10.787276 0 1 0 328.12530 448.71805 z"
       transform="matrix(1.113126,0.000000,0.000000,1.208809,-313.2124,-525.5979)" />
    <path
       style="fill:#000000;fill-opacity:1.0000000;fill-rule:evenodd;stroke:#000000;stroke-width:3.7125001;stroke-linecap:butt;stroke-linejoin:round;stroke-miterlimit:4.0000000;stroke-opacity:1.0000000;"
       d="M 42.722190,4.1263395 C 39.230264,4.1263395 34.230911,7.3815392 33.049370,10.946221 C 30.115513,18.219419 32.567381,29.603720 34.570937,29.711548 C 31.729833,18.999648 34.297395,11.761346 34.081862,11.761346 L 35.467575,11.788517 C 37.926673,12.650648 40.181579,12.848180 42.640677,12.848180 C 45.099776,12.848180 48.878381,12.352893 51.337480,11.706294 C 51.337480,11.103880 49.669106,5.6126133 49.569243,7.3868407 C 49.569243,5.5788869 46.500980,4.1263395 42.722190,4.1263395 z "
       id="path4093"
       sodipodi:nodetypes="ccccccccc" />
    <path
       style="fill:#000000;fill-opacity:1.0000000;fill-rule:evenodd;stroke:#000000;stroke-width:2.4671128;stroke-linecap:butt;stroke-linejoin:round;stroke-miterlimit:4.0000000;stroke-opacity:1.0000000;"
       d="M 48.970063,5.4548685 L 51.715739,12.250421 C 51.500206,12.250421 54.067768,20.754748 51.226664,30.173452 C 53.230219,30.065625 56.081541,18.508767 53.147684,11.235569 C 51.747202,7.1561478 50.248808,6.4032808 48.970063,5.4548685 z "
       id="path11077"
       sodipodi:nodetypes="ccccc" />
    <path
       style="fill:url(#radialGradient11706);fill-opacity:1.0000000;fill-rule:evenodd;stroke:#faf3db;stroke-width:1.5375000;stroke-linecap:butt;stroke-linejoin:round;stroke-miterlimit:4.0000000;stroke-opacity:1.0000000;"
       d="M 42.850886,4.0964857 C 39.358959,4.0964857 34.359607,7.3516857 33.178065,10.916368 C 30.244209,18.189566 32.696077,29.573867 34.699632,29.681695 C 31.858528,18.969795 34.426090,11.731493 34.210557,11.731493 L 35.596270,11.758664 C 38.055369,12.620795 40.310274,12.818327 42.769373,12.818327 C 45.228473,12.818328 48.164527,12.600537 50.567405,11.976030 C 53.139750,11.307480 49.697938,7.4801617 49.697938,7.3569877 C 49.697938,5.5490337 46.629676,4.0964857 42.850886,4.0964857 z "
       id="path6606" />
    <path
       style="fill:url(#radialGradient7229);fill-opacity:1.0000000;fill-rule:evenodd;stroke:#faf3db;stroke-width:1.0375000;stroke-linecap:butt;stroke-linejoin:round;stroke-miterlimit:4.0000000;stroke-opacity:1.0000000;"
       d="M 49.670343,6.2738529 L 51.997352,12.232070 C 52.329936,13.083640 54.168869,20.375374 51.327764,29.794077 C 53.331320,29.686250 55.783188,18.329121 52.849332,11.055922 C 51.848302,8.5743121 50.949088,7.2222649 49.670343,6.2738529 z "
       id="path11075" />
    <path
       style="fill:url(#radialGradient610);fill-opacity:1.0000000;fill-rule:evenodd;stroke:#000000;stroke-width:1.4506847pt;stroke-linecap:round;stroke-linejoin:round;stroke-opacity:1.0000000;"
       d="M 26.042322,56.512773 C 41.452063,56.471336 47.363722,53.228687 47.363735,53.228700 C 47.363735,53.228700 48.091404,47.391187 45.913450,43.035267 C 41.776076,35.348363 27.059727,32.333347 26.411856,32.256096 C 25.763945,32.178858 10.810243,35.389800 6.6728702,43.076704 C 4.4949294,47.432624 5.2225848,53.228700 5.2225848,53.228700 C 5.2225715,53.228687 12.248610,56.512773 26.042322,56.512773 z "
       id="path3446" />
    <path
       style="fill:#ffffff;fill-opacity:1.0000000;fill-rule:evenodd;stroke:#000000;stroke-width:0.50000000;stroke-linecap:butt;stroke-linejoin:miter;stroke-miterlimit:4.0000000;stroke-opacity:1.0000000;"
       d="M 19.316998,37.150841 C 20.242900,39.234094 26.261199,50.807775 26.029736,57.289036 C 26.029724,59.140825 25.798261,47.567144 32.279521,37.382317 L 19.316998,37.150841 z "
       id="path3447" />
    <path
       sodipodi:type="arc"
       style="fill:url(#radialGradient11703);fill-opacity:1.0000000;fill-rule:evenodd;stroke:#000000;stroke-width:1.0000000pt;stroke-linecap:butt;stroke-linejoin:miter;stroke-opacity:1.0000000;"
       id="path3448"
       sodipodi:cx="319.70236"
       sodipodi:cy="448.71805"
       sodipodi:rx="8.4229412"
       sodipodi:ry="10.787276"
       d="M 328.12530 448.71805 A 8.4229412 10.787276 0 1 0 311.27942,448.71805 A 8.4229412 10.787276 0 1 0 328.12530 448.71805 z"
       transform="matrix(1.302511,0.000000,0.000000,1.253298,-390.2279,-536.6022)" />
    <path
       sodipodi:type="arc"
       style="fill:#000000;fill-opacity:1.0000000;fill-rule:evenodd;stroke:#000000;stroke-width:1.0000000pt;stroke-linecap:butt;stroke-linejoin:miter;stroke-opacity:1.0000000;"
       id="path3449"
       sodipodi:cx="319.62848"
       sodipodi:cy="443.91547"
       sodipodi:rx="5.9847217"
       sodipodi:ry="2.8815327"
       d="M 325.61320 443.91547 A 5.9847217 2.8815327 0 1 0 313.64376,443.91547 A 5.9847217 2.8815327 0 1 0 325.61320 443.91547 z"
       transform="matrix(1.202483,0.000000,0.000000,1.194907,-358.0985,-515.2161)" />
    <path
       style="fill:#000000;fill-opacity:1.0000000;fill-rule:evenodd;stroke:#000000;stroke-width:1.6725752pt;stroke-linecap:butt;stroke-linejoin:miter;stroke-opacity:1.0000000;"
       d="M 17.985449,19.308926 C 18.212030,19.308926 15.737172,22.934567 15.551777,29.210764 C 14.578427,27.511344 14.721316,21.788991 15.539749,19.807499 C 16.613653,17.207491 17.560618,15.774221 18.904909,14.777195 L 17.985449,18.493181 L 17.985449,19.308926 z "
       id="path3450" />
    <path
       style="fill:#ffffff;fill-opacity:1.0000000;fill-rule:evenodd;stroke:#001e75;stroke-width:0.50000000;stroke-linecap:butt;stroke-linejoin:miter;stroke-miterlimit:4.0000000;stroke-opacity:1.0000000;"
       d="M 32.742460,48.955984 L 41.205644,48.048230 L 38.030074,44.641198 L 32.742460,48.955984 z "
       id="path3451"
       sodipodi:nodetypes="cccc" />
    <path
       style="fill:none;fill-opacity:0.75000000;fill-rule:evenodd;stroke:#000000;stroke-width:1.9875000;stroke-linecap:butt;stroke-linejoin:miter;stroke-miterlimit:4.0000000;stroke-opacity:1.0000000;"
       d="M 21.938796,32.743479 L 29.947346,32.743479 C 29.947346,32.743479 31.092278,39.087736 25.722505,38.634574 C 21.247025,38.634573 21.938796,32.743479 21.938796,32.743479 z "
       id="path3452" />
    <path
       style="fill:#000000;fill-opacity:1.0000000;fill-rule:evenodd;stroke:#000000;stroke-width:1.0179010pt;stroke-linecap:butt;stroke-linejoin:miter;stroke-opacity:1.0000000;"
       d="M 18.857348,20.054963 C 21.442495,20.961285 23.801061,21.187866 26.386208,21.187866 C 28.971355,21.187866 32.009663,20.961285 34.594810,20.281543 C 34.594810,19.601801 33.890514,15.523351 33.420984,15.523351 C 32.951453,15.523351 28.021381,13.710705 28.021381,13.710705 L 18.630767,16.882834 L 18.857348,20.054963 z "
       id="path3453" />
    <path
       style="fill:#000000;fill-opacity:1.0000000;fill-rule:evenodd;stroke:#000000;stroke-width:1.6725752pt;stroke-linecap:butt;stroke-linejoin:miter;stroke-opacity:1.0000000;"
       d="M 34.362855,19.409134 C 34.136275,19.409134 36.611132,23.034775 36.796528,29.310972 C 37.769878,27.611553 37.626989,21.889199 36.808555,19.907708 C 35.734651,17.307699 34.787687,15.874430 33.443396,14.877404 L 34.362855,18.593389 L 34.362855,19.409134 z "
       id="path3454" />
  </g>
</svg>
