<?xml version="1.0" encoding="UTF-8" standalone="no"?>
<!DOCTYPE svg PUBLIC "-//W3C//DTD SVG 20010904//EN"
"http://www.w3.org/TR/2001/REC-SVG-20010904/DTD/svg10.dtd">
<!-- Created with Inkscape (http://www.inkscape.org/) -->
<svg
   id="svg1"
   sodipodi:version="0.32"
   inkscape:version="0.38.1"
   width="48.000000pt"
   height="48.000000pt"
   sodipodi:docbase="/usr/share/icons/Suede/scalable/stock"
   sodipodi:docname="stock_cancel.svg"
   xmlns="http://www.w3.org/2000/svg"
   xmlns:inkscape="http://www.inkscape.org/namespaces/inkscape"
   xmlns:sodipodi="http://sodipodi.sourceforge.net/DTD/sodipodi-0.dtd"
   xmlns:xlink="http://www.w3.org/1999/xlink">
  <defs
     id="defs3">
    <linearGradient
       id="linearGradient851">
      <stop
         style="stop-color:#df421e;stop-opacity:1.0000000;"
         offset="0.0000000"
         id="stop852" />
      <stop
         style="stop-color:#990000;stop-opacity:1.0000000;"
         offset="1.0000000"
         id="stop855" />
    </linearGradient>
    <linearGradient
       id="linearGradient566">
      <stop
         style="stop-color:#ffff00;stop-opacity:1.0000000;"
         offset="0.0000000"
         id="stop567" />
      <stop
         style="stop-color:#ffd800;stop-opacity:1.0000000;"
         offset="0.43829629"
         id="stop854" />
      <stop
         style="stop-color:#ffb200;stop-opacity:1.0000000;"
         offset="1.0000000"
         id="stop568" />
    </linearGradient>
    <linearGradient
       id="linearGradient860">
      <stop
         style="stop-color:#ffffff;stop-opacity:1.0000000;"
         offset="0.0000000"
         id="stop861" />
      <stop
         style="stop-color:#ffea7d;stop-opacity:1.0000000;"
         offset="0.25000000"
         id="stop862" />
      <stop
         style="stop-color:#ffbf00;stop-opacity:1.0000;"
         offset="1"
         id="stop863" />
    </linearGradient>
    <linearGradient
       xlink:href="#linearGradient566"
       id="linearGradient569"
       x1="0.48750001"
       y1="0.48387095"
       x2="0.96249998"
       y2="0.48387095"
       spreadMethod="reflect" />
    <linearGradient
       xlink:href="#linearGradient566"
       id="linearGradient589"
       x1="0.44374999"
       y1="0.046875000"
       x2="0.44374999"
       y2="0.57812500"
       spreadMethod="reflect" />
    <linearGradient
       id="linearGradient849">
      <stop
         style="stop-color:#ffc900;stop-opacity:1.0000000;"
         offset="0.0000000"
         id="stop850" />
      <stop
         style="stop-color:#5d5d5c;stop-opacity:1.0000000;"
         offset="1.0000000"
         id="stop851" />
    </linearGradient>
    <linearGradient
       id="linearGradient843">
      <stop
         style="stop-color:#ffffff;stop-opacity:1.0000000;"
         offset="0.0000000"
         id="stop844" />
      <stop
         style="stop-color:#5c5d5c;stop-opacity:1.0000000;"
         offset="1.0000000"
         id="stop845" />
    </linearGradient>
    <linearGradient
       id="linearGradient838">
      <stop
         style="stop-color:#ffd000;stop-opacity:1.0000000;"
         offset="0.0000000"
         id="stop839" />
      <stop
         style="stop-color:#5c5d5c;stop-opacity:1.0000000;"
         offset="1.0000000"
         id="stop840" />
    </linearGradient>
    <linearGradient
       xlink:href="#linearGradient838"
       id="linearGradient841"
       x1="0.35333332"
       y1="0.35135135"
       x2="0.47999999"
       y2="0.049549550" />
    <linearGradient
       xlink:href="#linearGradient843"
       id="linearGradient842"
       x1="0.80165291"
       y1="0.15765765"
       x2="0.43801653"
       y2="0.72522521" />
    <linearGradient
       xlink:href="#linearGradient849"
       id="linearGradient847"
       x1="0.53358209"
       y1="0.50450450"
       x2="0.33208954"
       y2="0.24324325" />
    <radialGradient
       xlink:href="#linearGradient851"
       id="radialGradient853"
       cx="0.32499999"
       cy="0.33021805"
       r="0.54695481"
       fx="0.32187498"
       fy="0.33021802" />
  </defs>
  <sodipodi:namedview
     id="base"
     pagecolor="#ffffff"
     bordercolor="#666666"
     borderopacity="1.0"
     inkscape:pageopacity="0.0"
     inkscape:pageshadow="2"
     inkscape:zoom="4.7578125"
     inkscape:cx="64.000000"
     inkscape:cy="9.2479475"
     inkscape:window-width="1142"
     inkscape:window-height="752"
     showgrid="false"
     snaptogrid="false"
     gridspacingx="1.0000000mm"
     gridspacingy="1.0000000mm"
     inkscape:window-x="0"
     inkscape:window-y="29" />
  <path
     style="fill:#c2c2c6;fill-opacity:0.80769229;fill-rule:evenodd;stroke:#c2c2c6;stroke-width:1.8390471;stroke-linecap:round;stroke-opacity:0.68461537;"
     d="M 12.097672,8.1312751 C 10.031078,8.1365093 8.1638793,9.4110191 7.3849656,11.345526 C 6.6060539,13.280031 7.0699051,15.490871 8.5457311,16.952864 L 22.823140,31.428716 L 8.4992994,45.857642 C 7.1293913,47.135292 6.5590477,49.074853 7.0135220,50.901901 C 7.4679952,52.728958 8.8766405,54.161234 10.681539,54.632304 C 12.486436,55.103384 14.399785,54.530396 15.672828,53.154222 L 29.996668,38.725299 L 44.274071,53.201144 C 45.538311,54.585592 47.457497,55.161993 49.265362,54.702696 C 51.073227,54.243404 52.490466,52.819797 52.956596,50.995748 C 53.422721,49.171692 52.855751,47.238047 51.494029,45.951491 L 37.216627,31.475638 L 51.540462,17.046711 C 53.049600,15.572484 53.512505,13.301849 52.701228,11.345526 C 51.889946,9.3891989 49.970683,8.1480000 47.872444,8.2016611 C 46.549209,8.2377500 45.291882,8.7931430 44.366929,9.7501311 L 30.043097,24.179059 L 15.765689,9.7032077 C 14.804997,8.6975383 13.480846,8.1300730 12.097672,8.1312751 z "
     id="path881" />
  <path
     style="fill:#c70000;fill-rule:evenodd;stroke:#000000;stroke-width:1.7992524;stroke-linecap:round;"
     d="M 11.133420,8.2423385 C 9.1115458,8.2474595 7.2847508,9.4943905 6.5226918,11.387037 C 5.7606348,13.279682 6.2144488,15.442682 7.6583398,16.873040 L 21.626803,31.035652 L 7.6129128,45.152354 C 6.2726478,46.402358 5.7146458,48.299949 6.1592858,50.087462 C 6.6039248,51.874984 7.9820888,53.276267 9.7479304,53.737144 C 11.513772,54.198030 13.385718,53.637441 14.631214,52.291046 L 28.645105,38.174346 L 42.613562,52.336952 C 43.850446,53.691443 45.728103,54.255371 47.496848,53.806013 C 49.265593,53.356659 50.652165,51.963857 51.108208,50.179278 C 51.564247,48.394693 51.009545,46.502889 49.677289,45.244173 L 35.708832,31.081559 L 49.722718,16.964856 C 51.199200,15.522529 51.652088,13.301028 50.858366,11.387037 C 50.064639,9.4730425 48.186907,8.2587015 46.134071,8.3112015 C 44.839469,8.3465095 43.609349,8.8898845 42.704411,9.8261645 L 28.690530,23.942869 L 14.722066,9.7802565 C 13.782162,8.7963485 12.486664,8.2411625 11.133420,8.2423385 z "
     id="path852" />
</svg>
