<?xml version="1.0" encoding="UTF-8" standalone="no"?>
<!DOCTYPE svg PUBLIC "-//W3C//DTD SVG 20010904//EN"
"http://www.w3.org/TR/2001/REC-SVG-20010904/DTD/svg10.dtd">
<!-- Created with Sodipodi ("http://www.sodipodi.com/") -->
<svg
   id="svg628"
   sodipodi:version="0.32"
   width="48.000000pt"
   height="48.000000pt"
   xml:space="preserve"
   sodipodi:docbase="/usr/share/icons/Suede/scalable/stock"
   sodipodi:docname="stock_internet.svg"
   inkscape:version="0.38.1"
   xmlns="http://www.w3.org/2000/svg"
   xmlns:inkscape="http://www.inkscape.org/namespaces/inkscape"
   xmlns:sodipodi="http://sodipodi.sourceforge.net/DTD/sodipodi-0.dtd"
   xmlns:xml="http://www.w3.org/XML/1998/namespace"
   xmlns:xlink="http://www.w3.org/1999/xlink">
  <defs
   id="defs630">
    <linearGradient
   id="linearGradient862">
      <stop
   style="stop-color:#9f7b35;stop-opacity:0.79215688;"
   offset="0.0000000"
   id="stop863" />




      <stop
   style="stop-color:#eae8d5;stop-opacity:0.96862745;"
   offset="1.0000000"
   id="stop864" />




    </linearGradient>




    <linearGradient
   id="linearGradient859">
      <stop
   style="stop-color:#3cb557;stop-opacity:0.79166669;"
   offset="0.0000000"
   id="stop860" />




      <stop
   style="stop-color:#d5eada;stop-opacity:0.9686;"
   offset="1"
   id="stop861" />




    </linearGradient>




    <linearGradient
   id="linearGradient855">
      <stop
   style="stop-color:#deffe5;stop-opacity:0;"
   offset="0"
   id="stop856" />




      <stop
   style="stop-color:#d5eada;stop-opacity:0.9686;"
   offset="1"
   id="stop857" />




    </linearGradient>




    <linearGradient
   id="linearGradient728">
      <stop
   style="stop-color:#a6d5ff;stop-opacity:1;"
   offset="0"
   id="stop729" />




      <stop
   style="stop-color:#fff2ff;stop-opacity:0;"
   offset="1"
   id="stop730" />




    </linearGradient>




    <linearGradient
   id="linearGradient666">
      <stop
   style="stop-color:#1f5f2d;stop-opacity:0.58431375;"
   offset="0.0000000"
   id="stop667" />




      <stop
   style="stop-color:#d5eada;stop-opacity:0.9686;"
   offset="1"
   id="stop668" />




    </linearGradient>




    <linearGradient
   id="linearGradient632">
      <stop
   style="stop-color:#2192ca;stop-opacity:1;"
   offset="0"
   id="stop633" />




      <stop
   style="stop-color:#373752;stop-opacity:1;"
   offset="1"
   id="stop634" />




    </linearGradient>




    <radialGradient
   xlink:href="#linearGradient728"
   id="radialGradient635"
   cx="-0.30223033"
   cy="0.14848523"
   r="1.49821532"
   fx="-0.30223033"
   fy="0.14848523" />




    <linearGradient
   xlink:href="#linearGradient862"
   id="linearGradient665"
   x1="1.1832061"
   y1="0.71093750"
   x2="-0.25190836"
   y2="0.0078125028" />




    <radialGradient
   xlink:href="#linearGradient666"
   id="radialGradient669"
   cx="1.18120837"
   cy="0.93749976"
   r="0.37836838"
   fx="1.18120837"
   fy="0.93749976"
   gradientUnits="objectBoundingBox" />




    <linearGradient
   xlink:href="#linearGradient666"
   id="linearGradient672"
   x1="0.96808511"
   y1="0.95312500"
   x2="0.14893617"
   y2="0.31250000" />




    <radialGradient
   xlink:href="#linearGradient666"
   id="radialGradient673"
   cx="68.4203796"
   cy="53.6307869"
   r="28.5600071"
   fx="68.4203796"
   fy="53.6307869"
   gradientUnits="userSpaceOnUse"
   gradientTransform="scale(0.991342,1.008734)" />




    <linearGradient
   xlink:href="#linearGradient666"
   id="linearGradient724"
   x1="1.26760578"
   y1="0.39062136"
   x2="-0.64788735"
   y2="0.25" />




    <linearGradient
   xlink:href="#linearGradient632"
   id="linearGradient725"
   x1="1.58296037"
   y1="26.4798145"
   x2="46.1758385"
   y2="82.2966461"
   gradientUnits="userSpaceOnUse" />




    <linearGradient
   xlink:href="#linearGradient666"
   id="linearGradient726"
   x1="1.19055109e-2"
   y1="0.93750215"
   x2="3.57143134e-2"
   y2="0.37500006" />




    <linearGradient
   xlink:href="#linearGradient666"
   id="linearGradient727"
   x1="4.58711162e-2"
   y1="0.85156238"
   x2="0.10091742"
   y2="0.75781232" />




  </defs>




  <sodipodi:namedview
   id="base"
   inkscape:zoom="4.7031250"
   inkscape:cx="64.000000"
   inkscape:cy="13.118939"
   inkscape:window-width="1142"
   inkscape:window-height="745"
   inkscape:window-x="0"
   inkscape:window-y="29" />




  <path
   sodipodi:type="arc"
   style="font-size:12.000000;fill-opacity:0.18839999;fill-rule:evenodd;stroke:#000000;stroke-opacity:0.26089999;"
   id="path671"
   d="M 109.7235 113.9168 A 45.44106 9.974865 0 1 0 18.84142 113.9168 A 45.44106 9.974865 0 1 0  109.7235 113.9168 z"
   sodipodi:cx="64.2824783"
   sodipodi:cy="113.916809"
   sodipodi:rx="45.4410629"
   sodipodi:ry="9.97486496"
   transform="matrix(0.474366,0.000000,0.000000,0.402006,2.460804,6.465674)" />




  <path
   sodipodi:type="arc"
   style="font-size:12.000000;fill:#2e2626;fill-rule:evenodd;stroke-width:0.78890002;"
   id="path660"
   d="M 72.34992 41.70259 A 32.47525 32.47525 0 1 0 7.399422 41.70259 A 32.47525 32.47525 0 1 0  72.34992 41.70259 z"
   sodipodi:cx="39.8746719"
   sodipodi:cy="41.7025909"
   sodipodi:rx="32.4752502"
   sodipodi:ry="32.4752502"
   transform="matrix(0.778493,0.000000,0.000000,0.755266,-1.352019,-2.518150)" />




  <path
   sodipodi:type="arc"
   style="font-size:12.000000;fill:url(#linearGradient725);fill-rule:evenodd;stroke-width:0.78890002;"
   id="path631"
   d="M 72.34992 41.70259 A 32.47525 32.47525 0 1 0 7.399422 41.70259 A 32.47525 32.47525 0 1 0  72.34992 41.70259 z"
   sodipodi:cx="39.8746719"
   sodipodi:cy="41.7025909"
   sodipodi:rx="32.4752502"
   sodipodi:ry="32.4752502"
   transform="matrix(0.731199,0.000000,0.000000,0.702291,5.298472e-4,-1.094790)" />




  <path
   fill="#006633"
   stroke="none"
   d="M 21.131925,6.8486675 C 21.012206,6.8486675 20.881295,6.8967245 20.746926,6.9705961 C 21.061827,6.8805698 21.210010,6.8486675 21.131925,6.8486675 z M 28.924615,8.3283139 L 29.003134,7.2191028 L 27.799840,7.2927665 L 27.959055,8.3285175 L 28.924615,8.3285175 L 28.924615,8.3283139 z M 15.347459,27.499647 C 15.105668,27.277159 15.267443,26.314651 15.267443,26.314651 C 15.267443,26.314651 11.651674,24.465451 7.7152186,23.354335 C 7.2296906,23.217284 7.4749242,22.244704 7.9550471,21.875748 L 7.7948010,20.836211 C 7.7152186,20.320127 8.5988628,17.803702 9.4825338,17.582689 C 10.366617,17.359377 9.4022910,19.061883 9.4022910,19.061883 L 8.5186380,19.580102 C 8.5186380,19.580102 9.5623378,20.763375 9.8045547,20.763375 C 10.044826,20.763375 10.446642,20.171085 10.446642,20.171085 L 9.3222789,19.433164 L 10.367055,18.987604 L 10.432418,18.597436 L 10.607770,18.543496 L 12.336690,15.994961 C 13.531802,15.519133 15.000200,14.929592 15.187186,14.842510 C 15.508574,14.695386 17.757952,13.438422 18.159551,13.141637 C 18.562249,12.844481 19.444400,12.919804 19.764897,12.919804 C 20.087800,12.919804 20.569632,12.771197 20.649441,11.955867 C 20.729675,11.141962 21.051687,10.993748 21.293048,11.216458 C 21.533727,11.437471 21.051049,11.807871 21.613988,11.955867 C 22.176286,12.104638 22.657258,12.474643 23.059943,12.104638 C 23.353686,11.833265 22.960730,11.524767 22.695876,11.291555 L 27.156449,11.291555 L 27.639584,9.9571828 L 26.595220,9.8094030 L 22.737497,9.4396013 L 22.737497,8.9953124 L 22.429927,9.0459021 C 22.847700,6.8129797 25.328282,7.1809050 23.461089,5.8882580 C 23.347670,5.8089321 21.713848,8.3933714 21.298219,8.3430032 C 20.545031,8.2464600 19.571855,8.2389026 19.363944,8.4768807 C 19.090248,8.7915162 19.980178,7.3943523 20.746926,6.9705961 C 19.523540,7.3215209 15.658037,8.6082843 11.571223,12.844264 C 7.6647419,16.893647 6.1070415,22.349003 6.1070415,22.539997 C 6.1070415,22.909613 6.9111301,23.058220 6.9915901,23.502721 C 7.0720274,23.944736 5.4658223,25.426688 5.4658223,26.166699 C 5.4658223,26.507742 5.0866440,31.069687 6.4284155,34.827716 C 7.9962476,39.213376 11.342403,42.876133 11.731487,43.117112 L 12.534060,42.745644 C 12.534060,42.745644 10.686489,39.563878 10.606251,39.266695 C 10.526668,38.972025 12.694945,34.678526 13.739942,34.827716 C 14.783651,34.973203 14.543367,35.271634 15.186123,34.901221 C 15.828428,34.531840 16.230032,31.495093 16.953008,31.201302 C 17.676642,30.903654 18.479419,30.534255 18.400493,29.794451 C 18.318730,29.052532 15.587740,27.721493 15.346577,27.499647 L 15.347459,27.499647 z M 32.780895,5.7384074 L 30.611946,4.9975394 L 31.013770,6.1829354 L 32.780895,5.7384074 z M 24.666139,8.4770976 C 24.907940,8.4770976 29.728075,5.3696434 29.245605,5.2945162 C 28.764600,5.2210646 28.683520,5.2945162 27.396500,5.1465579 C 26.112084,4.9981644 24.744839,6.9231771 24.424804,7.2195233 C 24.104290,7.5165028 24.212318,8.4770976 24.666139,8.4770976 z M 46.785816,30.794302 L 47.408046,30.008935 L 46.785816,29.795722 L 46.319310,30.366788 L 45.775552,31.149636 L 46.241788,31.364368 L 46.785816,30.794302 z M 49.506502,33.364057 L 49.350819,32.222156 L 48.341915,32.222156 L 48.263621,33.077158 L 47.329120,32.936113 L 47.097180,32.007601 L 46.631127,31.722833 L 46.085424,32.363984 L 45.542755,32.222156 L 45.386168,32.719762 L 46.008896,32.864787 L 46.008896,37.500585 L 48.209343,38.015834 C 48.158867,38.101423 48.120649,38.173631 48.107756,38.212652 C 47.950989,38.712807 48.729084,38.928376 49.272255,38.712807 C 49.475293,38.634110 50.115162,38.004440 50.516944,37.073894 C 51.077347,35.777294 51.566374,34.065472 51.664886,33.460433 L 51.916908,32.936534 L 50.361395,33.506395 L 49.505867,33.364934 L 49.506502,33.364057 z M 52.772753,24.731333 L 52.366812,23.966354 C 51.886061,21.327774 50.783122,17.949121 48.419802,14.458864 C 44.862537,9.2116725 34.965332,6.1850339 34.965332,6.1850339 L 34.422244,6.8255843 L 34.110586,6.3277438 L 33.332604,6.0412567 L 33.332604,6.6832815 L 34.033581,7.2551973 L 33.566833,7.4688574 L 31.777925,7.6107307 L 27.734726,9.7517133 L 28.122295,11.463264 L 27.655117,11.607240 L 27.423873,11.962968 L 28.745182,13.887979 L 28.823037,14.531270 L 27.734726,14.744922 L 27.734726,16.028116 L 27.113119,16.170627 L 27.191349,17.169854 L 21.902561,20.737799 L 22.058505,22.733079 C 22.446310,23.233217 25.480391,26.230087 25.480391,26.230087 C 25.480391,26.230087 28.978366,26.370893 29.756543,25.944428 C 30.534090,25.516534 29.989488,26.371780 30.223286,26.586024 C 30.456235,26.801596 30.534090,28.297827 30.766805,28.441171 C 30.999753,28.583450 30.766805,29.438697 31.078034,29.725626 C 31.388837,30.008935 31.388837,33.435436 31.388837,33.435436 C 31.388837,33.435436 33.255174,36.501114 33.255174,37.287102 C 33.255174,38.071190 33.177320,37.999864 34.655379,37.929130 C 36.132876,37.857756 36.443201,37.287102 36.753580,37.074079 C 37.065903,36.859348 37.065903,36.359658 37.377367,35.931292 C 37.689021,35.502516 38.231258,33.862965 38.932482,33.293143 C 39.631462,32.720825 41.498040,32.292424 41.652659,31.295101 C 41.808180,30.296086 42.508118,29.510710 42.508118,29.510710 L 45.870084,26.050433 L 45.775552,26.515711 L 45.697261,28.297181 L 46.708382,27.941425 L 46.631401,26.014135 L 46.267704,25.640728 L 46.319493,25.586403 C 46.319493,25.586403 46.085424,25.159065 45.775780,25.159065 C 45.464686,25.159065 43.597093,25.586403 43.287375,25.515652 C 42.975673,25.443905 41.652895,22.019511 41.419946,21.878267 C 41.186571,21.735330 39.709984,19.380928 39.709984,19.380928 C 39.709984,19.380928 43.130769,23.376166 43.675130,24.944577 C 43.990915,25.858386 45.177654,25.007975 46.143276,24.054055 L 46.398646,24.660189 L 47.019837,24.516032 L 46.941950,23.803070 L 47.641390,23.803070 L 47.641390,24.873220 L 47.408317,25.444123 L 47.328489,26.370722 L 47.951488,26.942836 L 48.263396,26.444173 L 49.272255,25.515869 L 50.439689,24.944798 L 50.751009,25.515869 L 50.906919,26.301020 L 50.594558,27.156483 L 49.973412,27.655798 L 49.662184,28.940254 L 49.662184,29.580597 L 48.963285,29.153467 L 48.885444,27.798738 L 47.874777,27.870932 L 47.408590,29.081942 L 48.108392,30.082824 L 49.740612,30.296471 L 51.063549,29.082109 L 51.218283,26.730226 L 51.806321,25.974440 C 52.189601,26.932769 52.463425,27.935754 52.463425,28.869721 C 52.463425,29.893921 52.944221,28.160119 52.534888,25.036513 L 52.773385,24.731555 L 52.773385,24.731333 L 52.772753,24.731333 z M 33.177320,17.455305 L 28.978792,17.310483 L 30.765718,15.884782 L 31.699640,15.884782 L 33.177085,16.882535 L 33.177085,17.455084 L 33.177320,17.455305 z M 38.310394,16.956203 L 38.310394,17.598200 L 36.522146,17.598200 L 36.677430,18.026806 L 35.588029,18.170356 L 35.510790,18.525681 L 34.733473,18.384215 L 33.333273,18.097077 L 33.567068,17.741576 L 33.800633,17.311705 L 34.577764,16.528042 L 34.889417,17.099093 L 36.056293,17.027348 L 36.677665,16.384925 L 39.087332,16.813050 L 38.310629,16.957035 L 38.310629,16.956203 L 38.310394,16.956203 z M 38.464398,16.027673 L 37.532416,16.170189 L 37.377132,15.527327 L 38.541827,15.385254 L 38.698437,14.743655 L 39.555358,15.600783 L 38.464398,16.026642 L 38.464398,16.027673 L 38.464398,16.027673 z M 42.975246,38.212050 L 42.430452,38.639989 L 42.507875,39.711442 L 43.208004,39.711442 L 43.208004,38.785435 L 43.831079,37.998797 L 43.831079,36.358820 L 43.441758,36.285406 L 42.976143,38.212050 L 42.975246,38.212050 z M 37.766686,36.074423 C 37.766686,36.074423 37.222033,36.213800 37.843215,36.429323 C 38.464398,36.644470 40.953388,32.935932 40.953388,32.935932 L 38.853721,34.218091 L 37.765836,36.074233 L 37.766686,36.074233 L 37.766686,36.074423 z M 33.533634,49.746755 L 33.068595,49.315077 L 32.135135,49.170624 L 31.980230,49.602305 L 30.736636,49.459888 L 30.658545,48.885477 L 29.725894,48.885477 L 28.715443,49.459888 L 26.928236,49.459888 L 26.773187,49.028347 L 23.898054,48.739896 L 23.430921,49.170624 L 22.265995,48.885477 L 22.110489,47.877758 L 21.566542,47.804266 L 20.944717,48.885252 L 18.846960,48.812619 C 19.221596,48.985424 22.355509,50.803861 27.160574,51.184527 C 33.533399,51.685720 36.564626,50.178482 36.564626,50.178482 L 36.331297,49.962211 L 33.533399,49.747524 L 33.533399,49.746755 L 33.533634,49.746755 z "
   id="path168"
   style="font-size:12.000000;fill:url(#linearGradient665);stroke:#000000;stroke-width:0.0000000;stroke-linejoin:round;stroke-opacity:0.83329999;" />




  <path
   sodipodi:type="arc"
   style="font-size:12.000000;fill:url(#radialGradient635);fill-rule:evenodd;"
   id="path664"
   d="M 67.82806 38.82504 A 23.43151 23.84259 0 1 0 20.96503 38.82504 A 23.43151 23.84259 0 1 0  67.82806 38.82504 z"
   sodipodi:cx="44.3965454"
   sodipodi:cy="38.8250351"
   sodipodi:rx="23.4315109"
   sodipodi:ry="23.8425884"
   transform="matrix(0.865855,2.474577e-2,-2.117376e-2,0.824879,-11.11621,-6.708413)" />




  <path
   sodipodi:type="inkscape:offset"
   inkscape:radius="0.17462689"
   inkscape:original="M 35.156250 7.1562500 C 35.145975 7.1668077 35.135558 7.1772254 35.125000 7.1875000 C 34.954965 7.4909832 34.692096 7.7319463 34.375000 7.8750000 L 33.875000 8.0937500 C 33.706222 8.1650448 33.526610 8.2073064 33.343750 8.2187500 L 31.781250 8.3437500 L 28.875000 9.8437500 L 29.031250 10.500000 C 29.108402 10.871646 29.053127 11.258572 28.875000 11.593750 L 29.468750 12.468750 C 29.628521 12.700443 29.725430 12.969634 29.750000 13.250000 L 29.812500 13.937500 C 29.812600 13.947916 29.812600 13.958334 29.812500 13.968750 C 29.954810 13.928106 30.102002 13.907079 30.250000 13.906250 L 31.250000 13.906250 C 31.573325 13.907827 31.888842 14.005746 32.156250 14.187500 L 33.281250 14.968750 C 33.873355 14.467888 34.736743 14.454806 35.343750 14.937500 C 35.454512 14.826133 35.580824 14.731399 35.718750 14.656250 C 35.729166 14.656150 35.739584 14.656150 35.750000 14.656250 C 35.935471 14.060525 36.445417 13.623428 37.062500 13.531250 L 37.281250 13.500000 C 37.532578 13.059624 37.966204 12.754915 38.468750 12.687500 C 38.971294 12.620085 39.485247 12.797681 39.843750 13.156250 L 40.750000 14.062500 C 41.064575 14.373317 41.224646 14.807812 41.218750 15.250000 C 41.212856 15.692187 41.041500 16.103931 40.718750 16.406250 C 40.740471 16.875580 40.558155 17.331370 40.218750 17.656250 C 40.510867 17.748920 40.770855 17.922246 40.968750 18.156250 C 40.968750 18.156250 41.925938 19.256445 42.937500 20.562500 C 43.673470 21.512730 44.352294 22.471652 44.906250 23.468750 C 45.102965 23.311801 45.195510 23.239437 45.406250 23.031250 C 45.721642 22.719667 46.150570 22.550354 46.593750 22.562500 C 46.846680 22.403210 47.138619 22.316709 47.437500 22.312500 L 48.156250 22.312500 C 49.053421 22.313205 49.780545 23.040329 49.781250 23.937500 L 49.781250 24.000000 L 50.375000 23.687500 C 50.670706 23.526181 51.009208 23.460664 51.343750 23.500000 C 50.799183 21.018883 49.787444 18.053691 47.656250 14.906250 C 46.080249 12.581548 42.729030 10.441454 39.750000 9.0000000 C 37.263601 7.7969140 35.803241 7.3664596 35.156250 7.1562500 z M 17.031250 8.9062500 C 15.349580 9.7605756 13.302909 11.051677 11.031250 13.406250 C 10.882941 13.559985 10.798163 13.747829 10.656250 13.906250 C 11.122595 13.720610 11.595916 13.505543 12.000000 13.343750 C 12.571477 13.114934 13.150242 12.882084 13.031250 12.937500 C 12.855008 13.018180 16.082439 11.182294 15.906250 11.312500 C 16.626919 10.780710 17.197800 10.781702 17.656250 10.750000 C 17.809067 10.739433 17.836985 10.751572 17.968750 10.750000 C 18.036240 10.292677 18.162993 9.8499096 18.656250 9.3750000 C 18.814387 9.2227452 19.128052 9.2226596 19.375000 9.1250000 C 19.256482 9.1203397 19.122909 9.0908011 19.031250 9.0937500 C 18.975991 9.0955278 18.974389 9.0900467 18.937500 9.0937500 C 18.904697 9.1134988 18.859907 9.1328643 18.812500 9.1562500 C 18.741389 9.1913286 18.531803 9.2811003 18.531250 9.2812500 C 18.530697 9.2813997 17.969168 9.3125377 17.968750 9.3125000 C 17.968332 9.3124623 17.094035 9.0002223 17.093750 9.0000000 C 17.093713 8.9999714 17.046304 8.9266653 17.031250 8.9062500 z M 27.281250 18.281250 L 22.531250 21.500000 L 22.593750 22.125000 C 22.712624 22.254762 22.730243 22.287178 22.906250 22.468750 C 23.258264 22.831894 23.696989 23.259130 24.125000 23.687500 C 24.738752 24.301766 25.028490 24.595047 25.312500 24.875000 C 25.641776 24.883371 25.929331 24.888907 26.593750 24.875000 C 27.079911 24.864824 27.583342 24.854501 27.968750 24.812500 C 28.354158 24.770499 28.680198 24.599868 28.406250 24.750000 C 28.744782 24.563702 29.108332 24.160211 30.156250 24.562500 C 30.680209 24.763644 31.078524 25.307562 31.187500 25.656250 C 31.296476 26.004938 31.287757 26.201622 31.281250 26.343750 C 31.272930 26.525487 31.257300 26.519316 31.250000 26.562500 C 31.256968 26.640507 31.419801 26.802909 31.437500 26.875000 C 31.503433 27.143560 31.523420 27.373405 31.562500 27.593750 C 31.596861 27.787487 31.635402 27.940747 31.656250 28.031250 C 31.657202 28.033637 31.655287 28.060335 31.656250 28.062500 C 31.845385 28.370350 31.941559 28.643114 31.968750 28.812500 C 32.013595 29.091861 31.993981 29.280671 32.000000 29.406250 C 32.012037 29.657408 32.262596 29.561446 31.687500 29.031250 C 32.334438 29.620957 32.223714 29.856487 32.281250 30.093750 C 32.338786 30.331013 32.379398 30.551338 32.406250 30.781250 C 32.459954 31.241075 32.480668 31.753890 32.500000 32.250000 C 32.529792 33.014559 32.531015 33.423781 32.531250 33.718750 C 32.692604 33.985833 32.938178 34.379422 33.343750 35.125000 C 33.606083 35.607257 33.876142 36.102953 34.093750 36.593750 C 34.184269 36.797908 34.202989 37.088891 34.281250 37.281250 C 34.295608 37.280548 34.297863 37.281950 34.312500 37.281250 C 34.894188 37.253150 35.065179 37.146613 35.156250 37.093750 C 35.207390 37.064065 35.379798 36.923515 35.468750 36.843750 C 35.536529 36.659979 35.652198 36.279113 35.968750 35.843750 C 35.816725 36.052906 36.191650 35.379118 36.500000 34.750000 C 36.808350 34.120882 37.098269 33.406576 37.906250 32.750000 C 38.667428 32.126758 39.323695 31.948261 39.812500 31.687500 C 40.301305 31.426739 40.282110 31.216316 40.218750 31.625000 C 40.477392 29.963541 41.500000 28.906250 41.500000 28.906250 C 41.520263 28.884854 41.541104 28.864013 41.562500 28.843750 L 43.062500 27.281250 C 42.573203 27.130065 42.363128 26.904438 42.250000 26.781250 C 42.123518 26.643520 42.064509 26.567446 42.000000 26.468750 C 41.870982 26.271358 41.760707 26.080225 41.656250 25.875000 C 41.447336 25.464550 41.244070 24.976637 41.031250 24.500000 C 40.818430 24.023363 40.625072 23.553173 40.468750 23.218750 C 40.390589 23.051539 40.313034 22.933266 40.281250 22.875000 C 40.265358 22.845867 40.254890 22.805085 40.281250 22.843750 C 40.267973 22.817626 40.179273 22.747489 40.156250 22.718750 C 40.055443 22.592912 39.945219 22.486919 39.843750 22.343750 C 39.640812 22.057412 39.404559 21.706682 39.187500 21.375000 C 38.753383 20.711636 38.375000 20.093750 38.375000 20.093750 C 38.167987 19.757718 38.090238 19.357870 38.156250 18.968750 L 37.625000 18.968750 C 37.385148 19.200931 37.079656 19.353678 36.750000 19.406250 L 36.437500 19.437500 C 36.071351 19.810714 35.548097 19.985132 35.031250 19.906250 L 34.218750 19.781250 C 34.187506 19.782151 34.156244 19.782151 34.125000 19.781250 L 32.625000 19.468750 C 32.215447 19.377192 31.857143 19.130858 31.625000 18.781250 L 28.281250 18.656250 C 27.915206 18.647387 27.562864 18.515259 27.281250 18.281250 z M 6.0000000 25.250000 C 5.8507740 25.459730 5.7053128 25.685188 5.5625000 25.875000 C 5.3612019 26.142545 5.1599720 26.398977 5.0625000 26.562500 C 4.9650280 26.726023 5.0312500 26.831383 5.0312500 26.437500 C 5.0312499 26.822076 5.0138324 26.962018 5.0000000 27.500000 C 4.9861676 28.037982 4.9623024 28.765711 5.0000000 29.593750 C 5.0753951 31.249828 5.3426664 33.340217 5.9687500 35.093750 C 6.4336938 36.394326 7.0723313 37.586003 7.7500000 38.718750 C 7.9955681 38.197850 8.3127963 37.589849 8.6875000 36.968750 C 9.0702032 36.334391 9.4813611 35.698298 9.9687500 35.156250 C 10.212444 34.885226 10.491461 34.636736 10.843750 34.406250 C 11.196039 34.175764 11.687826 33.897433 12.406250 34.000000 C 12.628690 34.031007 12.597748 34.045951 12.781250 34.093750 C 12.872391 33.840391 12.951996 33.563134 13.062500 33.218750 C 13.208647 32.763285 13.379234 32.290453 13.593750 31.812500 C 13.798613 31.356055 13.948477 30.768270 14.875000 30.343750 C 14.811515 30.301893 14.784551 30.260339 14.718750 30.218750 C 14.373220 30.000360 13.995570 29.803672 13.687500 29.625000 C 13.533465 29.535664 13.407836 29.451894 13.281250 29.375000 C 13.154664 29.298106 13.104307 29.299684 12.812500 29.031250 C 12.258586 28.521559 12.235320 28.107111 12.187500 27.812500 C 12.174940 27.735116 12.162851 27.694137 12.156250 27.625000 C 11.183636 27.153376 8.9425482 26.154816 6.0000000 25.250000 z M 48.062500 35.281250 L 48.062500 37.156250 L 49.156250 37.406250 C 49.299659 37.449734 49.436369 37.512831 49.562500 37.593750 C 49.572916 37.593650 49.583334 37.593650 49.593750 37.593750 C 49.641433 37.505740 49.677822 37.438542 49.718750 37.343750 C 49.970060 36.762295 50.049155 36.367953 50.250000 35.718750 L 49.875000 35.656250 C 49.624487 35.607472 49.388971 35.500419 49.187500 35.343750 C 49.177084 35.343850 49.166666 35.343850 49.156250 35.343750 C 48.961935 35.390565 48.760655 35.401159 48.562500 35.375000 L 48.062500 35.281250 z "
   style="font-size:12.000000;fill:url(#linearGradient672);stroke-width:2.1250000;stroke-linejoin:round;stroke-opacity:0.83329999;"
   id="path866"
   d="M 35.156250,6.9687500 C 35.133524,6.9748499 35.112265,6.9854793 35.093750,7.0000000 C 35.083354,6.9990662 35.072896,6.9990662 35.062500,7.0000000 C 35.050802,7.0090513 35.040301,7.0195521 35.031250,7.0312500 C 35.022074,7.0406785 35.009420,7.0533326 35.000000,7.0625000 C 34.988302,7.0715513 34.977801,7.0820521 34.968750,7.0937500 C 34.816962,7.3646661 34.595568,7.5910475 34.312500,7.7187500 L 33.812500,7.9375000 C 33.661844,8.0011397 33.506976,8.0210351 33.343750,8.0312500 L 31.781250,8.1562500 C 31.758524,8.1623499 31.737265,8.1729793 31.718750,8.1875000 C 31.708354,8.1865662 31.697896,8.1865662 31.687500,8.1875000 L 28.781250,9.6875000 C 28.769552,9.6965513 28.759051,9.7070521 28.750000,9.7187500 C 28.738302,9.7278013 28.727801,9.7383021 28.718750,9.7500000 C 28.717816,9.7603957 28.717816,9.7708543 28.718750,9.7812500 C 28.710206,9.8119160 28.710206,9.8443340 28.718750,9.8750000 L 28.875000,10.531250 C 28.943875,10.863025 28.877767,11.200781 28.718750,11.500000 C 28.717816,11.510396 28.717816,11.520854 28.718750,11.531250 C 28.704229,11.549765 28.693600,11.571024 28.687500,11.593750 C 28.693600,11.616476 28.704229,11.637735 28.718750,11.656250 C 28.717816,11.666646 28.717816,11.677104 28.718750,11.687500 L 29.312500,12.562500 C 29.455120,12.769321 29.540568,12.999731 29.562500,13.250000 C 29.561566,13.260396 29.561566,13.270854 29.562500,13.281250 L 29.625000,13.937500 L 29.625000,13.968750 C 29.631100,13.991476 29.641729,14.012735 29.656250,14.031250 C 29.655316,14.041646 29.655316,14.052104 29.656250,14.062500 C 29.665301,14.074198 29.675802,14.084699 29.687500,14.093750 C 29.696551,14.105448 29.707052,14.115949 29.718750,14.125000 C 29.729146,14.125934 29.739604,14.125934 29.750000,14.125000 C 29.768515,14.139521 29.789774,14.150150 29.812500,14.156250 C 29.835226,14.150150 29.856485,14.139521 29.875000,14.125000 C 30.002029,14.088720 30.117893,14.094490 30.250000,14.093750 L 31.250000,14.093750 C 31.538623,14.095158 31.823792,14.181503 32.062500,14.343750 L 33.187500,15.125000 C 33.197896,15.125934 33.208354,15.125934 33.218750,15.125000 C 33.258990,15.140422 33.303510,15.140422 33.343750,15.125000 C 33.354146,15.125934 33.364604,15.125934 33.375000,15.125000 C 33.386698,15.115949 33.397199,15.105448 33.406250,15.093750 C 33.935594,14.645978 34.707334,14.630970 35.250000,15.062500 C 35.249066,15.072896 35.249066,15.083354 35.250000,15.093750 C 35.277590,15.112975 35.310143,15.123826 35.343750,15.125000 C 35.366476,15.118900 35.387735,15.108271 35.406250,15.093750 C 35.416646,15.094684 35.427104,15.094684 35.437500,15.093750 C 35.449198,15.084699 35.459699,15.074198 35.468750,15.062500 C 35.551586,14.979211 35.649743,14.904644 35.750000,14.843750 C 35.757115,14.839428 35.774058,14.847950 35.781250,14.843750 C 35.792948,14.834699 35.803449,14.824198 35.812500,14.812500 C 35.822896,14.813434 35.833354,14.813434 35.843750,14.812500 C 35.855448,14.803449 35.865949,14.792948 35.875000,14.781250 C 35.886698,14.772199 35.897199,14.761698 35.906250,14.750000 C 35.907184,14.739604 35.907184,14.729146 35.906250,14.718750 C 36.071922,14.186619 36.542541,13.801088 37.093750,13.718750 L 37.312500,13.687500 C 37.324198,13.678449 37.334699,13.667948 37.343750,13.656250 C 37.366476,13.650150 37.387735,13.639521 37.406250,13.625000 C 37.417948,13.615949 37.428449,13.605448 37.437500,13.593750 C 37.663156,13.198356 38.053059,12.934956 38.500000,12.875000 C 38.946939,12.815044 39.398865,12.961306 39.718750,13.281250 L 40.625000,14.187500 C 40.902765,14.461946 41.036564,14.851469 41.031250,15.250000 C 41.025938,15.648529 40.881271,16.011930 40.593750,16.281250 C 40.582052,16.290301 40.571551,16.300802 40.562500,16.312500 C 40.561566,16.322896 40.561566,16.333354 40.562500,16.343750 C 40.547979,16.362265 40.537350,16.383524 40.531250,16.406250 C 40.550643,16.825285 40.396784,17.241185 40.093750,17.531250 C 40.082052,17.540301 40.071551,17.550802 40.062500,17.562500 C 40.061566,17.572896 40.061566,17.583354 40.062500,17.593750 C 40.047078,17.633990 40.047078,17.678510 40.062500,17.718750 C 40.061566,17.729146 40.061566,17.739604 40.062500,17.750000 C 40.071551,17.761698 40.082052,17.772199 40.093750,17.781250 C 40.102801,17.792948 40.113302,17.803449 40.125000,17.812500 C 40.135396,17.813434 40.145854,17.813434 40.156250,17.812500 C 40.417012,17.895223 40.667096,18.072363 40.843750,18.281250 C 40.843750,18.281250 41.804523,19.354823 42.812500,20.656250 C 43.545475,21.602613 44.202373,22.576795 44.750000,23.562500 C 44.759051,23.574198 44.769552,23.584699 44.781250,23.593750 C 44.799765,23.608271 44.821024,23.618900 44.843750,23.625000 C 44.862265,23.639521 44.883524,23.650150 44.906250,23.656250 C 44.928976,23.650150 44.950235,23.639521 44.968750,23.625000 C 44.980448,23.615949 44.990949,23.605448 45.000000,23.593750 C 45.196299,23.437133 45.316719,23.368182 45.531250,23.156250 C 45.812830,22.878070 46.198081,22.739156 46.593750,22.750000 C 46.616476,22.743900 46.637735,22.733271 46.656250,22.718750 C 46.666646,22.719684 46.677104,22.719684 46.687500,22.718750 C 46.913280,22.576558 47.170701,22.503757 47.437500,22.500000 L 48.156250,22.500000 C 48.959143,22.500631 49.593119,23.134607 49.593750,23.937500 L 49.593750,24.000000 C 49.599850,24.022726 49.610479,24.043985 49.625000,24.062500 C 49.624066,24.072896 49.624066,24.083354 49.625000,24.093750 C 49.634051,24.105448 49.644552,24.115949 49.656250,24.125000 C 49.665301,24.136698 49.675802,24.147199 49.687500,24.156250 C 49.715090,24.175475 49.747643,24.186326 49.781250,24.187500 C 49.803976,24.181400 49.825235,24.170771 49.843750,24.156250 C 49.854146,24.157184 49.864604,24.157184 49.875000,24.156250 L 50.468750,23.843750 C 50.732721,23.699743 51.013861,23.652386 51.312500,23.687500 C 51.322896,23.688434 51.333354,23.688434 51.343750,23.687500 C 51.366476,23.681400 51.387735,23.670771 51.406250,23.656250 C 51.416646,23.657184 51.427104,23.657184 51.437500,23.656250 C 51.449198,23.647199 51.459699,23.636698 51.468750,23.625000 C 51.480448,23.615949 51.490949,23.605448 51.500000,23.593750 C 51.500934,23.583354 51.500934,23.572896 51.500000,23.562500 C 51.514521,23.543985 51.525150,23.522726 51.531250,23.500000 C 51.522199,23.488302 51.511698,23.477801 51.500000,23.468750 C 50.951969,20.971852 49.957857,17.980857 47.812500,14.812500 C 46.199912,12.433829 42.806311,10.292356 39.812500,8.8437500 C 37.316670,7.6361004 35.858927,7.2079957 35.218750,7.0000000 C 35.200235,6.9854793 35.178976,6.9748499 35.156250,6.9687500 L 35.156250,6.9687500 z M 17.000000,8.7187500 C 16.977274,8.7248499 16.956015,8.7354793 16.937500,8.7500000 C 15.243499,9.6105899 13.192151,10.911915 10.906250,13.281250 C 10.731679,13.462208 10.650450,13.648184 10.531250,13.781250 C 10.519552,13.790301 10.509051,13.800802 10.500000,13.812500 C 10.499066,13.822896 10.499066,13.833354 10.500000,13.843750 C 10.485479,13.862265 10.474850,13.883524 10.468750,13.906250 C 10.469924,13.939857 10.480775,13.972410 10.500000,14.000000 C 10.509051,14.011698 10.519552,14.022199 10.531250,14.031250 C 10.540301,14.042948 10.550802,14.053449 10.562500,14.062500 C 10.572896,14.063434 10.583354,14.063434 10.593750,14.062500 C 10.633990,14.077922 10.678510,14.077922 10.718750,14.062500 C 11.190431,13.874736 11.664306,13.659435 12.062500,13.500000 C 12.348329,13.385556 12.643087,13.267154 12.843750,13.187500 C 12.931972,13.152480 12.985149,13.111452 13.031250,13.093750 C 13.031291,13.093757 13.062500,12.937500 13.062500,12.937500 C 13.062500,12.937500 12.906267,12.843719 12.906250,12.843750 C 12.906233,12.843781 12.906286,12.812461 12.906250,12.812500 C 12.906214,12.812539 12.937556,12.781203 12.937500,12.781250 C 12.937277,12.781440 12.965321,12.783288 12.968750,12.781250 C 12.973226,12.779890 13.000179,12.781222 13.000000,12.781250 C 12.999821,12.781278 13.093830,12.781277 13.093750,12.781250 C 13.093670,12.781223 13.187481,12.968833 13.187500,12.968750 C 13.187511,12.968700 13.198090,13.009966 13.187500,13.031250 C 13.257139,12.989858 13.394045,12.922937 13.531250,12.843750 C 13.805661,12.685376 14.181409,12.466129 14.562500,12.250000 C 14.943591,12.033871 15.319621,11.839537 15.593750,11.687500 C 15.730814,11.611481 15.837512,11.536361 15.906250,11.500000 C 15.926871,11.489092 15.925671,11.474685 15.937500,11.468750 C 15.937714,11.468737 15.843633,11.468707 15.843750,11.468750 C 15.843867,11.468793 15.749981,11.343650 15.750000,11.343750 C 15.750019,11.343850 15.750080,11.218593 15.750000,11.218750 C 15.749920,11.218907 15.781429,11.187286 15.781250,11.187500 C 15.792365,11.176661 15.812304,11.187645 15.812500,11.187500 L 16.000000,11.437500 C 16.685133,10.931932 17.187597,10.969908 17.656250,10.937500 C 17.798425,10.927669 17.825968,10.939203 17.968750,10.937500 C 17.991476,10.931400 18.012735,10.920771 18.031250,10.906250 C 18.041646,10.907184 18.052104,10.907184 18.062500,10.906250 C 18.074198,10.897199 18.084699,10.886698 18.093750,10.875000 C 18.108271,10.856485 18.118900,10.835226 18.125000,10.812500 C 18.136698,10.803449 18.147199,10.792948 18.156250,10.781250 C 18.221506,10.339063 18.316292,9.9476636 18.781250,9.5000000 C 18.818774,9.4638722 18.910077,9.4356022 19.031250,9.4062500 C 19.152423,9.3768978 19.290530,9.3393718 19.437500,9.2812500 C 19.447896,9.2821838 19.458354,9.2821838 19.468750,9.2812500 C 19.480448,9.2721987 19.490949,9.2616979 19.500000,9.2500000 C 19.511698,9.2409487 19.522199,9.2304479 19.531250,9.2187500 C 19.532184,9.2083543 19.532184,9.1978957 19.531250,9.1875000 C 19.546672,9.1472604 19.546672,9.1027396 19.531250,9.0625000 C 19.532184,9.0521043 19.532184,9.0416457 19.531250,9.0312500 C 19.522199,9.0195521 19.511698,9.0090513 19.500000,9.0000000 C 19.490949,8.9883021 19.480448,8.9778013 19.468750,8.9687500 C 19.441160,8.9495249 19.408607,8.9386738 19.375000,8.9375000 C 19.280283,8.9337756 19.165818,8.9019206 19.031250,8.9062500 C 19.009439,8.9069517 19.012975,8.9069959 19.000000,8.9062500 C 18.987025,8.9055041 18.933464,8.9035180 18.906250,8.9062500 C 18.894552,8.9153013 18.884051,8.9258021 18.875000,8.9375000 C 18.864604,8.9365662 18.854146,8.9365662 18.843750,8.9375000 C 18.827907,8.9470379 18.802241,8.9742296 18.750000,9.0000000 C 18.722484,9.0135736 18.623115,9.0359772 18.562500,9.0625000 C 18.532193,9.0757614 18.520603,9.0848661 18.500000,9.0937500 C 18.489699,9.0981920 18.474521,9.1225273 18.468750,9.1250000 C 18.468197,9.1251497 18.000418,9.1250377 18.000000,9.1250000 C 17.976078,9.1164672 17.916007,9.1083882 17.875000,9.0937500 C 17.792985,9.0644737 17.703075,9.0390439 17.593750,9.0000000 C 17.484425,8.9609561 17.363247,8.9042991 17.281250,8.8750000 C 17.256651,8.8662103 17.237691,8.8817703 17.218750,8.8750000 C 17.232917,8.8965338 17.187500,8.8750000 17.187500,8.8750000 C 17.186566,8.8646043 17.186566,8.8541457 17.187500,8.8437500 C 17.180568,8.8334081 17.163656,8.8225436 17.156250,8.8125000 C 17.157184,8.8021043 17.157184,8.7916457 17.156250,8.7812500 C 17.137735,8.7667293 17.116476,8.7560999 17.093750,8.7500000 C 17.075235,8.7354793 17.053976,8.7248499 17.031250,8.7187500 C 17.020854,8.7178162 17.010396,8.7178162 17.000000,8.7187500 L 17.000000,8.7187500 z M 27.250000,18.093750 C 27.238302,18.102801 27.227801,18.113302 27.218750,18.125000 C 27.208354,18.124066 27.197896,18.124066 27.187500,18.125000 L 22.437500,21.343750 C 22.425802,21.352801 22.415301,21.363302 22.406250,21.375000 C 22.394552,21.384051 22.384051,21.394552 22.375000,21.406250 C 22.374066,21.416646 22.374066,21.427104 22.375000,21.437500 C 22.360479,21.456015 22.349850,21.477274 22.343750,21.500000 C 22.342816,21.510396 22.342816,21.520854 22.343750,21.531250 L 22.406250,22.156250 C 22.415301,22.167948 22.425802,22.178449 22.437500,22.187500 C 22.436566,22.197896 22.436566,22.208354 22.437500,22.218750 C 22.446551,22.230448 22.457052,22.240949 22.468750,22.250000 C 22.583645,22.375418 22.602067,22.408902 22.781250,22.593750 C 23.136092,22.959811 23.573128,23.385270 24.000000,23.812500 C 24.613531,24.426545 24.902353,24.718926 25.187500,25.000000 C 25.196551,25.011698 25.207052,25.022199 25.218750,25.031250 C 25.229146,25.032184 25.239604,25.032184 25.250000,25.031250 C 25.268515,25.045771 25.289774,25.056400 25.312500,25.062500 C 25.642403,25.070887 25.927308,25.076449 26.593750,25.062500 C 27.079860,25.052325 27.601374,25.043441 28.000000,25.000000 C 28.200236,24.978179 28.367803,24.905642 28.468750,24.875000 L 28.500000,24.875000 L 28.500000,24.906250 C 28.512731,24.899244 28.518829,24.882190 28.531250,24.875000 C 28.706919,24.773318 28.851914,24.652634 29.062500,24.593750 C 29.287976,24.530702 29.594335,24.527028 30.093750,24.718750 C 30.547020,24.892757 30.942990,25.436348 31.031250,25.718750 C 31.133858,26.047061 31.100246,26.201855 31.093750,26.343750 C 31.085895,26.515326 31.077084,26.444978 31.062500,26.531250 C 31.061566,26.541646 31.061566,26.552104 31.062500,26.562500 C 31.069127,26.636687 31.102828,26.682086 31.125000,26.718750 C 31.147172,26.755414 31.164893,26.781854 31.187500,26.812500 C 31.210107,26.843146 31.236191,26.885701 31.250000,26.906250 C 31.263809,26.926799 31.287988,26.933697 31.281250,26.906250 C 31.343631,27.160341 31.334061,27.394175 31.375000,27.625000 C 31.410517,27.825253 31.480039,27.975850 31.500000,28.062500 C 31.499066,28.072896 31.499066,28.083354 31.500000,28.093750 C 31.500025,28.093864 31.499970,28.124932 31.500000,28.125000 C 31.499066,28.135396 31.499066,28.145854 31.500000,28.156250 C 31.678873,28.447397 31.759622,28.709022 31.781250,28.843750 C 31.788167,28.886840 31.777313,28.899336 31.781250,28.937500 L 31.562500,29.156250 C 31.670556,29.254747 31.746691,29.330080 31.812500,29.406250 C 31.816792,29.411218 31.808363,29.432619 31.812500,29.437500 C 31.819004,29.515432 31.851480,29.595252 31.906250,29.656250 C 31.921628,29.673376 31.933113,29.671485 31.968750,29.687500 C 31.979441,29.692305 31.985611,29.715630 32.000000,29.718750 C 32.009592,29.720830 32.019901,29.718249 32.031250,29.718750 C 32.034221,29.725989 32.028677,29.743085 32.031250,29.750000 C 32.079038,29.878420 32.087067,29.968574 32.125000,30.125000 C 32.181136,30.356491 32.192760,30.589971 32.218750,30.812500 C 32.271319,31.262605 32.293175,31.754061 32.312500,32.250000 C 32.342205,33.012322 32.343515,33.424135 32.343750,33.718750 C 32.349850,33.741476 32.360479,33.762735 32.375000,33.781250 C 32.374066,33.791646 32.374066,33.802104 32.375000,33.812500 C 32.537641,34.081713 32.783740,34.476503 33.187500,35.218750 C 33.449870,35.701075 33.723932,36.174564 33.937500,36.656250 C 34.006715,36.812358 34.027236,37.103454 34.125000,37.343750 C 34.124066,37.354146 34.124066,37.364604 34.125000,37.375000 C 34.134051,37.386698 34.144552,37.397199 34.156250,37.406250 C 34.165301,37.417948 34.175802,37.428449 34.187500,37.437500 C 34.197896,37.438434 34.208354,37.438434 34.218750,37.437500 C 34.237265,37.452021 34.258524,37.462650 34.281250,37.468750 C 34.283390,37.468645 34.285895,37.470022 34.312500,37.468750 C 34.613144,37.454227 34.824938,37.416672 34.968750,37.375000 C 35.112562,37.333328 35.207476,37.274683 35.250000,37.250000 C 35.305371,37.217859 35.343411,37.175611 35.406250,37.125000 C 35.469089,37.074389 35.545479,37.012035 35.593750,36.968750 C 35.608271,36.950235 35.618900,36.928976 35.625000,36.906250 C 35.697565,36.709502 35.825037,36.350048 36.125000,35.937500 L 36.093750,35.906250 L 35.812500,35.750000 C 35.816530,35.746430 35.844435,35.718326 35.843750,35.718750 C 35.843407,35.718962 35.875286,35.718633 35.875000,35.718750 C 35.874714,35.718867 35.906481,35.718727 35.906250,35.718750 C 35.906019,35.718773 36.000176,35.718820 36.000000,35.718750 C 35.999824,35.718680 36.062622,35.781413 36.062500,35.781250 C 36.062378,35.781087 36.093818,35.844004 36.093750,35.843750 C 36.093682,35.843496 36.093764,35.875345 36.093750,35.875000 C 36.110936,35.837304 36.168538,35.785440 36.218750,35.687500 C 36.331293,35.467979 36.500608,35.130052 36.656250,34.812500 C 36.968552,34.175319 37.255509,33.505377 38.031250,32.875000 C 38.767006,32.272573 39.389374,32.119486 39.906250,31.843750 C 40.037475,31.773746 40.115704,31.710695 40.187500,31.656250 C 40.207603,31.641005 40.202239,31.638135 40.218750,31.625000 L 40.406250,31.656250 C 40.655863,30.052791 41.625000,29.031250 41.625000,29.031250 C 41.643086,29.012152 41.668402,28.986836 41.687500,28.968750 L 43.187500,27.406250 C 43.199198,27.397199 43.209699,27.386698 43.218750,27.375000 C 43.237975,27.347410 43.248826,27.314857 43.250000,27.281250 C 43.243900,27.258524 43.233271,27.237265 43.218750,27.218750 C 43.212650,27.196024 43.202021,27.174765 43.187500,27.156250 C 43.168985,27.141729 43.147726,27.131100 43.125000,27.125000 C 42.669054,26.984120 42.487132,26.778353 42.375000,26.656250 C 42.251884,26.522185 42.216560,26.467272 42.156250,26.375000 C 42.030545,26.182676 41.914302,25.981259 41.812500,25.781250 C 41.608192,25.379850 41.401531,24.916850 41.187500,24.437500 C 40.976057,23.963947 40.784519,23.497513 40.625000,23.156250 C 40.560946,23.019217 40.506003,22.937544 40.468750,22.875000 C 40.462271,22.864123 40.473336,22.820345 40.468750,22.812500 C 40.458354,22.811566 40.447896,22.811566 40.437500,22.812500 C 40.438434,22.802104 40.438434,22.791646 40.437500,22.781250 C 40.438434,22.770854 40.438434,22.760396 40.437500,22.750000 C 40.412898,22.701593 40.389858,22.702577 40.375000,22.687500 C 40.360142,22.672423 40.357796,22.669075 40.343750,22.656250 C 40.315659,22.630599 40.267683,22.608065 40.281250,22.625000 C 40.171524,22.488029 40.090482,22.377667 40.000000,22.250000 C 39.798990,21.966383 39.559904,21.611548 39.343750,21.281250 C 38.911381,20.620556 38.531250,20.000000 38.531250,20.000000 C 38.346443,19.700013 38.284819,19.347380 38.343750,19.000000 C 38.344684,18.989604 38.344684,18.979146 38.343750,18.968750 C 38.337650,18.946024 38.327021,18.924765 38.312500,18.906250 C 38.313434,18.895854 38.313434,18.885396 38.312500,18.875000 C 38.303449,18.863302 38.292948,18.852801 38.281250,18.843750 C 38.262735,18.829229 38.241476,18.818600 38.218750,18.812500 C 38.200235,18.797979 38.178976,18.787350 38.156250,18.781250 L 37.625000,18.781250 C 37.602274,18.787350 37.581015,18.797979 37.562500,18.812500 C 37.552104,18.811566 37.541646,18.811566 37.531250,18.812500 C 37.519552,18.821551 37.509051,18.832052 37.500000,18.843750 C 37.285889,19.051013 37.013027,19.171820 36.718750,19.218750 L 36.406250,19.250000 C 36.394552,19.259051 36.384051,19.269552 36.375000,19.281250 C 36.364604,19.280316 36.354146,19.280316 36.343750,19.281250 C 36.332052,19.290301 36.321551,19.300802 36.312500,19.312500 C 35.985549,19.645760 35.524016,19.789187 35.062500,19.718750 L 34.250000,19.593750 C 34.239604,19.592816 34.229146,19.592816 34.218750,19.593750 C 34.190861,19.594554 34.152889,19.594554 34.125000,19.593750 L 34.125000,19.625000 L 32.656250,19.312500 C 32.290616,19.230760 31.988498,18.999617 31.781250,18.687500 C 31.772199,18.675802 31.761698,18.665301 31.750000,18.656250 C 31.740949,18.644552 31.730448,18.634051 31.718750,18.625000 C 31.708354,18.624066 31.697896,18.624066 31.687500,18.625000 C 31.668985,18.610479 31.647726,18.599850 31.625000,18.593750 L 28.281250,18.468750 C 27.954481,18.460838 27.657648,18.365151 27.406250,18.156250 C 27.397199,18.144552 27.386698,18.134051 27.375000,18.125000 C 27.364604,18.124066 27.354146,18.124066 27.343750,18.125000 C 27.316160,18.105775 27.283607,18.094924 27.250000,18.093750 L 27.250000,18.093750 z M 31.500000,28.062500 C 31.497217,28.051550 31.468731,28.062336 31.468750,28.062500 C 31.468898,28.065835 31.468711,28.093435 31.468750,28.093750 C 31.468750,28.093750 31.500000,28.062500 31.500000,28.062500 z M 28.343750,24.687500 L 28.468750,24.843750 C 28.468912,24.843791 28.406143,24.843685 28.406250,24.843750 C 28.406357,24.843815 28.343698,24.781161 28.343750,24.781250 C 28.343802,24.781339 28.343754,24.687386 28.343750,24.687500 z M 5.9687500,25.062500 C 5.9570521,25.071551 5.9465513,25.082052 5.9375000,25.093750 C 5.9271043,25.092816 5.9166457,25.092816 5.9062500,25.093750 C 5.8945521,25.102801 5.8840513,25.113302 5.8750000,25.125000 C 5.8633021,25.134051 5.8528013,25.144552 5.8437500,25.156250 C 5.6913288,25.370471 5.5746215,25.599002 5.4375000,25.781250 C 5.2476734,26.033548 5.0507754,26.255240 4.9375000,26.437500 L 4.8437500,26.437500 C 4.8437500,26.504378 4.8447114,26.569607 4.8437500,26.625000 C 4.8379903,26.645522 4.8461330,26.667892 4.8437500,26.687500 C 4.8425585,26.697304 4.8423857,26.696798 4.8437500,26.718750 C 4.8440911,26.724238 4.8436927,26.749684 4.8437500,26.750000 C 4.8438073,26.750316 4.8436645,26.781061 4.8437500,26.781250 C 4.8376491,26.977851 4.8219131,27.133899 4.8125000,27.500000 C 4.7986962,28.036868 4.7744387,28.757723 4.8125000,29.593750 C 4.8884442,31.261889 5.1769306,33.376149 5.8125000,35.156250 C 6.2831247,36.472717 6.9131948,37.674928 7.5937500,38.812500 C 7.6028013,38.824198 7.6133021,38.834699 7.6250000,38.843750 C 7.6340513,38.855448 7.6445521,38.865949 7.6562500,38.875000 C 7.6666457,38.875934 7.6771043,38.875934 7.6875000,38.875000 C 7.7060154,38.889521 7.7272742,38.900150 7.7500000,38.906250 C 7.7836069,38.905076 7.8161603,38.894225 7.8437500,38.875000 C 7.8554479,38.865949 7.8659487,38.855448 7.8750000,38.843750 C 7.8866979,38.834699 7.8971987,38.824198 7.9062500,38.812500 C 7.9071838,38.802104 7.9071838,38.791646 7.9062500,38.781250 C 8.1494323,38.265411 8.4725654,37.677766 8.8437500,37.062500 C 9.2245482,36.431299 9.6191288,35.809098 10.093750,35.281250 C 10.328617,35.020043 10.597980,34.784632 10.937500,34.562500 C 11.281381,34.337515 11.711372,34.092756 12.375000,34.187500 C 12.481324,34.202321 12.528028,34.207860 12.562500,34.218750 C 12.596972,34.229640 12.651636,34.224378 12.750000,34.250000 C 12.759051,34.261698 12.769552,34.272199 12.781250,34.281250 C 12.803976,34.275150 12.825235,34.264521 12.843750,34.250000 C 12.866476,34.243900 12.887735,34.233271 12.906250,34.218750 C 12.917948,34.209699 12.928449,34.199198 12.937500,34.187500 C 12.938434,34.177104 12.938434,34.166646 12.937500,34.156250 C 13.031414,33.895184 13.109122,33.622903 13.218750,33.281250 C 13.363561,32.829948 13.538940,32.345253 13.750000,31.875000 C 13.964768,31.396486 14.059987,30.902064 14.937500,30.500000 C 14.947896,30.500934 14.958354,30.500934 14.968750,30.500000 C 14.980448,30.490949 14.990949,30.480448 15.000000,30.468750 C 15.014521,30.450235 15.025150,30.428976 15.031250,30.406250 C 15.045771,30.387735 15.056400,30.366476 15.062500,30.343750 C 15.056400,30.321024 15.045771,30.299765 15.031250,30.281250 C 15.025150,30.258524 15.014521,30.237265 15.000000,30.218750 C 14.990949,30.207052 14.980448,30.196551 14.968750,30.187500 C 14.930636,30.162371 14.904496,30.120645 14.812500,30.062500 C 14.458422,29.838707 14.083856,29.644253 13.781250,29.468750 C 13.632552,29.382509 13.505868,29.298245 13.375000,29.218750 C 13.229945,29.130637 13.221689,29.167676 12.937500,28.906250 C 12.416503,28.426848 12.425535,28.092585 12.375000,27.781250 C 12.361163,27.695998 12.349054,27.649305 12.343750,27.593750 C 12.334699,27.582052 12.324198,27.571551 12.312500,27.562500 C 12.313434,27.552104 12.313434,27.541646 12.312500,27.531250 C 12.303449,27.519552 12.292948,27.509051 12.281250,27.500000 C 12.272199,27.488302 12.261698,27.477801 12.250000,27.468750 C 12.239604,27.467816 12.229146,27.467816 12.218750,27.468750 C 11.238449,26.993399 9.0157391,26.001853 6.0625000,25.093750 C 6.0349103,25.074525 6.0023569,25.063674 5.9687500,25.062500 L 5.9687500,25.062500 z M 48.031250,35.093750 C 48.019552,35.102801 48.009051,35.113302 48.000000,35.125000 C 47.989604,35.124066 47.979146,35.124066 47.968750,35.125000 C 47.957052,35.134051 47.946551,35.144552 47.937500,35.156250 C 47.922979,35.174765 47.912350,35.196024 47.906250,35.218750 C 47.891729,35.237265 47.881100,35.258524 47.875000,35.281250 L 47.875000,37.156250 C 47.881100,37.178976 47.891729,37.200235 47.906250,37.218750 C 47.905316,37.229146 47.905316,37.239604 47.906250,37.250000 C 47.915301,37.261698 47.925802,37.272199 47.937500,37.281250 C 47.946551,37.292948 47.957052,37.303449 47.968750,37.312500 C 47.989414,37.316258 48.010586,37.316258 48.031250,37.312500 L 49.093750,37.562500 L 49.125000,37.562500 C 49.243718,37.600899 49.363668,37.682585 49.468750,37.750000 C 49.496340,37.769225 49.528893,37.780076 49.562500,37.781250 C 49.571798,37.781161 49.584452,37.781161 49.593750,37.781250 C 49.616476,37.775150 49.637735,37.764521 49.656250,37.750000 C 49.666646,37.750934 49.677104,37.750934 49.687500,37.750000 C 49.699198,37.740949 49.709699,37.730448 49.718750,37.718750 C 49.730448,37.709699 49.740949,37.699198 49.750000,37.687500 C 49.797692,37.599474 49.831046,37.508051 49.875000,37.406250 C 50.132424,36.810650 50.207480,36.423745 50.406250,35.781250 C 50.421672,35.741010 50.421672,35.696490 50.406250,35.656250 C 50.407184,35.645854 50.407184,35.635396 50.406250,35.625000 C 50.397199,35.613302 50.386698,35.602801 50.375000,35.593750 C 50.365949,35.582052 50.355448,35.571551 50.343750,35.562500 C 50.325235,35.547979 50.303976,35.537350 50.281250,35.531250 L 49.906250,35.468750 C 49.682632,35.425209 49.461092,35.358599 49.281250,35.218750 C 49.272199,35.207052 49.261698,35.196551 49.250000,35.187500 C 49.231485,35.172979 49.210226,35.162350 49.187500,35.156250 C 49.178202,35.156339 49.165548,35.156339 49.156250,35.156250 C 49.144552,35.165301 49.134051,35.175802 49.125000,35.187500 C 48.951548,35.229289 48.770629,35.210850 48.593750,35.187500 L 48.593750,35.218750 L 48.093750,35.125000 C 48.084699,35.113302 48.074198,35.102801 48.062500,35.093750 C 48.052104,35.092816 48.041646,35.092816 48.031250,35.093750 L 48.031250,35.093750 z "
   transform="matrix(0.942251,0.000000,0.000000,0.942251,2.258036,1.258766)" />




</svg>
