<?xml version="1.0" encoding="UTF-8" standalone="no"?>
<!DOCTYPE svg PUBLIC "-//W3C//DTD SVG 20010904//EN"
"http://www.w3.org/TR/2001/REC-SVG-20010904/DTD/svg10.dtd">
<!-- Created with Sodipodi ("http://www.sodipodi.com/") -->
<svg
   id="svg559"
   sodipodi:version="0.32"
   width="48.000000pt"
   height="48.000000pt"
   sodipodi:docname="stock_edit.svg"
   sodipodi:docbase="/usr/share/icons/Suede/scalable/stock"
   inkscape:version="0.38.1"
   xmlns="http://www.w3.org/2000/svg"
   xmlns:inkscape="http://www.inkscape.org/namespaces/inkscape"
   xmlns:sodipodi="http://sodipodi.sourceforge.net/DTD/sodipodi-0.dtd"
   xmlns:xlink="http://www.w3.org/1999/xlink">
  <defs
     id="defs561" />
  <sodipodi:namedview
     id="base"
     showgrid="false"
     snaptogrid="false"
     gridspacingx="1mm"
     gridspacingy="1mm"
     inkscape:zoom="5.6640625"
     inkscape:cx="64.000000"
     inkscape:cy="21.627586"
     inkscape:window-width="1150"
     inkscape:window-height="784"
     inkscape:window-x="0"
     inkscape:window-y="27"
     showguides="true"
     snaptoguides="true">
    <sodipodi:guide
       orientation="horizontal"
       position="98.515862"
       id="guide886" />
    <sodipodi:guide
       orientation="horizontal"
       position="87.922759"
       id="guide887" />
  </sodipodi:namedview>
  <rect
     style="font-size:12.000000;fill:#c2c2c2;fill-opacity:0.80769229;fill-rule:evenodd;stroke:#d2d6da;stroke-width:3.9017026;stroke-linecap:round;stroke-linejoin:round;stroke-opacity:0.79230767;"
     id="rect574"
     width="37.617950"
     height="44.561035"
     x="12.804184"
     y="10.351375" />
  <rect
     style="font-size:12.000000;fill:#ffffff;fill-rule:evenodd;stroke:#000000;stroke-width:1.3014652;stroke-linecap:round;stroke-linejoin:round;"
     id="rect562"
     width="39.399979"
     height="46.864052"
     x="10.099608"
     y="7.4465027" />
  <path
     style="font-size:12.000;fill:#000000;fill-rule:evenodd;stroke:none;stroke-width:2.500000;stroke-opacity:1.0000;fill-opacity:0.3598;"
     d="M 25.647779,30.110356 L 46.703738,55.902369 L 51.137197,53.208815 L 30.081211,27.416782 L 22.121962,21.729390 L 25.647779,30.110356 z "
     id="path578"
     sodipodi:nodetypes="cccccc" />
  <path
     style="font-size:12.000000;fill:none;fill-rule:evenodd;stroke:#000000;stroke-width:2.1990302;"
     d="M 14.875372,11.351843 C 11.293554,10.050063 12.487499,3.5411630 16.069313,3.5411630 C 18.457190,3.5411630 19.651131,6.1447223 18.457190,7.4465025"
     id="path567"
     sodipodi:nodetypes="ccc" />
  <path
     style="font-size:12.000000;fill:none;fill-rule:evenodd;stroke:#000000;stroke-width:2.1990302;"
     d="M 24.201694,11.351843 C 20.619876,10.050063 21.813820,3.5411630 25.395635,3.5411630 C 27.783512,3.5411630 28.977454,6.1447223 27.783512,7.4465025"
     id="path568"
     sodipodi:nodetypes="ccc" />
  <path
     style="font-size:12.000000;fill:none;fill-rule:evenodd;stroke:#000000;stroke-width:2.1990302;"
     d="M 33.510016,11.351843 C 29.928197,10.050063 31.122142,3.5411630 34.703972,3.5411630 C 37.091846,3.5411630 38.285797,6.1447223 37.091846,7.4465025"
     id="path569"
     sodipodi:nodetypes="ccc" />
  <path
     style="font-size:12.000000;fill:none;fill-rule:evenodd;stroke:#000000;stroke-width:2.1990302;"
     d="M 43.061541,11.351843 C 39.479681,10.050063 40.673666,3.5411630 44.255466,3.5411630 C 46.643341,3.5411630 47.837294,6.1447223 46.643341,7.4465025"
     id="path570"
     sodipodi:nodetypes="ccc" />
  <path
     style="font-size:12.000000;fill:#990000;fill-rule:evenodd;stroke:#000000;stroke-width:0.83449966;"
     d="M 28.430072,29.292870 L 52.637896,44.438299 L 55.998889,39.483167 L 31.791111,24.337670 L 23.508466,22.684710 L 28.430072,29.292870 z "
     id="path572"
     sodipodi:nodetypes="cccccc" />
  <path
     style="font-size:12.000000;fill-rule:evenodd;stroke:#000000;stroke-width:0.83449966;"
     d="M 27.296462,27.183034 L 27.296462,27.183034 L 29.313073,24.209916 L 29.313073,24.209916 L 23.353184,22.598546 L 27.296462,27.183034 z "
     id="path573"
     sodipodi:nodetypes="cccccc" />
  <path
     style="fill:#ffffff;fill-rule:evenodd;stroke:none;stroke-opacity:1;stroke-width:1pt;stroke-linejoin:miter;stroke-linecap:butt;fill-opacity:0.69230771;"
     d="M 31.424619,24.805013 L 55.037915,39.561028 L 54.176639,40.981392 L 30.778664,26.304288 L 31.424619,24.805013 z "
     id="path837" />
  <path
     style="fill:#4e4e4a;fill-rule:evenodd;stroke:none;stroke-opacity:1;stroke-width:1pt;stroke-linejoin:miter;stroke-linecap:butt;fill-opacity:0.31538463;"
     d="M 29.673651,27.591375 L 53.355193,42.276789 L 52.491427,43.690357 L 29.025827,29.083476 L 29.673651,27.591375 z "
     id="path838" />
  <path
     id="path871"
     fill="none"
     stroke="black"
     stroke-width="1"
     d="M 13.124682,14.551777 C 13.464022,15.259027 13.633692,15.101860 13.633692,15.966276 C 13.633692,15.966276 13.803362,15.966276 13.803362,15.966276 C 13.803362,15.101860 13.973031,15.259027 14.312371,14.551777 C 13.973031,14.708944 13.973031,14.787527 13.803362,15.101860 C 13.548857,14.866111 13.464022,14.630360 13.124682,14.551777 z M 22.202017,14.551777 C 22.202017,14.551777 22.202017,15.966276 22.202017,15.966276 C 22.202017,15.966276 22.371686,15.966276 22.371686,15.966276 C 22.371686,15.966276 22.371686,14.551777 22.371686,14.551777 C 22.371686,14.551777 22.202017,14.551777 22.202017,14.551777 z M 25.765082,14.630360 C 25.765082,14.630360 25.595412,15.023277 25.595412,15.023277 C 25.934751,15.651943 25.595412,15.887693 26.358928,15.966276 C 26.358928,15.966276 26.358928,15.809110 26.358928,15.809110 C 25.934751,15.651943 25.934751,15.494777 25.934751,15.101860 C 25.934751,15.101860 26.358928,15.101860 26.358928,15.101860 C 26.358928,15.101860 26.358928,14.944694 26.358928,14.944694 C 26.358928,14.944694 25.934751,14.944694 25.934751,14.944694 C 25.934751,14.944694 25.934751,14.630360 25.934751,14.630360 C 25.934751,14.630360 25.765082,14.630360 25.765082,14.630360 z M 14.482041,15.023277 C 13.888197,15.494777 14.482041,16.123443 14.991050,15.887693 C 15.415225,15.651943 15.330390,14.787527 14.482041,15.023277 z M 15.584895,14.944694 C 15.584895,15.337610 15.500060,16.280609 16.263574,15.809110 C 16.263574,15.809110 16.518079,15.966276 16.518079,15.966276 C 16.518079,15.966276 16.518079,14.944694 16.518079,14.944694 C 16.518079,14.944694 16.348409,14.944694 16.348409,14.944694 C 16.348409,15.101860 16.348409,15.966276 15.924234,15.651943 C 15.754564,15.573359 15.754564,15.101860 15.754564,14.944694 C 15.754564,14.944694 15.584895,14.944694 15.584895,14.944694 z M 16.857419,14.944694 C 16.857419,14.944694 16.857419,15.966276 16.857419,15.966276 C 16.857419,15.966276 17.027088,15.966276 17.027088,15.966276 C 17.027088,15.494777 17.027088,15.259027 17.536097,15.101860 C 17.536097,15.101860 17.536097,14.944694 17.536097,14.944694 C 17.536097,14.944694 17.111923,15.101860 17.111923,15.101860 C 17.111923,15.101860 16.857419,14.944694 16.857419,14.944694 z M 18.469281,15.180444 C 18.808621,15.101860 18.893455,15.101860 19.147961,15.337610 C 18.978291,15.337610 18.723786,15.337610 18.554116,15.416193 C 18.214776,15.651943 18.554116,16.202026 19.063126,15.809110 C 19.063126,15.809110 19.317630,15.966276 19.317630,15.966276 C 19.317630,15.809110 19.317630,15.337610 19.232795,15.180444 C 19.063126,14.866111 18.638951,14.866111 18.469281,15.180444 z M 19.656969,14.944694 C 19.656969,14.944694 19.656969,16.359193 19.656969,16.359193 C 19.656969,16.359193 19.826640,16.359193 19.826640,16.359193 C 19.826640,16.359193 19.826640,15.809110 19.826640,15.809110 C 19.911475,15.887693 19.996309,15.887693 20.165979,15.966276 C 20.929494,15.966276 20.674989,14.551777 19.911475,15.101860 C 19.911475,15.101860 19.656969,14.944694 19.656969,14.944694 z M 20.929494,14.944694 C 20.929494,14.944694 20.929494,16.359193 20.929494,16.359193 C 20.929494,16.359193 21.099164,16.359193 21.099164,16.359193 C 21.099164,16.359193 21.099164,15.809110 21.099164,15.809110 C 21.183998,15.887693 21.268833,15.887693 21.438503,15.966276 C 22.202017,15.966276 21.947512,14.551777 21.183998,15.101860 C 21.183998,15.101860 20.929494,14.944694 20.929494,14.944694 z M 22.795861,14.944694 C 22.795861,14.944694 22.795861,15.966276 22.795861,15.966276 C 22.795861,15.966276 22.965531,15.966276 22.965531,15.966276 C 22.965531,15.966276 22.965531,14.944694 22.965531,14.944694 C 22.965531,14.944694 22.795861,14.944694 22.795861,14.944694 z M 24.153220,15.966276 C 24.153220,15.966276 24.153220,15.809110 24.153220,15.809110 C 23.389706,15.730526 23.389706,15.180444 24.153220,15.101860 C 24.153220,15.101860 24.153220,14.944694 24.153220,14.944694 C 23.898714,14.944694 23.729045,14.944694 23.474540,15.101860 C 23.220036,15.259027 23.304871,15.730526 23.559375,15.887693 C 23.729045,15.966276 23.983550,15.966276 24.153220,15.966276 z M 24.577394,15.180444 C 24.916734,15.101860 25.001569,15.101860 25.256074,15.337610 C 25.086403,15.337610 24.831899,15.337610 24.662229,15.416193 C 24.322889,15.651943 24.662229,16.202026 25.171238,15.809110 C 25.171238,15.809110 25.425742,15.966276 25.425742,15.966276 C 25.425742,15.809110 25.425742,15.337610 25.340908,15.180444 C 25.171238,14.866111 24.747064,14.866111 24.577394,15.180444 z M 26.528598,14.944694 C 26.528598,14.944694 26.528598,15.966276 26.528598,15.966276 C 26.528598,15.966276 26.698267,15.966276 26.698267,15.966276 C 26.698267,15.966276 26.698267,14.944694 26.698267,14.944694 C 26.698267,14.944694 26.528598,14.944694 26.528598,14.944694 z M 27.292111,15.023277 C 26.698267,15.494777 27.292111,16.123443 27.801119,15.887693 C 28.225296,15.651943 28.140461,14.787527 27.292111,15.023277 z M 28.394966,14.944694 C 28.394966,14.944694 28.394966,15.966276 28.394966,15.966276 C 28.394966,15.966276 28.564635,15.966276 28.564635,15.966276 C 28.564635,15.809110 28.564635,14.944694 28.988809,15.259027 C 29.158479,15.337610 29.158479,15.809110 29.158479,15.966276 C 29.158479,15.966276 29.328148,15.966276 29.328148,15.966276 C 29.328148,15.573359 29.412983,14.630360 28.649470,15.101860 C 28.649470,15.101860 28.394966,14.944694 28.394966,14.944694 z M 14.651711,15.180444 C 15.160720,15.180444 15.075885,15.651943 14.821381,15.730526 C 14.566876,15.809110 14.227536,15.416193 14.651711,15.180444 z M 20.081144,15.180444 C 20.590154,15.180444 20.505319,15.651943 20.250814,15.730526 C 19.996309,15.809110 19.656969,15.416193 20.081144,15.180444 z M 21.353668,15.180444 C 21.862678,15.180444 21.777843,15.651943 21.523338,15.730526 C 21.268833,15.809110 20.929494,15.416193 21.353668,15.180444 z M 27.461780,15.180444 C 27.970789,15.180444 27.885954,15.651943 27.631450,15.730526 C 27.376945,15.809110 27.037606,15.416193 27.461780,15.180444 z M 19.147961,15.494777 C 18.978291,15.809110 18.893455,15.809110 18.554116,15.730526 C 18.554116,15.730526 18.554116,15.573359 18.554116,15.573359 C 18.554116,15.573359 19.147961,15.494777 19.147961,15.494777 z M 25.256074,15.494777 C 25.086403,15.809110 25.001569,15.809110 24.662229,15.730526 C 24.662229,15.730526 24.662229,15.573359 24.662229,15.573359 C 24.662229,15.573359 25.256074,15.494777 25.256074,15.494777 z "
     style="fill:none;stroke:#000000;stroke-width:0.081649281;" />
  <path
     id="path878"
     fill="none"
     stroke="black"
     stroke-width="1"
     d="M 31.491394,14.553609 C 31.491394,14.553609 31.491394,15.994709 31.491394,15.994709 C 31.491394,15.994709 31.673209,15.994709 31.673209,15.994709 C 31.673209,15.994709 31.673209,14.873854 31.673209,14.873854 C 31.673209,14.873854 32.127745,15.754526 32.127745,15.754526 C 32.127745,15.754526 32.309559,15.754526 32.309559,15.754526 C 32.309559,15.754526 32.673188,14.873854 32.673188,14.873854 C 32.673188,14.873854 32.764095,15.994709 32.764095,15.994709 C 32.764095,15.994709 32.945910,15.994709 32.945910,15.994709 C 32.945910,15.994709 32.945910,14.553609 32.945910,14.553609 C 32.945910,14.553609 32.582281,14.553609 32.582281,14.553609 C 32.582281,14.553609 32.218651,15.434281 32.218651,15.434281 C 32.218651,15.434281 31.855023,14.553609 31.855023,14.553609 C 31.855023,14.553609 31.491394,14.553609 31.491394,14.553609 z M 36.400385,14.553609 C 36.400385,14.553609 36.400385,15.994709 36.400385,15.994709 C 36.400385,15.994709 36.582200,15.994709 36.582200,15.994709 C 36.582200,15.994709 36.582200,14.553609 36.582200,14.553609 C 36.582200,14.553609 36.400385,14.553609 36.400385,14.553609 z M 37.036736,14.553609 C 37.036736,14.553609 37.036736,15.994709 37.036736,15.994709 C 37.036736,15.994709 37.218550,15.994709 37.218550,15.994709 C 37.218550,15.994709 37.218550,14.553609 37.218550,14.553609 C 37.218550,14.553609 37.036736,14.553609 37.036736,14.553609 z M 33.491354,15.033976 C 32.855003,15.514342 33.491354,16.154831 34.036796,15.914648 C 34.491334,15.674465 34.400426,14.793793 33.491354,15.033976 z M 34.582240,14.953915 C 34.582240,14.953915 34.582240,15.114037 34.582240,15.114037 C 34.582240,15.114037 35.218591,15.114037 35.218591,15.114037 C 35.218591,15.114037 34.582240,15.994709 34.582240,15.994709 C 34.582240,15.994709 35.491313,15.994709 35.491313,15.994709 C 35.491313,15.994709 35.491313,15.834587 35.491313,15.834587 C 35.491313,15.834587 34.854962,15.834587 34.854962,15.834587 C 34.854962,15.834587 35.491313,14.953915 35.491313,14.953915 C 35.491313,14.953915 34.582240,14.953915 34.582240,14.953915 z M 35.764035,14.953915 C 35.764035,14.953915 35.764035,15.994709 35.764035,15.994709 C 35.764035,15.994709 35.945849,15.994709 35.945849,15.994709 C 35.945849,15.994709 35.945849,14.953915 35.945849,14.953915 C 35.945849,14.953915 35.764035,14.953915 35.764035,14.953915 z M 37.763994,15.194098 C 38.127623,15.114037 38.218530,15.114037 38.491253,15.354220 C 38.309438,15.354220 38.036716,15.354220 37.854901,15.434281 C 37.491273,15.674465 37.854901,16.234892 38.400345,15.834587 C 38.400345,15.834587 38.673067,15.994709 38.673067,15.994709 C 38.673067,15.834587 38.673067,15.354220 38.582160,15.194098 C 38.400345,14.873854 37.945809,14.873854 37.763994,15.194098 z M 33.673168,15.194098 C 34.218611,15.194098 34.127704,15.674465 33.854983,15.754526 C 33.582260,15.834587 33.218631,15.434281 33.673168,15.194098 z M 38.491253,15.514342 C 38.309438,15.834587 38.218530,15.834587 37.854901,15.754526 C 37.854901,15.754526 37.854901,15.594404 37.854901,15.594404 C 37.854901,15.594404 38.491253,15.514342 38.491253,15.514342 z "
     style="fill:none;stroke:#000000;stroke-width:0.085311994;" />
  <path
     id="path883"
     fill="none"
     stroke="black"
     stroke-width="1"
     d="M 40.702979,14.551768 C 40.702979,14.551768 41.015931,15.318300 41.015931,15.318300 C 41.015931,15.318300 40.624738,16.084832 40.624738,16.084832 C 40.937694,15.999661 41.015931,15.829321 41.094169,15.488640 C 41.094169,15.488640 41.250646,15.488640 41.250646,15.488640 C 41.407121,15.829321 41.407121,15.914491 41.720074,16.084832 C 41.720074,16.084832 41.407121,15.233130 41.407121,15.233130 C 41.407121,15.233130 41.720074,14.551768 41.720074,14.551768 C 41.407121,14.636938 41.407121,14.722109 41.250646,15.062789 C 41.250646,15.062789 40.702979,14.551768 40.702979,14.551768 z M 42.033030,14.636938 C 42.033030,14.636938 41.876552,15.062789 41.876552,15.062789 C 42.189504,15.744151 41.876552,15.999661 42.580698,16.084832 C 42.580698,16.084832 42.580698,15.914491 42.580698,15.914491 C 42.189504,15.744151 42.189504,15.573810 42.189504,15.147960 C 42.189504,15.147960 42.580698,15.147960 42.580698,15.147960 C 42.580698,15.147960 42.580698,14.977619 42.580698,14.977619 C 42.580698,14.977619 42.189504,14.977619 42.189504,14.977619 C 42.189504,14.977619 42.189504,14.636938 42.189504,14.636938 C 42.189504,14.636938 42.033030,14.636938 42.033030,14.636938 z M 43.597794,15.829321 C 43.206603,15.914491 43.128366,15.914491 42.815410,15.573810 C 42.815410,15.573810 43.597794,15.573810 43.597794,15.573810 C 43.441319,14.722109 42.815410,14.977619 42.658936,15.403470 C 42.580698,15.999661 43.284841,16.340342 43.597794,15.829321 z M 43.910746,14.977619 C 43.910746,14.977619 43.910746,16.084832 43.910746,16.084832 C 43.910746,16.084832 44.067224,16.084832 44.067224,16.084832 C 44.067224,15.573810 44.067224,15.318300 44.536654,15.147960 C 44.536654,15.147960 44.536654,14.977619 44.536654,14.977619 C 44.536654,14.977619 44.145461,15.147960 44.145461,15.147960 C 44.145461,15.147960 43.910746,14.977619 43.910746,14.977619 z M 44.693129,14.977619 C 44.693129,14.977619 44.693129,16.084832 44.693129,16.084832 C 44.693129,16.084832 44.849607,16.084832 44.849607,16.084832 C 44.849607,15.914491 44.849607,14.977619 45.240797,15.318300 C 45.397275,15.403470 45.397275,15.914491 45.397275,16.084832 C 45.397275,16.084832 45.553749,16.084832 45.553749,16.084832 C 45.553749,15.914491 45.553749,15.062789 45.866706,15.318300 C 46.023181,15.403470 46.023181,15.914491 46.023181,16.084832 C 46.023181,16.084832 46.257896,16.084832 46.257896,16.084832 C 46.257896,15.829321 46.257896,15.403470 46.179658,15.147960 C 46.023181,14.977619 45.319038,14.977619 45.084323,15.062789 C 45.006082,15.062789 45.006082,15.147960 44.927844,15.147960 C 44.927844,15.147960 44.693129,14.977619 44.693129,14.977619 z M 43.441319,15.403470 C 43.441319,15.403470 42.815410,15.403470 42.815410,15.403470 C 43.050125,15.147960 43.206603,15.062789 43.441319,15.403470 z "
     style="fill:none;stroke:#000000;stroke-width:0.081630699;" />
  <path
     id="path899"
     fill="none"
     stroke="black"
     stroke-width="1"
     d="M 22.799554,19.195713 C 23.138893,19.902963 23.308563,19.745796 23.308563,20.610212 C 23.308563,20.610212 23.478231,20.610212 23.478231,20.610212 C 23.478231,19.745796 23.647903,19.902963 23.987244,19.195713 C 23.647903,19.352879 23.647903,19.431463 23.478231,19.745796 C 23.223728,19.510046 23.138893,19.274296 22.799554,19.195713 z M 31.876888,19.195713 C 31.876888,19.195713 31.876888,20.610212 31.876888,20.610212 C 31.876888,20.610212 32.046557,20.610212 32.046557,20.610212 C 32.046557,20.610212 32.046557,19.195713 32.046557,19.195713 C 32.046557,19.195713 31.876888,19.195713 31.876888,19.195713 z M 35.439953,19.274296 C 35.439953,19.274296 35.270284,19.667213 35.270284,19.667213 C 35.609622,20.295879 35.270284,20.531628 36.033799,20.610212 C 36.033799,20.610212 36.033799,20.453046 36.033799,20.453046 C 35.609622,20.295879 35.609622,20.138713 35.609622,19.745796 C 35.609622,19.745796 36.033799,19.745796 36.033799,19.745796 C 36.033799,19.745796 36.033799,19.588630 36.033799,19.588630 C 36.033799,19.588630 35.609622,19.588630 35.609622,19.588630 C 35.609622,19.588630 35.609622,19.274296 35.609622,19.274296 C 35.609622,19.274296 35.439953,19.274296 35.439953,19.274296 z M 24.156912,19.667213 C 23.563069,20.138713 24.156912,20.767379 24.665921,20.531628 C 25.090095,20.295879 25.005261,19.431463 24.156912,19.667213 z M 25.259767,19.588630 C 25.259767,19.981546 25.174930,20.924545 25.938445,20.453046 C 25.938445,20.453046 26.192950,20.610212 26.192950,20.610212 C 26.192950,20.610212 26.192950,19.588630 26.192950,19.588630 C 26.192950,19.588630 26.023278,19.588630 26.023278,19.588630 C 26.023278,19.745796 26.023278,20.610212 25.599104,20.295879 C 25.429436,20.217295 25.429436,19.745796 25.429436,19.588630 C 25.429436,19.588630 25.259767,19.588630 25.259767,19.588630 z M 26.532291,19.588630 C 26.532291,19.588630 26.532291,20.610212 26.532291,20.610212 C 26.532291,20.610212 26.701960,20.610212 26.701960,20.610212 C 26.701960,20.138713 26.701960,19.902963 27.210968,19.745796 C 27.210968,19.745796 27.210968,19.588630 27.210968,19.588630 C 27.210968,19.588630 26.786793,19.745796 26.786793,19.745796 C 26.786793,19.745796 26.532291,19.588630 26.532291,19.588630 z M 28.144151,19.824380 C 28.483492,19.745796 28.568326,19.745796 28.822832,19.981546 C 28.653160,19.981546 28.398657,19.981546 28.228986,20.060129 C 27.889648,20.295879 28.228986,20.845962 28.737997,20.453046 C 28.737997,20.453046 28.992501,20.610212 28.992501,20.610212 C 28.992501,20.453046 28.992501,19.981546 28.907666,19.824380 C 28.737997,19.510046 28.313823,19.510046 28.144151,19.824380 z M 29.331841,19.588630 C 29.331841,19.588630 29.331841,21.003129 29.331841,21.003129 C 29.331841,21.003129 29.501509,21.003129 29.501509,21.003129 C 29.501509,21.003129 29.501509,20.453046 29.501509,20.453046 C 29.586347,20.531628 29.671181,20.531628 29.840850,20.610212 C 30.604364,20.610212 30.349858,19.195713 29.586347,19.745796 C 29.586347,19.745796 29.331841,19.588630 29.331841,19.588630 z M 30.604364,19.588630 C 30.604364,19.588630 30.604364,21.003129 30.604364,21.003129 C 30.604364,21.003129 30.774033,21.003129 30.774033,21.003129 C 30.774033,21.003129 30.774033,20.453046 30.774033,20.453046 C 30.858871,20.531628 30.943705,20.531628 31.113373,20.610212 C 31.876888,20.610212 31.622382,19.195713 30.858871,19.745796 C 30.858871,19.745796 30.604364,19.588630 30.604364,19.588630 z M 32.470731,19.588630 C 32.470731,19.588630 32.470731,20.610212 32.470731,20.610212 C 32.470731,20.610212 32.640403,20.610212 32.640403,20.610212 C 32.640403,20.610212 32.640403,19.588630 32.640403,19.588630 C 32.640403,19.588630 32.470731,19.588630 32.470731,19.588630 z M 33.828092,20.610212 C 33.828092,20.610212 33.828092,20.453046 33.828092,20.453046 C 33.064577,20.374462 33.064577,19.824380 33.828092,19.745796 C 33.828092,19.745796 33.828092,19.588630 33.828092,19.588630 C 33.573586,19.588630 33.403914,19.588630 33.149412,19.745796 C 32.894906,19.902963 32.979739,20.374462 33.234246,20.531628 C 33.403914,20.610212 33.658421,20.610212 33.828092,20.610212 z M 34.252263,19.824380 C 34.591603,19.745796 34.676438,19.745796 34.930944,19.981546 C 34.761276,19.981546 34.506769,19.981546 34.337101,20.060129 C 33.997761,20.295879 34.337101,20.845962 34.846109,20.453046 C 34.846109,20.453046 35.100612,20.610212 35.100612,20.610212 C 35.100612,20.453046 35.100612,19.981546 35.015778,19.824380 C 34.846109,19.510046 34.421936,19.510046 34.252263,19.824380 z M 36.203468,19.588630 C 36.203468,19.588630 36.203468,20.610212 36.203468,20.610212 C 36.203468,20.610212 36.373139,20.610212 36.373139,20.610212 C 36.373139,20.610212 36.373139,19.588630 36.373139,19.588630 C 36.373139,19.588630 36.203468,19.588630 36.203468,19.588630 z M 36.966981,19.667213 C 36.373139,20.138713 36.966981,20.767379 37.475990,20.531628 C 37.900165,20.295879 37.815331,19.431463 36.966981,19.667213 z M 38.069837,19.588630 C 38.069837,19.588630 38.069837,20.610212 38.069837,20.610212 C 38.069837,20.610212 38.239505,20.610212 38.239505,20.610212 C 38.239505,20.453046 38.239505,19.588630 38.663680,19.902963 C 38.833348,19.981546 38.833348,20.453046 38.833348,20.610212 C 38.833348,20.610212 39.003017,20.610212 39.003017,20.610212 C 39.003017,20.217295 39.087854,19.274296 38.324340,19.745796 C 38.324340,19.745796 38.069837,19.588630 38.069837,19.588630 z M 24.326580,19.824380 C 24.835592,19.824380 24.750755,20.295879 24.496252,20.374462 C 24.241746,20.453046 23.902406,20.060129 24.326580,19.824380 z M 29.756015,19.824380 C 30.265024,19.824380 30.180190,20.295879 29.925683,20.374462 C 29.671181,20.453046 29.331841,20.060129 29.756015,19.824380 z M 31.028538,19.824380 C 31.537547,19.824380 31.452713,20.295879 31.198207,20.374462 C 30.943705,20.453046 30.604364,20.060129 31.028538,19.824380 z M 37.136650,19.824380 C 37.645658,19.824380 37.560825,20.295879 37.306318,20.374462 C 37.051816,20.453046 36.712476,20.060129 37.136650,19.824380 z M 28.822832,20.138713 C 28.653160,20.453046 28.568326,20.453046 28.228986,20.374462 C 28.228986,20.374462 28.228986,20.217295 28.228986,20.217295 C 28.228986,20.217295 28.822832,20.138713 28.822832,20.138713 z M 34.930944,20.138713 C 34.761276,20.453046 34.676438,20.453046 34.337101,20.374462 C 34.337101,20.374462 34.337101,20.217295 34.337101,20.217295 C 34.337101,20.217295 34.930944,20.138713 34.930944,20.138713 z "
     style="fill:none;stroke:#000000;stroke-width:0.081649281;" />
  <path
     id="path884"
     fill="none"
     stroke="black"
     stroke-width="1"
     d="M 13.225241,19.197545 C 13.225241,19.197545 13.225241,20.638645 13.225241,20.638645 C 13.225241,20.638645 13.407056,20.638645 13.407056,20.638645 C 13.407056,20.638645 13.407056,19.517790 13.407056,19.517790 C 13.407056,19.517790 13.861592,20.398462 13.861592,20.398462 C 13.861592,20.398462 14.043407,20.398462 14.043407,20.398462 C 14.043407,20.398462 14.407036,19.517790 14.407036,19.517790 C 14.407036,19.517790 14.497944,20.638645 14.497944,20.638645 C 14.497944,20.638645 14.679758,20.638645 14.679758,20.638645 C 14.679758,20.638645 14.679758,19.197545 14.679758,19.197545 C 14.679758,19.197545 14.316129,19.197545 14.316129,19.197545 C 14.316129,19.197545 13.952500,20.078217 13.952500,20.078217 C 13.952500,20.078217 13.588871,19.197545 13.588871,19.197545 C 13.588871,19.197545 13.225241,19.197545 13.225241,19.197545 z M 18.134234,19.197545 C 18.134234,19.197545 18.134234,20.638645 18.134234,20.638645 C 18.134234,20.638645 18.316048,20.638645 18.316048,20.638645 C 18.316048,20.638645 18.316048,19.197545 18.316048,19.197545 C 18.316048,19.197545 18.134234,19.197545 18.134234,19.197545 z M 18.770584,19.197545 C 18.770584,19.197545 18.770584,20.638645 18.770584,20.638645 C 18.770584,20.638645 18.952399,20.638645 18.952399,20.638645 C 18.952399,20.638645 18.952399,19.197545 18.952399,19.197545 C 18.952399,19.197545 18.770584,19.197545 18.770584,19.197545 z M 15.225201,19.677912 C 14.588850,20.158278 15.225201,20.798767 15.770645,20.558584 C 16.225181,20.318401 16.134274,19.437729 15.225201,19.677912 z M 16.316089,19.597851 C 16.316089,19.597851 16.316089,19.757973 16.316089,19.757973 C 16.316089,19.757973 16.952439,19.757973 16.952439,19.757973 C 16.952439,19.757973 16.316089,20.638645 16.316089,20.638645 C 16.316089,20.638645 17.225161,20.638645 17.225161,20.638645 C 17.225161,20.638645 17.225161,20.478523 17.225161,20.478523 C 17.225161,20.478523 16.588810,20.478523 16.588810,20.478523 C 16.588810,20.478523 17.225161,19.597851 17.225161,19.597851 C 17.225161,19.597851 16.316089,19.597851 16.316089,19.597851 z M 17.497883,19.597851 C 17.497883,19.597851 17.497883,20.638645 17.497883,20.638645 C 17.497883,20.638645 17.679697,20.638645 17.679697,20.638645 C 17.679697,20.638645 17.679697,19.597851 17.679697,19.597851 C 17.679697,19.597851 17.497883,19.597851 17.497883,19.597851 z M 19.497842,19.838034 C 19.861471,19.757973 19.952378,19.757973 20.225100,19.998156 C 20.043285,19.998156 19.770564,19.998156 19.588750,20.078217 C 19.225120,20.318401 19.588750,20.878828 20.134193,20.478523 C 20.134193,20.478523 20.406915,20.638645 20.406915,20.638645 C 20.406915,20.478523 20.406915,19.998156 20.316008,19.838034 C 20.134193,19.517790 19.679657,19.517790 19.497842,19.838034 z M 15.407016,19.838034 C 15.952460,19.838034 15.861552,20.318401 15.588830,20.398462 C 15.316109,20.478523 14.952480,20.078217 15.407016,19.838034 z M 20.225100,20.158278 C 20.043285,20.478523 19.952378,20.478523 19.588750,20.398462 C 19.588750,20.398462 19.588750,20.238339 19.588750,20.238339 C 19.588750,20.238339 20.225100,20.158278 20.225100,20.158278 z "
     style="fill:none;stroke:#000000;stroke-width:0.085311994;" />
</svg>
