<?xml version="1.0" encoding="UTF-8" standalone="no"?>
<!DOCTYPE svg PUBLIC "-//W3C//DTD SVG 20010904//EN"
"http://www.w3.org/TR/2001/REC-SVG-20010904/DTD/svg10.dtd">
<!-- Created with Inkscape (http://www.inkscape.org/) -->
<svg
   id="svg1"
   sodipodi:version="0.32"
   inkscape:version="0.38.1"
   width="128.00000pt"
   height="128.00000pt"
   sodipodi:docbase="/usr/share/icons/Suede/scalable/stock"
   sodipodi:docname="stock_cut.svg"
   xmlns="http://www.w3.org/2000/svg"
   xmlns:inkscape="http://www.inkscape.org/namespaces/inkscape"
   xmlns:sodipodi="http://sodipodi.sourceforge.net/DTD/sodipodi-0.dtd"
   xmlns:xlink="http://www.w3.org/1999/xlink"><defs
   id="defs3">
  <linearGradient
     id="linearGradient566">
    <stop
       style="stop-color:#ffff00;stop-opacity:1.0000000;"
       offset="0.0000000"
       id="stop567" />
    <stop
       style="stop-color:#ffd800;stop-opacity:1.0000000;"
       offset="0.43829629"
       id="stop854" />
    <stop
       style="stop-color:#ffb200;stop-opacity:1.0000000;"
       offset="1.0000000"
       id="stop568" />
  </linearGradient>
  <linearGradient
     id="linearGradient860">
    <stop
       style="stop-color:#ffffff;stop-opacity:1.0000000;"
       offset="0.0000000"
       id="stop861" />
    <stop
       style="stop-color:#ffea7d;stop-opacity:1.0000000;"
       offset="0.25000000"
       id="stop862" />
    <stop
       style="stop-color:#ffbf00;stop-opacity:1.0000;"
       offset="1"
       id="stop863" />
  </linearGradient>
  <linearGradient
     xlink:href="#linearGradient566"
     id="linearGradient569"
     x1="0.48750001"
     y1="0.48387095"
     x2="0.96249998"
     y2="0.48387095"
     spreadMethod="reflect" />
  <linearGradient
     xlink:href="#linearGradient566"
     id="linearGradient589"
     x1="0.44374999"
     y1="0.046875000"
     x2="0.44374999"
     y2="0.57812500"
     spreadMethod="reflect" />
  <linearGradient
     id="linearGradient849">
    <stop
       style="stop-color:#ffc900;stop-opacity:1.0000000;"
       offset="0.0000000"
       id="stop850" />
    <stop
       style="stop-color:#5d5d5c;stop-opacity:1.0000000;"
       offset="1.0000000"
       id="stop851" />
  </linearGradient>
  <linearGradient
     id="linearGradient843">
    <stop
       style="stop-color:#ffffff;stop-opacity:1.0000000;"
       offset="0.0000000"
       id="stop844" />
    <stop
       style="stop-color:#5c5d5c;stop-opacity:1.0000000;"
       offset="1.0000000"
       id="stop845" />
  </linearGradient>
  <linearGradient
     id="linearGradient838">
    <stop
       style="stop-color:#ffd000;stop-opacity:1.0000000;"
       offset="0.0000000"
       id="stop839" />
    <stop
       style="stop-color:#5c5d5c;stop-opacity:1.0000000;"
       offset="1.0000000"
       id="stop840" />
  </linearGradient>
  <linearGradient
     xlink:href="#linearGradient838"
     id="linearGradient841"
     x1="0.35333332"
     y1="0.35135135"
     x2="0.47999999"
     y2="0.049549550" />
  <linearGradient
     xlink:href="#linearGradient843"
     id="linearGradient842"
     x1="0.80165291"
     y1="0.15765765"
     x2="0.43801653"
     y2="0.72522521" />
  <linearGradient
     xlink:href="#linearGradient849"
     id="linearGradient847"
     x1="0.53358209"
     y1="0.50450450"
     x2="0.33208954"
     y2="0.24324325" />
  <radialGradient
     xlink:href="#linearGradient566"
     id="radialGradient853"
     cx="0.32499999"
     cy="0.33021805"
     r="0.54695481"
     fx="0.32187498"
     fy="0.33021802" />
  <linearGradient
     id="aigrd1"
     gradientUnits="userSpaceOnUse"
     x1="-46.0938"
     y1="9.5923"
     x2="-37.1114"
     y2="16.0139"
     gradientTransform="matrix(-1 0 0 1 -30.4814 0)">
			<stop
   offset="0"
   style="stop-color:#E6E6E6"
   id="stop864" />

			<stop
   offset="1"
   style="stop-color:#9F9F9F"
   id="stop866" />

		</linearGradient>
  <linearGradient
     id="aigrd2"
     gradientUnits="userSpaceOnUse"
     x1="11.9678"
     y1="11.9824"
     x2="15.9886"
     y2="14.7877">
			<stop
   offset="0"
   style="stop-color:#FFFFFF"
   id="stop873" />

			<stop
   offset="1"
   style="stop-color:#BEBEBE"
   id="stop875" />

		</linearGradient>
  <radialGradient
     id="aigrd3"
     cx="-17.5649"
     cy="12.0332"
     r="0.8478"
     fx="-17.5649"
     fy="12.0332"
     gradientTransform="matrix(1.1422 0 0 1 31.8838 0)"
     gradientUnits="userSpaceOnUse">
			<stop
   offset="0"
   style="stop-color:#FFFFFF"
   id="stop882" />

			<stop
   offset="1"
   style="stop-color:#BEBEBE"
   id="stop884" />

		</radialGradient>
</defs>
<sodipodi:namedview
   id="base"
   pagecolor="#ffffff"
   bordercolor="#666666"
   borderopacity="1.0"
   inkscape:pageopacity="0.0"
   inkscape:pageshadow="2"
   inkscape:zoom="4.7031250"
   inkscape:cx="64.000000"
   inkscape:cy="64.000000"
   inkscape:window-width="1142"
   inkscape:window-height="745"
   showgrid="true"
   snaptogrid="false"
   gridspacingx="1.0000000mm"
   gridspacingy="1.0000000mm"
   inkscape:window-x="0"
   inkscape:window-y="29" />
<path
   style="fill:url(#aigrd1);"
   d="M5.8,7.8c2.4,4.2,6.8,6.2,6.8,6.2s0.7,3.2,0.7,4c0,0.8,0.3,1.7,0.9,2.3c0.6,0.7,1.5,1.1,2.5,1.1c1,0,1.9-0.4,2.5-1.1c0.6-0.6,0.9-1.5,0.9-2.3c0-0.9-0.3-1.7-0.9-2.3c-0.6-0.7-1.5-1.1-2.5-1.1c-0.7,0-1.3,0.2-1.9,0.5L7.1,2.4    c0,0-3.2,2-1.2,5.4z M14.9,18c0-0.7,0.2-1.3,0.7-1.7c0.2-0.2,0.7-0.6,1.3-0.6c0.6,0,1.1,0.4,1.3,0.6c0.4,0.5,0.7,1.1,0.7,1.7c0,0.7-0.2,1.3-0.7,1.7c-0.2,0.2-0.7,0.6-1.3,0.6c-0.6,0-1.1-0.4-1.3-0.6c-0.4-0.5-0.7-1.1-0.7-1.7z"
   id="path869"
   transform="matrix(6.537097,0.000000,0.000000,6.692136,1.063123,-3.189353)" />
<path
   style="fill:none;stroke:#000000;stroke-width:2.2806292;stroke-linecap:round;stroke-linejoin:round;"
   d="M 38.312836,48.124689 C 54.171344,76.693500 83.245275,90.297696 83.245275,90.297696 C 83.245275,90.297696 87.870673,112.06440 87.870673,117.50608 C 87.870673,122.94776 89.852987,129.06965 93.817615,133.15092 C 97.782241,137.91238 103.72918,140.63322 110.33690,140.63322 C 116.94460,140.63322 122.89155,137.91238 126.85617,133.15092 C 130.82080,129.06965 132.80312,122.94776 132.80312,117.50608 C 132.80312,111.38420 130.82080,105.94252 126.85617,101.86126 C 122.89155,97.099794 116.94460,94.378954 110.33690,94.378954 C 105.71150,94.378954 101.74687,95.739373 97.782241,97.780003 L 46.902861,11.393361 C 38.666484,20.395362 31.504715,26.155588 38.312836,48.124689 z M 98.443013,117.50608 C 98.443013,112.74462 99.764554,108.66336 103.06841,105.94252 C 104.38995,104.58210 107.69381,101.86126 111.65844,101.86126 C 115.62306,101.86126 118.92692,104.58210 120.24846,105.94252 C 122.89155,109.34357 124.87386,113.42483 124.87386,117.50608 C 124.87386,122.26756 123.55232,126.34881 120.24846,129.06965 C 118.92692,130.43007 115.62306,133.15092 111.65844,133.15092 C 107.69381,133.15092 104.38995,130.43007 103.06841,129.06965 C 100.42533,125.66861 98.443013,121.58734 98.443013,117.50608 L 98.443013,117.50608 z "
   id="path963"
   sodipodi:nodetypes="cccccccccccccccccccccc" />

	
		
		
		
		
		<path
   style="fill:url(#aigrd2);"
   d="M17.2,2.4L9.3,15.1c-0.5-0.3-1.2-0.5-1.9-0.5c-1,0-1.9,0.4-2.5,1.1c-0.6,0.6-0.9,1.5-0.9,2.3c0,0.9,0.3,1.7,0.9,2.3c0.6,0.7,1.5,1.1,2.5,1.1c1,0,1.9-0.4,2.5-1.1c0.6-0.6,0.9-1.5,0.9-2.3c0-0.8,0.7-4,0.7-4s4.4-2,6.8-6.2    c1.9-3.4-1.2-5.4-1.2-5.4z M8.8,19.7c-0.2,0.2-0.7,0.6-1.3,0.6c-0.6,0-1.1-0.4-1.3-0.6c-0.4-0.5-0.7-1.1-0.7-1.7s0.2-1.3,0.7-1.7c0.2-0.2,0.7-0.6,1.3-0.6c0.6,0,1.1,0.4,1.3,0.6c0.4,0.5,0.7,1.1,0.7,1.7s-0.2,1.3-0.7,1.7z"
   id="path878"
   transform="matrix(6.537097,0.000000,0.000000,6.692136,1.063123,-3.189353)" />

		
		<path
   style="fill:url(#aigrd3);stroke:#000000;stroke-opacity:1.0000000;stroke-width:0.18898841;stroke-dasharray:none;"
   d="M13.1,12.4c0,0.4-0.4,0.8-0.9,0.8s-0.9-0.4-0.9-0.8c0-0.4,0.4-0.8,0.9-0.8s0.9,0.4,0.9,0.8z"
   id="path887"
   transform="matrix(6.537097,0.000000,0.000000,6.692136,1.063123,-3.189353)" />

	
	<g
   id="Layer_x0020_3"
   style="stroke:#000000;"
   transform="matrix(6.537097,0.000000,0.000000,6.692136,1.063123,-3.189353)">
		<path
   style="fill:none;stroke:none;"
   d="M24,24H0V0h24v24z"
   id="path892" />

	</g>

<path
   style="fill:none;stroke:#000000;stroke-opacity:1.0000000;stroke-width:2.5000000;stroke-dasharray:none;stroke-linejoin:bevel;stroke-linecap:round;"
   d="M 114.87739,11.906437 L 63.234328,96.896564 C 59.965779,94.888923 55.389811,93.550496 50.813844,93.550496 C 44.276747,93.550496 38.393359,96.227350 34.471101,100.91185 C 30.548843,104.92713 28.587718,110.95005 28.587718,116.30376 C 28.587718,122.32668 30.548843,127.68039 34.471101,131.69567 C 38.393359,136.38017 44.276747,139.05702 50.813844,139.05702 C 57.350941,139.05702 63.234328,136.38017 67.156586,131.69567 C 71.078844,127.68039 73.039973,121.65747 73.039973,116.30376 C 73.039973,110.95005 77.615941,89.535214 77.615941,89.535214 C 77.615941,89.535214 106.37917,76.150942 122.06820,48.043971 C 134.48869,25.290709 114.22368,11.906437 114.22368,11.906437 L 114.87739,11.906437 z M 59.965779,127.68039 C 58.658360,129.01882 55.389811,131.69567 51.467553,131.69567 C 47.545295,131.69567 44.276747,129.01882 42.969327,127.68039 C 40.354488,124.33432 38.393359,120.31904 38.393359,116.30376 C 38.393359,112.28848 39.700779,107.60398 42.969327,104.92713 C 44.276747,103.58870 47.545295,100.91185 51.467553,100.91185 C 55.389811,100.91185 58.658360,103.58870 59.965779,104.92713 C 62.580618,108.27320 64.541747,112.28848 64.541747,116.30376 C 64.541747,120.31904 63.234328,125.00354 59.965779,127.68039 z "
   id="path964" />
<path
   style="fill:#000000;fill-opacity:1.0000000;"
   d="M 71.289352,85.793480 L 62.171209,96.365004 C 58.902659,94.357364 54.326689,93.018939 49.750719,93.018939 C 43.213619,93.018939 37.330239,95.695794 33.407979,100.38028 C 29.485719,104.39557 27.524589,110.41849 27.524589,115.77220 C 27.524589,121.79512 29.485719,127.14883 33.407979,131.16411 C 37.330239,135.84861 43.213619,138.52546 49.750719,138.52546 C 56.287819,138.52546 62.171209,135.84861 66.093459,131.16411 C 70.015719,127.14883 71.976849,121.12591 71.976849,115.77220 C 71.976849,110.41849 76.552819,89.003649 76.552819,89.003649 L 71.289352,85.793480 z M 58.902659,127.14883 C 57.595239,128.48726 54.326689,131.16411 50.404429,131.16411 C 46.482169,131.16411 43.213619,128.48726 41.906199,127.14883 C 39.291369,123.80276 37.330239,119.78748 37.330239,115.77220 C 37.330239,111.75692 38.637659,107.07242 41.906199,104.39557 C 43.213619,103.05714 46.482169,100.38028 50.404429,100.38028 C 54.326689,100.38028 57.595239,103.05714 58.902659,104.39557 C 61.517499,107.74163 63.478619,111.75692 63.478619,115.77220 C 63.478619,119.78748 62.171209,124.47197 58.902659,127.14883 z "
   id="path965"
   sodipodi:nodetypes="cccccccccccccccccccc" />
<path
   style="fill:#000000;fill-opacity:1.0000000;"
   d="M 83.787039,90.598337 C 83.787039,90.598337 88.363007,112.01317 88.363007,117.36688 C 88.363007,122.72059 90.324136,128.74351 94.246394,132.75879 C 98.168653,137.44329 104.05204,140.12014 110.58914,140.12014 C 117.12623,140.12014 123.00962,137.44329 126.93188,132.75879 C 130.85414,128.74351 132.81527,122.72059 132.81527,117.36688 C 132.81527,111.34395 130.85414,105.99025 126.93188,101.97496 C 123.00962,97.290474 117.12623,94.613614 110.58914,94.613614 C 106.01317,94.613614 102.09091,95.952044 98.168653,97.959684 L 90.889484,87.388164 C 90.889484,87.388164 83.787039,90.598337 83.787039,90.598337 z M 98.822362,117.36688 C 98.822362,112.68238 100.12978,108.66710 103.39833,105.99025 C 104.70575,104.65182 107.97430,101.97496 111.89656,101.97496 C 115.81881,101.97496 119.08736,104.65182 120.39478,105.99025 C 123.00962,109.33631 124.97075,113.35160 124.97075,117.36688 C 124.97075,122.05137 123.66333,126.06665 120.39478,128.74351 C 119.08736,130.08194 115.81881,132.75879 111.89656,132.75879 C 107.97430,132.75879 104.70575,130.08194 103.39833,128.74351 C 100.78349,125.39744 98.822362,121.38216 98.822362,117.36688 L 98.822362,117.36688 z "
   id="path966"
   sodipodi:nodetypes="ccccccccccccccccccccc" />
</svg>
