<?xml version="1.0" encoding="UTF-8" standalone="no"?>
<!DOCTYPE svg PUBLIC "-//W3C//DTD SVG 20010904//EN"
"http://www.w3.org/TR/2001/REC-SVG-20010904/DTD/svg10.dtd">
<!-- Generator: Adobe Illustrator 9.0, SVG Export Plug-In  -->
<svg
   width="48.000000pt"
   height="48.000000pt"
   viewBox="0 0 24 24"
   xml:space="preserve"
   id="svg1"
   sodipodi:version="0.32"
   inkscape:version="0.38.1"
   sodipodi:docname="stock_goto-top.svg"
   sodipodi:docbase="/usr/share/icons/Suede/scalable/stock"
   xmlns="http://www.w3.org/2000/svg"
   xmlns:inkscape="http://www.inkscape.org/namespaces/inkscape"
   xmlns:sodipodi="http://sodipodi.sourceforge.net/DTD/sodipodi-0.dtd"
   xmlns:xml="http://www.w3.org/XML/1998/namespace"
   xmlns:xlink="http://www.w3.org/1999/xlink"><defs
   id="defs38">
  <radialGradient
   id="aigrd1"
   cx="8.7339"
   cy="7.9097"
   r="13.5742"
   fx="8.7339"
   fy="7.9097"
   gradientUnits="userSpaceOnUse">
			<stop
   offset="0.0000000"
   style="stop-color:#abc2d9;stop-opacity:0.44705883;"
   id="stop9" />





			
			<stop
   offset="1.0000000"
   style="stop-color:#3f6687;stop-opacity:1.0000000;"
   id="stop13" />





		</radialGradient>




  <radialGradient
   id="aigrd2"
   cx="7.3892"
   cy="8.1001"
   r="12.1101"
   fx="7.3892"
   fy="8.1001"
   gradientUnits="userSpaceOnUse">
			<stop
   offset="0"
   style="stop-color:#FFFFFF"
   id="stop24" />





			<stop
   offset="1"
   style="stop-color:#F0E1BD"
   id="stop26" />





		</radialGradient>




  <linearGradient
   xlink:href="#aigrd1"
   id="linearGradient890" />




</defs>











	
		
		
		
		
		
		
		
	
	






















<g
   id="g861"
   style="stroke:#000000;"
   transform="matrix(0.000000,0.814225,-0.814225,0.000000,21.59492,-1.552550e-2)">
		<path
   style="fill:none;stroke:none;"
   d="M24,24H0V0h24v24z"
   id="path863" />





	</g>







	
		
		
		
		
		
		
		
	
	


<path
   style="fill:#cacace;fill-rule:evenodd;stroke:#d2d2d2;stroke-width:1.0850000;fill-opacity:0.79230767;stroke-opacity:0.82307690;stroke-dasharray:none;"
   d="M 15.450307,23.015681 L 15.524933,15.245631 L 20.212594,15.245631 L 11.843418,6.3276056 L 3.4137351,15.245631 L 7.8459091,15.245631 L 7.8763311,23.015681 L 15.450307,23.015681 z "
   id="path866"
   sodipodi:nodetypes="cccccccc" />






<rect
   style="fill:#d6d6d6;fill-rule:evenodd;stroke:#d2ced2;stroke-width:1.0000000;fill-opacity:0.83846152;stroke-opacity:0.85384613;stroke-dasharray:none;"
   id="rect868"
   width="3.4554183"
   height="19.617859"
   x="-4.7620841"
   y="-21.894314"
   transform="matrix(0.000000,-1.000000,-1.000000,0.000000,0.000000,0.000000)" />










<sodipodi:namedview
   id="base"
   pagecolor="#ffffff"
   bordercolor="#666666"
   borderopacity="1.0"
   inkscape:pageopacity="0.0"
   inkscape:pageshadow="2"
   inkscape:zoom="4.7578125"
   inkscape:cx="64.000000"
   inkscape:cy="30.371100"
   inkscape:window-width="1142"
   inkscape:window-height="752"
   showguides="true"
   snaptoguides="true"
   inkscape:window-x="0"
   inkscape:window-y="29" />
<g
   id="Layer_x0020_3"
   style="stroke:#000000;"
   transform="matrix(0.000000,0.814225,-0.814225,0.000000,21.06074,-0.592625)">
		<path
   style="fill:none;stroke:none;"
   d="M24,24H0V0h24v24z"
   id="path34" />





	</g>
<path
   style="fill:#3f6687;fill-rule:evenodd;stroke:#000000;stroke-width:1.2701207;"
   d="M 1.6755340,7.5465764 L 11.218413,7.4549240 L 11.218413,1.6977183 L 22.171190,11.976420 L 11.218413,22.329434 L 11.218413,16.886008 L 1.6755340,16.848644 L 1.6755340,7.5465764 z "
   id="path887"
   sodipodi:nodetypes="cccccccc"
   transform="matrix(0.000000,-0.814225,-0.814225,0.000000,21.06074,23.80284)" />
<rect
   style="fill:#3f6687;fill-rule:evenodd;stroke:#000000;stroke-width:0.94999999;"
   id="rect865"
   width="3.4554183"
   height="19.617859"
   x="19.394928"
   y="1.3725830"
   transform="matrix(0.000000,-1.000000,-1.000000,0.000000,22.73272,23.57991)" />
<rect
   style="fill:#abc2d9;fill-rule:evenodd;stroke:#000000;stroke-width:0.0000000;"
   id="rect877"
   width="2.3407674"
   height="9.2516038"
   x="19.582560"
   y="-11.495475"
   transform="matrix(0.000000,-1.000000,-1.000000,0.000000,0.000000,23.21021)" />
<path
   style="fill:#abc2d9;fill-rule:evenodd;stroke:#000000;stroke-width:0.0000000;"
   d="M 11.192878,16.653278 L 11.189503,1.2982383 L 7.9603510,1.2982383 L 7.8961760,9.1393830 L 4.2493072,9.0752074 L 11.192878,16.653278 z "
   id="path892"
   sodipodi:nodetypes="cccccc"
   transform="matrix(1.000000,0.000000,0.000000,-1.000000,0.000000,23.21021)" />
<rect
   style="fill:#3f6687;fill-opacity:1.0000000;fill-rule:evenodd;stroke:#000000;stroke-width:0.0000000;stroke-opacity:0.0000000;"
   id="rect888"
   width="1.3496124"
   height="6.5086260"
   x="1.2921519"
   y="-14.378996"
   transform="matrix(0.000000,-1.000000,-1.000000,0.000000,0.000000,23.21021)" />
</svg>
