<?xml version="1.0" encoding="UTF-8" standalone="no"?>
<!DOCTYPE svg PUBLIC "-//W3C//DTD SVG 20010904//EN"
"http://www.w3.org/TR/2001/REC-SVG-20010904/DTD/svg10.dtd">
<!-- Created with Inkscape (http://www.inkscape.org/) -->
<svg
   id="svg1"
   sodipodi:version="0.32"
   inkscape:version="0.38.1"
   width="48.000000pt"
   height="48.000000pt"
   sodipodi:docbase="/usr/share/icons/Suede/scalable/stock"
   sodipodi:docname="stock_cut.svg"
   xmlns="http://www.w3.org/2000/svg"
   xmlns:inkscape="http://www.inkscape.org/namespaces/inkscape"
   xmlns:sodipodi="http://sodipodi.sourceforge.net/DTD/sodipodi-0.dtd"
   xmlns:xlink="http://www.w3.org/1999/xlink">
  <defs
     id="defs3">
    <linearGradient
       id="linearGradient566">
      <stop
         style="stop-color:#ffff00;stop-opacity:1.0000000;"
         offset="0.0000000"
         id="stop567" />
      <stop
         style="stop-color:#ffd800;stop-opacity:1.0000000;"
         offset="0.43829629"
         id="stop854" />
      <stop
         style="stop-color:#ffb200;stop-opacity:1.0000000;"
         offset="1.0000000"
         id="stop568" />
    </linearGradient>
    <linearGradient
       id="linearGradient860">
      <stop
         style="stop-color:#ffffff;stop-opacity:1.0000000;"
         offset="0.0000000"
         id="stop861" />
      <stop
         style="stop-color:#ffea7d;stop-opacity:1.0000000;"
         offset="0.25000000"
         id="stop862" />
      <stop
         style="stop-color:#ffbf00;stop-opacity:1.0000;"
         offset="1"
         id="stop863" />
    </linearGradient>
    <linearGradient
       xlink:href="#linearGradient566"
       id="linearGradient569"
       x1="0.48750001"
       y1="0.48387095"
       x2="0.96249998"
       y2="0.48387095"
       spreadMethod="reflect" />
    <linearGradient
       xlink:href="#linearGradient566"
       id="linearGradient589"
       x1="0.44374999"
       y1="0.046875000"
       x2="0.44374999"
       y2="0.57812500"
       spreadMethod="reflect" />
    <linearGradient
       id="linearGradient849">
      <stop
         style="stop-color:#ffc900;stop-opacity:1.0000000;"
         offset="0.0000000"
         id="stop850" />
      <stop
         style="stop-color:#5d5d5c;stop-opacity:1.0000000;"
         offset="1.0000000"
         id="stop851" />
    </linearGradient>
    <linearGradient
       id="linearGradient843">
      <stop
         style="stop-color:#ffffff;stop-opacity:1.0000000;"
         offset="0.0000000"
         id="stop844" />
      <stop
         style="stop-color:#5c5d5c;stop-opacity:1.0000000;"
         offset="1.0000000"
         id="stop845" />
    </linearGradient>
    <linearGradient
       id="linearGradient838">
      <stop
         style="stop-color:#ffd000;stop-opacity:1.0000000;"
         offset="0.0000000"
         id="stop839" />
      <stop
         style="stop-color:#5c5d5c;stop-opacity:1.0000000;"
         offset="1.0000000"
         id="stop840" />
    </linearGradient>
    <linearGradient
       xlink:href="#linearGradient838"
       id="linearGradient841"
       x1="0.35333332"
       y1="0.35135135"
       x2="0.47999999"
       y2="0.049549550" />
    <linearGradient
       xlink:href="#linearGradient843"
       id="linearGradient842"
       x1="0.80165291"
       y1="0.15765765"
       x2="0.43801653"
       y2="0.72522521" />
    <linearGradient
       xlink:href="#linearGradient849"
       id="linearGradient847"
       x1="0.53358209"
       y1="0.50450450"
       x2="0.33208954"
       y2="0.24324325" />
    <radialGradient
       xlink:href="#linearGradient566"
       id="radialGradient853"
       cx="0.32499999"
       cy="0.33021805"
       r="0.54695481"
       fx="0.32187498"
       fy="0.33021802" />
    <linearGradient
       id="aigrd1"
       gradientUnits="userSpaceOnUse"
       x1="-46.0938"
       y1="9.5923"
       x2="-37.1114"
       y2="16.0139"
       gradientTransform="matrix(-1 0 0 1 -30.4814 0)">
      <stop
         offset="0"
         style="stop-color:#E6E6E6"
         id="stop864" />
      <stop
         offset="1"
         style="stop-color:#9F9F9F"
         id="stop866" />
    </linearGradient>
    <linearGradient
       id="aigrd2"
       gradientUnits="userSpaceOnUse"
       x1="11.9678"
       y1="11.9824"
       x2="15.9886"
       y2="14.7877">
      <stop
         offset="0"
         style="stop-color:#FFFFFF"
         id="stop873" />
      <stop
         offset="1"
         style="stop-color:#BEBEBE"
         id="stop875" />
    </linearGradient>
    <radialGradient
       id="aigrd3"
       cx="-17.5649"
       cy="12.0332"
       r="0.8478"
       fx="-17.5649"
       fy="12.0332"
       gradientTransform="matrix(1.1422 0 0 1 31.8838 0)"
       gradientUnits="userSpaceOnUse">
      <stop
         offset="0"
         style="stop-color:#FFFFFF"
         id="stop882" />
      <stop
         offset="1"
         style="stop-color:#BEBEBE"
         id="stop884" />
    </radialGradient>
  </defs>
  <sodipodi:namedview
     id="base"
     pagecolor="#ffffff"
     bordercolor="#666666"
     borderopacity="1.0"
     inkscape:pageopacity="0.0"
     inkscape:pageshadow="2"
     inkscape:zoom="12.520833"
     inkscape:cx="24.000000"
     inkscape:cy="24.000000"
     inkscape:window-width="1142"
     inkscape:window-height="745"
     showgrid="false"
     snaptogrid="false"
     gridspacingx="1.0000000mm"
     gridspacingy="1.0000000mm"
     inkscape:window-x="0"
     inkscape:window-y="29"
     showguides="true"
     snaptoguides="true">
    <sodipodi:guide
       orientation="horizontal"
       position="119.06977"
       id="guide967" />
  </sodipodi:namedview>
  <path
     style="fill:#c2c2c2;stroke:#c2c2c2;stroke-width:1.1125000;stroke-linecap:round;stroke-linejoin:round;stroke-dasharray:none;fill-opacity:0.83921570;stroke-opacity:0.83921570;"
     d="M 15.549293,21.642237 C 21.540516,32.435315 30.516226,37.976517 30.516226,37.976517 C 30.516226,37.976517 32.263666,46.199810 32.263666,48.255636 C 32.263666,50.311460 33.012569,52.624263 34.510375,54.166136 C 36.008180,55.964979 38.254888,56.992891 40.751234,56.992891 C 43.247572,56.992891 45.494285,55.964979 46.992088,54.166136 C 48.489894,52.624263 49.238800,50.311460 49.238800,48.255636 C 49.238800,45.942836 48.489894,43.887011 46.992088,42.345142 C 45.494285,40.546295 43.247572,39.518382 40.751234,39.518382 C 39.003794,39.518382 37.505987,40.032339 36.008180,40.803273 L 15.581421,4.0635556 C 12.469781,7.4644431 12.374777,14.748217 15.549293,21.642237 z M 36.257815,48.255636 C 36.257815,46.456792 36.757085,44.914923 38.005254,43.887011 C 38.504522,43.373055 39.752695,42.345142 41.250501,42.345142 C 42.748305,42.345142 43.996478,43.373055 44.495745,43.887011 C 45.494285,45.171901 46.243186,46.713771 46.243186,48.255636 C 46.243186,50.054486 45.743919,51.596351 44.495745,52.624263 C 43.996478,53.138220 42.748305,54.166136 41.250501,54.166136 C 39.752695,54.166136 38.504522,53.138220 38.005254,52.624263 C 37.006719,51.339376 36.257815,49.797504 36.257815,48.255636 L 36.257815,48.255636 z "
     id="path963"
     sodipodi:nodetypes="cccccccccccccccccccccc" />
  <g
     id="Layer_x0020_3"
     style="stroke:#000000;"
     transform="matrix(2.469665,0.000000,0.000000,2.528237,-0.531562,2.657824)">
    <path
       style="fill:none;stroke:none;"
       d="M24,24H0V0h24v24z"
       id="path892" />
  </g>
  <path
     style="fill:#c2c2c2;stroke:#c2c2c2;stroke-width:1.2000000;stroke-linecap:round;stroke-linejoin:bevel;fill-opacity:0.83846152;stroke-opacity:0.83921570;stroke-dasharray:none;"
     d="M 44.073154,4.0635556 L 22.956244,40.469516 C 21.721411,39.711045 19.992645,39.205400 18.263879,39.205400 C 15.794214,39.205400 13.571515,40.216694 12.089717,41.986462 C 10.607917,43.503404 9.8670197,45.778817 9.8670197,47.801408 C 9.8670197,50.076821 10.607917,52.099411 12.089717,53.616353 C 13.571515,55.386122 15.794214,56.397416 18.263879,56.397416 C 20.733545,56.397416 22.956244,55.386122 24.438042,53.616353 C 25.919842,52.099411 26.660741,49.823999 26.660741,47.801408 C 26.660741,45.778817 28.389506,37.688455 28.389506,37.688455 C 28.389506,37.688455 39.256034,32.631980 45.183229,22.013382 C 49.875595,13.417373 43.826188,4.0635556 43.826188,4.0635556 L 44.073154,4.0635556 z M 21.721411,52.099411 C 21.227477,52.605060 19.992645,53.616353 18.510846,53.616353 C 17.029047,53.616353 15.794214,52.605060 15.300281,52.099411 C 14.312415,50.835292 13.571515,49.318350 13.571515,47.801408 C 13.571515,46.284465 14.065449,44.514698 15.300281,43.503404 C 15.794214,42.997755 17.029047,41.986462 18.510846,41.986462 C 19.992645,41.986462 21.227477,42.997755 21.721411,43.503404 C 22.709277,44.767523 23.450176,46.284465 23.450176,47.801408 C 23.450176,49.318350 22.956244,51.088118 21.721411,52.099411 z "
     id="path964"
     sodipodi:nodetypes="cccccccccccccccccccccc" />
  <g
     id="g887"
     transform="translate(-0.452173,-0.650581)">
    <path
       style="fill:url(#aigrd1);"
       d="M 16.001515,22.177259 C 21.928711,32.795857 30.586220,38.053153 30.586220,38.053153 C 30.586220,38.053153 32.314985,46.143516 32.314985,48.166102 C 32.314985,50.188693 33.055885,52.464110 34.537684,53.981052 C 36.019483,55.750817 38.242183,56.762113 40.711845,56.762113 C 43.181512,56.762113 45.404211,55.750817 46.886011,53.981052 C 48.367811,52.464110 49.108707,50.188693 49.108707,48.166102 C 49.108707,45.890689 48.367811,43.868098 46.886011,42.351156 C 45.404211,40.581392 43.181512,39.570095 40.711845,39.570095 C 38.983082,39.570095 37.501283,40.075743 36.019483,40.834214 L 15.195682,4.5083778 C 15.195682,4.5083778 11.309151,13.581250 16.248482,22.177259 L 16.001515,22.177259 z M 36.266450,48.166102 C 36.266450,46.396337 36.760383,44.879396 37.995216,43.868098 C 38.489149,43.362454 39.723983,42.351156 41.205779,42.351156 C 42.687578,42.351156 43.922412,43.362454 44.416345,43.868098 C 45.404211,45.132218 46.145111,46.649160 46.145111,48.166102 C 46.145111,49.935871 45.651178,51.452813 44.416345,52.464110 C 43.922412,52.969754 42.687578,53.981052 41.205779,53.981052 C 39.723983,53.981052 38.489149,52.969754 37.995216,52.464110 C 37.007350,51.199990 36.266450,49.683048 36.266450,48.166102 L 36.266450,48.166102 z "
       id="path888"
       sodipodi:nodetypes="ccccccccccccccccccccccc" />
    <path
       style="fill:none;stroke:#000000;stroke-width:0.86160421;stroke-linecap:round;stroke-linejoin:round;"
       d="M 15.549293,21.642237 C 21.540516,32.435315 30.516226,37.976517 30.516226,37.976517 C 30.516226,37.976517 32.263666,46.199810 32.263666,48.255636 C 32.263666,50.311460 33.012569,52.624263 34.510375,54.166136 C 36.008180,55.964979 38.254888,56.992891 40.751234,56.992891 C 43.247572,56.992891 45.494285,55.964979 46.992088,54.166136 C 48.489894,52.624263 49.238800,50.311460 49.238800,48.255636 C 49.238800,45.942836 48.489894,43.887011 46.992088,42.345142 C 45.494285,40.546295 43.247572,39.518382 40.751234,39.518382 C 39.003794,39.518382 37.505987,40.032339 36.008180,40.803273 L 15.581421,4.0635556 C 12.469781,7.4644431 12.374777,14.748217 15.549293,21.642237 z M 36.257815,48.255636 C 36.257815,46.456792 36.757085,44.914923 38.005254,43.887011 C 38.504522,43.373055 39.752695,42.345142 41.250501,42.345142 C 42.748305,42.345142 43.996478,43.373055 44.495745,43.887011 C 45.494285,45.171901 46.243186,46.713771 46.243186,48.255636 C 46.243186,50.054486 45.743919,51.596351 44.495745,52.624263 C 43.996478,53.138220 42.748305,54.166136 41.250501,54.166136 C 39.752695,54.166136 38.504522,53.138220 38.005254,52.624263 C 37.006719,51.339376 36.257815,49.797504 36.257815,48.255636 L 36.257815,48.255636 z "
       id="path889"
       sodipodi:nodetypes="cccccccccccccccccccccc" />
    <path
       style="fill:url(#aigrd2);"
       d="M 44.155698,4.0635556 L 22.436325,40.834214 C 21.201492,40.075743 19.472727,39.570095 17.743960,39.570095 C 15.274295,39.570095 13.051597,40.581392 11.569798,42.351156 C 10.087999,43.868098 9.3470991,46.143516 9.3470991,48.166102 C 9.3470991,50.441519 10.087999,52.464110 11.569798,53.981052 C 13.051597,55.750817 15.274295,56.762113 17.743960,56.762113 C 20.213626,56.762113 22.436325,55.750817 23.918124,53.981052 C 25.399923,52.464110 26.140823,50.188693 26.140823,48.166102 C 26.140823,46.143516 27.869588,38.053153 27.869588,38.053153 C 27.869588,38.053153 38.736116,32.996677 44.663312,22.378078 C 49.355674,13.782070 43.908731,4.0635556 43.908731,4.0635556 L 44.155698,4.0635556 z M 21.201492,52.464110 C 20.707559,52.969754 19.472727,53.981052 17.990927,53.981052 C 16.509128,53.981052 15.274295,52.969754 14.780362,52.464110 C 13.792496,51.199990 13.051597,49.683048 13.051597,48.166102 C 13.051597,46.649160 13.545530,44.879396 14.780362,43.868098 C 15.274295,43.362454 16.509128,42.351156 17.990927,42.351156 C 19.472727,42.351156 20.707559,43.362454 21.201492,43.868098 C 22.189358,45.132218 22.930258,46.649160 22.930258,48.166102 C 22.930258,49.683048 22.436325,51.452813 21.201492,52.464110 z "
       id="path890"
       sodipodi:nodetypes="cccccccccccccccccccccc" />
    <path
       style="fill:url(#aigrd3);stroke:#000000;stroke-width:0.47224045;"
       d="M 31.821052,34.007972 C 31.821052,35.019268 30.833186,36.030562 29.598353,36.030562 C 28.363521,36.030562 27.375655,35.019268 27.375655,34.007972 C 27.375655,32.996677 28.363521,31.985383 29.598353,31.985383 C 30.833186,31.985383 31.821052,32.996677 31.821052,34.007972 z "
       id="path891" />
    <g
       id="g892"
       style="stroke:#000000;"
       transform="matrix(2.469665,0.000000,0.000000,2.528237,-0.531562,2.657824)">
      <path
         style="fill:none;stroke:none;"
         d="M24,24H0V0h24v24z"
         id="path893" />
    </g>
    <path
       style="fill:none;stroke:#000000;stroke-width:0.94448090;stroke-linecap:round;stroke-linejoin:bevel;"
       d="M 44.073154,4.0635556 L 22.956244,40.469516 C 21.721411,39.711045 19.992645,39.205400 18.263879,39.205400 C 15.794214,39.205400 13.571515,40.216694 12.089717,41.986462 C 10.607917,43.503404 9.8670197,45.778817 9.8670197,47.801408 C 9.8670197,50.076821 10.607917,52.099411 12.089717,53.616353 C 13.571515,55.386122 15.794214,56.397416 18.263879,56.397416 C 20.733545,56.397416 22.956244,55.386122 24.438042,53.616353 C 25.919842,52.099411 26.660741,49.823999 26.660741,47.801408 C 26.660741,45.778817 28.389506,37.688455 28.389506,37.688455 C 28.389506,37.688455 39.256034,32.631980 45.183229,22.013382 C 49.875595,13.417373 43.826188,4.0635556 43.826188,4.0635556 L 44.073154,4.0635556 z M 21.721411,52.099411 C 21.227477,52.605060 19.992645,53.616353 18.510846,53.616353 C 17.029047,53.616353 15.794214,52.605060 15.300281,52.099411 C 14.312415,50.835292 13.571515,49.318350 13.571515,47.801408 C 13.571515,46.284465 14.065449,44.514698 15.300281,43.503404 C 15.794214,42.997755 17.029047,41.986462 18.510846,41.986462 C 19.992645,41.986462 21.227477,42.997755 21.721411,43.503404 C 22.709277,44.767523 23.450176,46.284465 23.450176,47.801408 C 23.450176,49.318350 22.956244,51.088118 21.721411,52.099411 z "
       id="path894"
       sodipodi:nodetypes="cccccccccccccccccccccc" />
    <path
       style="fill:#000000;fill-opacity:1.0000000;"
       d="M 25.999370,36.274858 L 22.554605,40.268697 C 21.319772,39.510226 19.591006,39.004581 17.862239,39.004581 C 15.392573,39.004581 13.169877,40.015875 11.688077,41.785639 C 10.206278,43.302585 9.4653775,45.577998 9.4653775,47.600589 C 9.4653775,49.876002 10.206278,51.898592 11.688077,53.415534 C 13.169877,55.185302 15.392573,56.196596 17.862239,56.196596 C 20.331905,56.196596 22.554605,55.185302 24.036401,53.415534 C 25.518201,51.898592 26.259101,49.623179 26.259101,47.600589 C 26.259101,45.577998 27.987867,37.487634 27.987867,37.487634 L 25.999370,36.274858 z M 21.319772,51.898592 C 20.825838,52.404241 19.591006,53.415534 18.109206,53.415534 C 16.627406,53.415534 15.392573,52.404241 14.898639,51.898592 C 13.910776,50.634473 13.169877,49.117531 13.169877,47.600589 C 13.169877,46.083646 13.663810,44.313879 14.898639,43.302585 C 15.392573,42.796936 16.627406,41.785639 18.109206,41.785639 C 19.591006,41.785639 20.825838,42.796936 21.319772,43.302585 C 22.307639,44.566701 23.048535,46.083646 23.048535,47.600589 C 23.048535,49.117531 22.554605,50.887295 21.319772,51.898592 z "
       id="path895"
       sodipodi:nodetypes="cccccccccccccccccccc" />
    <path
       style="fill:#000000;fill-opacity:1.0000000;"
       d="M 30.720900,38.090097 C 30.720900,38.090097 32.449665,46.180456 32.449665,48.203047 C 32.449665,50.225637 33.190566,52.501050 34.672364,54.017992 C 36.154164,55.787760 38.376862,56.799054 40.846529,56.799054 C 43.316191,56.799054 45.538890,55.787760 47.020691,54.017992 C 48.502490,52.501050 49.243390,50.225637 49.243390,48.203047 C 49.243390,45.927629 48.502490,43.905043 47.020691,42.388097 C 45.538890,40.618333 43.316191,39.607035 40.846529,39.607035 C 39.117762,39.607035 37.635962,40.112684 36.154164,40.871155 L 33.404149,36.877316 C 33.404149,36.877316 30.720900,38.090097 30.720900,38.090097 z M 36.401130,48.203047 C 36.401130,46.433279 36.895062,44.916336 38.129896,43.905043 C 38.623828,43.399394 39.858662,42.388097 41.340462,42.388097 C 42.822257,42.388097 44.057091,43.399394 44.551024,43.905043 C 45.538890,45.169158 46.279790,46.686104 46.279790,48.203047 C 46.279790,49.972811 45.785857,51.489753 44.551024,52.501050 C 44.057091,53.006699 42.822257,54.017992 41.340462,54.017992 C 39.858662,54.017992 38.623828,53.006699 38.129896,52.501050 C 37.142029,51.236931 36.401130,49.719989 36.401130,48.203047 L 36.401130,48.203047 z "
       id="path896"
       sodipodi:nodetypes="ccccccccccccccccccccc" />
  </g>
</svg>
