<?xml version="1.0" encoding="UTF-8" standalone="no"?>
<!DOCTYPE svg PUBLIC "-//W3C//DTD SVG 20010904//EN"
"http://www.w3.org/TR/2001/REC-SVG-20010904/DTD/svg10.dtd">
<!-- Generator: Adobe Illustrator 9.0, SVG Export Plug-In  -->
<svg
   width="48.000000pt"
   height="48.000000pt"
   viewBox="0 0 24 24"
   xml:space="preserve"
   id="svg1"
   sodipodi:version="0.32"
   inkscape:version="0.38.1"
   sodipodi:docname="stock_sort-ascending.svg"
   sodipodi:docbase="/usr/share/icons/Suede/scalable/stock"
   xmlns="http://www.w3.org/2000/svg"
   xmlns:inkscape="http://www.inkscape.org/namespaces/inkscape"
   xmlns:sodipodi="http://sodipodi.sourceforge.net/DTD/sodipodi-0.dtd"
   xmlns:xml="http://www.w3.org/XML/1998/namespace"
   xmlns:xlink="http://www.w3.org/1999/xlink"><defs
   id="defs38">
  <radialGradient
   id="aigrd1"
   cx="8.7339"
   cy="7.9097"
   r="13.5742"
   fx="8.7339"
   fy="7.9097"
   gradientUnits="userSpaceOnUse">
			<stop
   offset="0.0000000"
   style="stop-color:#abc2d9;stop-opacity:0.44705883;"
   id="stop9" />







			
			<stop
   offset="1.0000000"
   style="stop-color:#3f6687;stop-opacity:1.0000000;"
   id="stop13" />







		</radialGradient>






  <radialGradient
   id="aigrd2"
   cx="7.3892"
   cy="8.1001"
   r="12.1101"
   fx="7.3892"
   fy="8.1001"
   gradientUnits="userSpaceOnUse">
			<stop
   offset="0"
   style="stop-color:#FFFFFF"
   id="stop24" />







			<stop
   offset="1"
   style="stop-color:#F0E1BD"
   id="stop26" />







		</radialGradient>






  <linearGradient
   xlink:href="#aigrd1"
   id="linearGradient890" />






<defs
   id="defs858">
  <radialGradient
   id="radialGradient860"
   cx="8.7339"
   cy="7.9097"
   r="13.5742"
   fx="8.7339"
   fy="7.9097"
   gradientUnits="userSpaceOnUse">
			<stop
   offset="0.0000000"
   style="stop-color:#abc2d9;stop-opacity:0.44705883;"
   id="stop862" />







			
			<stop
   offset="1.0000000"
   style="stop-color:#3f6687;stop-opacity:1.0000000;"
   id="stop864" />







		</radialGradient>






  <radialGradient
   id="radialGradient867"
   cx="7.3892"
   cy="8.1001"
   r="12.1101"
   fx="7.3892"
   fy="8.1001"
   gradientUnits="userSpaceOnUse">
			<stop
   offset="0"
   style="stop-color:#FFFFFF"
   id="stop869" />







			<stop
   offset="1"
   style="stop-color:#F0E1BD"
   id="stop871" />







		</radialGradient>






  <linearGradient
   xlink:href="#aigrd1"
   id="linearGradient874" />






</defs>



<sodipodi:namedview
   id="namedview877"
   pagecolor="#ffffff"
   bordercolor="#666666"
   borderopacity="1.0"
   inkscape:pageopacity="0.0"
   inkscape:pageshadow="2"
   inkscape:zoom="80.974777"
   inkscape:cx="11.090778"
   inkscape:cy="22.125823"
   inkscape:window-width="1142"
   inkscape:window-height="752"
   showguides="true"
   snaptoguides="true"
   inkscape:window-x="0"
   inkscape:window-y="29" />



</defs>





  
  
  


	
		
		
		
		
		
		
		
	
	



















  















  
  
  


	
		
		
		
		
		
		
		
	
	<g
   id="g886"
   style="stroke:#000000;"
   transform="matrix(0.000000,0.577362,0.577362,0.000000,0.573233,9.096793)">
		<path
   style="fill:none;stroke:none;"
   d="M24,24H0V0h24v24z"
   id="path888" />







	</g>







<path
   style="fill:#cccccc;fill-rule:evenodd;stroke:#d0d0d0;stroke-width:0.73331898;fill-opacity:0.81538463;stroke-opacity:0.83076924;"
   d="M 4.9627676,2.0447604 L 4.8774256,15.573871 L 1.5534356,15.573871 L 7.4879636,21.897585 L 13.465398,15.573871 L 10.322572,15.573871 L 10.300999,2.1237996 L 4.9627676,2.0447604 z "
   id="path891"
   sodipodi:nodetypes="cccccccc" />













  


<path
   style="font-size:12.000000;stroke-width:1.0000000pt;font-family:Bitstream Vera Sans;fill:#dcdcdc;fill-opacity:0.81538463;"
   d="M 17.799820,3.1467382 L 16.473422,6.0368751 L 19.131058,6.0368751 L 17.799820,3.1467382 z M 17.247960,2.3726640 L 18.356520,2.3726640 L 21.110974,8.1801661 L 20.094392,8.1801661 L 19.436033,6.6903651 L 16.178126,6.6903651 L 15.519770,8.1801661 L 14.488663,8.1801661 L 17.247960,2.3726640 z "
   id="path897" />


<path
   style="font-size:12.000000;stroke-width:1.0000000pt;font-family:Bitstream Vera Sans;fill:#d8d8d4;fill-opacity:0.83076924;"
   d="M 15.119208,17.098034 L 20.902639,17.098034 L 20.902639,17.887417 L 16.323539,21.669875 L 20.902639,21.669875 L 20.902639,22.360583 L 14.953780,22.360583 L 14.953780,21.571201 L 19.532879,17.788744 L 15.119208,17.788744 L 15.119208,17.098034 z "
   id="path899" />


<path
   sodipodi:type="arc"
   style="fill:#e4e4e0;fill-opacity:0.84615386;fill-rule:evenodd;stroke:#d8d8d8;stroke-width:1.0000000pt;stroke-opacity:0.84615386;"
   id="path901"
   sodipodi:cx="18.280277"
   sodipodi:cy="9.3144722"
   sodipodi:rx="0.22293021"
   sodipodi:ry="0.47372669"
   d="M 18.503207 9.3144722 A 0.22293021 0.47372669 0 1 0 18.057347,9.3144722 A 0.22293021 0.47372669 0 1 0 18.503207 9.3144722 z"
   transform="matrix(1.835267,0.000000,0.000000,0.738829,-15.67100,3.793043)" />


<path
   sodipodi:type="arc"
   style="fill:#e4e8e8;fill-opacity:0.87692308;fill-rule:evenodd;stroke:#dcdcdc;stroke-width:1.0000000pt;stroke-opacity:0.83076924;"
   id="path903"
   sodipodi:cx="18.280277"
   sodipodi:cy="9.3144722"
   sodipodi:rx="0.22293021"
   sodipodi:ry="0.47372669"
   d="M 18.503207 9.3144722 A 0.22293021 0.47372669 0 1 0 18.057347,9.3144722 A 0.22293021 0.47372669 0 1 0 18.503207 9.3144722 z"
   transform="matrix(1.703185,0.000000,0.000000,0.699759,-13.22863,7.333723)" />


<sodipodi:namedview
   id="base"
   pagecolor="#ffffff"
   bordercolor="#666666"
   borderopacity="1.0"
   inkscape:pageopacity="0.0"
   inkscape:pageshadow="2"
   inkscape:zoom="4.7500000"
   inkscape:cx="64.000000"
   inkscape:cy="13.473684"
   inkscape:window-width="1142"
   inkscape:window-height="752"
   showguides="true"
   snaptoguides="true"
   inkscape:window-x="0"
   inkscape:window-y="29" />
<g
   id="Layer_x0020_3"
   style="stroke:#000000;"
   transform="matrix(0.000000,0.577362,0.577362,0.000000,0.222931,8.600267)">
		<path
   style="fill:none;stroke:none;"
   d="M24,24H0V0h24v24z"
   id="path34" />







	</g>
<path
   style="fill:#3f6687;fill-rule:evenodd;stroke:#000000;stroke-width:0.73331898;"
   d="M 4.6124606,1.5482370 L 4.5271181,15.077348 L 1.2031283,15.077348 L 7.1376565,21.401062 L 13.115090,15.077348 L 9.9722644,15.077348 L 9.9506918,1.6272762 L 4.6124606,1.5482370 z "
   id="path887"
   sodipodi:nodetypes="cccccccc" />
<path
   style="fill:#abc2d9;fill-rule:evenodd;stroke:#000000;stroke-width:0.0000000;"
   d="M 7.1643405,20.987302 L 7.3200254,2.0006860 L 4.9512156,1.9216468 L 4.9057092,15.501170 L 2.1616602,15.455664 L 7.1643405,20.987302 z "
   id="path892"
   sodipodi:nodetypes="cccccc" />
<rect
   style="fill:#abc2d9;fill-opacity:0.71544713;fill-rule:evenodd;stroke:#000000;stroke-width:0.0000000;stroke-opacity:0.0000000;"
   id="rect888"
   width="0.95700133"
   height="4.6152244"
   x="1.9713377"
   y="-9.6285944"
   transform="matrix(0.000000,1.000000,-1.000000,0.000000,0.000000,0.000000)" />
<path
   style="font-size:12.000000;stroke-width:1.0000000pt;font-family:Bitstream Vera Sans;"
   d="M 17.449512,2.6502148 L 16.123114,5.5403521 L 18.780750,5.5403521 L 17.449512,2.6502148 z M 16.897652,1.8761406 L 18.006212,1.8761406 L 20.760666,7.6836432 L 19.744084,7.6836432 L 19.085725,6.1938420 L 15.827818,6.1938420 L 15.169462,7.6836432 L 14.138355,7.6836432 L 16.897652,1.8761406 z "
   id="path946" />
<path
   style="font-size:12.000000;stroke-width:1.0000000pt;font-family:Bitstream Vera Sans;"
   d="M 14.768900,16.601511 L 20.552331,16.601511 L 20.552331,17.390894 L 15.973231,21.173352 L 20.552331,21.173352 L 20.552331,21.864060 L 14.603472,21.864060 L 14.603472,21.074678 L 19.182571,17.292221 L 14.768900,17.292221 L 14.768900,16.601511 z "
   id="path950" />
<path
   sodipodi:type="arc"
   style="fill:#ff0000;fill-opacity:0.75000000;fill-rule:evenodd;stroke:#000000;stroke-width:1.0000000pt;"
   id="path952"
   sodipodi:cx="18.280277"
   sodipodi:cy="9.3144722"
   sodipodi:rx="0.22293021"
   sodipodi:ry="0.47372669"
   d="M 18.503207 9.3144722 A 0.22293021 0.47372669 0 1 0 18.057347,9.3144722 A 0.22293021 0.47372669 0 1 0 18.503207 9.3144722 z"
   transform="matrix(1.835267,0.000000,0.000000,0.738829,-16.02130,3.296520)" />
<path
   sodipodi:type="arc"
   style="fill:#ff0000;fill-opacity:0.75000000;fill-rule:evenodd;stroke:#000000;stroke-width:1.0000000pt;"
   id="path953"
   sodipodi:cx="18.280277"
   sodipodi:cy="9.3144722"
   sodipodi:rx="0.22293021"
   sodipodi:ry="0.47372669"
   d="M 18.503207 9.3144722 A 0.22293021 0.47372669 0 1 0 18.057347,9.3144722 A 0.22293021 0.47372669 0 1 0 18.503207 9.3144722 z"
   transform="matrix(1.703185,0.000000,0.000000,0.699759,-13.57893,6.837196)" />
</svg>
