<?xml version="1.0" encoding="UTF-8" standalone="no"?>
<!DOCTYPE svg PUBLIC "-//W3C//DTD SVG 20010904//EN"
"http://www.w3.org/TR/2001/REC-SVG-20010904/DTD/svg10.dtd">
<!-- Created with Inkscape (http://www.inkscape.org/) -->
<svg
   id="svg1"
   sodipodi:version="0.32"
   inkscape:version="0.38.1"
   width="48.000000pt"
   height="48.000000pt"
   sodipodi:docbase="/usr/share/icons/Suede/scalable/stock"
   sodipodi:docname="stock_dialog_info.svg"
   xmlns="http://www.w3.org/2000/svg"
   xmlns:inkscape="http://www.inkscape.org/namespaces/inkscape"
   xmlns:sodipodi="http://sodipodi.sourceforge.net/DTD/sodipodi-0.dtd"
   xmlns:xlink="http://www.w3.org/1999/xlink">
  <defs
     id="defs3">
    <linearGradient
       id="linearGradient826">
      <stop
         style="stop-color:#ffc300;stop-opacity:1.0000000;"
         offset="0.0000000"
         id="stop827" />
      <stop
         style="stop-color:#ffdf00;stop-opacity:1.0000000;"
         offset="1.0000000"
         id="stop828" />
    </linearGradient>
    <linearGradient
       xlink:href="#linearGradient826"
       id="linearGradient829"
       x1="0.92187500"
       y1="0.88281250"
       x2="0.32812500"
       y2="0.17187500" />
    <linearGradient
       id="aigrd1"
       gradientUnits="userSpaceOnUse"
       x1="23.124"
       y1="43.165"
       x2="26.4785"
       y2="43.165">
      <stop
         offset="5.618000e-003"
         style="stop-color:#686868"
         id="stop839" />
      <stop
         offset="3.012137e-002"
         style="stop-color:#777777"
         id="stop841" />
      <stop
         offset="8.366583e-002"
         style="stop-color:#929292"
         id="stop843" />
      <stop
         offset="0.1422"
         style="stop-color:#A7A7A7"
         id="stop845" />
      <stop
         offset="0.2074"
         style="stop-color:#B6B6B6"
         id="stop847" />
      <stop
         offset="0.2846"
         style="stop-color:#BEBEBE"
         id="stop849" />
      <stop
         offset="0.4045"
         style="stop-color:#C1C1C1"
         id="stop851" />
      <stop
         offset="0.4962"
         style="stop-color:#BCBCBC"
         id="stop853" />
      <stop
         offset="0.6057"
         style="stop-color:#ADADAD"
         id="stop855" />
      <stop
         offset="0.7245"
         style="stop-color:#959595"
         id="stop857" />
      <stop
         offset="0.8497"
         style="stop-color:#747474"
         id="stop859" />
      <stop
         offset="0.9789"
         style="stop-color:#494949"
         id="stop861" />
      <stop
         offset="1"
         style="stop-color:#414141"
         id="stop863" />
    </linearGradient>
    <radialGradient
       id="aigrd2"
       cx="17.8335"
       cy="11.4873"
       r="22.7093"
       fx="17.8335"
       fy="11.4873"
       gradientUnits="userSpaceOnUse">
      <stop
         offset="0"
         style="stop-color:#FFFFFF"
         id="stop870" />
      <stop
         offset="1"
         style="stop-color:#C2B9DA"
         id="stop872" />
    </radialGradient>
    <linearGradient
       id="aigrd3"
       gradientUnits="userSpaceOnUse"
       x1="18.9951"
       y1="40.4961"
       x2="30.1699"
       y2="40.4961">
      <stop
         offset="5.618000e-003"
         style="stop-color:#C7C7C7"
         id="stop879" />
      <stop
         offset="2.916075e-002"
         style="stop-color:#D0D0D0"
         id="stop881" />
      <stop
         offset="9.728914e-002"
         style="stop-color:#E5E5E5"
         id="stop883" />
      <stop
         offset="0.1736"
         style="stop-color:#F4F4F4"
         id="stop885" />
      <stop
         offset="0.2641"
         style="stop-color:#FCFCFC"
         id="stop887" />
      <stop
         offset="0.4045"
         style="stop-color:#FFFFFF"
         id="stop889" />
      <stop
         offset="0.4996"
         style="stop-color:#FAFAFA"
         id="stop891" />
      <stop
         offset="0.6134"
         style="stop-color:#EBEBEB"
         id="stop893" />
      <stop
         offset="0.7366"
         style="stop-color:#D3D3D3"
         id="stop895" />
      <stop
         offset="0.8666"
         style="stop-color:#B2B2B2"
         id="stop897" />
      <stop
         offset="1"
         style="stop-color:#878787"
         id="stop899" />
    </linearGradient>
    <linearGradient
       id="aigrd4"
       gradientUnits="userSpaceOnUse"
       x1="14.0552"
       y1="38.2676"
       x2="32.5805"
       y2="36.4343">
      <stop
         offset="5.618000e-003"
         style="stop-color:#C7C7C7"
         id="stop906" />
      <stop
         offset="0.4045"
         style="stop-color:#FFFFFF"
         id="stop908" />
      <stop
         offset="1"
         style="stop-color:#878787"
         id="stop910" />
    </linearGradient>
    <linearGradient
       id="aigrd5"
       gradientUnits="userSpaceOnUse"
       x1="18.9951"
       y1="33.9561"
       x2="30.1699"
       y2="33.9561">
      <stop
         offset="5.618000e-003"
         style="stop-color:#C7C7C7"
         id="stop917" />
      <stop
         offset="2.916075e-002"
         style="stop-color:#D0D0D0"
         id="stop919" />
      <stop
         offset="9.728914e-002"
         style="stop-color:#E5E5E5"
         id="stop921" />
      <stop
         offset="0.1736"
         style="stop-color:#F4F4F4"
         id="stop923" />
      <stop
         offset="0.2641"
         style="stop-color:#FCFCFC"
         id="stop925" />
      <stop
         offset="0.4045"
         style="stop-color:#FFFFFF"
         id="stop927" />
      <stop
         offset="0.4996"
         style="stop-color:#FAFAFA"
         id="stop929" />
      <stop
         offset="0.6134"
         style="stop-color:#EBEBEB"
         id="stop931" />
      <stop
         offset="0.7366"
         style="stop-color:#D3D3D3"
         id="stop933" />
      <stop
         offset="0.8666"
         style="stop-color:#B2B2B2"
         id="stop935" />
      <stop
         offset="1"
         style="stop-color:#878787"
         id="stop937" />
    </linearGradient>
    <radialGradient
       id="aigrd7"
       cx="17.8335"
       cy="11.4873"
       r="22.7093"
       fx="17.8335"
       fy="11.4873"
       gradientUnits="userSpaceOnUse">
      <stop
         offset="0"
         style="stop-color:#FFFFFF"
         id="stop946" />
      <stop
         offset="0.882"
         style="stop-color:#9891AB"
         id="stop948" />
      <stop
         offset="1"
         style="stop-color:#B7ADB9"
         id="stop950" />
    </radialGradient>
    <linearGradient
       id="aigrd8"
       gradientUnits="userSpaceOnUse"
       x1="18.9951"
       y1="40.4961"
       x2="30.1699"
       y2="40.4961">
      <stop
         offset="5.618000e-003"
         style="stop-color:#A3A349"
         id="stop957" />
      <stop
         offset="2.078677e-002"
         style="stop-color:#ACAC54"
         id="stop959" />
      <stop
         offset="6.600059e-002"
         style="stop-color:#C1C172"
         id="stop961" />
      <stop
         offset="0.1148"
         style="stop-color:#D4D68E"
         id="stop963" />
      <stop
         offset="0.1677"
         style="stop-color:#E2E4A6"
         id="stop965" />
      <stop
         offset="0.2265"
         style="stop-color:#EDF0B8"
         id="stop967" />
      <stop
         offset="0.2963"
         style="stop-color:#F3F6C3"
         id="stop969" />
      <stop
         offset="0.4045"
         style="stop-color:#F5F8C7"
         id="stop971" />
      <stop
         offset="0.5239"
         style="stop-color:#EEF0BE"
         id="stop973" />
      <stop
         offset="0.6666"
         style="stop-color:#DBDDA9"
         id="stop975" />
      <stop
         offset="0.8211"
         style="stop-color:#BEBD88"
         id="stop977" />
      <stop
         offset="0.9832"
         style="stop-color:#989564"
         id="stop979" />
      <stop
         offset="1"
         style="stop-color:#949160"
         id="stop981" />
    </linearGradient>
    <linearGradient
       id="aigrd9"
       gradientUnits="userSpaceOnUse"
       x1="18.9951"
       y1="37.2266"
       x2="30.1699"
       y2="37.2266">
      <stop
         offset="5.618000e-003"
         style="stop-color:#A3A349"
         id="stop988" />
      <stop
         offset="2.078677e-002"
         style="stop-color:#ACAC54"
         id="stop990" />
      <stop
         offset="6.600059e-002"
         style="stop-color:#C1C172"
         id="stop992" />
      <stop
         offset="0.1148"
         style="stop-color:#D4D68E"
         id="stop994" />
      <stop
         offset="0.1677"
         style="stop-color:#E2E4A6"
         id="stop996" />
      <stop
         offset="0.2265"
         style="stop-color:#EDF0B8"
         id="stop998" />
      <stop
         offset="0.2963"
         style="stop-color:#F3F6C3"
         id="stop1000" />
      <stop
         offset="0.4045"
         style="stop-color:#F5F8C7"
         id="stop1002" />
      <stop
         offset="0.5239"
         style="stop-color:#EEF0BE"
         id="stop1004" />
      <stop
         offset="0.6666"
         style="stop-color:#DBDDA9"
         id="stop1006" />
      <stop
         offset="0.8211"
         style="stop-color:#BEBD88"
         id="stop1008" />
      <stop
         offset="0.9832"
         style="stop-color:#989564"
         id="stop1010" />
      <stop
         offset="1"
         style="stop-color:#949160"
         id="stop1012" />
    </linearGradient>
    <linearGradient
       id="aigrd10"
       gradientUnits="userSpaceOnUse"
       x1="18.9951"
       y1="33.9561"
       x2="30.1699"
       y2="33.9561">
      <stop
         offset="5.618000e-003"
         style="stop-color:#A3A349"
         id="stop1019" />
      <stop
         offset="2.078677e-002"
         style="stop-color:#ACAC54"
         id="stop1021" />
      <stop
         offset="6.600059e-002"
         style="stop-color:#C1C172"
         id="stop1023" />
      <stop
         offset="0.1148"
         style="stop-color:#D4D68E"
         id="stop1025" />
      <stop
         offset="0.1677"
         style="stop-color:#E2E4A6"
         id="stop1027" />
      <stop
         offset="0.2265"
         style="stop-color:#EDF0B8"
         id="stop1029" />
      <stop
         offset="0.2963"
         style="stop-color:#F3F6C3"
         id="stop1031" />
      <stop
         offset="0.4045"
         style="stop-color:#F5F8C7"
         id="stop1033" />
      <stop
         offset="0.5239"
         style="stop-color:#EEF0BE"
         id="stop1035" />
      <stop
         offset="0.6666"
         style="stop-color:#DBDDA9"
         id="stop1037" />
      <stop
         offset="0.8211"
         style="stop-color:#BEBD88"
         id="stop1039" />
      <stop
         offset="0.9832"
         style="stop-color:#989564"
         id="stop1041" />
      <stop
         offset="1"
         style="stop-color:#949160"
         id="stop1043" />
    </linearGradient>
    <linearGradient
       id="aigrd11"
       gradientUnits="userSpaceOnUse"
       x1="18.0376"
       y1="22.9609"
       x2="22.7676"
       y2="22.9609">
      <stop
         offset="0"
         style="stop-color:#FFFFFF"
         id="stop1050" />
      <stop
         offset="1"
         style="stop-color:#F1F53D"
         id="stop1052" />
    </linearGradient>
    <radialGradient
       xlink:href="#aigrd7"
       id="radialGradient949"
       cx="28.258156"
       cy="20.762548"
       r="22.709299"
       fx="29.247314"
       fy="21.104069"
       gradientUnits="userSpaceOnUse" />
  </defs>
  <sodipodi:namedview
     id="base"
     pagecolor="#ffffff"
     bordercolor="#666666"
     borderopacity="1.0"
     inkscape:pageopacity="0.0"
     inkscape:pageshadow="2"
     inkscape:zoom="16.017442"
     inkscape:cx="23.393104"
     inkscape:cy="9.9310342"
     inkscape:window-width="1150"
     inkscape:window-height="752"
     showgrid="false"
     snaptogrid="false"
     gridspacingx="1.0000000mm"
     gridspacingy="1.0000000mm"
     inkscape:window-x="0"
     inkscape:window-y="29" />
  <path
     style="fill:#b7b7b7;fill-opacity:0.82307690;stroke:#bfbdbf;stroke-opacity:0.79230767;stroke-width:0.62500000;stroke-dasharray:none;"
     d="M 28.559105,54.364669 L 28.559105,55.564672 C 28.559105,56.764668 29.625771,57.831338 30.825771,57.831338 C 32.025770,57.831338 33.092439,56.764668 33.092439,55.564672 L 33.092439,54.364669 L 28.559105,54.364669 z "
     id="path963" />
  <g
     id="g959"
     transform="translate(21.07078,-3.901996)">
    <path
       style="fill:#bfc2c2;stroke:#c2c2c2;stroke-width:1.0125000;fill-opacity:0.80769229;stroke-opacity:0.82307690;stroke-dasharray:none;"
       d="M 14.130673,43.860195 L 3.7306714,45.060194 C 2.5306714,45.193527 1.5973394,46.260191 1.7306724,47.593528 C 1.8640064,48.793526 2.9306714,49.726862 4.1306714,49.593528 L 14.530669,48.393525 C 15.730672,48.260191 16.664003,47.193527 16.530669,45.993524 C 16.397336,44.793526 15.330671,43.860195 14.130673,43.993529 L 14.130673,43.860195 z "
       id="path956" />
    <path
       style="fill:#bfc2c2;stroke:#c2c2c2;stroke-width:1.0125000;fill-opacity:0.80769229;stroke-opacity:0.82307690;stroke-dasharray:none;"
       d="M 14.442834,48.698670 L 4.0428318,49.898669 C 2.8428318,50.032002 1.9094998,51.098666 2.0428328,52.432003 C 2.1761668,53.632001 3.2428318,54.565337 4.4428318,54.432003 L 14.842830,53.232000 C 16.042833,53.098666 16.976164,52.032002 16.842830,50.831999 C 16.709497,49.632001 15.642832,48.698670 14.442834,48.832004 L 14.442834,48.698670 z "
       id="path957" />
    <path
       style="fill:#bfc2c2;stroke:#c2c2c2;stroke-width:1.0125000;fill-opacity:0.80769229;stroke-opacity:0.82307690;stroke-dasharray:none;"
       d="M 14.598913,53.224986 L 4.1989116,54.424985 C 2.9989116,54.558318 2.0655796,55.624982 2.1989126,56.958319 C 2.3322466,58.158317 3.3989116,59.091653 4.5989116,58.958319 L 14.998909,57.758316 C 16.198912,57.624982 17.132243,56.558318 16.998909,55.358315 C 16.865576,54.158317 15.798911,53.224986 14.598913,53.358320 L 14.598913,53.224986 z "
       id="path958" />
  </g>
  <path
     style="fill:#bfbbbb;stroke:#bbb3af;fill-opacity:0.82307690;stroke-opacity:0.80769229;stroke-width:1.3750000;stroke-dasharray:none;"
     d="M 30.344827,3.4436788 C 19.411495,3.4436788 10.478163,12.377012 10.478163,23.310344 C 10.478163,34.243676 19.411495,43.177013 30.344827,43.177013 C 41.278161,43.177013 50.211491,34.243676 50.211491,23.310344 C 50.211491,12.377012 41.278161,3.4436788 30.344827,3.4436788 L 30.344827,3.4436788 z "
     id="path950" />
  <path
     style="fill:url(#aigrd1);stroke:#000000;stroke-width:1.1396490;"
     d="M 28.041373,53.659770 L 28.041373,54.859768 C 28.041373,56.059763 29.108039,57.126433 30.308039,57.126433 C 31.508038,57.126433 32.574707,56.059763 32.574707,54.859768 L 32.574707,53.659770 L 28.041373,53.659770 z "
     id="path866" />
  <path
     style="fill:url(#aigrd2);stroke-width:5.4334998;"
     d="M 29.241373,2.5931039 C 18.308041,2.5931039 9.3747084,11.526437 9.3747084,22.459769 C 9.3747084,33.393101 18.308041,42.326438 29.241373,42.326438 C 40.174706,42.326438 49.108038,33.393101 49.108038,22.459769 C 49.108038,11.526437 40.174706,2.5931039 29.241373,2.5931039 L 29.241373,2.5931039 z "
     id="path875" />
  <path
     style="fill:url(#aigrd3);stroke-width:5.4334998;"
     d="M 34.974708,48.993101 L 24.574706,50.193099 C 23.374706,50.326432 22.441374,51.393102 22.574707,52.593100 C 22.708041,53.793103 23.774706,54.726434 24.974706,54.593100 L 35.374704,53.393102 C 36.574707,53.259769 37.508038,52.193099 37.374704,50.993101 C 37.241371,49.793103 36.174706,48.859767 34.974708,48.993101 z "
     id="path902" />
  <path
     style="fill:url(#aigrd4);stroke-width:5.4334998;"
     d="M 34.974708,44.593099 L 24.574706,45.793103 C 23.374706,45.926436 22.441374,46.993101 22.574707,48.193099 C 22.708041,49.393102 23.774706,50.326432 24.974706,50.193099 L 35.374704,48.993101 C 36.574707,48.859767 37.508038,47.793103 37.374704,46.593100 C 37.241371,45.393102 36.174706,44.459766 34.974708,44.593099 z "
     id="path913" />
  <path
     style="fill:url(#aigrd5);stroke-width:5.4334998;"
     d="M 34.974708,40.326437 L 24.574706,41.526436 C 23.374706,41.659769 22.441374,42.726433 22.574707,44.059770 C 22.708041,45.259768 23.774706,46.193104 24.974706,46.059770 L 35.374704,44.859767 C 36.574707,44.726433 37.508038,43.659769 37.374704,42.459766 C 37.241371,41.259768 36.174706,40.326437 34.974708,40.459771 L 34.974708,40.326437 z "
     id="path940" />
  <path
     style="fill:url(#aigrd1);"
     d="M 28.041373,53.884329 L 28.041373,55.084332 C 28.041373,56.284328 29.108039,57.350998 30.308039,57.350998 C 31.508038,57.350998 32.574707,56.284328 32.574707,55.084332 L 32.574707,53.884329 L 28.041373,53.884329 z "
     id="path942" />
  <path
     style="fill:url(#radialGradient949);stroke:#000000;"
     d="M 29.241373,2.5931039 C 18.308041,2.5931039 9.3747084,11.526437 9.3747084,22.459769 C 9.3747084,33.393101 18.308041,42.326438 29.241373,42.326438 C 40.174706,42.326438 49.108038,33.393101 49.108038,22.459769 C 49.108038,11.526437 40.174706,2.5931039 29.241373,2.5931039 L 29.241373,2.5931039 z "
     id="path953" />
  <path
     style="fill:url(#aigrd8);stroke:#000000;stroke-width:0.50877190;"
     d="M 34.974708,48.993101 L 24.574706,50.193099 C 23.374706,50.326432 22.441374,51.393102 22.574707,52.593100 C 22.708041,53.793103 23.774706,54.726434 24.974706,54.593100 L 35.374704,53.393102 C 36.574707,53.259769 37.508038,52.193099 37.374704,50.993101 C 37.241371,49.793103 36.174706,48.859767 34.974708,48.993101 z "
     id="path984" />
  <path
     style="fill:url(#aigrd9);stroke:#000000;stroke-width:0.50877190;"
     d="M 34.974708,44.593099 L 24.574706,45.793103 C 23.374706,45.926436 22.441374,46.993101 22.574707,48.193099 C 22.708041,49.393102 23.774706,50.326432 24.974706,50.193099 L 35.374704,48.993101 C 36.574707,48.859767 37.508038,47.793103 37.374704,46.593100 C 37.241371,45.393102 36.174706,44.459766 34.974708,44.593099 z "
     id="path1015" />
  <path
     style="fill:url(#aigrd10);stroke:#000000;stroke-width:0.50877190;"
     d="M 34.974708,40.326437 L 24.574706,41.526436 C 23.374706,41.659769 22.441374,42.726433 22.574707,44.059770 C 22.708041,45.259768 23.774706,46.193104 24.974706,46.059770 L 35.374704,44.859767 C 36.574707,44.726433 37.508038,43.659769 37.374704,42.459766 C 37.241371,41.259768 36.174706,40.326437 34.974708,40.459771 L 34.974708,40.326437 z "
     id="path1046" />
  <path
     style="fill:url(#aigrd11);"
     d="M 21.774707,20.326437 C 21.374708,20.459770 21.108041,20.859770 21.241374,21.259770 L 26.174707,36.059770 C 26.308040,36.459771 26.708040,36.726433 27.108040,36.593105 C 27.508040,36.459771 27.774706,36.059770 27.641373,35.659769 L 22.708041,20.859770 C 22.574707,20.459770 22.174707,20.193103 21.774707,20.326437 z "
     id="path1055" />
  <path
     style="fill:none;stroke:#ffffff;stroke-width:1.5049332;stroke-linecap:round;stroke-linejoin:round;"
     d="M 22.041374,20.993103 C 22.041374,20.993103 31.108041,26.326436 36.574707,20.993103"
     id="path1057" />
  <path
     style="opacity:0.35999998;fill:#f7fae2;"
     d="M 21.774707,16.593103 C 21.774707,16.593103 21.641374,16.593103 21.641374,16.593103 L 21.508041,16.593103 C 21.508041,16.593103 21.374708,16.593103 21.374708,16.593103 L 21.241374,16.593103 L 21.241374,16.593103 L 21.108041,16.593103 L 20.974708,16.593103 L 20.708041,16.726436 C 20.708041,16.726436 20.574708,16.859770 20.574708,16.859770 C 20.574708,16.859770 20.441374,16.993103 20.441374,16.993103 L 20.441374,16.993103 L 20.308041,16.993103 L 19.908041,17.259770 C 19.908041,17.259770 19.908041,17.259770 19.774708,17.393103 C 19.774708,17.393103 19.508041,17.526437 19.508041,17.526437 L 19.108040,17.793104 L 18.974707,17.926437 C 18.974707,17.926437 18.974707,17.926437 18.841374,18.059770 C 18.841374,18.059770 18.574707,18.326437 18.574707,18.326437 C 18.574707,18.326437 18.574707,18.326437 18.441374,18.459770 C 18.441374,18.459770 18.308041,18.593104 18.308041,18.593104 L 18.308041,18.593104 L 18.174707,18.726437 L 18.041374,18.859770 L 18.041374,18.993104 L 18.041374,19.126437 L 18.041374,19.126437 L 18.041374,19.259770 L 18.041374,19.393103 L 18.174707,19.259770 L 18.041374,19.793103 L 18.041374,19.793103 L 18.041374,19.926437 L 18.041374,19.926437 L 18.041374,20.059770 L 18.041374,20.059770 L 18.041374,20.326437 L 18.041374,20.326437 L 18.041374,20.459770 L 18.041374,20.459770 L 18.041374,20.726436 L 18.041374,20.726436 L 18.041374,20.859770 L 18.041374,21.126436 L 18.041374,21.126436 L 18.041374,21.259770 L 18.041374,21.259770 L 18.041374,21.393103 L 18.041374,21.393103 L 18.041374,21.526436 L 18.041374,21.526436 L 18.041374,21.659770 C 18.041374,21.659770 18.041374,21.526436 18.041374,21.526436 L 18.041374,21.659770 L 18.041374,21.793103 L 18.041374,21.926436 L 18.041374,22.059770 L 22.974707,36.859766 C 23.774706,39.126434 26.174707,40.459771 28.441373,39.659769 C 29.508039,39.259767 30.441372,38.459771 30.974708,37.526435 C 31.241375,36.859766 31.508038,36.193104 31.508038,35.526435 C 31.508038,35.126434 31.374704,34.593104 31.241375,34.193103 C 31.241375,34.193103 30.041372,30.593105 28.974706,27.526436 C 33.241370,27.926436 36.974708,26.726436 39.774705,23.926437 C 40.574708,23.126436 41.108037,22.059770 41.108037,20.859770 C 41.108037,19.659770 40.708041,18.593104 39.774705,17.793104 C 38.841375,16.993103 37.908039,16.459770 36.708041,16.459770 C 35.508037,16.459770 34.441373,16.859770 33.641371,17.793104 L 33.641371,17.793104 C 30.841372,20.593103 24.441373,17.126436 24.441373,17.126436 L 22.308041,15.926437 C 22.308041,15.926437 22.041374,16.326437 21.908041,16.593103 L 21.774707,16.593103 z M 23.774706,16.993103 L 23.774706,16.993103 C 23.774706,16.993103 23.774706,16.993103 23.774706,16.993103 C 23.774706,16.993103 23.774706,16.993103 23.774706,16.993103 z "
     id="path1059" />
  <path
     style="fill:#000000;fill-opacity:0.26016259;"
     d="M 36.974708,20.459770 C 36.708041,20.193103 36.174706,20.193103 35.908038,20.459770 C 30.974708,25.393103 22.441374,20.459770 22.308041,20.326437 C 22.308041,20.326437 22.308041,20.326437 22.308041,20.326437 C 22.308041,20.326437 22.308041,20.326437 22.308041,20.326437 C 22.308041,20.326437 22.308041,20.326437 22.308041,20.326437 C 22.308041,20.326437 22.308041,20.326437 22.308041,20.326437 C 22.308041,20.326437 22.308041,20.326437 22.308041,20.326437 C 22.308041,20.326437 22.308041,20.326437 22.308041,20.326437 C 22.308041,20.326437 22.308041,20.326437 22.308041,20.326437 C 22.308041,20.326437 22.308041,20.326437 22.308041,20.326437 C 22.308041,20.326437 22.308041,20.326437 22.308041,20.326437 C 22.308041,20.326437 22.308041,20.326437 22.308041,20.326437 C 22.308041,20.326437 22.308041,20.326437 22.308041,20.326437 C 22.308041,20.326437 22.308041,20.326437 22.308041,20.326437 C 22.308041,20.326437 22.308041,20.326437 22.308041,20.326437 C 22.308041,20.326437 22.308041,20.326437 22.308041,20.326437 C 22.308041,20.326437 22.308041,20.326437 22.308041,20.326437 C 22.308041,20.326437 22.308041,20.326437 22.308041,20.326437 C 22.308041,20.326437 22.308041,20.326437 22.308041,20.326437 C 22.308041,20.326437 22.308041,20.326437 22.308041,20.326437 C 22.308041,20.326437 22.308041,20.326437 22.308041,20.326437 C 22.308041,20.326437 22.308041,20.326437 22.308041,20.326437 C 22.308041,20.326437 22.308041,20.326437 22.308041,20.326437 C 22.308041,20.326437 22.308041,20.326437 22.308041,20.326437 C 22.308041,20.326437 22.308041,20.326437 22.308041,20.326437 C 22.308041,20.326437 22.308041,20.326437 22.308041,20.326437 C 22.308041,20.326437 22.308041,20.326437 22.308041,20.326437 C 22.308041,20.326437 22.308041,20.326437 22.308041,20.326437 C 22.308041,20.326437 22.308041,20.326437 22.308041,20.326437 C 22.308041,20.326437 22.308041,20.326437 22.308041,20.326437 C 22.308041,20.326437 22.308041,20.326437 22.308041,20.326437 C 22.308041,20.326437 22.308041,20.326437 22.308041,20.326437 C 22.308041,20.326437 22.308041,20.326437 22.308041,20.326437 C 22.308041,20.326437 22.308041,20.326437 22.308041,20.326437 C 22.308041,20.326437 22.308041,20.326437 22.308041,20.326437 C 22.308041,20.326437 22.308041,20.326437 22.308041,20.326437 C 22.308041,20.326437 22.308041,20.326437 22.308041,20.326437 C 22.308041,20.326437 22.308041,20.326437 22.308041,20.326437 C 22.308041,20.326437 22.308041,20.326437 22.308041,20.326437 C 22.308041,20.326437 22.308041,20.326437 22.308041,20.326437 C 22.308041,20.326437 22.308041,20.326437 22.308041,20.326437 C 22.308041,20.326437 22.308041,20.326437 22.308041,20.326437 C 22.308041,20.326437 22.308041,20.326437 22.308041,20.326437 C 22.308041,20.326437 22.308041,20.326437 22.308041,20.326437 C 22.308041,20.326437 22.308041,20.326437 22.308041,20.326437 C 22.308041,20.326437 22.308041,20.326437 22.308041,20.326437 C 22.308041,20.326437 22.308041,20.326437 22.308041,20.326437 C 22.308041,20.326437 22.308041,20.326437 22.308041,20.326437 C 22.308041,20.326437 22.308041,20.326437 22.308041,20.326437 C 22.308041,20.326437 22.308041,20.326437 22.308041,20.326437 C 22.308041,20.326437 22.308041,20.326437 22.308041,20.326437 C 22.308041,20.326437 22.308041,20.326437 22.308041,20.326437 C 22.308041,20.326437 22.308041,20.326437 22.308041,20.326437 C 22.308041,20.326437 22.308041,20.326437 22.308041,20.326437 L 27.241373,35.126434 C 27.374706,35.526435 27.774706,35.793103 28.174706,35.659769 C 28.574706,35.526435 28.841373,35.126434 28.708039,34.726438 L 24.441373,21.659770 C 25.374707,22.059770 26.708040,22.593103 28.174706,22.993103 C 32.308040,23.926437 35.774705,23.126436 38.174707,20.726436 C 38.441374,20.459770 38.441374,19.926437 38.174707,19.659770 L 36.974708,20.459770 z "
     id="path1061" />
  <path
     style="opacity:0.46000001;"
     d="M 35.508037,49.126435 L 25.108040,50.326432 C 25.108040,50.326432 36.574707,48.993101 37.508038,47.126435 C 37.508038,47.126435 37.241371,48.993101 35.508037,49.126435 z "
     id="path1063" />
  <path
     style="opacity:0.81000000;"
     d="M 24.574706,50.059765 L 34.974708,48.859767 C 34.974708,48.859767 23.508040,50.193099 22.574707,52.059765 C 22.574707,52.059765 22.841374,50.193099 24.574706,50.059765 z "
     id="path1065" />
  <path
     style="opacity:0.81000000;"
     d="M 24.574706,45.793103 L 34.974708,44.593099 C 34.974708,44.593099 23.508040,45.926436 22.574707,47.793103 C 22.574707,47.793103 22.841374,45.926436 24.574706,45.793103 z "
     id="path1067" />
  <path
     style="opacity:0.81000000;"
     d="M 24.574706,41.393102 L 34.974708,40.193103 C 34.974708,40.193103 23.508040,41.526436 22.574707,43.393102 C 22.574707,43.393102 22.841374,41.526436 24.574706,41.393102 z "
     id="path1069" />
  <path
     style="opacity:0.46000001;"
     d="M 35.508037,44.726433 L 24.974706,45.793103 C 24.974706,45.793103 36.441373,44.459766 37.374704,42.593099 C 37.374704,42.593099 37.108037,44.459766 35.374704,44.593099 L 35.508037,44.726433 z "
     id="path1071" />
  <path
     style="opacity:0.46000001;"
     d="M 35.508037,53.393102 L 25.108040,54.593100 C 25.108040,54.593100 36.574707,53.259769 37.508038,51.393102 C 37.508038,51.393102 37.241371,53.259769 35.508037,53.393102 z "
     id="path1073" />
  <g
     id="Layer_x0020_2"
     style="stroke:#000000;"
     transform="matrix(1.333333,0.000000,0.000000,1.333333,-2.758629,-2.206895)">
    <linearGradient
       id="aigrd12"
       gradientUnits="userSpaceOnUse"
       x1="-73.2363"
       y1="-37.9189"
       x2="-73.2363"
       y2="-1.6937"
       gradientTransform="matrix(0.843 -0.843 0.7071 0.7071 104.3129 -24.8984)">
      <stop
         offset="0"
         style="stop-color:#FFFFFF"
         id="stop1080" />
      <stop
         offset="1"
         style="stop-color:#FFFFFF"
         id="stop1082" />
    </linearGradient>
    <path
       style="opacity:0.5;fill:url(#aigrd12);stroke:none;"
       d="M28,7.9c3.3,3.3-11,17.7-14.3,14.3c-3.3-3.3-2.8-9.2,1.2-13.2c4-4,9.9-4.5,13.2-1.2z"
       id="path1085" />
    <path
       style="fill:none;stroke:none;"
       d="M48,48H0V0h48v48z"
       id="path1087" />
  </g>
</svg>
