<?xml version="1.0" encoding="UTF-8" standalone="no"?>
<!DOCTYPE svg PUBLIC "-//W3C//DTD SVG 20010904//EN"
"http://www.w3.org/TR/2001/REC-SVG-20010904/DTD/svg10.dtd">
<!-- Generator: Adobe Illustrator 9.0, SVG Export Plug-In  -->
<svg
   width="48.000000pt"
   height="48.000000pt"
   viewBox="0 0 24 24"
   xml:space="preserve"
   id="svg1"
   sodipodi:version="0.32"
   inkscape:version="0.38.1"
   sodipodi:docname="stock_ok.svg"
   sodipodi:docbase="/usr/share/icons/Suede/scalable/stock"
   xmlns="http://www.w3.org/2000/svg"
   xmlns:inkscape="http://www.inkscape.org/namespaces/inkscape"
   xmlns:sodipodi="http://sodipodi.sourceforge.net/DTD/sodipodi-0.dtd"
   xmlns:xml="http://www.w3.org/XML/1998/namespace"
   xmlns:xlink="http://www.w3.org/1999/xlink">

  



  



  


	
		
		
		
		
		
		
		
	
	



















<path
   style="fill:#d8d8d4;fill-rule:evenodd;stroke:#ccccd0;stroke-width:0.84937501;stroke-opacity:0.83076924;fill-opacity:0.78461540;"
   d="M 11.963646,5.4651252 L 11.963646,18.112634 C 19.477604,18.743176 19.845420,9.6809622 19.845420,5.4651252 L 11.963646,5.4651252 z "
   id="path857"
   sodipodi:nodetypes="cccc" />


  



  



  


	
		
		
		
		
		
		
		
	
	<g
   id="g861"
   style="stroke:#000000;"
   transform="matrix(-0.682862,0.000000,0.000000,0.682862,16.92647,6.603713)">
		<path
   style="fill:none;stroke:none;"
   d="M24,24H0V0h24v24z"
   id="path863" />






	</g>







<path
   style="fill:#d8d8d8;fill-rule:evenodd;stroke:#d2d0d0;stroke-width:0.86731720;fill-opacity:0.83076924;stroke-opacity:0.83076924;"
   d="M 18.540924,7.9737342 C 16.841674,13.154842 11.437991,11.715261 9.2658344,11.694399 L 9.2658344,7.7630222 L 1.7865994,14.781957 L 9.2658344,21.851637 L 9.2658344,18.134528 L 12.944865,18.109014"
   id="path868"
   sodipodi:nodetypes="ccccccc" />













<path
   style="fill:#3f6687;fill-rule:evenodd;stroke:#000000;stroke-width:0.84937501;"
   d="M 11.349754,4.7895455 L 11.349754,17.437054 C 18.863712,18.067596 19.231528,9.0053817 19.231528,4.7895455 L 11.349754,4.7895455 z "
   id="path869"
   sodipodi:nodetypes="cccc" />
<defs
   id="defs38">
  <radialGradient
   id="aigrd1"
   cx="8.7339"
   cy="7.9097"
   r="13.5742"
   fx="8.7339"
   fy="7.9097"
   gradientUnits="userSpaceOnUse">
			<stop
   offset="0.0000000"
   style="stop-color:#abc2d9;stop-opacity:0.44705883;"
   id="stop9" />






			
			<stop
   offset="1.0000000"
   style="stop-color:#3f6687;stop-opacity:1.0000000;"
   id="stop13" />






		</radialGradient>





  <radialGradient
   id="aigrd2"
   cx="7.3892"
   cy="8.1001"
   r="12.1101"
   fx="7.3892"
   fy="8.1001"
   gradientUnits="userSpaceOnUse">
			<stop
   offset="0"
   style="stop-color:#FFFFFF"
   id="stop24" />






			<stop
   offset="1"
   style="stop-color:#F0E1BD"
   id="stop26" />






		</radialGradient>





  <linearGradient
   xlink:href="#aigrd1"
   id="linearGradient890" />





</defs>
<sodipodi:namedview
   id="base"
   pagecolor="#ffffff"
   bordercolor="#666666"
   borderopacity="1.0"
   inkscape:pageopacity="0.0"
   inkscape:pageshadow="2"
   inkscape:zoom="4.7578125"
   inkscape:cx="50.679803"
   inkscape:cy="30.371100"
   inkscape:window-width="1142"
   inkscape:window-height="752"
   showguides="true"
   snaptoguides="true"
   inkscape:window-x="0"
   inkscape:window-y="29" />
<g
   id="Layer_x0020_3"
   style="stroke:#000000;"
   transform="matrix(-0.682862,0.000000,0.000000,0.682862,16.31257,5.928135)">
		<path
   style="fill:none;stroke:none;"
   d="M24,24H0V0h24v24z"
   id="path34" />






	</g>
<path
   style="fill:#abc2d9;fill-rule:evenodd;stroke:#000000;stroke-width:0.0000000;"
   d="M 11.743842,5.2807879 L 11.743842,11.349753 L 15.054187,11.349753 L 15.054187,5.2807879 L 11.743842,5.2807879 z "
   id="path871" />
<path
   style="fill:#3f6687;fill-rule:evenodd;stroke:#000000;stroke-width:1.2701207;"
   d="M -2.3642584,2.0062897 C 0.12416548,9.5936331 8.0374533,7.4854748 11.218413,7.4549240 L 11.218413,1.6977183 L 22.171190,11.976420 L 11.218413,22.329434 L 11.218413,16.886008 L 5.8307490,16.848644"
   id="path887"
   sodipodi:nodetypes="ccccccc"
   transform="matrix(-0.682862,0.000000,0.000000,0.682862,16.31257,5.928135)" />
<path
   style="fill:#abc2d9;fill-rule:evenodd;stroke:#000000;stroke-width:0.0000000;"
   d="M 1.8490349,14.044456 L 14.165878,14.228589 C 15.032873,14.092497 16.669124,14.538451 18.027947,10.982875 C 18.856583,8.6083787 18.897239,6.6412479 18.403119,7.7089981 C 17.082659,10.483575 15.702823,10.957916 14.244696,11.520412 L 8.1506759,11.466590 L 8.2044969,8.2211247 L 1.8490349,14.044456 z "
   id="path892"
   sodipodi:nodetypes="ccsscccc" />
</svg>
