<?xml version="1.0" encoding="UTF-8" standalone="no"?>
<!DOCTYPE svg PUBLIC "-//W3C//DTD SVG 20010904//EN"
"http://www.w3.org/TR/2001/REC-SVG-20010904/DTD/svg10.dtd">
<!-- Created with Inkscape (http://www.inkscape.org/) -->
<svg
   id="svg921"
   sodipodi:version="0.32"
   inkscape:version="0.38.1"
   width="48.000000pt"
   height="48.000000pt"
   sodipodi:docbase="/usr/share/icons/Suede/scalable/stock"
   sodipodi:docname="stock_contact.svg"
   xmlns="http://www.w3.org/2000/svg"
   xmlns:cc="http://web.resource.org/cc/"
   xmlns:inkscape="http://www.inkscape.org/namespaces/inkscape"
   xmlns:sodipodi="http://sodipodi.sourceforge.net/DTD/sodipodi-0.dtd"
   xmlns:rdf="http://www.w3.org/1999/02/22-rdf-syntax-ns#"
   xmlns:dc="http://purl.org/dc/elements/1.1/"
   xmlns:xlink="http://www.w3.org/1999/xlink">
  <defs
     id="defs923">
    <linearGradient
       id="linearGradient617">
      <stop
         style="stop-color:#ffffff;stop-opacity:1.0000000;"
         offset="0.0000000"
         id="stop618" />
      <stop
         style="stop-color:#2f8c2f;stop-opacity:1.0000000;"
         offset="1.0000000"
         id="stop619" />
    </linearGradient>
    <linearGradient
       id="linearGradient7230">
      <stop
         style="stop-color:#fafafa;stop-opacity:1.0000000;"
         offset="0.0000000"
         id="stop7231" />
      <stop
         style="stop-color:#dcd8d4;stop-opacity:1.0000000;"
         offset="1.0000000"
         id="stop7232" />
    </linearGradient>
    <linearGradient
       id="linearGradient912">
      <stop
         style="stop-color:#85a7ca;stop-opacity:1.0000000;"
         offset="0.0000000"
         id="stop914" />
      <stop
         style="stop-color:#586f87;stop-opacity:1.0000000;"
         offset="1.0000000"
         id="stop916" />
    </linearGradient>
    <linearGradient
       xlink:href="#linearGradient617"
       id="linearGradient687"
       x1="0.34306568"
       y1="0.041666668"
       x2="0.43065694"
       y2="1.0416666" />
    <linearGradient
       xlink:href="#linearGradient7230"
       id="linearGradient612"
       x1="0.22374429"
       y1="0.097222224"
       x2="1.1461188"
       y2="1.4722222" />
    <linearGradient
       id="linearGradient891">
      <stop
         style="stop-color:#ffd04f;stop-opacity:1.0000000;"
         offset="0.0000000"
         id="stop893" />
      <stop
         style="stop-color:#d57f20;stop-opacity:1.0000000;"
         offset="1.0000000"
         id="stop895" />
    </linearGradient>
    <radialGradient
       xlink:href="#linearGradient912"
       id="radialGradient610"
       cx="0.11698113"
       cy="0.10240964"
       r="0.75023246"
       fx="0.11698113"
       fy="0.10240964" />
    <linearGradient
       id="linearGradient960">
      <stop
         style="stop-color:#93c3d8;stop-opacity:1.0000000;"
         offset="0.0000000"
         id="stop962" />
      <stop
         style="stop-color:#002f5b;stop-opacity:1.0000000;"
         offset="1.0000000"
         id="stop964" />
    </linearGradient>
    <linearGradient
       xlink:href="#linearGradient960"
       id="linearGradient626"
       x1="0.56538463"
       y1="0.22656250"
       x2="0.35769230"
       y2="0.85937500" />
    <defs
       id="defs3" />
    <sodipodi:namedview
       id="namedview941"
       pagecolor="#ffffff"
       bordercolor="#666666"
       borderopacity="1.0"
       inkscape:pageopacity="0.0"
       inkscape:pageshadow="2"
       inkscape:zoom="14.321029"
       inkscape:cx="273.35699"
       inkscape:cy="474.49476"
       inkscape:window-width="1139"
       inkscape:window-height="749"
       inkscape:window-x="0"
       inkscape:window-y="29" />
    <metadata
       id="metadata4">
      <rdf:RDF
         id="RDF5">
        <cc:Work
           rdf:about=""
           id="Work6">
          <dc:format
             id="format7">image/svg+xml</dc:format>
          <dc:type
             id="type9"
             rdf:resource="http://purl.org/dc/dcmitype/StillImage" />
        </cc:Work>
      </rdf:RDF>
    </metadata>
    <radialGradient
       inkscape:collect="always"
       xlink:href="#linearGradient891"
       id="radialGradient11703"
       cx="0.0079484181"
       cy="0.035650626"
       r="0.67887592"
       fx="0.0079484181"
       fy="0.035650626" />
  </defs>
  <sodipodi:namedview
     id="base"
     pagecolor="#ffffff"
     bordercolor="#666666"
     borderopacity="1.0"
     inkscape:pageopacity="0.0"
     inkscape:pageshadow="2"
     inkscape:zoom="3.3391154"
     inkscape:cx="66.259945"
     inkscape:cy="-15.849619"
     inkscape:window-width="1150"
     inkscape:window-height="784"
     inkscape:window-x="0"
     inkscape:window-y="27"
     showguides="false"
     snaptoguides="false"
     showgrid="false"
     snaptogrid="false">
    <sodipodi:guide
       orientation="horizontal"
       position="56.452078"
       id="guide872" />
  </sodipodi:namedview>
  <metadata
     id="metadata35">
    <rdf:RDF
       id="RDF36">
      <cc:Work
         rdf:about=""
         id="Work37">
        <dc:format
           id="format38">image/svg+xml</dc:format>
        <dc:type
           id="type40"
           rdf:resource="http://purl.org/dc/dcmitype/StillImage" />
      </cc:Work>
    </rdf:RDF>
  </metadata>
  <rect
     style="fill:none;fill-opacity:0.69230771;fill-rule:evenodd;stroke:#b5b5b0;stroke-width:1.2038597;stroke-linecap:round;stroke-linejoin:round;stroke-dashoffset:0.0000000;"
     id="rect906"
     width="55.085078"
     height="36.252573"
     x="3.4121100"
     y="12.890858"
     rx="0.73518148" />
  <rect
     style="fill:url(#linearGradient612);fill-opacity:0.75000000;fill-rule:evenodd;stroke:#000000;stroke-width:0.74410468;stroke-linecap:round;stroke-linejoin:round;"
     id="rect869"
     width="55.085078"
     height="36.252573"
     x="2.6423897"
     y="12.117295"
     rx="0.36759074"
     ry="0.36759074" />
  <rect
     style="fill:url(#linearGradient687);fill-opacity:0.75000000;fill-rule:evenodd;stroke:#000000;stroke-width:0.53403354pt;stroke-linecap:round;stroke-linejoin:round;"
     id="rect879"
     width="20.618179"
     height="22.588903"
     x="6.0417630"
     y="15.708338" />
  <path
     style="fill:url(#radialGradient610);fill-rule:evenodd;stroke:#000000;stroke-width:0.87834892pt;stroke-linecap:round;stroke-linejoin:round;"
     d="M 26.445622,38.090386 C 23.940304,33.436655 16.912310,30.198896 16.520002,30.152126 C 16.127671,30.105366 9.1151283,33.385510 6.6098095,38.039241 L 26.445622,38.090386 z "
     id="path3446"
     sodipodi:nodetypes="cccc" />
  <path
     style="fill:#ffffff;fill-rule:evenodd;stroke:#000000;stroke-width:0.30273592;"
     d="M 11.998721,32.440134 C 12.559385,33.701357 12.264289,32.379212 15.838402,37.090910 C 16.288609,37.986896 17.611647,37.283074 20.073071,33.255594 L 11.998721,32.440134 z "
     id="path3447"
     sodipodi:nodetypes="cccc" />
  <path
     sodipodi:type="arc"
     style="fill:url(#radialGradient11703);fill-rule:evenodd;stroke:#000000;stroke-width:1.0000000pt;"
     id="path3448"
     sodipodi:cx="319.70236"
     sodipodi:cy="448.71805"
     sodipodi:rx="8.4229412"
     sodipodi:ry="10.787276"
     d="M 328.12530 448.71805 A 8.4229412 10.787276 0 1 0 311.27942,448.71805 A 8.4229412 10.787276 0 1 0 328.12530 448.71805 z"
     transform="matrix(0.788714,0.000000,0.000000,0.758759,-235.7693,-314.2404)" />
  <path
     sodipodi:type="arc"
     style="fill-rule:evenodd;stroke:#000000;stroke-width:1.0000000pt;"
     id="path3449"
     sodipodi:cx="319.62848"
     sodipodi:cy="443.91547"
     sodipodi:rx="5.9847217"
     sodipodi:ry="2.8815327"
     d="M 325.61320 443.91547 A 5.9847217 2.8815327 0 1 0 313.64376,443.91547 A 5.9847217 2.8815327 0 1 0 325.61320 443.91547 z"
     transform="matrix(0.728143,0.000000,0.000000,0.723410,-216.3140,-301.2931)" />
  <path
     style="fill-rule:evenodd;stroke:#000000;stroke-width:1.0126974pt;"
     d="M 11.417531,22.313777 C 11.554732,22.313777 10.056123,24.508777 9.9438598,28.308452 C 9.3544640,27.279605 9.4409876,23.815234 9.9365767,22.615617 C 10.586862,21.041546 12.593088,18.741314 12.304942,19.349833 L 11.417531,21.819916 L 11.417531,22.313777 z "
     id="path3450"
     sodipodi:nodetypes="cccccc" />
  <path
     style="fill-rule:evenodd;stroke:#000000;stroke-width:0.61631055pt;"
     d="M 11.945494,22.765435 C 13.510887,23.314131 14.939079,23.451307 16.504472,23.451307 C 18.069865,23.451307 19.909663,23.314131 21.475056,22.902609 C 21.475056,22.491086 21.048581,20.021950 20.764265,20.021950 C 20.479948,20.021950 17.494624,18.924555 17.494624,18.924555 L 11.808292,20.844996 L 11.945494,22.765435 z "
     id="path3453" />
  <path
     style="fill-rule:evenodd;stroke:#000000;stroke-width:1.0126974pt;"
     d="M 21.334600,22.374444 C 21.197397,22.374444 22.696006,24.569444 22.808271,28.369118 C 23.397666,27.340273 23.311142,23.875900 22.815553,22.676285 C 22.165268,21.102213 21.591849,20.234498 20.777836,19.630888 L 21.334600,21.880584 L 21.334600,22.374444 z "
     id="path3454" />
  <path
     style="font-size:12.000000;stroke-width:1.0000000pt;font-family:Nimbus Roman No9 L;"
     d="M 46.615853,25.022993 C 46.529113,25.094427 46.467883,25.119940 46.391347,25.119940 C 46.273990,25.119940 46.238272,25.048505 46.238272,24.823999 L 46.238272,23.829024 C 46.238272,23.563698 46.212760,23.415728 46.136225,23.293269 C 46.023969,23.109581 45.804566,23.012636 45.503523,23.012636 C 45.023895,23.012636 44.646313,23.262654 44.646313,23.584107 C 44.646313,23.701463 44.748363,23.803512 44.865717,23.803512 C 44.988176,23.803512 45.095328,23.701463 45.095328,23.589210 C 45.095328,23.568801 45.090227,23.543288 45.085124,23.507571 C 45.074917,23.461649 45.069814,23.420829 45.069814,23.385112 C 45.069814,23.247347 45.233095,23.135094 45.437192,23.135094 C 45.687209,23.135094 45.824974,23.283064 45.824974,23.558596 L 45.824974,23.869844 C 45.039201,24.186194 44.952461,24.227014 44.733057,24.420906 C 44.620802,24.522956 44.549368,24.696437 44.549368,24.864818 C 44.549368,25.186271 44.773874,25.410778 45.085124,25.410778 C 45.309631,25.410778 45.518830,25.303627 45.830077,25.038301 C 45.855591,25.303627 45.947434,25.410778 46.156633,25.410778 C 46.330118,25.410778 46.437267,25.349549 46.615853,25.155657 L 46.615853,25.022993 z M 45.824974,24.732154 C 45.824974,24.890330 45.799464,24.936252 45.692311,24.997482 C 45.569856,25.068915 45.426988,25.114838 45.319835,25.114838 C 45.141248,25.114838 44.998381,24.941354 44.998381,24.721950 L 44.998381,24.701540 C 44.998381,24.400497 45.207579,24.216809 45.824974,23.992302 L 45.824974,24.732154 z M 43.544188,23.252450 L 43.544188,24.854613 C 43.544188,25.176066 43.477857,25.262808 43.222737,25.283218 L 43.222737,25.359754 L 44.284041,25.359754 L 44.284041,25.283218 C 44.034021,25.257705 43.972791,25.196476 43.972791,24.946457 L 43.972791,23.476957 C 43.972791,23.226937 44.034021,23.165708 44.284041,23.140197 L 44.284041,23.063660 L 42.345118,23.063660 L 42.345118,23.140197 C 42.600240,23.160606 42.666573,23.247347 42.666573,23.568801 L 42.666573,24.252526 C 42.666573,24.573979 42.574726,25.104632 42.391041,25.104632 C 42.253275,25.104632 42.212455,24.971969 42.074688,24.977071 C 41.947127,24.982174 41.906310,25.084222 41.906310,25.196476 C 41.906310,25.359754 42.084893,25.405675 42.243067,25.405675 C 42.518598,25.405675 42.926793,25.135247 42.926793,24.232117 L 42.926793,23.252450 L 43.544188,23.252450 z M 40.559266,23.012636 C 39.895949,23.012636 39.431630,23.502468 39.431630,24.206605 C 39.431630,24.895432 39.906156,25.410778 40.549062,25.410778 C 41.191967,25.410778 41.681800,24.869921 41.681800,24.165785 C 41.681800,23.497367 41.212380,23.012636 40.559266,23.012636 z M 40.492935,23.155503 C 40.921538,23.155503 41.222584,23.645337 41.222584,24.344370 C 41.222584,24.920945 40.992972,25.267910 40.610292,25.267910 C 40.411297,25.267910 40.222505,25.145452 40.115356,24.941354 C 39.972489,24.676028 39.890846,24.318858 39.890846,23.956585 C 39.890846,23.471854 40.130663,23.155503 40.492935,23.155503 z M 37.579446,23.405523 C 37.579446,23.226937 37.655982,23.155503 37.860079,23.145298 L 37.962128,23.140197 L 37.962128,23.063660 L 36.768158,23.063660 L 36.768158,23.140197 C 37.135534,23.201425 37.150842,23.216733 37.150842,23.482059 L 37.150842,24.941354 C 37.150842,25.206681 37.135534,25.221988 36.768158,25.283218 L 36.768158,25.359754 L 37.962128,25.359754 L 37.962128,25.283218 L 37.860079,25.278115 C 37.655982,25.267910 37.579446,25.196476 37.579446,25.017891 L 37.579446,24.216809 C 37.671290,24.216809 37.803953,24.196400 37.890695,24.339267 L 38.528500,25.359754 L 39.232635,25.359754 L 39.232635,25.283218 C 39.008129,25.267910 38.987716,25.257705 38.834645,25.074018 C 38.559113,24.696437 38.400939,24.186194 37.977438,24.109658 C 38.222352,24.017814 38.309093,23.349396 38.462169,23.349396 C 38.594832,23.349396 38.564216,23.482059 38.722390,23.482059 C 38.834645,23.482059 38.946899,23.420829 38.946899,23.288167 C 38.946899,23.094275 38.824441,23.012636 38.640751,23.012636 C 38.329505,23.012636 38.252969,23.288167 38.176429,23.563698 C 38.110097,23.808615 37.936616,24.073941 37.727417,24.073941 L 37.579446,24.073941 L 37.579446,23.405523 z M 34.829236,24.660721 L 34.829236,23.476957 C 34.829236,23.226937 34.890464,23.165708 35.140484,23.140197 L 35.140484,23.063660 L 34.079177,23.063660 L 34.079177,23.140197 C 34.334299,23.160606 34.400630,23.247347 34.400630,23.568801 L 34.400630,24.854613 C 34.400630,25.176066 34.334299,25.262808 34.079177,25.283218 L 34.079177,25.359754 L 35.140484,25.359754 L 35.140484,25.283218 C 34.875157,25.252603 34.829236,25.186271 34.829236,24.946457 L 35.875233,23.798410 L 35.875233,24.854613 C 35.875233,25.176066 35.808902,25.262808 35.553780,25.283218 L 35.553780,25.359754 L 36.615086,25.359754 L 36.615086,25.283218 C 36.365067,25.257705 36.303837,25.196476 36.303837,24.946457 L 36.303837,23.476957 C 36.303837,23.226937 36.365067,23.165708 36.615086,23.140197 L 36.615086,23.063660 L 35.553780,23.063660 L 35.553780,23.140197 C 35.865028,23.150401 35.875233,23.369806 35.875233,23.512673 L 34.829236,24.660721 z M 31.385093,23.527981 L 31.385093,22.538109 C 31.385093,22.170734 31.441220,22.114607 31.834107,22.078890 L 31.834107,21.981944 L 30.415631,21.981944 L 30.415631,22.078890 C 30.808519,22.114607 30.864645,22.170734 30.864645,22.538109 L 30.864645,24.747462 C 30.864645,25.176066 30.813621,25.237296 30.415631,25.262808 L 30.415631,25.359754 L 31.834107,25.359754 L 31.834107,25.262808 C 31.451425,25.232193 31.385093,25.165861 31.385093,24.803588 L 31.385093,23.752488 L 32.931130,23.752488 L 32.931130,24.747462 C 32.931130,25.176066 32.880105,25.237296 32.482116,25.262808 L 32.482116,25.359754 L 33.900593,25.359754 L 33.900593,25.262808 C 33.517909,25.232193 33.451578,25.165861 33.451578,24.803588 L 33.451578,22.538109 C 33.451578,22.170734 33.507705,22.114607 33.900593,22.078890 L 33.900593,21.981944 L 32.482116,21.981944 L 32.482116,22.078890 C 32.875003,22.114607 32.931130,22.170734 32.931130,22.538109 L 32.931130,23.527981 L 31.385093,23.527981 z "
     id="path945" />
  <path
     style="font-size:12.000000;stroke-width:1.0000000pt;font-family:Nimbus Roman No9 L;"
     d="M 52.852453,30.055518 C 52.765713,30.126953 52.704483,30.152465 52.627946,30.152465 C 52.510589,30.152465 52.474875,30.081031 52.474875,29.856523 L 52.474875,28.861549 C 52.474875,28.596223 52.449360,28.448252 52.372824,28.325794 C 52.260573,28.142106 52.041166,28.045160 51.740123,28.045160 C 51.260494,28.045160 50.882916,28.295178 50.882916,28.616632 C 50.882916,28.733988 50.984963,28.836037 51.102320,28.836037 C 51.224779,28.836037 51.331928,28.733988 51.331928,28.621734 C 51.331928,28.601325 51.326827,28.575812 51.321724,28.540095 C 51.311520,28.494173 51.306417,28.453354 51.306417,28.417637 C 51.306417,28.279872 51.469694,28.167619 51.673792,28.167619 C 51.923812,28.167619 52.061577,28.315589 52.061577,28.591120 L 52.061577,28.902368 C 51.275801,29.218719 51.189060,29.259538 50.969656,29.453431 C 50.857402,29.555480 50.785968,29.728962 50.785968,29.897342 C 50.785968,30.218796 51.010474,30.443304 51.321724,30.443304 C 51.546231,30.443304 51.755429,30.336152 52.066680,30.070826 C 52.092191,30.336152 52.184034,30.443304 52.393237,30.443304 C 52.566718,30.443304 52.673870,30.382074 52.852453,30.188181 L 52.852453,30.055518 z M 52.061577,29.764680 C 52.061577,29.922855 52.036063,29.968776 51.928914,30.030006 C 51.806455,30.101440 51.663588,30.147362 51.556435,30.147362 C 51.377851,30.147362 51.234983,29.973879 51.234983,29.754475 L 51.234983,29.734065 C 51.234983,29.433022 51.444184,29.249333 52.061577,29.024827 L 52.061577,29.764680 z M 50.520641,30.315743 C 50.265522,30.295332 50.199190,30.208591 50.199190,29.887137 L 50.199190,28.601325 C 50.199190,28.279872 50.265522,28.193130 50.520641,28.172721 L 50.520641,28.096185 L 49.459336,28.096185 L 49.459336,28.172721 C 49.709354,28.198233 49.770583,28.259462 49.770583,28.509481 L 49.770583,30.203489 L 48.877657,30.203489 L 48.877657,28.601325 C 48.877657,28.279872 48.943990,28.193130 49.199112,28.172721 L 49.199112,28.096185 L 48.137807,28.096185 L 48.137807,28.172721 C 48.387825,28.198233 48.449054,28.259462 48.449054,28.509481 L 48.449054,29.978981 C 48.449054,30.229001 48.387825,30.290230 48.137807,30.315743 L 48.137807,30.392279 L 49.867531,30.392279 C 50.224701,30.392279 50.398186,30.836191 50.444104,31.208668 L 50.535951,31.208668 L 50.520641,30.315743 z M 46.198880,29.693245 L 46.198880,28.509481 C 46.198880,28.259462 46.260110,28.198233 46.510130,28.172721 L 46.510130,28.096185 L 45.448826,28.096185 L 45.448826,28.172721 C 45.703945,28.193130 45.770277,28.279872 45.770277,28.601325 L 45.770277,29.887137 C 45.770277,30.208591 45.703945,30.295332 45.448826,30.315743 L 45.448826,30.392279 L 46.510130,30.392279 L 46.510130,30.315743 C 46.244803,30.285128 46.198880,30.218796 46.198880,29.978981 L 47.244882,28.830934 L 47.244882,29.887137 C 47.244882,30.208591 47.178550,30.295332 46.923428,30.315743 L 46.923428,30.392279 L 47.984732,30.392279 L 47.984732,30.315743 C 47.734715,30.290230 47.673485,30.229001 47.673485,29.978981 L 47.673485,28.509481 C 47.673485,28.259462 47.734715,28.198233 47.984732,28.172721 L 47.984732,28.096185 L 46.923428,28.096185 L 46.923428,28.172721 C 47.234677,28.182925 47.244882,28.402330 47.244882,28.545198 L 46.198880,29.693245 z M 42.866994,28.387023 C 42.912917,28.381920 42.948632,28.381920 42.994555,28.381920 C 43.168039,28.381920 43.203755,28.432945 43.203755,28.672759 L 43.203755,31.060697 C 43.203755,31.326023 43.147627,31.382151 42.846585,31.412765 L 42.846585,31.499507 L 44.081374,31.499507 L 44.081374,31.407662 C 43.698689,31.402560 43.632358,31.346434 43.632358,31.024980 L 43.632358,30.223898 C 43.810945,30.392279 43.933403,30.443304 44.147706,30.443304 C 44.749790,30.443304 45.219214,29.871831 45.219214,29.131977 C 45.219214,28.499276 44.862044,28.045160 44.367110,28.045160 C 44.081374,28.045160 43.856864,28.172721 43.632358,28.448252 L 43.632358,28.055365 L 43.601745,28.045160 C 43.326214,28.152311 43.147627,28.218642 42.866994,28.305384 L 42.866994,28.387023 z M 43.632358,28.688067 C 43.632358,28.534993 43.918093,28.351306 44.152807,28.351306 C 44.530386,28.351306 44.780406,28.739090 44.780406,29.330972 C 44.780406,29.897342 44.530386,30.280026 44.163013,30.280026 C 43.923196,30.280026 43.632358,30.096337 43.632358,29.943265 L 43.632358,28.688067 z M 42.693513,28.096185 L 42.004685,28.096185 L 42.004685,28.172721 C 42.167961,28.172721 42.249599,28.218642 42.249599,28.300281 C 42.249599,28.320691 42.244497,28.351306 42.229191,28.387023 L 41.734256,29.795294 L 41.147474,28.504378 C 41.116861,28.432945 41.096448,28.366613 41.096448,28.310486 C 41.096448,28.218642 41.172988,28.182925 41.392392,28.172721 L 41.392392,28.096185 L 40.341288,28.096185 L 40.341288,28.167619 C 40.473952,28.188028 40.560696,28.244155 40.601513,28.330896 L 41.183193,29.586094 L 41.198499,29.626914 L 41.275035,29.779987 C 41.417903,30.035109 41.499542,30.218796 41.499542,30.295332 C 41.499542,30.371869 41.382188,30.693322 41.295444,30.846395 C 41.224011,30.979058 41.111759,31.076005 41.040325,31.076005 C 41.009708,31.076005 40.963785,31.065800 40.912764,31.040288 C 40.815816,31.004570 40.729075,30.984161 40.642335,30.984161 C 40.524978,30.984161 40.422931,31.086209 40.422931,31.208668 C 40.422931,31.377048 40.586208,31.504609 40.800509,31.504609 C 41.142372,31.504609 41.387291,31.218873 41.662822,30.484123 L 42.448594,28.402330 C 42.514926,28.239052 42.571054,28.188028 42.693513,28.172721 L 42.693513,28.096185 z M 37.968659,30.392279 L 39.162627,30.392279 L 39.162627,30.315743 L 39.060581,30.310640 C 38.856484,30.300435 38.779947,30.229001 38.779947,30.050415 L 38.779947,29.249333 C 38.871789,29.249333 38.902402,29.228924 38.989146,29.371792 L 39.499388,30.392279 L 40.203523,30.392279 L 40.203523,30.315743 C 39.979017,30.300435 39.958609,30.290230 39.805536,30.106542 C 39.530005,29.728962 39.499388,29.218719 39.075887,29.142183 C 39.320806,29.050338 39.407546,28.381920 39.560618,28.381920 C 39.693281,28.381920 39.662668,28.514584 39.820843,28.514584 C 39.933094,28.514584 40.045349,28.453354 40.045349,28.320691 C 40.045349,28.126799 39.922890,28.045160 39.739205,28.045160 C 39.427954,28.045160 39.351418,28.320691 39.274883,28.596223 C 39.203449,28.841139 39.035066,29.106466 38.825866,29.106466 L 38.779947,29.106466 L 38.779947,28.438047 C 38.779947,28.259462 38.856484,28.188028 39.060581,28.177823 L 39.162627,28.172721 L 39.162627,28.096185 L 37.968659,28.096185 L 37.968659,28.172721 L 38.070706,28.177823 C 38.274803,28.188028 38.351340,28.259462 38.351340,28.438047 L 38.351340,29.106466 L 38.305420,29.106466 C 38.096221,29.106466 37.927838,28.841139 37.856406,28.596223 C 37.779869,28.320691 37.703333,28.045160 37.392084,28.045160 C 37.208396,28.045160 37.085938,28.126799 37.085938,28.320691 C 37.085938,28.453354 37.198191,28.514584 37.310446,28.514584 C 37.468621,28.514584 37.438006,28.381920 37.570669,28.381920 C 37.723742,28.381920 37.810484,29.050338 38.055399,29.142183 C 37.631898,29.218719 37.601284,29.728962 37.325752,30.106542 C 37.172680,30.290230 37.152270,30.300435 36.927763,30.315743 L 36.927763,30.392279 L 37.631898,30.392279 L 38.142140,29.371792 C 38.228885,29.228924 38.259498,29.249333 38.351340,29.249333 L 38.351340,30.050415 C 38.351340,30.229001 38.274803,30.300435 38.070706,30.310640 L 37.968659,30.315743 L 37.968659,30.392279 z M 34.993941,29.693245 L 34.993941,28.509481 C 34.993941,28.259462 35.055170,28.198233 35.305189,28.172721 L 35.305189,28.096185 L 34.243884,28.096185 L 34.243884,28.172721 C 34.499005,28.193130 34.565336,28.279872 34.565336,28.601325 L 34.565336,29.887137 C 34.565336,30.208591 34.499005,30.295332 34.243884,30.315743 L 34.243884,30.392279 L 35.305189,30.392279 L 35.305189,30.315743 C 35.039863,30.285128 34.993941,30.218796 34.993941,29.978981 L 36.039940,28.830934 L 36.039940,29.887137 C 36.039940,30.208591 35.973608,30.295332 35.718487,30.315743 L 35.718487,30.392279 L 36.779792,30.392279 L 36.779792,30.315743 C 36.529773,30.290230 36.468544,30.229001 36.468544,29.978981 L 36.468544,28.509481 C 36.468544,28.259462 36.529773,28.198233 36.779792,28.172721 L 36.779792,28.096185 L 35.718487,28.096185 L 35.718487,28.172721 C 36.029735,28.182925 36.039940,28.402330 36.039940,28.545198 L 34.993941,29.693245 z M 34.065298,27.014469 L 30.580337,27.014469 L 30.580337,27.111414 C 30.973224,27.147132 31.029351,27.203259 31.029351,27.570634 L 31.029351,29.779987 C 31.029351,30.208591 30.978327,30.269820 30.580337,30.295332 L 30.580337,30.392279 L 31.998813,30.392279 L 31.998813,30.295332 C 31.616131,30.264718 31.549799,30.198387 31.549799,29.836114 L 31.549799,27.238975 L 33.095837,27.238975 L 33.095837,29.779987 C 33.095837,30.208591 33.044812,30.269820 32.646822,30.295332 L 32.646822,30.392279 L 34.065298,30.392279 L 34.065298,30.295332 C 33.682616,30.264718 33.616285,30.198387 33.616285,29.836114 L 33.616285,27.570634 C 33.616285,27.203259 33.672411,27.147132 34.065298,27.111414 L 34.065298,27.014469 z "
     id="path946" />
  <rect
     style="fill:#000000;fill-opacity:1.0000000;fill-rule:evenodd;stroke:none;stroke-width:1.0000000pt;"
     id="rect871"
     width="1.5917490"
     height="2.7059728"
     x="8.4678535"
     y="41.436423" />
  <rect
     style="fill:#000000;fill-opacity:1.0000000;fill-rule:evenodd;stroke:none;stroke-width:1.0000000pt;"
     id="rect873"
     width="0.47752438"
     height="2.7059728"
     x="10.775891"
     y="41.436423" />
  <rect
     style="fill:#000000;fill-opacity:1.0000000;fill-rule:evenodd;stroke:none;stroke-width:1.0000000pt;"
     id="rect874"
     width="0.47752438"
     height="2.7059728"
     x="12.128877"
     y="41.436423" />
  <rect
     style="fill:#000000;fill-opacity:1.0000000;fill-rule:evenodd;stroke:none;stroke-width:1.0000000pt;"
     id="rect875"
     width="0.47752438"
     height="2.7059728"
     x="13.561452"
     y="41.436423" />
  <rect
     style="fill:#000000;fill-opacity:1.0000000;fill-rule:evenodd;stroke:none;stroke-width:1.0000000pt;"
     id="rect876"
     width="1.5917490"
     height="2.7059728"
     x="14.954232"
     y="41.436423" />
  <rect
     style="fill:#000000;fill-opacity:1.0000000;fill-rule:evenodd;stroke:none;stroke-width:1.0000000pt;"
     id="rect877"
     width="0.47752438"
     height="2.7059728"
     x="17.262266"
     y="41.436423" />
  <rect
     style="fill:#000000;fill-opacity:1.0000000;fill-rule:evenodd;stroke:none;stroke-width:1.0000000pt;"
     id="rect878"
     width="1.5917490"
     height="2.7059728"
     x="20.207003"
     y="41.436423" />
  <rect
     style="fill:#000000;fill-opacity:1.0000000;fill-rule:evenodd;stroke:none;stroke-width:1.0000000pt;"
     id="rect880"
     width="0.47752438"
     height="2.7059728"
     x="22.515037"
     y="41.436423" />
  <rect
     style="fill:#000000;fill-opacity:1.0000000;fill-rule:evenodd;stroke:none;stroke-width:1.0000000pt;"
     id="rect881"
     width="0.47752438"
     height="2.7059728"
     x="18.655047"
     y="41.436423" />
  <rect
     style="fill:#000000;fill-opacity:1.0000000;fill-rule:evenodd;stroke:none;stroke-width:1.0000000pt;"
     id="rect882"
     width="1.5917490"
     height="2.7059728"
     x="23.987407"
     y="41.436423" />
  <rect
     style="fill:#000000;fill-opacity:1.0000000;fill-rule:evenodd;stroke:none;stroke-width:1.0000000pt;"
     id="rect883"
     width="1.5917490"
     height="2.7059728"
     x="26.375029"
     y="41.436423" />
  <rect
     style="fill:#000000;fill-opacity:1.0000000;fill-rule:evenodd;stroke:none;stroke-width:1.0000000pt;"
     id="rect884"
     width="1.5917490"
     height="2.7059728"
     x="28.921832"
     y="41.436423" />
  <rect
     style="fill:#000000;fill-opacity:1.0000000;fill-rule:evenodd;stroke:none;stroke-width:1.0000000pt;"
     id="rect885"
     width="0.47752438"
     height="2.7059728"
     x="31.269659"
     y="41.436423" />
  <rect
     style="fill:#000000;fill-opacity:1.0000000;fill-rule:evenodd;stroke:none;stroke-width:1.0000000pt;"
     id="rect886"
     width="0.47752438"
     height="2.7059728"
     x="32.622648"
     y="41.436423" />
  <rect
     style="fill:#000000;fill-opacity:1.0000000;fill-rule:evenodd;stroke:none;stroke-width:1.0000000pt;"
     id="rect887"
     width="0.47752438"
     height="2.7059728"
     x="34.055223"
     y="41.436423" />
  <rect
     style="fill:#000000;fill-opacity:1.0000000;fill-rule:evenodd;stroke:none;stroke-width:1.0000000pt;"
     id="rect888"
     width="0.47752438"
     height="2.7059728"
     x="35.865833"
     y="41.436423" />
  <rect
     style="fill:#000000;fill-opacity:1.0000000;fill-rule:evenodd;stroke:none;stroke-width:1.0000000pt;"
     id="rect889"
     width="1.5917490"
     height="2.7059728"
     x="37.258611"
     y="41.436423" />
  <rect
     style="fill:#000000;fill-opacity:1.0000000;fill-rule:evenodd;stroke:none;stroke-width:1.0000000pt;"
     id="rect890"
     width="0.47752438"
     height="2.7059728"
     x="39.705928"
     y="41.436423" />
  <rect
     style="fill:#000000;fill-opacity:1.0000000;fill-rule:evenodd;stroke:none;stroke-width:1.0000000pt;"
     id="rect891"
     width="0.47752438"
     height="2.7059728"
     x="41.058919"
     y="41.436423" />
  <rect
     style="fill:#000000;fill-opacity:1.0000000;fill-rule:evenodd;stroke:none;stroke-width:1.0000000pt;"
     id="rect892"
     width="0.47752438"
     height="2.7059728"
     x="42.491488"
     y="41.436423" />
  <rect
     style="fill:#000000;fill-opacity:1.0000000;fill-rule:evenodd;stroke:none;stroke-width:1.0000000pt;"
     id="rect893"
     width="1.5917490"
     height="2.7059728"
     x="46.431070"
     y="41.436423" />
  <rect
     style="fill:#000000;fill-opacity:1.0000000;fill-rule:evenodd;stroke:none;stroke-width:1.0000000pt;"
     id="rect894"
     width="0.47752438"
     height="2.7059728"
     x="48.739100"
     y="41.436423" />
  <rect
     style="fill:#000000;fill-opacity:1.0000000;fill-rule:evenodd;stroke:none;stroke-width:1.0000000pt;"
     id="rect895"
     width="0.47752438"
     height="2.7059728"
     x="50.092091"
     y="41.436423" />
  <rect
     style="fill:#000000;fill-opacity:1.0000000;fill-rule:evenodd;stroke:none;stroke-width:1.0000000pt;"
     id="rect896"
     width="0.47752438"
     height="2.7059728"
     x="44.600554"
     y="41.436423" />
  <rect
     style="fill:#000000;fill-opacity:1.0000000;fill-rule:evenodd;stroke:none;stroke-width:1.0000000pt;"
     id="rect897"
     width="1.5917490"
     height="2.7059728"
     x="51.365487"
     y="41.436423" />
</svg>
