<?xml version="1.0" encoding="UTF-8" standalone="no"?>
<!DOCTYPE svg PUBLIC "-//W3C//DTD SVG 20010904//EN"
"http://www.w3.org/TR/2001/REC-SVG-20010904/DTD/svg10.dtd">
<!-- Created with Inkscape (http://www.inkscape.org/) -->
<svg
   id="svg1"
   sodipodi:version="0.32"
   inkscape:version="0.38.1"
   width="48.000000pt"
   height="48.000000pt"
   sodipodi:docbase="/usr/share/icons/Suede/scalable/stock"
   sodipodi:docname="stock_indent.svg"
   xmlns="http://www.w3.org/2000/svg"
   xmlns:inkscape="http://www.inkscape.org/namespaces/inkscape"
   xmlns:sodipodi="http://sodipodi.sourceforge.net/DTD/sodipodi-0.dtd"
   xmlns:xlink="http://www.w3.org/1999/xlink">
  <defs
     id="defs3">
    <linearGradient
       id="linearGradient566">
      <stop
         style="stop-color:#ffff00;stop-opacity:1.0000000;"
         offset="0.0000000"
         id="stop567" />
      <stop
         style="stop-color:#ffd800;stop-opacity:1.0000000;"
         offset="0.43829629"
         id="stop854" />
      <stop
         style="stop-color:#ffb200;stop-opacity:1.0000000;"
         offset="1.0000000"
         id="stop568" />
    </linearGradient>
    <linearGradient
       id="linearGradient860">
      <stop
         style="stop-color:#ffffff;stop-opacity:1.0000000;"
         offset="0.0000000"
         id="stop861" />
      <stop
         style="stop-color:#ffea7d;stop-opacity:1.0000000;"
         offset="0.25000000"
         id="stop862" />
      <stop
         style="stop-color:#ffbf00;stop-opacity:1.0000;"
         offset="1"
         id="stop863" />
    </linearGradient>
    <linearGradient
       xlink:href="#linearGradient566"
       id="linearGradient569"
       x1="0.48750001"
       y1="0.48387095"
       x2="0.96249998"
       y2="0.48387095"
       spreadMethod="reflect" />
    <linearGradient
       xlink:href="#linearGradient566"
       id="linearGradient589"
       x1="0.44374999"
       y1="0.046875000"
       x2="0.44374999"
       y2="0.57812500"
       spreadMethod="reflect" />
    <linearGradient
       id="linearGradient849">
      <stop
         style="stop-color:#ffc900;stop-opacity:1.0000000;"
         offset="0.0000000"
         id="stop850" />
      <stop
         style="stop-color:#5d5d5c;stop-opacity:1.0000000;"
         offset="1.0000000"
         id="stop851" />
    </linearGradient>
    <linearGradient
       id="linearGradient843">
      <stop
         style="stop-color:#ffffff;stop-opacity:1.0000000;"
         offset="0.0000000"
         id="stop844" />
      <stop
         style="stop-color:#5c5d5c;stop-opacity:1.0000000;"
         offset="1.0000000"
         id="stop845" />
    </linearGradient>
    <linearGradient
       id="linearGradient838">
      <stop
         style="stop-color:#ffd000;stop-opacity:1.0000000;"
         offset="0.0000000"
         id="stop839" />
      <stop
         style="stop-color:#5c5d5c;stop-opacity:1.0000000;"
         offset="1.0000000"
         id="stop840" />
    </linearGradient>
    <linearGradient
       xlink:href="#linearGradient838"
       id="linearGradient841"
       x1="0.35333332"
       y1="0.35135135"
       x2="0.47999999"
       y2="0.049549550" />
    <linearGradient
       xlink:href="#linearGradient843"
       id="linearGradient842"
       x1="0.80165291"
       y1="0.15765765"
       x2="0.43801653"
       y2="0.72522521" />
    <linearGradient
       xlink:href="#linearGradient849"
       id="linearGradient847"
       x1="0.53358209"
       y1="0.50450450"
       x2="0.33208954"
       y2="0.24324325" />
    <radialGradient
       xlink:href="#linearGradient566"
       id="radialGradient853"
       cx="0.32499999"
       cy="0.33021805"
       r="0.54695481"
       fx="0.32187498"
       fy="0.33021802" />
    <linearGradient
       id="linearGradient871"
       gradientUnits="userSpaceOnUse"
       x1="19.2197"
       y1="18.54"
       x2="5.3095"
       y2="6.0043">
      <stop
         offset="0"
         style="stop-color:#FFFFFF"
         id="stop872" />
      <stop
         offset="1"
         style="stop-color:#EDEDED"
         id="stop873" />
    </linearGradient>
  </defs>
  <sodipodi:namedview
     id="base"
     pagecolor="#ffffff"
     bordercolor="#666666"
     borderopacity="1.0"
     inkscape:pageopacity="0.0"
     inkscape:pageshadow="2"
     inkscape:zoom="3.8227960"
     inkscape:cx="63.999998"
     inkscape:cy="-23.074564"
     inkscape:window-width="1142"
     inkscape:window-height="745"
     showgrid="false"
     snaptogrid="false"
     gridspacingx="1.0000000mm"
     gridspacingy="1.0000000mm"
     inkscape:window-x="0"
     inkscape:window-y="29" />
  <path
     style="stroke-width:0.85680002;fill:#c6c6c6;fill-opacity:0.79230767;"
     d="M 10.984270,8.2747110 C 9.2293108,8.2747110 7.9130914,9.6543000 7.9130914,11.493752 L 7.9130914,53.341285 C 7.9130914,55.180737 9.2293108,56.560326 10.984270,56.560326 L 52.664551,56.560326 C 54.419510,56.560326 55.735730,55.180737 55.735730,53.341285 L 55.735730,11.493752 C 55.735730,9.6543000 54.419510,8.2747110 52.664551,8.2747110 L 10.984270,8.2747110 L 10.984270,8.2747110 z "
     id="path869" />
  <g
     id="Layer_x0020_4"
     style="stroke:#000000;"
     transform="matrix(2.193699,0.000000,0.000000,2.299315,2.275177,2.099473)">
    <path
       style="stroke-width:0.8568;"
       d="M2.6,1.6C1.8,1.6,1.2,2.2,1.2,3v18.2c0,0.8,0.6,1.4,1.4,1.4h19c0.8,0,1.4-0.6,1.4-1.4V3c0-0.8-0.6-1.4-1.4-1.4h-19z"
       id="path904" />
    <path
       style="fill:#FFFFFF;stroke:none;"
       d="M22.1,21.2c0,0.3-0.2,0.5-0.5,0.5h-19c-0.3,0-0.5-0.2-0.5-0.5V3c0-0.3,0.2-0.5,0.5-0.5h19c0.3,0,0.5,0.2,0.5,0.5v18.2z"
       id="path907" />
    <linearGradient
       id="aigrd1"
       gradientUnits="userSpaceOnUse"
       x1="19.2197"
       y1="18.54"
       x2="5.3095"
       y2="6.0043">
      <stop
         offset="0"
         style="stop-color:#FFFFFF"
         id="stop911" />
      <stop
         offset="1"
         style="stop-color:#EDEDED"
         id="stop913" />
    </linearGradient>
    <path
       style="fill:url(#aigrd1);stroke:none;"
       d="M2.6,2.9c-0.1,0-0.1,0-0.1,0.1v18.2c0,0.1,0,0.1,0.1,0.1h19c0.1,0,0.1,0,0.1-0.1V3c0-0.1,0-0.1-0.1-0.1h-19z"
       id="path916" />
  </g>
  <path
     style="fill:#000000;fill-opacity:0.40000001;fill-rule:evenodd;stroke:none;stroke-width:2.4340091;stroke-linecap:round;"
     d="M 15.144202,25.463880 L 38.993302,25.375284"
     id="path860" />
  <path
     style="fill:#000000;fill-opacity:0.40000001;fill-rule:evenodd;stroke:none;stroke-width:2.4340091;stroke-linecap:round;"
     d="M 27.188349,30.871600 L 55.152685,30.822443"
     id="path861" />
  <path
     style="fill:#000000;fill-opacity:0.40000001;fill-rule:evenodd;stroke:none;stroke-width:2.4340091;stroke-linecap:round;"
     d="M 27.109837,35.904001 L 42.571443,35.894283"
     id="path862" />
  <path
     style="fill:#000000;fill-opacity:0.40000001;fill-rule:evenodd;stroke:none;stroke-width:2.4340091;stroke-linecap:round;"
     d="M 15.222714,40.656033 L 43.187051,40.590806"
     id="path863" />
  <path
     style="fill:#000000;fill-opacity:0.40000001;fill-rule:evenodd;stroke:none;stroke-width:2.4340091;stroke-linecap:round;"
     d="M 15.301226,45.783391 L 30.605809,45.662648"
     id="path864" />
  <path
     style="fill:#000000;fill-opacity:0.40000001;fill-rule:evenodd;stroke:none;stroke-width:2.4340091;stroke-linecap:round;"
     d="M 15.643708,46.311883 L 43.529533,46.325526"
     id="path865" />
  <path
     style="fill:none;fill-opacity:0.75000000;fill-rule:evenodd;stroke:#000000;stroke-width:0.92349732;stroke-linecap:round;stroke-dasharray:1.8469947 1.8469947 ;stroke-dashoffset:0.0000000;"
     d="M 21.112866,16.104752 L 45.551756,16.166619"
     id="path835" />
  <path
     style="fill:none;fill-opacity:0.75000000;fill-rule:evenodd;stroke:#000000;stroke-width:0.92444497;stroke-linecap:round;stroke-dasharray:1.8488900 1.8488900 ;stroke-dashoffset:0.0000000;"
     d="M 32.857633,30.888869 L 45.606679,30.950737"
     id="path906" />
  <path
     style="fill:none;fill-opacity:0.75000000;fill-rule:evenodd;stroke:#000000;stroke-width:0.92349732;stroke-linecap:round;stroke-dasharray:1.8469947 1.8469947 ;stroke-dashoffset:0.0000000;"
     d="M 21.112866,44.822276 L 45.551756,44.884142"
     id="path909" />
  <path
     sodipodi:type="arc"
     style="fill-rule:evenodd;stroke:#000000;stroke-width:1.0000000pt;"
     id="path866"
     sodipodi:cx="33.661419"
     sodipodi:cy="37.755905"
     sodipodi:rx="5.3149605"
     sodipodi:ry="5.3149605"
     d="M 38.976379 37.755905 A 5.3149605 5.3149605 0 1 0 28.346458,37.755905 A 5.3149605 5.3149605 0 1 0 38.976379 37.755905 z"
     transform="matrix(0.337697,0.000000,0.000000,0.337697,2.982337,3.621714)" />
  <path
     sodipodi:type="arc"
     style="fill-rule:evenodd;stroke:#000000;stroke-width:1.0000000pt;"
     id="path867"
     sodipodi:cx="33.661419"
     sodipodi:cy="37.755905"
     sodipodi:rx="5.3149605"
     sodipodi:ry="5.3149605"
     d="M 38.976379 37.755905 A 5.3149605 5.3149605 0 1 0 28.346458,37.755905 A 5.3149605 5.3149605 0 1 0 38.976379 37.755905 z"
     transform="matrix(0.337697,0.000000,0.000000,0.337697,14.94797,18.35580)" />
  <path
     sodipodi:type="arc"
     style="fill-rule:evenodd;stroke:#000000;stroke-width:1.0000000pt;"
     id="path868"
     sodipodi:cx="33.661419"
     sodipodi:cy="37.755905"
     sodipodi:rx="5.3149605"
     sodipodi:ry="5.3149605"
     d="M 38.976379 37.755905 A 5.3149605 5.3149605 0 1 0 28.346458,37.755905 A 5.3149605 5.3149605 0 1 0 38.976379 37.755905 z"
     transform="matrix(0.337697,0.000000,0.000000,0.337697,2.982337,32.33924)" />
  <path
     style="fill:none;"
     d="M 32.685352,59.835269 L -19.963433,59.835269 L -19.963433,7.1864833 L 32.685352,7.1864833 L 32.685352,59.835269 z "
     id="path926" />
  <path
     style="fill:#000000;fill-opacity:0.40000001;fill-rule:evenodd;stroke:none;stroke-width:2.4340091;stroke-linecap:round;"
     d="M 115.21013,67.374463 L 143.17447,67.325306"
     id="path876" />
  <path
     style="fill:none;"
     d="M 120.70714,96.338132 L 68.058355,96.338132 L 68.058355,43.689347 L 120.70714,43.689347 L 120.70714,96.338132 z "
     id="path887" />
</svg>
