<?xml version="1.0" encoding="UTF-8" standalone="no"?>
<!DOCTYPE svg PUBLIC "-//W3C//DTD SVG 20010904//EN"
"http://www.w3.org/TR/2001/REC-SVG-20010904/DTD/svg10.dtd">
<!-- Created with Inkscape (http://www.inkscape.org/) -->
<svg
   id="svg1"
   sodipodi:version="0.32"
   inkscape:version="0.38.1"
   width="48.000000pt"
   height="48.000000pt"
   sodipodi:docbase="/usr/share/icons/Suede/scalable/stock"
   sodipodi:docname="stock_dialog_authentication.svg"
   xmlns="http://www.w3.org/2000/svg"
   xmlns:inkscape="http://www.inkscape.org/namespaces/inkscape"
   xmlns:sodipodi="http://sodipodi.sourceforge.net/DTD/sodipodi-0.dtd"
   xmlns:xlink="http://www.w3.org/1999/xlink">
  <defs
     id="defs3">
    <linearGradient
       id="linearGradient839">
      <stop
         style="stop-color:#dddbdb;stop-opacity:1.0000000;"
         offset="0.0000000"
         id="stop840" />
      <stop
         style="stop-color:#989595;stop-opacity:1.0000000;"
         offset="0.35151514"
         id="stop835" />
      <stop
         style="stop-color:#767272;stop-opacity:1.0000000;"
         offset="0.45674011"
         id="stop836" />
      <stop
         style="stop-color:#545050;stop-opacity:1.0000000;"
         offset="1.0000000"
         id="stop841" />
    </linearGradient>
    <linearGradient
       id="linearGradient826">
      <stop
         style="stop-color:#fff700;stop-opacity:1.0000000;"
         offset="0.0000000"
         id="stop827" />
      <stop
         style="stop-color:#ffc900;stop-opacity:1.0000000;"
         offset="1.0000000"
         id="stop828" />
    </linearGradient>
    <linearGradient
       xlink:href="#linearGradient839"
       id="linearGradient838"
       x1="0.95081967"
       y1="0.81094527"
       x2="-0.11403508"
       y2="0.80597013" />
    <linearGradient
       xlink:href="#linearGradient839"
       id="linearGradient842"
       x1="-1.5666721e-17"
       y1="0.50000000"
       x2="1.0000000"
       y2="0.50000000" />
    <linearGradient
       id="aigrd5"
       gradientUnits="userSpaceOnUse"
       x1="16.3872"
       y1="28.7354"
       x2="32.0992"
       y2="28.7354">
      <stop
         offset="0"
         style="stop-color:#F6EDC8"
         id="stop923" />
      <stop
         offset="1.444304e-002"
         style="stop-color:#F3EAC0"
         id="stop925" />
      <stop
         offset="7.716820e-002"
         style="stop-color:#E8DEA3"
         id="stop927" />
      <stop
         offset="0.1471"
         style="stop-color:#E1D48F"
         id="stop929" />
      <stop
         offset="0.2271"
         style="stop-color:#DACD81"
         id="stop931" />
      <stop
         offset="0.3259"
         style="stop-color:#D7CA78"
         id="stop933" />
      <stop
         offset="0.5"
         style="stop-color:#D6C876"
         id="stop935" />
      <stop
         offset="0.7061"
         style="stop-color:#D3C575"
         id="stop937" />
      <stop
         offset="0.7987"
         style="stop-color:#CABE70"
         id="stop939" />
      <stop
         offset="0.8686"
         style="stop-color:#BAAF67"
         id="stop941" />
      <stop
         offset="0.9271"
         style="stop-color:#A49B5C"
         id="stop943" />
      <stop
         offset="0.9779"
         style="stop-color:#8A844E"
         id="stop945" />
      <stop
         offset="1"
         style="stop-color:#7D7746"
         id="stop947" />
    </linearGradient>
    <linearGradient
       xlink:href="#aigrd5"
       id="linearGradient829"
       x1="17.585773"
       y1="34.399841"
       x2="47.051086"
       y2="34.816994"
       gradientUnits="userSpaceOnUse" />
  </defs>
  <sodipodi:namedview
     id="base"
     pagecolor="#ffffff"
     bordercolor="#666666"
     borderopacity="1.0"
     inkscape:pageopacity="0.0"
     inkscape:pageshadow="2"
     inkscape:zoom="4.7031250"
     inkscape:cx="64.000000"
     inkscape:cy="12.970100"
     inkscape:window-width="1142"
     inkscape:window-height="745"
     showgrid="true"
     snaptogrid="true"
     gridspacingx="1.0000000mm"
     gridspacingy="1.0000000mm"
     inkscape:window-x="0"
     inkscape:window-y="29"
     showguides="true"
     snaptoguides="true" />
  <g
     id="Layer_x0020_2"
     style="stroke:#000000;"
     transform="matrix(0.380859,0.000000,0.000000,0.380859,-1.782615,10.58459)">
    <path
       style="fill:none;stroke:none;"
       d="M42.5,48H0V0h42.5v48z"
       id="path892" />
  </g>
  <path
     style=""
     d="M 16.812366,19.085878 C 16.812366,19.085878 16.812366,21.577266 16.812366,23.653422 C 14.049886,23.861038 11.712403,26.352426 11.712403,29.051430 L 11.712403,51.058691 C 11.712403,54.172925 14.262384,56.456695 17.237363,56.456695 L 47.624645,56.456695 C 50.812123,56.456695 53.149606,53.965307 53.149606,51.058691 L 53.149606,28.843814 C 53.149606,26.144810 51.024619,23.861038 48.474640,23.445807 C 48.474640,21.577266 48.474640,18.878262 48.474640,18.878262 C 48.474640,10.366020 41.249689,3.3070875 32.537254,3.3070875 C 23.824816,3.3070875 16.599867,10.366020 16.599867,18.878262 L 16.812366,19.085878 z M 26.799795,19.085878 C 26.799795,15.971643 29.349776,13.272640 32.749752,13.272640 C 35.937229,13.272640 38.699709,15.764027 38.699709,19.085878 C 38.699709,19.085878 38.699709,21.577266 38.699709,23.445807 C 35.937229,23.445807 29.562276,23.445807 26.799795,23.445807 C 26.799795,21.577266 26.799795,19.085878 26.799795,19.085878 z "
     id="path897" />
  <path
     style="fill:#d2d2d2;"
     d="M 18.792099,18.577799 L 18.792099,31.664506 L 24.799113,31.664506 L 24.799113,18.577799 C 24.799113,14.072540 28.446228,10.425425 32.951487,10.425425 C 37.456746,10.425425 41.103861,14.072540 41.103861,18.577799 L 41.103861,31.664506 L 47.110874,31.664506 L 47.110874,18.577799 C 47.110874,10.854498 40.889325,4.6329483 33.166023,4.6329483 C 25.442721,4.6329483 19.221172,10.854498 19.221172,18.577799 L 18.792099,18.577799 z "
     id="path899" />
  <g
     id="g901"
     transform="matrix(2.145362,0.000000,0.000000,2.145362,-18.96627,-21.54047)"
     style="">
    <path
       style="opacity:0.5;stroke:none;"
       d="M24.6,12.6c3.3-0.1,5.9,2.3,6.1,6v6.1h-0.6V19c0-3.6-2.5-6.1-5.5-6.4z"
       id="path903" />
  </g>
  <g
     id="g906"
     transform="matrix(2.145362,0.000000,0.000000,2.145362,-18.96627,-21.54047)"
     style="">
    <path
       style="opacity:0.5;fill:#FFFFFF;stroke:none;"
       d="M24.6,12.6c1.3,0,2.6,0.4,3.6,1.1c-1.1-0.9-2.6-1.5-4.2-1.5c-3.6,0-6.5,2.9-6.5,6.5v6.1h0.6v-5.7c0-3.6,2.9-6.5,6.5-6.5z"
       id="path908" />
  </g>
  <g
     id="g911"
     transform="matrix(2.145362,0.000000,0.000000,2.145362,-18.96627,-21.54047)"
     style="">
    <path
       style="opacity:0.5;fill:#FFFFFF;stroke:none;"
       d="M28.4,24.7v-5.8c0-1.5-0.9-2.8-2.1-3.4c1,0.7,1.6,1.8,1.6,3.1v6.1h0.5z"
       id="path913" />
  </g>
  <g
     id="g916"
     transform="matrix(2.145362,0.000000,0.000000,2.145362,-18.96627,-21.54047)"
     style="">
    <path
       style="opacity:0.5;stroke:none;"
       d="M20,24.8v-5.8c0-1.5,0.9-2.8,2.1-3.4c-1,0.7-1.6,1.8-1.6,3.1v6.1H20z"
       id="path918" />
  </g>
  <path
     style="fill:url(#linearGradient829);"
     d="M 51.616133,51.401832 C 51.616133,53.332658 50.114380,55.048947 47.969018,55.048947 L 17.290346,55.048947 C 15.359521,55.048947 13.643232,53.547194 13.643232,51.401832 L 13.643232,28.660999 C 13.643232,26.730173 15.144985,25.013884 17.290346,25.013884 L 47.969018,25.013884 C 49.899844,25.013884 51.616133,26.515637 51.616133,28.660999 L 51.616133,51.401832 z "
     id="path950" />
  <path
     style="opacity:0.49999997;fill:#ffffff;"
     d="M 38.529427,36.169765 C 38.529427,33.809867 36.169529,31.449969 33.809631,31.449969 C 31.449733,31.449969 30.162517,33.809867 30.162517,36.169765 C 30.162517,37.886055 31.235197,39.387807 32.736951,40.031416 L 29.089836,46.252965 L 38.314890,46.896573 L 35.740457,40.031416 C 37.242210,39.387807 38.314890,37.886055 38.314890,36.169765 L 38.529427,36.169765 z "
     id="path952" />
  <path
     style="opacity:0.49999997;"
     d="M 37.671282,35.311620 C 37.671282,32.951722 35.525921,30.377289 32.522415,30.377289 C 30.162517,30.377289 28.446228,32.308114 28.446228,34.453476 C 28.446228,37.027909 29.733444,38.529663 31.235197,39.173271 L 29.304372,46.252965 L 36.813138,45.394820 L 34.024167,38.529663 C 35.525921,37.886055 37.671282,37.027909 37.671282,35.311620 z "
     id="path954" />
  <path
     style=""
     d="M 37.671282,35.526156 C 37.671282,33.166258 35.740457,31.449969 33.595095,31.449969 C 31.449733,31.449969 29.518908,33.380794 29.518908,35.526156 C 29.518908,37.242445 30.591589,38.744199 32.093342,39.387807 L 29.518908,46.252965 L 37.885818,46.252965 L 35.311384,39.387807 C 36.813138,38.744199 37.885818,37.242445 37.885818,35.526156 L 37.671282,35.526156 z "
     id="path956" />
  <path
     style="opacity:0.49999997;"
     d="M 17.871671,55.865571 C 17.871671,55.865571 46.834054,55.865571 48.550344,55.865571 C 50.481167,55.865571 52.197457,54.363816 52.197457,52.218458 C 52.197457,50.287630 52.197457,29.477623 52.197457,29.477623 C 52.197457,29.477623 50.052095,50.073096 49.837560,51.145774 C 49.623022,52.218458 48.764878,53.720209 47.263126,53.720209 C 45.975909,53.720209 17.871671,55.651033 17.871671,55.651033 L 17.871671,55.865571 z "
     id="path958" />
  <path
     style="opacity:0.49999997;fill:#ffffff;"
     d="M 48.737193,24.681705 C 48.737193,24.681705 19.774811,24.681705 18.058521,24.681705 C 16.127695,24.681705 14.411406,26.183458 14.411406,28.328819 C 14.411406,30.474181 14.411406,51.069653 14.411406,51.069653 C 14.411406,51.069653 16.556768,30.474181 16.771304,29.401500 C 16.985840,28.543356 17.843985,26.827066 19.345739,26.827066 C 20.632955,26.827066 48.737193,24.896241 48.737193,24.896241 L 48.737193,24.681705 z "
     id="path960" />
</svg>
