<?xml version="1.0" encoding="UTF-8" standalone="no"?>
<!DOCTYPE svg PUBLIC "-//W3C//DTD SVG 20010904//EN"
"http://www.w3.org/TR/2001/REC-SVG-20010904/DTD/svg10.dtd">
<!-- Generator: Adobe Illustrator 9.0, SVG Export Plug-In  -->
<svg
   width="48.000000pt"
   height="48.000000pt"
   viewBox="0 0 24 24"
   xml:space="preserve"
   id="svg1"
   sodipodi:version="0.32"
   inkscape:version="0.38.1"
   sodipodi:docname="stock_jump-to.svg"
   sodipodi:docbase="/usr/share/icons/Suede/scalable/stock"
   xmlns="http://www.w3.org/2000/svg"
   xmlns:inkscape="http://www.inkscape.org/namespaces/inkscape"
   xmlns:sodipodi="http://sodipodi.sourceforge.net/DTD/sodipodi-0.dtd"
   xmlns:xml="http://www.w3.org/XML/1998/namespace"
   xmlns:xlink="http://www.w3.org/1999/xlink"><path
   style="fill:#d6d6d6;fill-rule:evenodd;stroke:#d6d6d6;stroke-width:1.0599999;fill-opacity:0.80769229;stroke-opacity:0.80784315;"
   d="M 23.492712,12.940507 C 23.492712,16.318114 20.751466,19.059361 17.373858,19.059361 C 13.996250,19.059361 11.255004,16.318114 11.255004,12.940507 C 11.255004,9.5628991 13.996250,6.8216523 17.373858,6.8216523 C 20.751466,6.8216523 23.492712,9.5628991 23.492712,12.940507 z "
   id="path860" />
<path
   style="fill:#d6d6d6;fill-opacity:0.80784315;fill-rule:evenodd;stroke:#d6d6d6;stroke-width:0.95157951;stroke-opacity:0.80784315;"
   d="M 1.3520880,8.0259813 L 8.5016511,7.9573150 L 8.5016511,3.6439934 L 16.707515,11.344838 L 8.5016511,19.101357 L 8.5016511,15.023121 L 1.3520880,14.995128 L 1.3520880,8.0259813 z "
   id="path871"
   sodipodi:nodetypes="cccccccc" />
<path
   transform="matrix(0.907352,0.000000,0.000000,0.907352,-8.938329,-0.989852)"
   style="fill:#ffbf00;fill-opacity:1.0000000;fill-rule:evenodd;stroke:#000000;stroke-width:1.1682346;"
   d="M 35.390171,14.581199 C 35.390171,18.303687 32.369021,21.324838 28.646532,21.324838 C 24.924043,21.324838 21.902893,18.303687 21.902893,14.581199 C 21.902893,10.858710 24.924043,7.8375597 28.646532,7.8375597 C 32.369021,7.8375597 35.390171,10.858710 35.390171,14.581199 z "
   id="path896" />





  <defs
   id="defs38">
  <radialGradient
   id="aigrd1"
   cx="8.7339"
   cy="7.9097"
   r="13.5742"
   fx="8.7339"
   fy="7.9097"
   gradientUnits="userSpaceOnUse">
			<stop
   offset="0.0000000"
   style="stop-color:#abc2d9;stop-opacity:0.44705883;"
   id="stop9" />







			
			<stop
   offset="1.0000000"
   style="stop-color:#ff6c00;stop-opacity:1.0000000;"
   id="stop13" />







		</radialGradient>






  <radialGradient
   id="aigrd2"
   cx="7.3892"
   cy="8.1001"
   r="12.1101"
   fx="7.3892"
   fy="8.1001"
   gradientUnits="userSpaceOnUse">
			<stop
   offset="0"
   style="stop-color:#FFFFFF"
   id="stop24" />







			<stop
   offset="1"
   style="stop-color:#F0E1BD"
   id="stop26" />







		</radialGradient>






  <linearGradient
   xlink:href="#aigrd1"
   id="linearGradient890" />






<radialGradient
   xlink:href="#aigrd1"
   id="radialGradient858"
   cx="0.28671327"
   cy="0.26760566"
   r="0.50000000"
   fx="0.28671327"
   fy="0.26760566" />


</defs>





  <sodipodi:namedview
   id="base"
   pagecolor="#ffffff"
   bordercolor="#666666"
   borderopacity="1.0"
   inkscape:pageopacity="0.0"
   inkscape:pageshadow="2"
   inkscape:zoom="8.2861761"
   inkscape:cx="24.843580"
   inkscape:cy="25.999091"
   inkscape:window-width="1142"
   inkscape:window-height="752"
   showguides="true"
   snaptoguides="true"
   inkscape:window-x="0"
   inkscape:window-y="29" />





  <g
   id="g853"
   transform="matrix(0.749204,0.000000,0.000000,0.749204,-0.222930,1.671977)">


	
		
		
		
		
		
		
		
	
	<g
   id="Layer_x0020_3"
   style="fill-rule:nonzero;clip-rule:nonzero;stroke:#000000;stroke-miterlimit:4;">
		<path
   style="fill:none;stroke:none;"
   d="M24,24H0V0h24v24z"
   id="path34" />







	</g>







<path
   style="fill:#3f6687;fill-rule:evenodd;stroke:#000000;stroke-width:1.2701207;"
   d="M 1.6755340,7.5465764 L 11.218413,7.4549240 L 11.218413,1.6977183 L 22.171190,11.976420 L 11.218413,22.329434 L 11.218413,16.886008 L 1.6755340,16.848644 L 1.6755340,7.5465764 z "
   id="path887"
   sodipodi:nodetypes="cccccccc" />






<path
   style="fill:#abc2d9;fill-rule:evenodd;stroke:#000000;stroke-width:0.0000000;"
   d="M 21.180758,11.885740 L 3.1436690,12.155389 L 3.1436690,8.1894679 L 11.952480,8.1106501 L 11.873662,3.3579114 L 21.180758,11.885740 z "
   id="path892"
   sodipodi:nodetypes="cccccc" />






</g>










  




  




  


	
		
		
		
		
		
		
		
	
	<g
   id="g866"
   style="stroke:#000000;"
   transform="matrix(0.749204,0.000000,0.000000,0.749204,17.35443,-7.644627)">
		<path
   style="fill:none;stroke:none;"
   d="M24,24H0V0h24v24z"
   id="path868" />







	</g>
























</svg>
