<?xml version="1.0" encoding="UTF-8" standalone="no"?>
<!DOCTYPE svg PUBLIC "-//W3C//DTD SVG 20010904//EN"
"http://www.w3.org/TR/2001/REC-SVG-20010904/DTD/svg10.dtd">
<!-- Generator: Adobe Illustrator 9.0, SVG Export Plug-In  -->
<svg
   width="48.000000pt"
   height="48.000000pt"
   viewBox="0 0 24 24"
   xml:space="preserve"
   id="svg1"
   sodipodi:version="0.32"
   inkscape:version="0.38.1"
   sodipodi:docname="stock_sort-descending.svg"
   sodipodi:docbase="/usr/share/icons/Suede/scalable/stock"
   xmlns="http://www.w3.org/2000/svg"
   xmlns:inkscape="http://www.inkscape.org/namespaces/inkscape"
   xmlns:sodipodi="http://sodipodi.sourceforge.net/DTD/sodipodi-0.dtd"
   xmlns:xml="http://www.w3.org/XML/1998/namespace"
   xmlns:xlink="http://www.w3.org/1999/xlink"><defs
   id="defs38">
  <radialGradient
   id="aigrd1"
   cx="8.7339"
   cy="7.9097"
   r="13.5742"
   fx="8.7339"
   fy="7.9097"
   gradientUnits="userSpaceOnUse">
			<stop
   offset="0.0000000"
   style="stop-color:#abc2d9;stop-opacity:0.44705883;"
   id="stop9" />








			
			<stop
   offset="1.0000000"
   style="stop-color:#3f6687;stop-opacity:1.0000000;"
   id="stop13" />








		</radialGradient>







  <radialGradient
   id="aigrd2"
   cx="7.3892"
   cy="8.1001"
   r="12.1101"
   fx="7.3892"
   fy="8.1001"
   gradientUnits="userSpaceOnUse">
			<stop
   offset="0"
   style="stop-color:#FFFFFF"
   id="stop24" />








			<stop
   offset="1"
   style="stop-color:#F0E1BD"
   id="stop26" />








		</radialGradient>







  <linearGradient
   xlink:href="#aigrd1"
   id="linearGradient890" />







<defs
   id="defs858">
  <radialGradient
   id="radialGradient860"
   cx="8.7339"
   cy="7.9097"
   r="13.5742"
   fx="8.7339"
   fy="7.9097"
   gradientUnits="userSpaceOnUse">
			<stop
   offset="0.0000000"
   style="stop-color:#abc2d9;stop-opacity:0.44705883;"
   id="stop862" />








			
			<stop
   offset="1.0000000"
   style="stop-color:#3f6687;stop-opacity:1.0000000;"
   id="stop864" />








		</radialGradient>







  <radialGradient
   id="radialGradient867"
   cx="7.3892"
   cy="8.1001"
   r="12.1101"
   fx="7.3892"
   fy="8.1001"
   gradientUnits="userSpaceOnUse">
			<stop
   offset="0"
   style="stop-color:#FFFFFF"
   id="stop869" />








			<stop
   offset="1"
   style="stop-color:#F0E1BD"
   id="stop871" />








		</radialGradient>







  <linearGradient
   xlink:href="#aigrd1"
   id="linearGradient874" />







</defs>




<sodipodi:namedview
   id="namedview877"
   pagecolor="#ffffff"
   bordercolor="#666666"
   borderopacity="1.0"
   inkscape:pageopacity="0.0"
   inkscape:pageshadow="2"
   inkscape:zoom="80.974777"
   inkscape:cx="11.090778"
   inkscape:cy="22.125823"
   inkscape:window-width="1142"
   inkscape:window-height="752"
   showguides="true"
   snaptoguides="true"
   inkscape:window-x="0"
   inkscape:window-y="29" />




</defs>







  
  
  


	
		
		
		
		
		
		
		
	
	






















  






















  
  
  


	
		
		
		
		
		
		
		
	
	<g
   id="g886"
   style="stroke:#000000;"
   transform="matrix(0.000000,-0.577362,0.577362,0.000000,0.870703,15.65907)">
		<path
   style="fill:none;stroke:none;"
   d="M24,24H0V0h24v24z"
   id="path888" />








	</g>








<path
   style="fill:#d4d0d0;fill-rule:evenodd;stroke:#dcdcde;stroke-width:0.73331898;fill-opacity:0.84615386;stroke-opacity:0.89230770;"
   d="M 5.2602353,22.711092 L 5.1748923,9.1819821 L 1.8509033,9.1819821 L 7.7854313,2.8582681 L 13.762864,9.1819821 L 10.620039,9.1819821 L 10.598466,22.632053 L 5.2602353,22.711092 z "
   id="path891"
   sodipodi:nodetypes="cccccccc" />















  



<path
   style="font-size:12.000000;stroke-width:1.0000000pt;font-family:Bitstream Vera Sans;fill:#e0e0e0;fill-opacity:0.87692308;"
   d="M 18.097286,3.2710125 L 16.770888,6.1611498 L 19.428524,6.1611498 L 18.097286,3.2710125 z M 17.545426,2.4969383 L 18.653986,2.4969383 L 21.408440,8.3044409 L 20.391858,8.3044409 L 19.733499,6.8146397 L 16.475592,6.8146397 L 15.817236,8.3044409 L 14.786129,8.3044409 L 17.545426,2.4969383 z "
   id="path897" />



<path
   style="font-size:12.000000;stroke-width:1.0000000pt;font-family:Bitstream Vera Sans;fill:#e4e4e4;fill-opacity:0.84615386;"
   d="M 15.416674,17.222308 L 21.200105,17.222308 L 21.200105,18.011691 L 16.621005,21.794149 L 21.200105,21.794149 L 21.200105,22.484857 L 15.251246,22.484857 L 15.251246,21.695475 L 19.830345,17.913018 L 15.416674,17.913018 L 15.416674,17.222308 z "
   id="path899" />



<path
   sodipodi:type="arc"
   style="fill:#e0dcdc;fill-opacity:0.84615386;fill-rule:evenodd;stroke:#dcd8dc;stroke-width:1.0000000pt;stroke-opacity:0.89230770;"
   id="path901"
   sodipodi:cx="18.280277"
   sodipodi:cy="9.3144722"
   sodipodi:rx="0.22293021"
   sodipodi:ry="0.47372669"
   d="M 18.503207 9.3144722 A 0.22293021 0.47372669 0 1 0 18.057347,9.3144722 A 0.22293021 0.47372669 0 1 0 18.503207 9.3144722 z"
   transform="matrix(1.835267,0.000000,0.000000,0.738829,-15.37353,3.917317)" />



<path
   sodipodi:type="arc"
   style="fill:#e0dcdc;fill-opacity:0.86153847;fill-rule:evenodd;stroke:#dce0e0;stroke-width:1.0000000pt;stroke-opacity:0.87692308;"
   id="path903"
   sodipodi:cx="18.280277"
   sodipodi:cy="9.3144722"
   sodipodi:rx="0.22293021"
   sodipodi:ry="0.47372669"
   d="M 18.503207 9.3144722 A 0.22293021 0.47372669 0 1 0 18.057347,9.3144722 A 0.22293021 0.47372669 0 1 0 18.503207 9.3144722 z"
   transform="matrix(1.703185,0.000000,0.000000,0.699759,-12.93116,7.457993)" />



<sodipodi:namedview
   id="base"
   pagecolor="#ffffff"
   bordercolor="#666666"
   borderopacity="1.0"
   inkscape:pageopacity="0.0"
   inkscape:pageshadow="2"
   inkscape:zoom="4.7578125"
   inkscape:cx="64.000000"
   inkscape:cy="30.371100"
   inkscape:window-width="1150"
   inkscape:window-height="784"
   showguides="true"
   snaptoguides="true"
   inkscape:window-x="0"
   inkscape:window-y="27" />
<g
   id="Layer_x0020_3"
   style="stroke:#000000;"
   transform="matrix(0.000000,-0.577362,0.577362,0.000000,0.222931,15.03827)">
		<path
   style="fill:none;stroke:none;"
   d="M24,24H0V0h24v24z"
   id="path34" />








	</g>
<path
   style="fill:#3f6687;fill-rule:evenodd;stroke:#000000;stroke-width:0.73331898;"
   d="M 4.6124606,22.090295 L 4.5271181,8.5611844 L 1.2031283,8.5611844 L 7.1376565,2.2374704 L 13.115090,8.5611844 L 9.9722644,8.5611844 L 9.9506918,22.011256 L 4.6124606,22.090295 z "
   id="path887"
   sodipodi:nodetypes="cccccccc" />
<path
   style="fill:#abc2d9;fill-rule:evenodd;stroke:#000000;stroke-width:0.0000000;"
   d="M 7.1643405,2.6512304 L 7.3200254,21.637846 L 4.9512156,21.716886 L 4.9057092,8.1373624 L 2.1616602,8.1828684 L 7.1643405,2.6512304 z "
   id="path892"
   sodipodi:nodetypes="cccccc" />
<rect
   style="fill:#3f6687;fill-rule:evenodd;stroke:#000000;stroke-width:0.0000000;stroke-opacity:0.0000000;"
   id="rect888"
   width="1.1146368"
   height="4.6152243"
   x="-21.824829"
   y="-9.5497764"
   transform="matrix(0.000000,-1.000000,-1.000000,0.000000,0.000000,0.000000)" />
<path
   style="font-size:12.000000;stroke-width:1.0000000pt;font-family:Bitstream Vera Sans;"
   d="M 17.449512,2.6502148 L 16.123114,5.5403521 L 18.780750,5.5403521 L 17.449512,2.6502148 z M 16.897652,1.8761406 L 18.006212,1.8761406 L 20.760666,7.6836432 L 19.744084,7.6836432 L 19.085725,6.1938420 L 15.827818,6.1938420 L 15.169462,7.6836432 L 14.138355,7.6836432 L 16.897652,1.8761406 z "
   id="path946" />
<path
   style="font-size:12.000000;stroke-width:1.0000000pt;font-family:Bitstream Vera Sans;"
   d="M 14.768900,16.601511 L 20.552331,16.601511 L 20.552331,17.390894 L 15.973231,21.173352 L 20.552331,21.173352 L 20.552331,21.864060 L 14.603472,21.864060 L 14.603472,21.074678 L 19.182571,17.292221 L 14.768900,17.292221 L 14.768900,16.601511 z "
   id="path950" />
<path
   sodipodi:type="arc"
   style="fill:#ff0000;fill-opacity:0.75000000;fill-rule:evenodd;stroke:#000000;stroke-width:1.0000000pt;"
   id="path952"
   sodipodi:cx="18.280277"
   sodipodi:cy="9.3144722"
   sodipodi:rx="0.22293021"
   sodipodi:ry="0.47372669"
   d="M 18.503207 9.3144722 A 0.22293021 0.47372669 0 1 0 18.057347,9.3144722 A 0.22293021 0.47372669 0 1 0 18.503207 9.3144722 z"
   transform="matrix(1.835267,0.000000,0.000000,0.738829,-15.81112,3.716881)" />
<path
   sodipodi:type="arc"
   style="fill:#ff0000;fill-opacity:0.75000000;fill-rule:evenodd;stroke:#000000;stroke-width:1.0000000pt;"
   id="path953"
   sodipodi:cx="18.280277"
   sodipodi:cy="9.3144722"
   sodipodi:rx="0.22293021"
   sodipodi:ry="0.47372669"
   d="M 18.503207 9.3144722 A 0.22293021 0.47372669 0 1 0 18.057347,9.3144722 A 0.22293021 0.47372669 0 1 0 18.503207 9.3144722 z"
   transform="matrix(1.703185,0.000000,0.000000,0.699759,-13.36875,7.047377)" />
</svg>
