<?xml version="1.0" encoding="UTF-8" standalone="no"?>
<!DOCTYPE svg PUBLIC "-//W3C//DTD SVG 20010904//EN"
"http://www.w3.org/TR/2001/REC-SVG-20010904/DTD/svg10.dtd">
<!-- Created with Inkscape (http://www.inkscape.org/) -->
<svg
   id="svg1"
   sodipodi:version="0.32"
   inkscape:version="0.38.1"
   width="48.000000pt"
   height="48.000000pt"
   sodipodi:docbase="/usr/share/icons/Suede/scalable/stock"
   sodipodi:docname="stock_delete.svg"
   xmlns="http://www.w3.org/2000/svg"
   xmlns:inkscape="http://www.inkscape.org/namespaces/inkscape"
   xmlns:sodipodi="http://sodipodi.sourceforge.net/DTD/sodipodi-0.dtd"
   xmlns:xlink="http://www.w3.org/1999/xlink">
  <defs
     id="defs3">
    <linearGradient
       id="linearGradient848">
      <stop
         style="stop-color:#000000;stop-opacity:1.0000000;"
         offset="0.0000000"
         id="stop849" />
      <stop
         style="stop-color:#ffffff;stop-opacity:0.12171052;"
         offset="1.0000000"
         id="stop850" />
    </linearGradient>
    <linearGradient
       id="linearGradient892">
      <stop
         style="stop-color:#bab5a8;stop-opacity:1.0000000;"
         offset="0.0000000"
         id="stop893" />
      <stop
         style="stop-color:#7e7f7e;stop-opacity:1.0000000;"
         offset="1.0000000"
         id="stop894" />
    </linearGradient>
    <linearGradient
       id="linearGradient836">
      <stop
         style="stop-color:#f3f3e7;stop-opacity:1.0000000;"
         offset="0.0000000"
         id="stop837" />
      <stop
         style="stop-color:#b4b4b4;stop-opacity:1.0000000;"
         offset="1.0000000"
         id="stop838" />
    </linearGradient>
    <linearGradient
       xlink:href="#linearGradient836"
       id="linearGradient839"
       x1="-0.030437361"
       y1="0.21268429"
       x2="0.83121204"
       y2="0.84035861" />
    <linearGradient
       xlink:href="#linearGradient836"
       id="linearGradient842"
       y2="1.0176991"
       x2="2.2753623"
       y1="0.29203540"
       x1="-0.50724638" />
    <linearGradient
       xlink:href="#linearGradient836"
       id="linearGradient843"
       x1="1.3939394"
       y1="0.92477876"
       x2="-0.16363637"
       y2="-0.15929204" />
    <linearGradient
       xlink:href="#linearGradient892"
       id="linearGradient844"
       x1="0.10392610"
       y1="0.41129032"
       x2="0.69053119"
       y2="0.46774194" />
    <linearGradient
       xlink:href="#linearGradient892"
       id="linearGradient896"
       x1="0.71960300"
       y1="0.53982300"
       x2="0.16377172"
       y2="0.48230088" />
    <radialGradient
       xlink:href="#linearGradient848"
       id="radialGradient847"
       cx="0.47340518"
       cy="0.40768251"
       r="0.69920045"
       fx="0.47340518"
       fy="0.40768251" />
    <radialGradient
       id="aigrd2"
       cx="13.2129"
       cy="6.8301"
       r="8.4458"
       fx="13.2129"
       fy="6.8301"
       gradientUnits="userSpaceOnUse">
      <stop
         offset="0"
         style="stop-color:#FFFFFF"
         id="stop888" />
      <stop
         offset="1"
         style="stop-color:#F0E1BD"
         id="stop890" />
    </radialGradient>
    <radialGradient
       id="aigrd3"
       cx="8.1943"
       cy="11.7568"
       r="8.4446"
       fx="8.1943"
       fy="11.7568"
       gradientUnits="userSpaceOnUse">
      <stop
         offset="0"
         style="stop-color:#FFFFFF"
         id="stop897" />
      <stop
         offset="1"
         style="stop-color:#F0E1BD"
         id="stop899" />
    </radialGradient>
  </defs>
  <sodipodi:namedview
     id="base"
     pagecolor="#ffffff"
     bordercolor="#666666"
     borderopacity="1.0"
     inkscape:pageopacity="0.0"
     inkscape:pageshadow="2"
     inkscape:zoom="2.8046875"
     inkscape:cx="64.000000"
     inkscape:cy="-21.571031"
     inkscape:window-width="1150"
     inkscape:window-height="784"
     inkscape:window-x="0"
     inkscape:window-y="27"
     showguides="true"
     snaptoguides="true" />
  <g
     id="g857"
     transform="matrix(0.960151,0.000000,0.000000,1.029543,9.811908e-2,-4.283131)">
    <path
       style="fill:url(#radialGradient847);fill-opacity:0.75000000;fill-rule:evenodd;stroke-width:3.0000000pt;"
       d="M 59.209088,53.468102 C 56.905512,56.647808 40.232497,61.189304 29.994718,60.423668 C 19.756938,59.658033 14.941218,54.906667 17.244794,51.726961 C 19.548372,48.547256 29.726865,46.588009 39.964642,47.353644 C 50.202423,48.119280 61.512667,50.288396 59.209088,53.468102 z "
       id="path851"
       sodipodi:nodetypes="ccccc" />
    <path
       style="fill:url(#linearGradient839);fill-rule:evenodd;stroke:#000000;stroke-width:1.5498573;stroke-linejoin:round;"
       d="M 11.668184,22.725037 L 15.592996,58.051527 C 20.094540,61.016793 25.141774,65.202686 31.133485,63.542137 C 39.360445,61.407146 46.641717,57.668681 54.868678,55.533690 L 57.927545,22.270069 L 41.033960,16.473195 L 11.668184,22.725037 z "
       id="path829"
       sodipodi:nodetypes="ccccccc"
       transform="translate(-5.089638,-6.107565)" />
    <path
       style="fill:url(#linearGradient844);fill-rule:evenodd;stroke:#000000;stroke-width:1.2104648;stroke-linejoin:round;"
       d="M 6.3898680,16.727978 C 5.4600760,18.028018 21.101586,22.933776 22.460511,22.375763 C 22.627396,23.184616 51.855711,16.561258 53.023910,15.202383 C 51.664984,14.382026 36.824347,10.995362 34.607153,10.484682 C 26.000622,12.292900 14.996399,14.919759 6.3898680,16.727978 z "
       id="path830"
       sodipodi:nodetypes="ccccc" />
    <path
       style="fill:url(#linearGradient896);fill-rule:evenodd;stroke-width:0.52851999;stroke-linejoin:round;"
       d="M 39.906472,24.381844 C 44.270009,24.575435 50.790144,22.936370 54.637929,21.327316 C 52.965149,20.154982 43.178733,17.787862 40.449458,17.058071 L 39.906472,24.381844 z "
       id="path895"
       sodipodi:nodetypes="cccc"
       transform="translate(-5.089638,-6.107565)" />
    <path
       style="fill:url(#linearGradient843);fill-rule:evenodd;stroke-width:1.1276295;stroke-linejoin:round;"
       d="M 25.364279,26.595355 C 24.034545,25.210252 22.775489,30.665815 26.304956,55.713109 C 32.976919,53.635452 40.292539,51.068088 46.964500,48.990433 L 50.557767,19.669837 L 25.364279,26.595355 z "
       id="path840"
       sodipodi:nodetypes="ccccc" />
    <path
       style="fill:url(#linearGradient842);fill-rule:evenodd;stroke-width:1.1276295;stroke-linejoin:round;"
       d="M 11.889815,23.646500 C 11.108825,21.545105 15.121672,29.400840 17.194626,57.546418 C 21.113253,58.557104 21.233259,60.001468 25.151887,61.012154 L 22.741788,30.962618 L 11.889815,23.646500 z "
       id="path841"
       sodipodi:nodetypes="ccccc"
       transform="translate(-5.089638,-6.107565)" />
  </g>
  <g
     id="Layer_x0020_4"
     style="stroke:#000000;"
     transform="matrix(0.358901,0.000000,0.000000,0.358901,-4.949507,16.70753)">
    <path
       style="fill:none;stroke:none;"
       d="M24,24H0V0h24v24z"
       id="path907" />
  </g>
</svg>
